<?xml version="1.0" encoding="utf-8" standalone="no"?>
<!DOCTYPE svg PUBLIC "-//W3C//DTD SVG 1.1//EN"
  "http://www.w3.org/Graphics/SVG/1.1/DTD/svg11.dtd">
<svg height="350.123125pt" version="1.1" viewBox="0 0 791.879375 350.123125" width="791.879375pt" xmlns="http://www.w3.org/2000/svg" xmlns:xlink="http://www.w3.org/1999/xlink">
 <metadata>
  <rdf:RDF xmlns:cc="http://creativecommons.org/ns#" xmlns:dc="http://purl.org/dc/elements/1.1/" xmlns:rdf="http://www.w3.org/1999/02/22-rdf-syntax-ns#">
   <cc:Work>
    <dc:type rdf:resource="http://purl.org/dc/dcmitype/StillImage"/>
    <dc:date>2023-01-14T19:08:07.096802</dc:date>
    <dc:format>image/svg+xml</dc:format>
    <dc:creator>
     <cc:Agent>
      <dc:title>Matplotlib v3.4.2, https://matplotlib.org/</dc:title>
     </cc:Agent>
    </dc:creator>
   </cc:Work>
  </rdf:RDF>
 </metadata>
 <defs>
  <style type="text/css">*{stroke-linecap:butt;stroke-linejoin:round;}</style>
 </defs>
 <g id="figure_1">
  <g id="patch_1">
   <path d="M 0 350.123125 
L 791.879375 350.123125 
L 791.879375 0 
L 0 0 
z
" style="fill:#ffffff;"/>
  </g>
  <g id="axes_1">
   <g id="patch_2">
    <path d="M 59.279375 300 
L 784.679375 300 
L 784.679375 28.2 
L 59.279375 28.2 
z
" style="fill:#ffffff;"/>
   </g>
   <g id="matplotlib.axis_1">
    <g id="xtick_1">
     <g id="line2d_1"/>
     <g id="text_1">
      <!-- 0 -->
      <g style="fill:#262626;" transform="translate(53.766794 317.99375)scale(0.2 -0.2)">
       <defs>
        <path d="M 3309 2203 
Q 3309 1569 3189 1136 
Q 3069 703 2861 436 
Q 2653 169 2372 53 
Q 2091 -63 1772 -63 
Q 1450 -63 1172 53 
Q 894 169 689 434 
Q 484 700 367 1133 
Q 250 1566 250 2203 
Q 250 2869 367 3305 
Q 484 3741 690 4000 
Q 897 4259 1178 4364 
Q 1459 4469 1791 4469 
Q 2106 4469 2382 4364 
Q 2659 4259 2865 4000 
Q 3072 3741 3190 3305 
Q 3309 2869 3309 2203 
z
M 2738 2203 
Q 2738 2728 2675 3076 
Q 2613 3425 2491 3633 
Q 2369 3841 2192 3927 
Q 2016 4013 1791 4013 
Q 1553 4013 1372 3925 
Q 1191 3838 1067 3630 
Q 944 3422 881 3073 
Q 819 2725 819 2203 
Q 819 1697 883 1350 
Q 947 1003 1070 792 
Q 1194 581 1372 489 
Q 1550 397 1778 397 
Q 2000 397 2178 489 
Q 2356 581 2479 792 
Q 2603 1003 2670 1350 
Q 2738 1697 2738 2203 
z
" id="LiberationSans-30" transform="scale(0.015625)"/>
       </defs>
       <use xlink:href="#LiberationSans-30"/>
      </g>
     </g>
    </g>
    <g id="xtick_2">
     <g id="line2d_2"/>
     <g id="text_2">
      <!-- 200 -->
      <g style="fill:#262626;" transform="translate(139.358472 317.99375)scale(0.2 -0.2)">
       <defs>
        <path d="M 322 0 
L 322 397 
Q 481 763 711 1042 
Q 941 1322 1194 1548 
Q 1447 1775 1695 1969 
Q 1944 2163 2144 2356 
Q 2344 2550 2467 2762 
Q 2591 2975 2591 3244 
Q 2591 3431 2534 3573 
Q 2478 3716 2372 3812 
Q 2266 3909 2117 3957 
Q 1969 4006 1788 4006 
Q 1619 4006 1470 3959 
Q 1322 3913 1206 3819 
Q 1091 3725 1017 3586 
Q 944 3447 922 3263 
L 347 3316 
Q 375 3553 478 3762 
Q 581 3972 762 4130 
Q 944 4288 1198 4378 
Q 1453 4469 1788 4469 
Q 2116 4469 2372 4391 
Q 2628 4313 2804 4159 
Q 2981 4006 3075 3781 
Q 3169 3556 3169 3263 
Q 3169 3041 3089 2841 
Q 3009 2641 2876 2459 
Q 2744 2278 2569 2109 
Q 2394 1941 2203 1780 
Q 2013 1619 1819 1461 
Q 1625 1303 1454 1143 
Q 1284 984 1150 820 
Q 1016 656 941 478 
L 3238 478 
L 3238 0 
L 322 0 
z
" id="LiberationSans-32" transform="scale(0.015625)"/>
       </defs>
       <use xlink:href="#LiberationSans-32"/>
       <use x="55.615234" xlink:href="#LiberationSans-30"/>
       <use x="111.230469" xlink:href="#LiberationSans-30"/>
      </g>
     </g>
    </g>
    <g id="xtick_3">
     <g id="line2d_3"/>
     <g id="text_3">
      <!-- 400 -->
      <g style="fill:#262626;" transform="translate(236.072024 317.99375)scale(0.2 -0.2)">
       <defs>
        <path d="M 2753 997 
L 2753 0 
L 2222 0 
L 2222 997 
L 147 997 
L 147 1434 
L 2163 4403 
L 2753 4403 
L 2753 1441 
L 3372 1441 
L 3372 997 
L 2753 997 
z
M 2222 3769 
Q 2216 3753 2191 3708 
Q 2166 3663 2134 3606 
Q 2103 3550 2070 3492 
Q 2038 3434 2013 3397 
L 884 1734 
Q 869 1709 839 1668 
Q 809 1628 778 1586 
Q 747 1544 715 1503 
Q 684 1463 666 1441 
L 2222 1441 
L 2222 3769 
z
" id="LiberationSans-34" transform="scale(0.015625)"/>
       </defs>
       <use xlink:href="#LiberationSans-34"/>
       <use x="55.615234" xlink:href="#LiberationSans-30"/>
       <use x="111.230469" xlink:href="#LiberationSans-30"/>
      </g>
     </g>
    </g>
    <g id="xtick_4">
     <g id="line2d_4"/>
     <g id="text_4">
      <!-- 600 -->
      <g style="fill:#262626;" transform="translate(332.785577 317.99375)scale(0.2 -0.2)">
       <defs>
        <path d="M 3278 1441 
Q 3278 1109 3186 832 
Q 3094 556 2914 357 
Q 2734 159 2468 48 
Q 2203 -63 1856 -63 
Q 1472 -63 1184 84 
Q 897 231 706 507 
Q 516 784 420 1186 
Q 325 1588 325 2100 
Q 325 2688 433 3131 
Q 541 3575 744 3872 
Q 947 4169 1239 4319 
Q 1531 4469 1900 4469 
Q 2125 4469 2322 4422 
Q 2519 4375 2680 4270 
Q 2841 4166 2962 3994 
Q 3084 3822 3156 3572 
L 2619 3475 
Q 2531 3759 2339 3886 
Q 2147 4013 1894 4013 
Q 1663 4013 1475 3903 
Q 1288 3794 1156 3576 
Q 1025 3359 954 3031 
Q 884 2703 884 2266 
Q 1038 2550 1316 2698 
Q 1594 2847 1953 2847 
Q 2253 2847 2497 2750 
Q 2741 2653 2914 2470 
Q 3088 2288 3183 2027 
Q 3278 1766 3278 1441 
z
M 2706 1416 
Q 2706 1644 2650 1828 
Q 2594 2013 2481 2142 
Q 2369 2272 2203 2342 
Q 2038 2413 1819 2413 
Q 1666 2413 1509 2367 
Q 1353 2322 1226 2220 
Q 1100 2119 1020 1953 
Q 941 1788 941 1550 
Q 941 1306 1003 1095 
Q 1066 884 1183 728 
Q 1300 572 1465 481 
Q 1631 391 1838 391 
Q 2041 391 2202 461 
Q 2363 531 2475 664 
Q 2588 797 2647 987 
Q 2706 1178 2706 1416 
z
" id="LiberationSans-36" transform="scale(0.015625)"/>
       </defs>
       <use xlink:href="#LiberationSans-36"/>
       <use x="55.615234" xlink:href="#LiberationSans-30"/>
       <use x="111.230469" xlink:href="#LiberationSans-30"/>
      </g>
     </g>
    </g>
    <g id="xtick_5">
     <g id="line2d_5"/>
     <g id="text_5">
      <!-- 800 -->
      <g style="fill:#262626;" transform="translate(429.499129 317.99375)scale(0.2 -0.2)">
       <defs>
        <path d="M 3281 1228 
Q 3281 947 3192 711 
Q 3103 475 2920 303 
Q 2738 131 2453 34 
Q 2169 -63 1781 -63 
Q 1394 -63 1111 34 
Q 828 131 642 301 
Q 456 472 367 708 
Q 278 944 278 1222 
Q 278 1463 351 1650 
Q 425 1838 548 1973 
Q 672 2109 830 2192 
Q 988 2275 1156 2303 
L 1156 2316 
Q 972 2359 826 2456 
Q 681 2553 582 2689 
Q 484 2825 432 2990 
Q 381 3156 381 3341 
Q 381 3572 470 3776 
Q 559 3981 734 4136 
Q 909 4291 1168 4380 
Q 1428 4469 1769 4469 
Q 2128 4469 2392 4378 
Q 2656 4288 2829 4133 
Q 3003 3978 3087 3772 
Q 3172 3566 3172 3334 
Q 3172 3153 3120 2987 
Q 3069 2822 2970 2686 
Q 2872 2550 2726 2454 
Q 2581 2359 2391 2322 
L 2391 2309 
Q 2581 2278 2743 2195 
Q 2906 2113 3025 1977 
Q 3144 1841 3212 1653 
Q 3281 1466 3281 1228 
z
M 2588 3303 
Q 2588 3469 2545 3606 
Q 2503 3744 2406 3842 
Q 2309 3941 2153 3995 
Q 1997 4050 1769 4050 
Q 1547 4050 1394 3995 
Q 1241 3941 1142 3842 
Q 1044 3744 1000 3606 
Q 956 3469 956 3303 
Q 956 3172 990 3034 
Q 1025 2897 1115 2784 
Q 1206 2672 1365 2600 
Q 1525 2528 1775 2528 
Q 2041 2528 2202 2600 
Q 2363 2672 2448 2784 
Q 2534 2897 2561 3034 
Q 2588 3172 2588 3303 
z
M 2697 1281 
Q 2697 1441 2653 1589 
Q 2609 1738 2503 1852 
Q 2397 1966 2217 2036 
Q 2038 2106 1769 2106 
Q 1522 2106 1348 2036 
Q 1175 1966 1067 1850 
Q 959 1734 909 1582 
Q 859 1431 859 1269 
Q 859 1066 909 898 
Q 959 731 1068 611 
Q 1178 491 1356 425 
Q 1534 359 1788 359 
Q 2044 359 2219 425 
Q 2394 491 2500 611 
Q 2606 731 2651 901 
Q 2697 1072 2697 1281 
z
" id="LiberationSans-38" transform="scale(0.015625)"/>
       </defs>
       <use xlink:href="#LiberationSans-38"/>
       <use x="55.615234" xlink:href="#LiberationSans-30"/>
       <use x="111.230469" xlink:href="#LiberationSans-30"/>
      </g>
     </g>
    </g>
    <g id="xtick_6">
     <g id="line2d_6"/>
     <g id="text_6">
      <!-- 1000 -->
      <g style="fill:#262626;" transform="translate(520.651744 317.99375)scale(0.2 -0.2)">
       <defs>
        <path d="M 488 0 
L 488 478 
L 1609 478 
L 1609 3866 
L 616 3156 
L 616 3688 
L 1656 4403 
L 2175 4403 
L 2175 478 
L 3247 478 
L 3247 0 
L 488 0 
z
" id="LiberationSans-31" transform="scale(0.015625)"/>
       </defs>
       <use xlink:href="#LiberationSans-31"/>
       <use x="55.615234" xlink:href="#LiberationSans-30"/>
       <use x="111.230469" xlink:href="#LiberationSans-30"/>
       <use x="166.845703" xlink:href="#LiberationSans-30"/>
      </g>
     </g>
    </g>
    <g id="xtick_7">
     <g id="line2d_7"/>
     <g id="text_7">
      <!-- 1200 -->
      <g style="fill:#262626;" transform="translate(617.365296 317.99375)scale(0.2 -0.2)">
       <use xlink:href="#LiberationSans-31"/>
       <use x="55.615234" xlink:href="#LiberationSans-32"/>
       <use x="111.230469" xlink:href="#LiberationSans-30"/>
       <use x="166.845703" xlink:href="#LiberationSans-30"/>
      </g>
     </g>
    </g>
    <g id="xtick_8">
     <g id="line2d_8"/>
     <g id="text_8">
      <!-- 1400 -->
      <g style="fill:#262626;" transform="translate(714.078849 317.99375)scale(0.2 -0.2)">
       <use xlink:href="#LiberationSans-31"/>
       <use x="55.615234" xlink:href="#LiberationSans-34"/>
       <use x="111.230469" xlink:href="#LiberationSans-30"/>
       <use x="166.845703" xlink:href="#LiberationSans-30"/>
      </g>
     </g>
    </g>
    <g id="text_9">
     <!-- Epoch -->
     <g style="fill:#262626;" transform="translate(396.461563 339.188125)scale(0.18 -0.18)">
      <defs>
       <path d="M 525 0 
L 525 4403 
L 3866 4403 
L 3866 3916 
L 1122 3916 
L 1122 2503 
L 3678 2503 
L 3678 2022 
L 1122 2022 
L 1122 488 
L 3994 488 
L 3994 0 
L 525 0 
z
" id="LiberationSans-45" transform="scale(0.015625)"/>
       <path d="M 3291 1706 
Q 3291 1322 3228 997 
Q 3166 672 3020 437 
Q 2875 203 2636 70 
Q 2397 -63 2047 -63 
Q 1684 -63 1412 75 
Q 1141 213 997 525 
L 981 525 
Q 984 519 986 469 
Q 988 419 989 344 
Q 991 269 992 176 
Q 994 84 994 -6 
L 994 -1328 
L 431 -1328 
L 431 2691 
Q 431 2813 429 2925 
Q 428 3038 425 3130 
Q 422 3222 419 3287 
Q 416 3353 413 3381 
L 956 3381 
Q 959 3372 964 3315 
Q 969 3259 973 3179 
Q 978 3100 983 3009 
Q 988 2919 988 2838 
L 1000 2838 
Q 1078 3000 1178 3114 
Q 1278 3228 1406 3301 
Q 1534 3375 1692 3408 
Q 1850 3441 2047 3441 
Q 2397 3441 2636 3316 
Q 2875 3191 3020 2964 
Q 3166 2738 3228 2417 
Q 3291 2097 3291 1706 
z
M 2700 1694 
Q 2700 2006 2662 2250 
Q 2625 2494 2533 2662 
Q 2441 2831 2287 2918 
Q 2134 3006 1903 3006 
Q 1716 3006 1550 2953 
Q 1384 2900 1261 2750 
Q 1138 2600 1066 2336 
Q 994 2072 994 1650 
Q 994 1291 1053 1042 
Q 1113 794 1227 641 
Q 1341 488 1509 420 
Q 1678 353 1897 353 
Q 2131 353 2286 443 
Q 2441 534 2533 706 
Q 2625 878 2662 1126 
Q 2700 1375 2700 1694 
z
" id="LiberationSans-70" transform="scale(0.015625)"/>
       <path d="M 3291 1694 
Q 3291 806 2900 371 
Q 2509 -63 1766 -63 
Q 1413 -63 1134 43 
Q 856 150 664 369 
Q 472 588 370 917 
Q 269 1247 269 1694 
Q 269 3444 1784 3444 
Q 2178 3444 2464 3334 
Q 2750 3225 2933 3006 
Q 3116 2788 3203 2459 
Q 3291 2131 3291 1694 
z
M 2700 1694 
Q 2700 2088 2639 2344 
Q 2578 2600 2461 2753 
Q 2344 2906 2175 2967 
Q 2006 3028 1794 3028 
Q 1578 3028 1404 2964 
Q 1231 2900 1109 2745 
Q 988 2591 923 2334 
Q 859 2078 859 1694 
Q 859 1300 928 1042 
Q 997 784 1117 631 
Q 1238 478 1402 415 
Q 1566 353 1759 353 
Q 1975 353 2150 414 
Q 2325 475 2447 628 
Q 2569 781 2634 1040 
Q 2700 1300 2700 1694 
z
" id="LiberationSans-6f" transform="scale(0.015625)"/>
       <path d="M 859 1706 
Q 859 1416 901 1172 
Q 944 928 1044 751 
Q 1144 575 1308 478 
Q 1472 381 1713 381 
Q 2013 381 2214 543 
Q 2416 706 2463 1044 
L 3031 1006 
Q 3003 797 2909 603 
Q 2816 409 2655 262 
Q 2494 116 2262 26 
Q 2031 -63 1728 -63 
Q 1331 -63 1053 71 
Q 775 206 601 442 
Q 428 678 350 998 
Q 272 1319 272 1694 
Q 272 2034 328 2295 
Q 384 2556 486 2751 
Q 588 2947 725 3080 
Q 863 3213 1023 3292 
Q 1184 3372 1362 3408 
Q 1541 3444 1722 3444 
Q 2006 3444 2228 3366 
Q 2450 3288 2611 3152 
Q 2772 3016 2872 2831 
Q 2972 2647 3013 2434 
L 2434 2391 
Q 2391 2672 2212 2837 
Q 2034 3003 1706 3003 
Q 1466 3003 1305 2923 
Q 1144 2844 1044 2683 
Q 944 2522 901 2278 
Q 859 2034 859 1706 
z
" id="LiberationSans-63" transform="scale(0.015625)"/>
       <path d="M 991 2803 
Q 1084 2975 1193 3095 
Q 1303 3216 1434 3294 
Q 1566 3372 1722 3408 
Q 1878 3444 2072 3444 
Q 2397 3444 2605 3356 
Q 2813 3269 2933 3111 
Q 3053 2953 3098 2734 
Q 3144 2516 3144 2253 
L 3144 0 
L 2578 0 
L 2578 2144 
Q 2578 2359 2551 2521 
Q 2525 2684 2450 2792 
Q 2375 2900 2237 2954 
Q 2100 3009 1881 3009 
Q 1681 3009 1520 2937 
Q 1359 2866 1245 2734 
Q 1131 2603 1068 2415 
Q 1006 2228 1006 1994 
L 1006 0 
L 444 0 
L 444 4638 
L 1006 4638 
L 1006 3431 
Q 1006 3328 1003 3225 
Q 1000 3122 995 3034 
Q 991 2947 987 2886 
Q 984 2825 981 2803 
L 991 2803 
z
" id="LiberationSans-68" transform="scale(0.015625)"/>
      </defs>
      <use xlink:href="#LiberationSans-45"/>
      <use x="66.699219" xlink:href="#LiberationSans-70"/>
      <use x="122.314453" xlink:href="#LiberationSans-6f"/>
      <use x="177.929688" xlink:href="#LiberationSans-63"/>
      <use x="227.929688" xlink:href="#LiberationSans-68"/>
     </g>
    </g>
   </g>
   <g id="matplotlib.axis_2">
    <g id="ytick_1">
     <g id="line2d_9"/>
     <g id="text_10">
      <!-- 0.0 -->
      <g style="fill:#262626;" transform="translate(27.979375 307.246875)scale(0.2 -0.2)">
       <defs>
        <path d="M 584 0 
L 584 684 
L 1194 684 
L 1194 0 
L 584 0 
z
" id="LiberationSans-2e" transform="scale(0.015625)"/>
       </defs>
       <use xlink:href="#LiberationSans-30"/>
       <use x="55.615234" xlink:href="#LiberationSans-2e"/>
       <use x="83.398438" xlink:href="#LiberationSans-30"/>
      </g>
     </g>
    </g>
    <g id="ytick_2">
     <g id="line2d_10"/>
     <g id="text_11">
      <!-- 0.2 -->
      <g style="fill:#262626;" transform="translate(27.979375 252.886875)scale(0.2 -0.2)">
       <use xlink:href="#LiberationSans-30"/>
       <use x="55.615234" xlink:href="#LiberationSans-2e"/>
       <use x="83.398438" xlink:href="#LiberationSans-32"/>
      </g>
     </g>
    </g>
    <g id="ytick_3">
     <g id="line2d_11"/>
     <g id="text_12">
      <!-- 0.4 -->
      <g style="fill:#262626;" transform="translate(27.979375 198.526875)scale(0.2 -0.2)">
       <use xlink:href="#LiberationSans-30"/>
       <use x="55.615234" xlink:href="#LiberationSans-2e"/>
       <use x="83.398438" xlink:href="#LiberationSans-34"/>
      </g>
     </g>
    </g>
    <g id="ytick_4">
     <g id="line2d_12"/>
     <g id="text_13">
      <!-- 0.6 -->
      <g style="fill:#262626;" transform="translate(27.979375 144.166875)scale(0.2 -0.2)">
       <use xlink:href="#LiberationSans-30"/>
       <use x="55.615234" xlink:href="#LiberationSans-2e"/>
       <use x="83.398438" xlink:href="#LiberationSans-36"/>
      </g>
     </g>
    </g>
    <g id="ytick_5">
     <g id="line2d_13"/>
     <g id="text_14">
      <!-- 0.8 -->
      <g style="fill:#262626;" transform="translate(27.979375 89.806875)scale(0.2 -0.2)">
       <use xlink:href="#LiberationSans-30"/>
       <use x="55.615234" xlink:href="#LiberationSans-2e"/>
       <use x="83.398438" xlink:href="#LiberationSans-38"/>
      </g>
     </g>
    </g>
    <g id="ytick_6">
     <g id="line2d_14"/>
     <g id="text_15">
      <!-- 1.0 -->
      <g style="fill:#262626;" transform="translate(27.979375 35.446875)scale(0.2 -0.2)">
       <use xlink:href="#LiberationSans-31"/>
       <use x="55.615234" xlink:href="#LiberationSans-2e"/>
       <use x="83.398438" xlink:href="#LiberationSans-30"/>
      </g>
     </g>
    </g>
    <g id="text_16">
     <!-- Standardized loss function value -->
     <g style="fill:#262626;" transform="translate(20.244375 293.673281)rotate(-90)scale(0.18 -0.18)">
      <defs>
       <path d="M 3975 1216 
Q 3975 938 3867 703 
Q 3759 469 3534 298 
Q 3309 128 2967 32 
Q 2625 -63 2156 -63 
Q 1334 -63 875 225 
Q 416 513 291 1056 
L 869 1172 
Q 913 1000 1003 859 
Q 1094 719 1248 617 
Q 1403 516 1631 459 
Q 1859 403 2178 403 
Q 2444 403 2666 448 
Q 2888 494 3047 587 
Q 3206 681 3295 829 
Q 3384 978 3384 1184 
Q 3384 1400 3286 1534 
Q 3188 1669 3009 1756 
Q 2831 1844 2584 1903 
Q 2338 1963 2038 2031 
Q 1853 2072 1667 2120 
Q 1481 2169 1311 2236 
Q 1141 2303 991 2393 
Q 841 2484 731 2611 
Q 622 2738 559 2905 
Q 497 3072 497 3291 
Q 497 3603 623 3826 
Q 750 4050 975 4194 
Q 1200 4338 1506 4403 
Q 1813 4469 2169 4469 
Q 2578 4469 2868 4405 
Q 3159 4341 3359 4212 
Q 3559 4084 3679 3895 
Q 3800 3706 3872 3456 
L 3284 3353 
Q 3241 3513 3158 3638 
Q 3075 3763 2940 3847 
Q 2806 3931 2614 3975 
Q 2422 4019 2163 4019 
Q 1856 4019 1648 3964 
Q 1441 3909 1314 3815 
Q 1188 3722 1133 3595 
Q 1078 3469 1078 3322 
Q 1078 3125 1176 2998 
Q 1275 2872 1444 2787 
Q 1613 2703 1834 2647 
Q 2056 2591 2306 2534 
Q 2509 2488 2711 2439 
Q 2913 2391 3097 2323 
Q 3281 2256 3442 2165 
Q 3603 2075 3722 1944 
Q 3841 1813 3908 1634 
Q 3975 1456 3975 1216 
z
" id="LiberationSans-53" transform="scale(0.015625)"/>
       <path d="M 1731 25 
Q 1603 -9 1470 -29 
Q 1338 -50 1163 -50 
Q 488 -50 488 716 
L 488 2972 
L 97 2972 
L 97 3381 
L 509 3381 
L 675 4138 
L 1050 4138 
L 1050 3381 
L 1675 3381 
L 1675 2972 
L 1050 2972 
L 1050 838 
Q 1050 594 1129 495 
Q 1209 397 1406 397 
Q 1488 397 1564 409 
Q 1641 422 1731 441 
L 1731 25 
z
" id="LiberationSans-74" transform="scale(0.015625)"/>
       <path d="M 1294 -63 
Q 784 -63 528 206 
Q 272 475 272 944 
Q 272 1278 398 1492 
Q 525 1706 729 1828 
Q 934 1950 1196 1997 
Q 1459 2044 1731 2050 
L 2491 2063 
L 2491 2247 
Q 2491 2456 2447 2603 
Q 2403 2750 2312 2840 
Q 2222 2931 2086 2973 
Q 1950 3016 1766 3016 
Q 1603 3016 1472 2992 
Q 1341 2969 1244 2908 
Q 1147 2847 1087 2742 
Q 1028 2638 1009 2478 
L 422 2531 
Q 453 2731 540 2898 
Q 628 3066 789 3187 
Q 950 3309 1192 3376 
Q 1434 3444 1778 3444 
Q 2416 3444 2737 3151 
Q 3059 2859 3059 2306 
L 3059 850 
Q 3059 600 3125 473 
Q 3191 347 3375 347 
Q 3422 347 3469 353 
Q 3516 359 3559 369 
L 3559 19 
Q 3453 -6 3348 -18 
Q 3244 -31 3125 -31 
Q 2966 -31 2852 11 
Q 2738 53 2666 139 
Q 2594 225 2556 351 
Q 2519 478 2509 647 
L 2491 647 
Q 2400 484 2292 353 
Q 2184 222 2040 130 
Q 1897 38 1714 -12 
Q 1531 -63 1294 -63 
z
M 1422 359 
Q 1691 359 1892 457 
Q 2094 556 2226 709 
Q 2359 863 2425 1044 
Q 2491 1225 2491 1391 
L 2491 1669 
L 1875 1656 
Q 1669 1653 1483 1626 
Q 1297 1600 1156 1522 
Q 1016 1444 933 1303 
Q 850 1163 850 934 
Q 850 659 998 509 
Q 1147 359 1422 359 
z
" id="LiberationSans-61" transform="scale(0.015625)"/>
       <path d="M 2578 0 
L 2578 2144 
Q 2578 2391 2542 2556 
Q 2506 2722 2425 2823 
Q 2344 2925 2211 2967 
Q 2078 3009 1881 3009 
Q 1681 3009 1520 2939 
Q 1359 2869 1245 2736 
Q 1131 2603 1068 2408 
Q 1006 2213 1006 1959 
L 1006 0 
L 444 0 
L 444 2659 
Q 444 2766 442 2883 
Q 441 3000 437 3104 
Q 434 3209 431 3284 
Q 428 3359 425 3381 
L 956 3381 
Q 959 3366 962 3297 
Q 966 3228 970 3139 
Q 975 3050 978 2958 
Q 981 2866 981 2803 
L 991 2803 
Q 1072 2950 1169 3069 
Q 1266 3188 1394 3270 
Q 1522 3353 1687 3398 
Q 1853 3444 2072 3444 
Q 2353 3444 2556 3375 
Q 2759 3306 2890 3162 
Q 3022 3019 3083 2792 
Q 3144 2566 3144 2253 
L 3144 0 
L 2578 0 
z
" id="LiberationSans-6e" transform="scale(0.015625)"/>
       <path d="M 2566 544 
Q 2409 219 2151 78 
Q 1894 -63 1513 -63 
Q 872 -63 570 368 
Q 269 800 269 1675 
Q 269 3444 1513 3444 
Q 1897 3444 2153 3303 
Q 2409 3163 2566 2856 
L 2572 2856 
Q 2572 2888 2570 2955 
Q 2569 3022 2567 3095 
Q 2566 3169 2566 3234 
Q 2566 3300 2566 3328 
L 2566 4638 
L 3128 4638 
L 3128 697 
Q 3128 575 3129 462 
Q 3131 350 3134 256 
Q 3138 163 3141 95 
Q 3144 28 3147 0 
L 2609 0 
Q 2603 31 2598 89 
Q 2594 147 2589 222 
Q 2584 297 2581 380 
Q 2578 463 2578 544 
L 2566 544 
z
M 859 1694 
Q 859 1344 903 1094 
Q 947 844 1044 683 
Q 1141 522 1291 447 
Q 1441 372 1656 372 
Q 1878 372 2048 444 
Q 2219 516 2333 677 
Q 2447 838 2506 1097 
Q 2566 1356 2566 1731 
Q 2566 2091 2506 2339 
Q 2447 2588 2331 2741 
Q 2216 2894 2048 2961 
Q 1881 3028 1663 3028 
Q 1456 3028 1306 2956 
Q 1156 2884 1056 2725 
Q 956 2566 907 2311 
Q 859 2056 859 1694 
z
" id="LiberationSans-64" transform="scale(0.015625)"/>
       <path d="M 444 0 
L 444 2594 
Q 444 2700 442 2811 
Q 441 2922 437 3025 
Q 434 3128 431 3218 
Q 428 3309 425 3381 
L 956 3381 
Q 959 3309 964 3217 
Q 969 3125 973 3028 
Q 978 2931 979 2842 
Q 981 2753 981 2691 
L 994 2691 
Q 1053 2884 1120 3026 
Q 1188 3169 1278 3261 
Q 1369 3353 1494 3398 
Q 1619 3444 1797 3444 
Q 1866 3444 1928 3433 
Q 1991 3422 2025 3413 
L 2025 2897 
Q 1969 2913 1894 2920 
Q 1819 2928 1725 2928 
Q 1531 2928 1395 2840 
Q 1259 2753 1173 2598 
Q 1088 2444 1047 2230 
Q 1006 2016 1006 1763 
L 1006 0 
L 444 0 
z
" id="LiberationSans-72" transform="scale(0.015625)"/>
       <path d="M 428 4100 
L 428 4638 
L 991 4638 
L 991 4100 
L 428 4100 
z
M 428 0 
L 428 3381 
L 991 3381 
L 991 0 
L 428 0 
z
" id="LiberationSans-69" transform="scale(0.015625)"/>
       <path d="M 153 0 
L 153 428 
L 2219 2947 
L 278 2947 
L 278 3381 
L 2853 3381 
L 2853 2953 
L 784 434 
L 2969 434 
L 2969 0 
L 153 0 
z
" id="LiberationSans-7a" transform="scale(0.015625)"/>
       <path d="M 863 1572 
Q 863 1306 917 1082 
Q 972 859 1086 698 
Q 1200 538 1378 448 
Q 1556 359 1806 359 
Q 2172 359 2392 506 
Q 2613 653 2691 878 
L 3184 738 
Q 3131 597 3036 455 
Q 2941 313 2781 198 
Q 2622 84 2383 10 
Q 2144 -63 1806 -63 
Q 1056 -63 664 384 
Q 272 831 272 1713 
Q 272 2188 390 2517 
Q 509 2847 715 3053 
Q 922 3259 1197 3351 
Q 1472 3444 1784 3444 
Q 2209 3444 2495 3306 
Q 2781 3169 2954 2926 
Q 3128 2684 3201 2356 
Q 3275 2028 3275 1647 
L 3275 1572 
L 863 1572 
z
M 2694 2003 
Q 2647 2538 2422 2783 
Q 2197 3028 1775 3028 
Q 1634 3028 1479 2983 
Q 1325 2938 1194 2822 
Q 1063 2706 972 2507 
Q 881 2309 869 2003 
L 2694 2003 
z
" id="LiberationSans-65" transform="scale(0.015625)"/>
       <path id="LiberationSans-20" transform="scale(0.015625)"/>
       <path d="M 431 0 
L 431 4638 
L 994 4638 
L 994 0 
L 431 0 
z
" id="LiberationSans-6c" transform="scale(0.015625)"/>
       <path d="M 2969 934 
Q 2969 697 2876 511 
Q 2784 325 2609 198 
Q 2434 72 2179 4 
Q 1925 -63 1597 -63 
Q 1303 -63 1067 -17 
Q 831 28 653 128 
Q 475 228 354 392 
Q 234 556 178 794 
L 675 891 
Q 747 619 972 492 
Q 1197 366 1597 366 
Q 1778 366 1929 391 
Q 2081 416 2190 477 
Q 2300 538 2361 639 
Q 2422 741 2422 891 
Q 2422 1044 2350 1142 
Q 2278 1241 2150 1306 
Q 2022 1372 1839 1420 
Q 1656 1469 1438 1528 
Q 1234 1581 1034 1647 
Q 834 1713 673 1820 
Q 513 1928 413 2087 
Q 313 2247 313 2488 
Q 313 2950 642 3192 
Q 972 3434 1603 3434 
Q 2163 3434 2492 3237 
Q 2822 3041 2909 2606 
L 2403 2544 
Q 2375 2675 2300 2764 
Q 2225 2853 2119 2908 
Q 2013 2963 1880 2986 
Q 1747 3009 1603 3009 
Q 1222 3009 1040 2893 
Q 859 2778 859 2544 
Q 859 2406 926 2317 
Q 994 2228 1114 2167 
Q 1234 2106 1403 2061 
Q 1572 2016 1775 1966 
Q 1909 1931 2050 1892 
Q 2191 1853 2323 1798 
Q 2456 1744 2573 1670 
Q 2691 1597 2778 1494 
Q 2866 1391 2917 1253 
Q 2969 1116 2969 934 
z
" id="LiberationSans-73" transform="scale(0.015625)"/>
       <path d="M 1128 2972 
L 1128 0 
L 566 0 
L 566 2972 
L 91 2972 
L 91 3381 
L 566 3381 
L 566 3763 
Q 566 3947 600 4105 
Q 634 4263 726 4380 
Q 819 4497 978 4564 
Q 1138 4631 1391 4631 
Q 1491 4631 1598 4622 
Q 1706 4613 1788 4594 
L 1788 4166 
Q 1734 4175 1664 4183 
Q 1594 4191 1538 4191 
Q 1413 4191 1333 4156 
Q 1253 4122 1208 4058 
Q 1163 3994 1145 3900 
Q 1128 3806 1128 3684 
L 1128 3381 
L 1788 3381 
L 1788 2972 
L 1128 2972 
z
" id="LiberationSans-66" transform="scale(0.015625)"/>
       <path d="M 981 3381 
L 981 1238 
Q 981 991 1017 825 
Q 1053 659 1134 557 
Q 1216 456 1348 414 
Q 1481 372 1678 372 
Q 1878 372 2039 442 
Q 2200 513 2314 645 
Q 2428 778 2490 973 
Q 2553 1169 2553 1422 
L 2553 3381 
L 3116 3381 
L 3116 722 
Q 3116 616 3117 498 
Q 3119 381 3122 276 
Q 3125 172 3128 97 
Q 3131 22 3134 0 
L 2603 0 
Q 2600 16 2597 84 
Q 2594 153 2589 242 
Q 2584 331 2581 423 
Q 2578 516 2578 578 
L 2569 578 
Q 2488 431 2391 312 
Q 2294 194 2166 111 
Q 2038 28 1872 -17 
Q 1706 -63 1488 -63 
Q 1206 -63 1003 6 
Q 800 75 669 219 
Q 538 363 477 588 
Q 416 813 416 1128 
L 416 3381 
L 981 3381 
z
" id="LiberationSans-75" transform="scale(0.015625)"/>
       <path d="M 1916 0 
L 1250 0 
L 22 3381 
L 622 3381 
L 1366 1181 
Q 1388 1113 1417 1014 
Q 1447 916 1478 809 
Q 1509 703 1536 604 
Q 1563 506 1581 441 
Q 1600 506 1629 604 
Q 1659 703 1690 806 
Q 1722 909 1755 1007 
Q 1788 1106 1813 1175 
L 2581 3381 
L 3178 3381 
L 1916 0 
z
" id="LiberationSans-76" transform="scale(0.015625)"/>
      </defs>
      <use xlink:href="#LiberationSans-53"/>
      <use x="66.699219" xlink:href="#LiberationSans-74"/>
      <use x="94.482422" xlink:href="#LiberationSans-61"/>
      <use x="150.097656" xlink:href="#LiberationSans-6e"/>
      <use x="205.712891" xlink:href="#LiberationSans-64"/>
      <use x="261.328125" xlink:href="#LiberationSans-61"/>
      <use x="316.943359" xlink:href="#LiberationSans-72"/>
      <use x="350.244141" xlink:href="#LiberationSans-64"/>
      <use x="405.859375" xlink:href="#LiberationSans-69"/>
      <use x="428.076172" xlink:href="#LiberationSans-7a"/>
      <use x="478.076172" xlink:href="#LiberationSans-65"/>
      <use x="533.691406" xlink:href="#LiberationSans-64"/>
      <use x="589.306641" xlink:href="#LiberationSans-20"/>
      <use x="617.089844" xlink:href="#LiberationSans-6c"/>
      <use x="639.306641" xlink:href="#LiberationSans-6f"/>
      <use x="694.921875" xlink:href="#LiberationSans-73"/>
      <use x="744.921875" xlink:href="#LiberationSans-73"/>
      <use x="794.921875" xlink:href="#LiberationSans-20"/>
      <use x="822.705078" xlink:href="#LiberationSans-66"/>
      <use x="850.488281" xlink:href="#LiberationSans-75"/>
      <use x="906.103516" xlink:href="#LiberationSans-6e"/>
      <use x="961.71875" xlink:href="#LiberationSans-63"/>
      <use x="1011.71875" xlink:href="#LiberationSans-74"/>
      <use x="1039.501953" xlink:href="#LiberationSans-69"/>
      <use x="1061.71875" xlink:href="#LiberationSans-6f"/>
      <use x="1117.333984" xlink:href="#LiberationSans-6e"/>
      <use x="1172.949219" xlink:href="#LiberationSans-20"/>
      <use x="1200.732422" xlink:href="#LiberationSans-76"/>
      <use x="1250.732422" xlink:href="#LiberationSans-61"/>
      <use x="1306.347656" xlink:href="#LiberationSans-6c"/>
      <use x="1328.564453" xlink:href="#LiberationSans-75"/>
      <use x="1384.179688" xlink:href="#LiberationSans-65"/>
     </g>
    </g>
   </g>
   <g id="LineCollection_1">
    <path clip-path="url(#pba6b513f9e)" d="M 83.50612 327.18 
L 83.50612 28.2 
" style="fill:none;stroke:#000000;stroke-dasharray:1.5,2.475;stroke-dashoffset:0;stroke-opacity:0.9;stroke-width:1.5;"/>
   </g>
   <g id="line2d_15">
    <path clip-path="url(#pba6b513f9e)" d="M 59.327732 28.2 
L 59.8113 219.968203 
L 60.294867 231.831653 
L 60.778435 239.880954 
L 61.745571 248.88811 
L 62.229138 250.418605 
L 62.712706 249.477209 
L 63.196274 253.51976 
L 63.679842 255.899686 
L 64.163409 256.344181 
L 64.646977 257.424965 
L 65.130545 254.959326 
L 65.614113 260.121682 
L 66.09768 261.608118 
L 66.581248 261.596989 
L 67.064816 260.856977 
L 67.548384 259.146324 
L 68.031951 264.044913 
L 68.515519 266.785689 
L 68.999087 265.546992 
L 69.482655 266.54111 
L 69.966223 266.171301 
L 70.44979 265.950911 
L 70.933358 268.168385 
L 71.416926 269.781277 
L 71.900494 269.653169 
L 72.384061 268.913544 
L 72.867629 267.310136 
L 73.351197 271.742828 
L 73.834765 269.441521 
L 74.318332 270.967617 
L 74.8019 272.864664 
L 75.285468 272.692896 
L 75.769036 270.740218 
L 76.252603 273.794213 
L 76.736171 275.282207 
L 77.219739 275.005191 
L 77.703307 275.177221 
L 78.186875 272.028855 
L 78.670442 273.708572 
L 79.637578 278.00895 
L 80.121146 278.60945 
L 80.604713 278.858294 
L 81.088281 276.778509 
L 81.571849 276.601356 
L 82.055417 278.261363 
L 82.538984 278.714913 
L 83.022552 276.635796 
L 83.50612 279.770213 
L 83.989688 280.9132 
L 84.473255 281.194903 
L 85.440391 278.428312 
L 85.923959 281.910273 
L 86.407526 278.916425 
L 86.891094 281.240183 
L 87.374662 279.909591 
L 87.85823 280.090849 
L 88.341798 283.54281 
L 88.825365 284.558668 
L 89.308933 284.15961 
L 89.792501 282.392306 
L 90.276069 283.524846 
L 90.759636 283.227499 
L 91.243204 282.186075 
L 91.726772 284.502411 
L 92.21034 282.630211 
L 92.693907 285.487112 
L 93.177475 283.442906 
L 93.661043 288.151404 
L 94.144611 284.481804 
L 94.628178 286.356198 
L 95.595314 283.728406 
L 96.078882 286.626297 
L 96.562449 286.34431 
L 97.046017 285.660291 
L 97.529585 282.253769 
L 98.013153 286.471176 
L 98.496721 286.245874 
L 98.980288 287.910408 
L 99.463856 285.404513 
L 99.947424 285.791559 
L 100.430992 286.604489 
L 101.398127 289.556471 
L 101.881695 288.706813 
L 102.365263 287.588681 
L 102.84883 288.000252 
L 103.332398 287.129588 
L 103.815966 284.530589 
L 104.299534 287.6534 
L 104.783101 289.078918 
L 105.266669 287.504923 
L 105.750237 287.686187 
L 106.233805 287.568899 
L 106.717372 289.458351 
L 107.20094 288.995868 
L 107.684508 287.948219 
L 108.168076 288.909972 
L 108.651644 288.369526 
L 109.135211 289.248953 
L 109.618779 287.244487 
L 110.102347 288.689027 
L 110.585915 291.571726 
L 111.069482 288.584673 
L 111.55305 290.340235 
L 112.036618 289.302749 
L 112.520186 288.908331 
L 113.003753 290.32591 
L 113.487321 289.655746 
L 113.970889 289.82318 
L 114.938024 291.628039 
L 115.421592 287.962071 
L 115.90516 291.816134 
L 116.388728 287.376215 
L 116.872295 290.752769 
L 117.355863 288.957394 
L 118.322999 291.965227 
L 118.806567 290.64653 
L 119.290134 291.639556 
L 120.740838 289.449997 
L 121.224405 291.867406 
L 121.707973 292.015987 
L 122.191541 290.717086 
L 122.675109 292.856449 
L 123.158676 292.79936 
L 123.642244 292.297627 
L 124.125812 291.144892 
L 124.60938 291.904199 
L 125.092947 292.285953 
L 125.576515 293.33025 
L 126.060083 293.595566 
L 127.027218 289.882152 
L 127.510786 292.407626 
L 127.994354 292.546068 
L 128.477922 291.909971 
L 128.96149 295.074298 
L 129.445057 293.435347 
L 129.928625 292.192727 
L 130.412193 293.491984 
L 130.895761 291.407277 
L 131.379328 293.388202 
L 131.862896 292.764375 
L 132.346464 292.38366 
L 132.830032 293.284738 
L 133.313599 294.649972 
L 133.797167 293.554404 
L 134.280735 292.921329 
L 134.764303 292.855649 
L 135.24787 295.642839 
L 135.731438 292.526912 
L 136.215006 293.140498 
L 136.698574 295.32534 
L 137.182141 294.12891 
L 137.665709 292.61077 
L 138.149277 293.346386 
L 138.632845 293.700399 
L 139.116413 293.464886 
L 139.59998 294.078478 
L 140.083548 294.078566 
L 140.567116 294.19591 
L 141.050684 293.744745 
L 141.534251 294.455793 
L 142.017819 295.734548 
L 142.501387 294.868549 
L 142.984955 293.639555 
L 143.468522 293.454481 
L 143.95209 295.240553 
L 144.435658 294.730975 
L 144.919226 292.537949 
L 145.402793 295.016749 
L 145.886361 295.195082 
L 146.369929 293.406125 
L 146.853497 295.611703 
L 147.337064 292.929712 
L 147.820632 295.892386 
L 148.3042 295.684982 
L 148.787768 295.928788 
L 149.271336 293.507224 
L 149.754903 293.077196 
L 150.238471 293.359101 
L 150.722039 296.172691 
L 151.205607 295.442049 
L 151.689174 293.845986 
L 152.172742 295.504438 
L 152.65631 296.025141 
L 153.139878 295.393037 
L 153.623445 295.825627 
L 154.107013 295.175625 
L 155.074149 296.027181 
L 155.557716 294.607038 
L 156.524852 296.324595 
L 157.00842 294.274166 
L 157.491987 295.72235 
L 157.975555 295.511211 
L 158.459123 294.362507 
L 158.942691 295.101949 
L 159.426259 295.532981 
L 159.909826 295.399162 
L 160.393394 295.84106 
L 160.876962 295.41675 
L 161.36053 293.838083 
L 161.844097 294.185319 
L 162.327665 296.12324 
L 162.811233 294.418213 
L 163.294801 295.440355 
L 163.778368 295.538613 
L 164.261936 297.109163 
L 164.745504 294.96832 
L 165.229072 293.874363 
L 165.712639 296.083697 
L 166.196207 294.097193 
L 166.679775 296.274405 
L 167.163343 297.62267 
L 167.64691 296.852777 
L 168.130478 296.397937 
L 168.614046 294.94168 
L 169.097614 296.739235 
L 169.581182 293.690522 
L 170.064749 294.999902 
L 170.548317 293.67141 
L 171.031885 296.527105 
L 171.515453 295.918226 
L 171.99902 294.03849 
L 172.482588 296.909637 
L 172.966156 295.935463 
L 173.449724 294.620102 
L 173.933291 296.14833 
L 174.416859 294.435935 
L 174.900427 297.107659 
L 175.383995 297.162483 
L 176.35113 295.950531 
L 176.834698 295.478367 
L 177.318266 296.801998 
L 177.801834 296.208234 
L 178.285401 297.281395 
L 178.768969 296.01629 
L 179.252537 296.252681 
L 179.736105 297.022003 
L 180.219672 294.851355 
L 180.70324 296.999314 
L 181.186808 297.776611 
L 181.670376 294.074205 
L 182.637511 296.184983 
L 183.121079 295.697766 
L 183.604647 295.711542 
L 184.088214 295.321792 
L 184.571782 294.74832 
L 185.05535 295.010992 
L 185.538918 296.079237 
L 186.022485 296.686347 
L 186.506053 297.696567 
L 186.989621 297.327588 
L 187.473189 295.925839 
L 187.956757 295.841901 
L 188.440324 296.229317 
L 188.923892 298.015887 
L 189.40746 295.848356 
L 189.891028 296.490367 
L 190.374595 296.486804 
L 190.858163 296.254483 
L 191.341731 297.055613 
L 191.825299 297.014895 
L 192.308866 296.327842 
L 192.792434 295.923793 
L 193.276002 295.153433 
L 193.75957 295.808867 
L 194.243137 296.178802 
L 194.726705 296.184906 
L 195.210273 295.565938 
L 195.693841 296.436393 
L 196.177408 295.09655 
L 196.660976 296.795629 
L 197.144544 297.01341 
L 197.628112 296.566139 
L 198.11168 296.692675 
L 198.595247 296.375124 
L 199.078815 294.838427 
L 199.562383 297.63814 
L 200.045951 297.384991 
L 200.529518 297.411961 
L 201.013086 295.781705 
L 201.496654 296.417823 
L 201.980222 295.381305 
L 202.463789 297.035221 
L 202.947357 297.683829 
L 203.914493 296.155143 
L 204.39806 296.32047 
L 204.881628 295.891385 
L 205.365196 294.723163 
L 205.848764 295.430762 
L 206.332331 297.233885 
L 206.815899 297.258438 
L 207.299467 296.209399 
L 207.783035 296.020975 
L 208.266603 295.001765 
L 208.75017 297.055495 
L 209.233738 294.466984 
L 209.717306 296.972983 
L 210.200874 297.566931 
L 210.684441 296.657873 
L 212.135145 297.962112 
L 212.618712 297.303123 
L 213.10228 297.628837 
L 213.585848 297.540558 
L 214.069416 296.767663 
L 214.552983 296.206161 
L 215.036551 298.216189 
L 215.520119 296.637248 
L 216.003687 296.772217 
L 216.487254 295.232417 
L 216.970822 297.193071 
L 217.45439 296.226417 
L 217.937958 296.381105 
L 218.421526 296.149421 
L 218.905093 296.892839 
L 219.388661 296.950898 
L 219.872229 298.871208 
L 220.355797 297.998513 
L 221.322932 295.624493 
L 221.8065 297.356958 
L 222.773635 297.473966 
L 223.257203 296.126839 
L 223.740771 297.470031 
L 224.224339 297.328781 
L 224.707906 297.895394 
L 225.191474 298.69543 
L 225.675042 296.529879 
L 226.15861 297.54216 
L 226.642177 295.999273 
L 227.125745 296.582902 
L 227.609313 296.617233 
L 228.092881 297.657775 
L 228.576449 298.358241 
L 229.060016 298.473259 
L 229.543584 297.650976 
L 230.027152 298.293449 
L 230.51072 297.6951 
L 230.994287 297.899674 
L 231.477855 297.462066 
L 231.961423 298.067087 
L 232.444991 297.534475 
L 232.928558 298.140524 
L 233.412126 295.876255 
L 233.895694 295.541575 
L 234.379262 297.139805 
L 234.862829 298.182872 
L 235.346397 298.382573 
L 235.829965 297.500903 
L 236.313533 297.98284 
L 236.7971 297.646524 
L 237.280668 296.557899 
L 237.764236 297.437412 
L 238.247804 297.085136 
L 238.731372 298.277466 
L 239.214939 297.29286 
L 239.698507 297.520883 
L 240.182075 297.886971 
L 240.665643 294.715558 
L 241.14921 296.531642 
L 241.632778 297.847335 
L 242.116346 298.454051 
L 242.599914 298.07192 
L 243.083481 297.956188 
L 243.567049 297.001107 
L 244.050617 297.540044 
L 244.534185 297.720432 
L 245.017752 297.261149 
L 245.50132 297.228117 
L 245.984888 296.997444 
L 246.468456 297.55081 
L 246.952023 297.300205 
L 247.435591 296.919154 
L 247.919159 297.989246 
L 248.402727 297.373137 
L 248.886295 297.657513 
L 249.369862 297.694883 
L 249.85343 297.501192 
L 250.336998 298.75485 
L 250.820566 298.868421 
L 251.304133 296.345798 
L 251.787701 295.543779 
L 252.271269 297.184196 
L 252.754837 297.184364 
L 253.721972 298.222187 
L 254.20554 296.716557 
L 254.689108 298.221789 
L 255.172675 295.051168 
L 255.656243 298.118247 
L 256.139811 297.360164 
L 256.623379 298.01083 
L 257.106946 297.942435 
L 257.590514 298.376683 
L 258.074082 297.381404 
L 259.041218 299.040119 
L 259.524785 298.376561 
L 260.008353 296.561014 
L 260.491921 296.148133 
L 260.975489 298.606588 
L 261.459056 297.178233 
L 261.942624 296.254252 
L 262.426192 297.281579 
L 262.90976 297.330979 
L 263.393327 298.091483 
L 263.876895 297.27173 
L 264.360463 299.026412 
L 264.844031 298.38975 
L 265.327598 297.239137 
L 265.811166 297.113046 
L 266.294734 297.852273 
L 266.778302 298.066544 
L 267.26187 299.31092 
L 267.745437 299.174533 
L 268.229005 297.431482 
L 268.712573 295.197775 
L 269.196141 297.188311 
L 269.679708 297.857285 
L 270.163276 297.810529 
L 270.646844 298.406702 
L 271.130412 298.07402 
L 271.613979 297.35634 
L 272.097547 298.106447 
L 272.581115 298.442479 
L 273.064683 297.999786 
L 273.54825 298.016328 
L 274.031818 298.880871 
L 274.515386 298.765828 
L 274.998954 294.805219 
L 275.482521 298.844618 
L 275.966089 298.913158 
L 276.933225 294.171608 
L 277.416793 297.332239 
L 278.383928 299.196395 
L 278.867496 298.878899 
L 279.351064 296.960334 
L 279.834631 297.819115 
L 280.318199 297.689789 
L 281.285335 297.168041 
L 281.768902 298.42994 
L 282.25247 297.769889 
L 282.736038 297.695482 
L 283.219606 297.162837 
L 283.703173 297.301508 
L 284.186741 298.214176 
L 284.670309 298.102344 
L 285.153877 298.379266 
L 285.637444 297.847529 
L 286.121012 297.602616 
L 286.60458 297.035765 
L 287.088148 298.635581 
L 287.571716 298.980264 
L 288.055283 299.030916 
L 289.022419 296.773841 
L 289.505987 297.58759 
L 289.989554 297.820004 
L 290.473122 298.945648 
L 290.95669 296.596562 
L 291.440258 297.946655 
L 291.923825 298.633388 
L 292.407393 298.512501 
L 292.890961 297.266565 
L 293.858096 298.276831 
L 294.341664 296.266428 
L 294.825232 298.137327 
L 295.3088 299.059912 
L 295.792367 298.74284 
L 296.759503 297.002788 
L 297.243071 297.8238 
L 297.726639 299.285338 
L 298.210206 299.059711 
L 298.693774 297.595004 
L 299.177342 297.374171 
L 299.66091 297.987806 
L 300.144477 298.42174 
L 301.111613 298.041441 
L 301.595181 298.907841 
L 302.078748 298.805024 
L 302.562316 296.209816 
L 303.045884 297.841252 
L 303.529452 298.57714 
L 304.013019 298.913264 
L 304.496587 297.508886 
L 304.980155 298.7277 
L 305.94729 299.129349 
L 306.430858 298.590579 
L 306.914426 299.163683 
L 307.881562 297.870408 
L 308.365129 296.122641 
L 308.848697 297.649566 
L 309.332265 298.536633 
L 309.815833 296.73553 
L 310.2994 297.344608 
L 310.782968 298.226543 
L 311.266536 299.355644 
L 311.750104 299.282819 
L 312.233671 299.084075 
L 312.717239 298.459103 
L 313.684375 298.659534 
L 314.167942 297.386491 
L 314.65151 297.993393 
L 315.135078 298.856299 
L 315.618646 297.005837 
L 316.102213 296.81708 
L 316.585781 298.898792 
L 317.069349 299.729031 
L 317.552917 299.123467 
L 318.036485 297.214016 
L 318.520052 298.352036 
L 319.00362 298.481406 
L 319.487188 299.147791 
L 319.970756 299.467943 
L 320.454323 299.016831 
L 320.937891 298.182851 
L 321.421459 297.765465 
L 321.905027 298.308345 
L 322.388594 298.543818 
L 323.35573 298.254399 
L 323.839298 298.232904 
L 324.322865 297.111565 
L 324.806433 298.926732 
L 325.290001 298.850412 
L 325.773569 298.914558 
L 326.257136 298.622724 
L 326.740704 298.762139 
L 327.224272 297.567185 
L 327.70784 297.956835 
L 328.191408 296.724161 
L 328.674975 297.403747 
L 329.158543 298.395312 
L 329.642111 298.207125 
L 330.125679 298.308338 
L 330.609246 298.883211 
L 331.092814 298.515743 
L 331.576382 298.637829 
L 332.05995 299.438885 
L 333.027085 299.68139 
L 333.510653 298.416696 
L 334.477788 296.937028 
L 334.961356 298.721909 
L 335.444924 297.957457 
L 335.928492 299.569432 
L 336.412059 298.627215 
L 336.895627 297.393754 
L 337.379195 298.623702 
L 337.862763 298.078174 
L 338.346331 299.423325 
L 339.313466 299.31609 
L 339.797034 298.270497 
L 340.280602 299.344753 
L 341.247737 299.014892 
L 341.731305 298.18316 
L 342.214873 297.612728 
L 342.69844 298.959949 
L 343.182008 298.093468 
L 343.665576 298.781531 
L 344.149144 298.016981 
L 344.632711 299.594494 
L 345.116279 298.020875 
L 345.599847 298.529221 
L 346.083415 299.286696 
L 347.05055 299.517208 
L 347.534118 299.09131 
L 348.017686 299.676379 
L 348.501254 298.829448 
L 348.984821 297.682884 
L 349.468389 298.828408 
L 349.951957 295.756069 
L 350.435525 298.520348 
L 350.919092 299.398806 
L 351.40266 298.020804 
L 351.886228 299.248783 
L 352.369796 299.835215 
L 352.853363 299.132609 
L 353.336931 298.85945 
L 353.820499 298.910709 
L 354.304067 297.974351 
L 354.787634 297.788448 
L 355.271202 295.78585 
L 356.238338 298.855552 
L 356.721905 298.87022 
L 357.205473 297.914504 
L 357.689041 299.601682 
L 358.172609 298.115031 
L 358.656177 298.739871 
L 359.139744 297.030164 
L 359.623312 298.258717 
L 360.590448 298.871897 
L 361.074015 299.744849 
L 361.557583 298.653557 
L 362.041151 299.706503 
L 362.524719 298.983382 
L 363.008286 296.740408 
L 364.45899 299.459504 
L 364.942557 299.357958 
L 365.426125 298.108317 
L 365.909693 297.601155 
L 366.393261 298.896305 
L 366.876829 298.883103 
L 367.360396 298.741938 
L 367.843964 299.097314 
L 368.327532 298.910632 
L 368.8111 299.382507 
L 369.294667 298.85221 
L 369.778235 299.349338 
L 370.261803 299.434468 
L 370.745371 299.356714 
L 371.228938 299.804236 
L 372.679642 297.666138 
L 373.163209 297.871991 
L 373.646777 298.866778 
L 374.130345 298.456845 
L 374.613913 297.787832 
L 375.09748 299.14887 
L 375.581048 298.974279 
L 376.064616 299.599594 
L 376.548184 299.353846 
L 377.031752 298.674217 
L 377.515319 298.729357 
L 377.998887 299.508561 
L 378.482455 299.736303 
L 378.966023 295.801519 
L 379.44959 298.480666 
L 379.933158 298.671329 
L 380.416726 299.412226 
L 380.900294 298.523832 
L 381.383861 298.879683 
L 381.867429 297.668228 
L 382.350997 299.089163 
L 382.834565 299.016992 
L 383.318132 299.392643 
L 383.8017 299.120841 
L 384.285268 298.543585 
L 384.768836 298.203041 
L 385.252403 299.001023 
L 385.735971 298.417989 
L 386.219539 299.445404 
L 386.703107 299.392955 
L 387.186675 300 
L 387.670242 299.315584 
L 388.15381 297.292394 
L 388.637378 298.935946 
L 389.120946 298.787578 
L 389.604513 296.829957 
L 390.088081 297.599454 
L 390.571649 299.283211 
L 391.055217 299.836362 
L 391.538784 299.32237 
L 392.022352 299.099777 
L 392.50592 299.473795 
L 392.989488 297.275946 
L 393.473055 299.71597 
L 393.956623 299.857953 
L 394.440191 299.839373 
L 395.407326 298.710123 
L 396.85803 299.323842 
L 397.341598 299.83483 
L 397.825165 299.29638 
L 398.308733 298.214572 
L 398.792301 299.004824 
L 399.275869 298.686601 
L 399.759436 299.016114 
L 400.243004 298.899267 
L 400.726572 299.079165 
L 401.21014 298.915429 
L 401.693707 299.696086 
L 402.177275 298.472582 
L 402.177275 298.472582 
" style="fill:none;stroke:#1f77b4;stroke-linecap:round;stroke-width:1.5;"/>
   </g>
   <g id="line2d_16">
    <path clip-path="url(#pba6b513f9e)" d="M 59.327732 154.231726 
L 59.8113 165.13191 
L 60.294867 28.2 
L 60.778435 179.063891 
L 61.262003 134.517467 
L 61.745571 145.878858 
L 62.229138 139.501849 
L 62.712706 178.388324 
L 63.196274 157.675794 
L 63.679842 163.469902 
L 64.163409 59.997618 
L 64.646977 137.060216 
L 65.130545 182.187385 
L 65.614113 179.502997 
L 66.09768 154.879716 
L 66.581248 288.299337 
L 67.064816 272.015528 
L 67.548384 241.524295 
L 68.031951 255.769168 
L 68.515519 265.141957 
L 68.999087 257.216217 
L 69.482655 262.602846 
L 69.966223 285.635158 
L 70.44979 285.309291 
L 70.933358 272.39853 
L 71.416926 284.936202 
L 71.900494 286.99077 
L 72.384061 290.103848 
L 72.867629 267.35269 
L 73.351197 288.078322 
L 74.318332 274.176618 
L 74.8019 289.367591 
L 75.285468 293.251847 
L 75.769036 216.168885 
L 76.252603 257.271131 
L 76.736171 278.173675 
L 77.219739 287.128751 
L 77.703307 285.462353 
L 78.186875 280.309071 
L 78.670442 281.795846 
L 79.15401 275.838333 
L 79.637578 287.162126 
L 80.121146 282.993023 
L 80.604713 282.442774 
L 81.088281 280.816186 
L 81.571849 288.017225 
L 82.055417 278.524094 
L 82.538984 289.475938 
L 83.022552 290.817094 
L 83.50612 290.607099 
L 83.989688 292.59429 
L 84.473255 292.779225 
L 84.956823 288.642654 
L 85.440391 291.289249 
L 85.923959 289.283917 
L 86.407526 236.434359 
L 86.891094 277.068286 
L 87.374662 265.650412 
L 87.85823 287.78207 
L 88.341798 288.83598 
L 88.825365 286.006248 
L 89.308933 287.376149 
L 89.792501 291.262251 
L 90.276069 287.505889 
L 90.759636 292.853636 
L 91.243204 290.916996 
L 91.726772 288.394527 
L 92.21034 282.388226 
L 92.693907 295.101482 
L 93.177475 295.658915 
L 93.661043 293.727376 
L 94.144611 283.758796 
L 94.628178 296.438864 
L 95.111746 291.368275 
L 95.595314 293.949647 
L 96.078882 288.16858 
L 96.562449 291.3952 
L 97.046017 293.093175 
L 97.529585 286.616645 
L 98.013153 289.979154 
L 98.980288 293.784003 
L 99.463856 296.136664 
L 99.947424 284.437845 
L 100.430992 263.970628 
L 100.914559 295.188415 
L 101.398127 294.176765 
L 101.881695 290.094629 
L 102.365263 290.778724 
L 102.84883 282.712702 
L 103.332398 288.642083 
L 103.815966 289.045552 
L 104.299534 292.787308 
L 104.783101 288.179289 
L 105.266669 287.701217 
L 105.750237 291.594787 
L 106.233805 290.938788 
L 107.20094 292.962343 
L 107.684508 293.803038 
L 108.168076 293.973232 
L 108.651644 270.850012 
L 109.135211 292.457097 
L 109.618779 288.289878 
L 110.102347 277.169939 
L 110.585915 292.265096 
L 111.069482 294.507697 
L 111.55305 294.855082 
L 112.036618 290.361359 
L 112.520186 280.682977 
L 113.003753 296.319298 
L 113.487321 296.901928 
L 113.970889 290.203865 
L 114.454457 290.996 
L 114.938024 295.20845 
L 115.421592 296.701128 
L 115.90516 293.034316 
L 116.388728 293.520558 
L 116.872295 297.102489 
L 117.355863 278.090311 
L 117.839431 295.28682 
L 118.322999 297.016543 
L 118.806567 262.24168 
L 119.290134 296.032978 
L 120.25727 297.106384 
L 120.740838 290.787674 
L 121.224405 294.285198 
L 121.707973 295.681926 
L 122.191541 295.842407 
L 122.675109 294.741644 
L 123.158676 295.086955 
L 123.642244 292.356559 
L 124.125812 287.872977 
L 124.60938 290.968863 
L 125.092947 295.197198 
L 125.576515 294.174968 
L 126.060083 295.903311 
L 126.543651 292.449005 
L 127.027218 293.389138 
L 127.510786 294.971397 
L 127.994354 294.498441 
L 128.477922 284.550731 
L 128.96149 294.722008 
L 129.445057 294.288807 
L 129.928625 296.603386 
L 130.412193 280.896946 
L 130.895761 297.054177 
L 131.379328 295.138058 
L 131.862896 297.94435 
L 132.346464 292.931772 
L 132.830032 295.867447 
L 133.313599 296.996691 
L 133.797167 297.67019 
L 134.280735 298.003106 
L 134.764303 296.291004 
L 135.24787 296.368217 
L 135.731438 293.508711 
L 136.215006 275.593133 
L 136.698574 295.593112 
L 137.182141 296.97104 
L 137.665709 296.619169 
L 138.149277 296.716393 
L 138.632845 295.463552 
L 139.116413 295.856871 
L 139.59998 295.262946 
L 140.083548 295.134307 
L 140.567116 296.118347 
L 141.050684 293.952989 
L 141.534251 296.304376 
L 142.017819 290.270494 
L 142.501387 295.225429 
L 142.984955 290.362895 
L 143.468522 294.390465 
L 143.95209 292.631567 
L 144.435658 294.732072 
L 144.919226 290.404983 
L 145.402793 291.71381 
L 145.886361 294.706123 
L 146.369929 289.021166 
L 146.853497 294.127043 
L 147.337064 282.973225 
L 147.820632 293.89486 
L 148.3042 295.265145 
L 148.787768 295.278432 
L 149.271336 291.233816 
L 149.754903 295.244622 
L 150.238471 292.573356 
L 150.722039 261.742698 
L 151.205607 292.187912 
L 151.689174 294.297312 
L 152.172742 288.652332 
L 152.65631 294.12135 
L 153.139878 293.771399 
L 153.623445 295.060408 
L 154.107013 285.994697 
L 154.590581 296.233189 
L 155.074149 296.605655 
L 155.557716 283.051877 
L 156.041284 296.250686 
L 156.524852 293.293455 
L 157.00842 296.380066 
L 157.491987 295.027681 
L 157.975555 287.012699 
L 158.459123 297.449632 
L 158.942691 298.397234 
L 159.426259 298.539253 
L 159.909826 297.84906 
L 160.393394 295.6203 
L 160.876962 295.253775 
L 161.36053 297.349754 
L 161.844097 296.761477 
L 162.327665 295.767118 
L 162.811233 283.625331 
L 163.294801 290.511946 
L 163.778368 239.665069 
L 164.261936 296.798509 
L 164.745504 297.860637 
L 165.229072 296.352872 
L 165.712639 297.80881 
L 166.196207 291.498765 
L 166.679775 298.726761 
L 167.163343 294.281264 
L 167.64691 297.960078 
L 168.130478 287.55565 
L 168.614046 297.236109 
L 169.097614 298.230549 
L 169.581182 297.658045 
L 170.064749 294.593984 
L 170.548317 294.389044 
L 171.031885 290.995703 
L 171.515453 277.786802 
L 171.99902 295.405841 
L 172.482588 295.179632 
L 172.966156 284.656865 
L 173.449724 297.033418 
L 173.933291 297.980024 
L 174.416859 296.661592 
L 174.900427 297.592262 
L 175.383995 297.711965 
L 175.867562 295.20691 
L 176.35113 293.424593 
L 176.834698 296.301837 
L 177.318266 298.285769 
L 177.801834 296.26557 
L 178.285401 295.224396 
L 178.768969 291.950689 
L 179.252537 296.810712 
L 179.736105 279.486845 
L 180.219672 297.030844 
L 180.70324 290.142338 
L 181.670376 298.285119 
L 182.153943 295.886153 
L 182.637511 292.707876 
L 183.121079 288.086844 
L 183.604647 298.254645 
L 184.088214 289.788124 
L 184.571782 296.416937 
L 185.05535 277.804429 
L 185.538918 294.744132 
L 186.022485 291.294865 
L 186.506053 297.837866 
L 186.989621 297.494321 
L 187.473189 291.663056 
L 187.956757 298.426236 
L 188.923892 297.709643 
L 189.40746 271.276972 
L 189.891028 297.437783 
L 190.374595 296.379615 
L 190.858163 297.625302 
L 191.341731 298.159968 
L 191.825299 295.191025 
L 192.308866 297.648813 
L 192.792434 292.022356 
L 193.276002 297.252175 
L 193.75957 297.892458 
L 194.243137 295.905241 
L 194.726705 296.716386 
L 195.210273 293.46314 
L 195.693841 297.248242 
L 196.177408 291.811722 
L 196.660976 298.626915 
L 197.144544 297.800914 
L 197.628112 298.593793 
L 198.11168 298.36494 
L 198.595247 298.992715 
L 199.078815 196.856795 
L 199.562383 297.305564 
L 200.045951 298.378241 
L 200.529518 298.640044 
L 201.013086 297.648685 
L 201.496654 297.997022 
L 201.980222 296.079754 
L 202.463789 298.76844 
L 202.947357 299.400262 
L 203.430925 297.227461 
L 203.914493 296.375116 
L 204.39806 297.881341 
L 204.881628 297.313094 
L 205.848764 298.699409 
L 206.332331 297.797105 
L 206.815899 296.618875 
L 207.299467 298.237802 
L 207.783035 298.591943 
L 208.266603 267.854525 
L 208.75017 298.688423 
L 209.233738 299.493263 
L 209.717306 298.400682 
L 210.200874 298.662878 
L 210.684441 297.659349 
L 211.168009 298.421756 
L 211.651577 298.494565 
L 212.135145 298.305069 
L 212.618712 296.765792 
L 213.585848 298.583121 
L 214.069416 297.800017 
L 214.552983 292.889228 
L 215.036551 294.801119 
L 215.520119 296.041319 
L 216.003687 294.676435 
L 216.487254 294.426727 
L 216.970822 297.111527 
L 217.45439 298.930151 
L 217.937958 297.808763 
L 218.421526 298.358472 
L 218.905093 299.211831 
L 219.388661 283.004835 
L 219.872229 298.951444 
L 220.355797 299.48827 
L 220.839364 299.202257 
L 221.322932 294.76638 
L 221.8065 297.966056 
L 222.290068 298.265553 
L 222.773635 296.802327 
L 223.257203 298.646583 
L 223.740771 298.823404 
L 224.224339 298.723087 
L 224.707906 299.100521 
L 225.191474 298.585404 
L 225.675042 298.624245 
L 226.15861 298.45796 
L 226.642177 297.441283 
L 227.125745 279.693333 
L 227.609313 286.757631 
L 228.092881 298.759364 
L 228.576449 298.25011 
L 229.060016 298.367949 
L 229.543584 296.590602 
L 230.027152 297.983165 
L 230.51072 298.531466 
L 230.994287 297.907723 
L 231.477855 298.042977 
L 231.961423 298.985458 
L 232.444991 298.641034 
L 232.928558 298.481236 
L 233.412126 278.314668 
L 233.895694 297.292704 
L 234.379262 298.458942 
L 234.862829 298.643454 
L 235.346397 298.183007 
L 235.829965 299.508691 
L 236.313533 298.707566 
L 236.7971 299.100694 
L 237.280668 298.766175 
L 237.764236 299.290106 
L 238.247804 299.33628 
L 238.731372 278.844103 
L 239.214939 298.619617 
L 239.698507 299.131842 
L 240.182075 299.100381 
L 240.665643 298.237529 
L 241.14921 299.04775 
L 241.632778 299.344307 
L 242.116346 297.275278 
L 242.599914 294.281539 
L 243.083481 298.687975 
L 243.567049 299.200212 
L 244.050617 298.897235 
L 244.534185 299.25385 
L 245.984888 298.631097 
L 246.468456 296.821777 
L 246.952023 299.48878 
L 247.435591 299.085871 
L 247.919159 299.234023 
L 248.402727 298.833231 
L 248.886295 298.697979 
L 249.369862 277.939797 
L 249.85343 298.230534 
L 250.336998 298.503273 
L 250.820566 298.288624 
L 251.304133 299.559462 
L 251.787701 299.397568 
L 252.271269 296.829135 
L 252.754837 260.290791 
L 253.238404 299.169539 
L 253.721972 298.065007 
L 254.20554 293.483639 
L 254.689108 299.106939 
L 255.172675 291.683099 
L 255.656243 297.693882 
L 256.139811 298.942348 
L 256.623379 298.88943 
L 257.106946 299.35216 
L 257.590514 296.729755 
L 258.55765 299.089979 
L 259.041218 299.383437 
L 259.524785 298.758153 
L 260.008353 298.431704 
L 260.491921 298.621864 
L 260.975489 298.955922 
L 261.459056 299.562944 
L 261.942624 299.30112 
L 262.426192 299.409292 
L 262.90976 299.224972 
L 263.393327 299.406039 
L 263.876895 298.752636 
L 264.360463 299.259001 
L 264.844031 298.885359 
L 265.327598 299.454458 
L 265.811166 299.486659 
L 266.778302 298.529089 
L 267.26187 298.982648 
L 267.745437 298.48675 
L 268.229005 299.073146 
L 268.712573 289.445247 
L 269.196141 295.291069 
L 269.679708 298.420248 
L 270.163276 299.022598 
L 270.646844 298.739447 
L 271.130412 298.071439 
L 271.613979 296.204727 
L 272.097547 299.124371 
L 272.581115 299.44581 
L 273.064683 299.421641 
L 273.54825 298.754347 
L 274.031818 289.673065 
L 274.515386 288.475563 
L 274.998954 299.695695 
L 275.482521 298.889981 
L 276.449657 299.539924 
L 276.933225 299.211304 
L 277.416793 295.871416 
L 277.90036 299.730643 
L 278.383928 299.315656 
L 278.867496 296.11029 
L 279.351064 299.18966 
L 279.834631 299.438283 
L 280.318199 297.96161 
L 280.801767 298.449819 
L 281.285335 286.069189 
L 281.768902 299.271533 
L 282.25247 290.523409 
L 282.736038 299.410744 
L 283.219606 299.059496 
L 283.703173 298.873003 
L 284.186741 297.034714 
L 284.670309 299.405795 
L 285.153877 299.407488 
L 285.637444 299.535621 
L 286.121012 296.855409 
L 286.60458 299.319062 
L 287.088148 299.187363 
L 287.571716 299.375259 
L 288.055283 298.641403 
L 288.538851 297.540886 
L 289.505987 299.328268 
L 289.989554 239.52687 
L 290.473122 299.308741 
L 290.95669 299.052857 
L 291.440258 299.818414 
L 291.923825 299.576086 
L 292.407393 297.6363 
L 292.890961 294.760293 
L 293.374529 298.431722 
L 293.858096 196.836879 
L 294.341664 298.904219 
L 294.825232 289.542808 
L 295.3088 298.986972 
L 295.792367 299.659756 
L 296.275935 299.370783 
L 296.759503 298.672887 
L 297.243071 298.764663 
L 297.726639 299.513674 
L 298.210206 299.495942 
L 298.693774 297.71955 
L 299.177342 299.326638 
L 299.66091 299.046044 
L 300.144477 296.305646 
L 300.628045 299.720011 
L 301.111613 299.54568 
L 301.595181 299.969605 
L 302.078748 299.478306 
L 302.562316 299.704354 
L 303.045884 299.459902 
L 303.529452 299.571894 
L 304.013019 298.847613 
L 304.980155 299.569724 
L 305.463723 299.295287 
L 305.94729 299.41264 
L 306.914426 299.232793 
L 307.397994 299.434197 
L 307.881562 295.227172 
L 308.365129 295.897217 
L 308.848697 299.479679 
L 309.332265 299.164122 
L 309.815833 296.774175 
L 310.2994 296.232396 
L 310.782968 294.712347 
L 311.266536 299.581024 
L 312.233671 299.338737 
L 313.200807 299.546696 
L 313.684375 299.214816 
L 314.167942 299.254857 
L 314.65151 299.594037 
L 315.135078 299.521458 
L 315.618646 298.558476 
L 316.102213 299.08976 
L 317.069349 299.664703 
L 317.552917 299.212553 
L 318.520052 299.416664 
L 319.00362 299.194625 
L 319.487188 298.370441 
L 319.970756 298.312765 
L 320.454323 299.158813 
L 320.937891 298.665389 
L 321.421459 299.095462 
L 321.905027 299.336795 
L 322.388594 297.55713 
L 322.872162 299.122849 
L 323.35573 299.146577 
L 324.322865 299.612239 
L 324.806433 299.472029 
L 325.290001 299.193539 
L 325.773569 299.53754 
L 326.257136 299.504562 
L 326.740704 294.330072 
L 327.224272 299.038522 
L 327.70784 299.466411 
L 328.191408 299.437852 
L 328.674975 299.564587 
L 329.158543 299.42682 
L 329.642111 299.695113 
L 330.125679 299.637937 
L 330.609246 298.602678 
L 331.092814 299.389766 
L 331.576382 299.345424 
L 332.05995 298.85231 
L 333.027085 299.306158 
L 333.510653 294.785719 
L 334.477788 299.362666 
L 334.961356 298.493138 
L 335.444924 299.319658 
L 335.928492 299.296851 
L 336.412059 290.749157 
L 337.379195 298.94565 
L 337.862763 299.797415 
L 338.346331 299.568465 
L 338.829898 299.691279 
L 339.313466 299.67851 
L 339.797034 299.448929 
L 340.280602 299.748771 
L 340.764169 299.283524 
L 341.247737 299.349913 
L 341.731305 298.579217 
L 342.214873 299.302806 
L 342.69844 299.596674 
L 343.182008 298.369915 
L 343.665576 299.397359 
L 344.149144 299.111938 
L 344.632711 299.569664 
L 345.116279 298.662013 
L 345.599847 298.030224 
L 346.083415 299.334592 
L 346.566982 296.338 
L 347.05055 299.597467 
L 347.534118 299.893169 
L 348.501254 299.604588 
L 348.984821 297.043901 
L 349.468389 296.534215 
L 349.951957 298.900369 
L 350.435525 299.573064 
L 350.919092 299.33503 
L 351.40266 297.365124 
L 351.886228 299.612459 
L 352.369796 299.376798 
L 352.853363 299.646487 
L 353.336931 299.628624 
L 353.820499 299.483175 
L 354.304067 295.471304 
L 354.787634 299.584832 
L 355.271202 299.545099 
L 355.75477 297.203376 
L 356.238338 299.060544 
L 356.721905 296.427253 
L 357.205473 299.701962 
L 357.689041 299.813577 
L 358.172609 299.724063 
L 358.656177 299.762513 
L 359.623312 295.779701 
L 360.10688 299.176984 
L 360.590448 299.803277 
L 361.074015 299.560988 
L 362.041151 299.713238 
L 362.524719 299.696518 
L 363.008286 299.517672 
L 363.491854 299.576188 
L 363.975422 299.499417 
L 364.942557 299.605523 
L 365.426125 299.828865 
L 365.909693 299.609455 
L 366.393261 299.644504 
L 366.876829 299.472526 
L 367.360396 299.42087 
L 367.843964 299.649428 
L 368.8111 299.588827 
L 369.294667 299.371616 
L 369.778235 299.685938 
L 370.745371 299.563364 
L 371.712506 299.772573 
L 372.196074 298.973038 
L 372.679642 299.67971 
L 373.163209 299.874009 
L 373.646777 299.705652 
L 374.130345 299.915866 
L 375.09748 299.72911 
L 376.548184 299.730107 
L 377.031752 299.677836 
L 377.515319 299.83745 
L 378.966023 299.725249 
L 379.44959 299.903721 
L 379.933158 299.713855 
L 381.383861 299.650668 
L 381.867429 298.792563 
L 382.350997 299.53396 
L 382.834565 299.18442 
L 383.8017 299.656082 
L 384.285268 299.638576 
L 384.768836 297.820807 
L 385.252403 299.641557 
L 385.735971 299.787321 
L 386.703107 299.206359 
L 387.186675 299.234979 
L 387.670242 299.562253 
L 388.15381 297.761487 
L 388.637378 299.244876 
L 389.120946 299.408937 
L 389.604513 299.058083 
L 390.088081 299.174081 
L 390.571649 299.664245 
L 391.055217 299.566815 
L 391.538784 298.302319 
L 392.022352 299.311394 
L 392.989488 299.045618 
L 393.473055 299.779758 
L 393.956623 299.943765 
L 394.923759 299.441477 
L 395.890894 299.63793 
L 396.374462 299.284325 
L 396.85803 299.431829 
L 397.341598 299.092664 
L 397.825165 298.485481 
L 398.308733 298.544827 
L 398.792301 299.220392 
L 399.275869 294.407316 
L 399.759436 296.583061 
L 400.243004 299.486046 
L 400.726572 300 
L 401.21014 294.114093 
L 401.693707 293.266131 
L 402.177275 299.288215 
L 402.177275 299.288215 
" style="fill:none;stroke:#ff7f0e;stroke-linecap:round;stroke-width:1.5;"/>
   </g>
   <g id="patch_3">
    <path d="M 59.279375 300 
L 59.279375 28.2 
" style="fill:none;stroke:#262626;stroke-linecap:square;stroke-linejoin:miter;stroke-width:1.25;"/>
   </g>
   <g id="patch_4">
    <path d="M 784.679375 300 
L 784.679375 28.2 
" style="fill:none;stroke:#262626;stroke-linecap:square;stroke-linejoin:miter;stroke-width:1.25;"/>
   </g>
   <g id="patch_5">
    <path d="M 59.279375 300 
L 784.679375 300 
" style="fill:none;stroke:#262626;stroke-linecap:square;stroke-linejoin:miter;stroke-width:1.25;"/>
   </g>
   <g id="patch_6">
    <path d="M 59.279375 28.2 
L 784.679375 28.2 
" style="fill:none;stroke:#262626;stroke-linecap:square;stroke-linejoin:miter;stroke-width:1.25;"/>
   </g>
   <g id="text_17">
    <!-- Training with 2D Gaussian signals and $\epsilon_w=0.015$ -->
    <g style="fill:#262626;" transform="translate(196.179375 22.2)scale(0.2 -0.2)">
     <defs>
      <path d="M 2250 3916 
L 2250 0 
L 1656 0 
L 1656 3916 
L 144 3916 
L 144 4403 
L 3763 4403 
L 3763 3916 
L 2250 3916 
z
" id="LiberationSans-54" transform="scale(0.015625)"/>
      <path d="M 1713 -1328 
Q 1422 -1328 1197 -1268 
Q 972 -1209 812 -1098 
Q 653 -988 553 -834 
Q 453 -681 409 -494 
L 975 -413 
Q 1031 -647 1223 -773 
Q 1416 -900 1728 -900 
Q 1919 -900 2075 -847 
Q 2231 -794 2340 -676 
Q 2450 -559 2509 -371 
Q 2569 -184 2569 84 
L 2569 628 
L 2563 628 
Q 2500 500 2408 383 
Q 2316 266 2183 175 
Q 2050 84 1875 29 
Q 1700 -25 1475 -25 
Q 1153 -25 923 83 
Q 694 191 548 406 
Q 403 622 336 942 
Q 269 1263 269 1684 
Q 269 2091 336 2416 
Q 403 2741 554 2967 
Q 706 3194 948 3314 
Q 1191 3434 1538 3434 
Q 1897 3434 2161 3270 
Q 2425 3106 2569 2803 
L 2575 2803 
Q 2575 2881 2579 2978 
Q 2584 3075 2589 3161 
Q 2594 3247 2600 3309 
Q 2606 3372 2613 3381 
L 3147 3381 
Q 3144 3353 3141 3286 
Q 3138 3219 3134 3125 
Q 3131 3031 3129 2917 
Q 3128 2803 3128 2681 
L 3128 97 
Q 3128 -613 2779 -970 
Q 2431 -1328 1713 -1328 
z
M 2569 1691 
Q 2569 2044 2492 2295 
Q 2416 2547 2291 2706 
Q 2166 2866 2005 2941 
Q 1844 3016 1675 3016 
Q 1459 3016 1304 2941 
Q 1150 2866 1048 2705 
Q 947 2544 898 2292 
Q 850 2041 850 1691 
Q 850 1325 898 1076 
Q 947 828 1047 675 
Q 1147 522 1300 456 
Q 1453 391 1666 391 
Q 1834 391 1995 462 
Q 2156 534 2284 690 
Q 2413 847 2491 1094 
Q 2569 1341 2569 1691 
z
" id="LiberationSans-67" transform="scale(0.015625)"/>
      <path d="M 3669 0 
L 3016 0 
L 2475 2181 
Q 2450 2266 2423 2391 
Q 2397 2516 2372 2634 
Q 2341 2772 2313 2919 
Q 2284 2778 2253 2641 
Q 2228 2522 2198 2394 
Q 2169 2266 2144 2169 
L 1588 0 
L 938 0 
L -9 3381 
L 547 3381 
L 1119 1084 
Q 1141 1013 1162 908 
Q 1184 803 1206 703 
Q 1228 588 1253 466 
Q 1278 584 1306 697 
Q 1331 794 1356 894 
Q 1381 994 1400 1059 
L 2013 3381 
L 2616 3381 
L 3206 1059 
Q 3228 978 3253 875 
Q 3278 772 3300 681 
Q 3325 575 3350 466 
Q 3375 584 3400 697 
Q 3422 794 3445 898 
Q 3469 1003 3491 1084 
L 4088 3381 
L 4638 3381 
L 3669 0 
z
" id="LiberationSans-77" transform="scale(0.015625)"/>
      <path d="M 4316 2247 
Q 4316 1697 4150 1276 
Q 3984 856 3696 573 
Q 3409 291 3017 145 
Q 2625 0 2172 0 
L 525 0 
L 525 4403 
L 1981 4403 
Q 2491 4403 2920 4276 
Q 3350 4150 3659 3886 
Q 3969 3622 4142 3215 
Q 4316 2809 4316 2247 
z
M 3716 2247 
Q 3716 2694 3587 3011 
Q 3459 3328 3228 3531 
Q 2997 3734 2675 3829 
Q 2353 3925 1969 3925 
L 1122 3925 
L 1122 478 
L 2103 478 
Q 2450 478 2745 590 
Q 3041 703 3256 925 
Q 3472 1147 3594 1478 
Q 3716 1809 3716 2247 
z
" id="LiberationSans-44" transform="scale(0.015625)"/>
      <path d="M 322 2222 
Q 322 2738 461 3153 
Q 600 3569 876 3861 
Q 1153 4153 1562 4311 
Q 1972 4469 2513 4469 
Q 2919 4469 3225 4397 
Q 3531 4325 3756 4190 
Q 3981 4056 4137 3864 
Q 4294 3672 4403 3431 
L 3834 3263 
Q 3753 3425 3639 3558 
Q 3525 3691 3362 3784 
Q 3200 3878 2986 3929 
Q 2772 3981 2497 3981 
Q 2097 3981 1801 3856 
Q 1506 3731 1312 3500 
Q 1119 3269 1023 2944 
Q 928 2619 928 2222 
Q 928 1825 1031 1495 
Q 1134 1166 1337 927 
Q 1541 688 1842 555 
Q 2144 422 2541 422 
Q 2800 422 3019 465 
Q 3238 509 3414 579 
Q 3591 650 3725 736 
Q 3859 822 3950 909 
L 3950 1703 
L 2634 1703 
L 2634 2203 
L 4500 2203 
L 4500 684 
Q 4353 534 4154 398 
Q 3956 263 3709 159 
Q 3463 56 3169 -3 
Q 2875 -63 2541 -63 
Q 1984 -63 1568 107 
Q 1153 278 876 583 
Q 600 888 461 1306 
Q 322 1725 322 2222 
z
" id="LiberationSans-47" transform="scale(0.015625)"/>
      <path d="M 1263 1888 
Q 925 1963 778 2166 
Q 669 2309 669 2503 
Q 669 3034 1175 3344 
Q 1575 3588 2188 3588 
Q 2425 3588 2684 3550 
Q 2944 3513 3234 3438 
L 3134 2916 
Q 2847 3006 2606 3047 
Q 2359 3088 2138 3088 
Q 1766 3088 1522 2944 
Q 1228 2772 1228 2522 
Q 1228 2356 1381 2241 
Q 1563 2103 1925 2103 
L 2409 2103 
L 2319 1628 
L 1856 1628 
Q 1425 1628 1172 1469 
Q 828 1253 828 916 
Q 828 703 1013 563 
Q 1244 388 1716 388 
Q 2006 388 2284 444 
Q 2563 503 2806 619 
L 2700 84 
Q 2403 -3 2131 -47 
Q 1859 -91 1609 -91 
Q 866 -91 516 194 
Q 250 413 250 781 
Q 250 1278 600 1584 
Q 859 1813 1263 1888 
z
" id="DejaVuSans-Oblique-3b5" transform="scale(0.015625)"/>
      <path d="M 544 3500 
L 1113 3500 
L 1259 684 
L 2566 3500 
L 3231 3500 
L 3425 684 
L 4666 3500 
L 5241 3500 
L 3641 0 
L 2969 0 
L 2797 2900 
L 1459 0 
L 781 0 
L 544 3500 
z
" id="DejaVuSans-Oblique-77" transform="scale(0.015625)"/>
      <path d="M 678 2906 
L 4684 2906 
L 4684 2381 
L 678 2381 
L 678 2906 
z
M 678 1631 
L 4684 1631 
L 4684 1100 
L 678 1100 
L 678 1631 
z
" id="DejaVuSans-3d" transform="scale(0.015625)"/>
      <path d="M 2034 4250 
Q 1547 4250 1301 3770 
Q 1056 3291 1056 2328 
Q 1056 1369 1301 889 
Q 1547 409 2034 409 
Q 2525 409 2770 889 
Q 3016 1369 3016 2328 
Q 3016 3291 2770 3770 
Q 2525 4250 2034 4250 
z
M 2034 4750 
Q 2819 4750 3233 4129 
Q 3647 3509 3647 2328 
Q 3647 1150 3233 529 
Q 2819 -91 2034 -91 
Q 1250 -91 836 529 
Q 422 1150 422 2328 
Q 422 3509 836 4129 
Q 1250 4750 2034 4750 
z
" id="DejaVuSans-30" transform="scale(0.015625)"/>
      <path d="M 684 794 
L 1344 794 
L 1344 0 
L 684 0 
L 684 794 
z
" id="DejaVuSans-2e" transform="scale(0.015625)"/>
      <path d="M 794 531 
L 1825 531 
L 1825 4091 
L 703 3866 
L 703 4441 
L 1819 4666 
L 2450 4666 
L 2450 531 
L 3481 531 
L 3481 0 
L 794 0 
L 794 531 
z
" id="DejaVuSans-31" transform="scale(0.015625)"/>
      <path d="M 691 4666 
L 3169 4666 
L 3169 4134 
L 1269 4134 
L 1269 2991 
Q 1406 3038 1543 3061 
Q 1681 3084 1819 3084 
Q 2600 3084 3056 2656 
Q 3513 2228 3513 1497 
Q 3513 744 3044 326 
Q 2575 -91 1722 -91 
Q 1428 -91 1123 -41 
Q 819 9 494 109 
L 494 744 
Q 775 591 1075 516 
Q 1375 441 1709 441 
Q 2250 441 2565 725 
Q 2881 1009 2881 1497 
Q 2881 1984 2565 2268 
Q 2250 2553 1709 2553 
Q 1456 2553 1204 2497 
Q 953 2441 691 2322 
L 691 4666 
z
" id="DejaVuSans-35" transform="scale(0.015625)"/>
     </defs>
     <use transform="translate(0 0.78125)" xlink:href="#LiberationSans-54"/>
     <use transform="translate(61.083984 0.78125)" xlink:href="#LiberationSans-72"/>
     <use transform="translate(94.384766 0.78125)" xlink:href="#LiberationSans-61"/>
     <use transform="translate(150 0.78125)" xlink:href="#LiberationSans-69"/>
     <use transform="translate(172.216797 0.78125)" xlink:href="#LiberationSans-6e"/>
     <use transform="translate(227.832031 0.78125)" xlink:href="#LiberationSans-69"/>
     <use transform="translate(250.048828 0.78125)" xlink:href="#LiberationSans-6e"/>
     <use transform="translate(305.664062 0.78125)" xlink:href="#LiberationSans-67"/>
     <use transform="translate(361.279297 0.78125)" xlink:href="#LiberationSans-20"/>
     <use transform="translate(389.0625 0.78125)" xlink:href="#LiberationSans-77"/>
     <use transform="translate(461.279297 0.78125)" xlink:href="#LiberationSans-69"/>
     <use transform="translate(483.496094 0.78125)" xlink:href="#LiberationSans-74"/>
     <use transform="translate(511.279297 0.78125)" xlink:href="#LiberationSans-68"/>
     <use transform="translate(566.894531 0.78125)" xlink:href="#LiberationSans-20"/>
     <use transform="translate(594.677734 0.78125)" xlink:href="#LiberationSans-32"/>
     <use transform="translate(650.292969 0.78125)" xlink:href="#LiberationSans-44"/>
     <use transform="translate(722.509766 0.78125)" xlink:href="#LiberationSans-20"/>
     <use transform="translate(750.292969 0.78125)" xlink:href="#LiberationSans-47"/>
     <use transform="translate(828.076172 0.78125)" xlink:href="#LiberationSans-61"/>
     <use transform="translate(883.691406 0.78125)" xlink:href="#LiberationSans-75"/>
     <use transform="translate(939.306641 0.78125)" xlink:href="#LiberationSans-73"/>
     <use transform="translate(989.306641 0.78125)" xlink:href="#LiberationSans-73"/>
     <use transform="translate(1039.306641 0.78125)" xlink:href="#LiberationSans-69"/>
     <use transform="translate(1061.523438 0.78125)" xlink:href="#LiberationSans-61"/>
     <use transform="translate(1117.138672 0.78125)" xlink:href="#LiberationSans-6e"/>
     <use transform="translate(1172.753906 0.78125)" xlink:href="#LiberationSans-20"/>
     <use transform="translate(1200.537109 0.78125)" xlink:href="#LiberationSans-73"/>
     <use transform="translate(1250.537109 0.78125)" xlink:href="#LiberationSans-69"/>
     <use transform="translate(1272.753906 0.78125)" xlink:href="#LiberationSans-67"/>
     <use transform="translate(1328.369141 0.78125)" xlink:href="#LiberationSans-6e"/>
     <use transform="translate(1383.984375 0.78125)" xlink:href="#LiberationSans-61"/>
     <use transform="translate(1439.599609 0.78125)" xlink:href="#LiberationSans-6c"/>
     <use transform="translate(1461.816406 0.78125)" xlink:href="#LiberationSans-73"/>
     <use transform="translate(1511.816406 0.78125)" xlink:href="#LiberationSans-20"/>
     <use transform="translate(1539.599609 0.78125)" xlink:href="#LiberationSans-61"/>
     <use transform="translate(1595.214844 0.78125)" xlink:href="#LiberationSans-6e"/>
     <use transform="translate(1650.830078 0.78125)" xlink:href="#LiberationSans-64"/>
     <use transform="translate(1706.445312 0.78125)" xlink:href="#LiberationSans-20"/>
     <use transform="translate(1734.228516 0.78125)" xlink:href="#DejaVuSans-Oblique-3b5"/>
     <use transform="translate(1788.28125 -15.625)scale(0.7)" xlink:href="#DejaVuSans-Oblique-77"/>
     <use transform="translate(1867.749023 0.78125)" xlink:href="#DejaVuSans-3d"/>
     <use transform="translate(1971.020508 0.78125)" xlink:href="#DejaVuSans-30"/>
     <use transform="translate(2034.643555 0.78125)" xlink:href="#DejaVuSans-2e"/>
     <use transform="translate(2066.430664 0.78125)" xlink:href="#DejaVuSans-30"/>
     <use transform="translate(2130.053711 0.78125)" xlink:href="#DejaVuSans-31"/>
     <use transform="translate(2193.676758 0.78125)" xlink:href="#DejaVuSans-35"/>
    </g>
   </g>
   <g id="legend_1">
    <g id="line2d_17">
     <path d="M 696.839375 51.144375 
L 732.839375 51.144375 
" style="fill:none;stroke:#1f77b4;stroke-linecap:round;stroke-width:1.5;"/>
    </g>
    <g id="line2d_18"/>
    <g id="text_18">
     <!-- $\mathcal{L}_1$ -->
     <g style="fill:#262626;" transform="translate(747.239375 57.444375)scale(0.18 -0.18)">
      <defs>
       <path d="M 4070 915 
L 4179 800 
Q 3347 -45 2413 -45 
Q 2157 -45 1850 26 
Q 1395 122 1146 122 
Q 1005 122 672 61 
Q 339 0 192 0 
L 230 154 
Q 582 154 730 749 
L 1178 2566 
Q 1286 3008 1516 3353 
Q 1747 3699 2025 3894 
Q 2304 4090 2585 4189 
Q 2867 4288 3123 4288 
Q 3443 4288 3593 4083 
Q 3744 3878 3744 3584 
Q 3744 3347 3593 3200 
Q 3443 3053 3226 3053 
Q 3085 3053 2995 3149 
Q 2906 3245 2906 3379 
Q 2906 3482 2957 3552 
Q 3008 3622 3065 3644 
Q 3123 3667 3174 3705 
Q 3226 3744 3226 3789 
Q 3226 4032 2854 4032 
Q 2522 4032 2310 3785 
Q 2099 3539 1990 3132 
Q 1882 2726 1795 2284 
Q 1709 1843 1549 1363 
Q 1389 883 1158 589 
L 1158 563 
Q 1363 704 1888 704 
Q 2227 704 2460 544 
Q 2694 384 2963 384 
Q 3507 384 4070 915 
z
" id="STIXNonUnicode-Italic-e238" transform="scale(0.015625)"/>
      </defs>
      <use xlink:href="#STIXNonUnicode-Italic-e238"/>
      <use transform="translate(70.257019 -16.40625)scale(0.7)" xlink:href="#DejaVuSans-31"/>
     </g>
    </g>
    <g id="line2d_19">
     <path d="M 696.839375 76.92375 
L 732.839375 76.92375 
" style="fill:none;stroke:#ff7f0e;stroke-linecap:round;stroke-width:1.5;"/>
    </g>
    <g id="line2d_20"/>
    <g id="text_19">
     <!-- $\mathcal{L}_2$ -->
     <g style="fill:#262626;" transform="translate(747.239375 83.22375)scale(0.18 -0.18)">
      <defs>
       <path d="M 1228 531 
L 3431 531 
L 3431 0 
L 469 0 
L 469 531 
Q 828 903 1448 1529 
Q 2069 2156 2228 2338 
Q 2531 2678 2651 2914 
Q 2772 3150 2772 3378 
Q 2772 3750 2511 3984 
Q 2250 4219 1831 4219 
Q 1534 4219 1204 4116 
Q 875 4013 500 3803 
L 500 4441 
Q 881 4594 1212 4672 
Q 1544 4750 1819 4750 
Q 2544 4750 2975 4387 
Q 3406 4025 3406 3419 
Q 3406 3131 3298 2873 
Q 3191 2616 2906 2266 
Q 2828 2175 2409 1742 
Q 1991 1309 1228 531 
z
" id="DejaVuSans-32" transform="scale(0.015625)"/>
      </defs>
      <use xlink:href="#STIXNonUnicode-Italic-e238"/>
      <use transform="translate(70.257019 -16.40625)scale(0.7)" xlink:href="#DejaVuSans-32"/>
     </g>
    </g>
   </g>
  </g>
 </g>
 <defs>
  <clipPath id="pba6b513f9e">
   <rect height="271.8" width="725.4" x="59.279375" y="28.2"/>
  </clipPath>
 </defs>
</svg>
