<?xml version="1.0" encoding="utf-8" standalone="no"?>
<!DOCTYPE svg PUBLIC "-//W3C//DTD SVG 1.1//EN"
  "http://www.w3.org/Graphics/SVG/1.1/DTD/svg11.dtd">
<svg height="433.06775pt" version="1.1" viewBox="0 0 1097.480625 433.06775" width="1097.480625pt" xmlns="http://www.w3.org/2000/svg" xmlns:xlink="http://www.w3.org/1999/xlink">
 <metadata>
  <rdf:RDF xmlns:cc="http://creativecommons.org/ns#" xmlns:dc="http://purl.org/dc/elements/1.1/" xmlns:rdf="http://www.w3.org/1999/02/22-rdf-syntax-ns#">
   <cc:Work>
    <dc:type rdf:resource="http://purl.org/dc/dcmitype/StillImage"/>
    <dc:date>2023-01-18T17:21:30.215133</dc:date>
    <dc:format>image/svg+xml</dc:format>
    <dc:creator>
     <cc:Agent>
      <dc:title>Matplotlib v3.4.2, https://matplotlib.org/</dc:title>
     </cc:Agent>
    </dc:creator>
   </cc:Work>
  </rdf:RDF>
 </metadata>
 <defs>
  <style type="text/css">*{stroke-linecap:butt;stroke-linejoin:round;}</style>
 </defs>
 <g id="figure_1">
  <g id="patch_1">
   <path d="M 0 433.06775 
L 1097.480625 433.06775 
L 1097.480625 -0 
L 0 -0 
z
" style="fill:none;"/>
  </g>
  <g id="axes_1">
   <g id="patch_2">
    <path d="M 85.880625 372.284 
L 1090.280625 372.284 
L 1090.280625 46.124 
L 85.880625 46.124 
z
" style="fill:#ffffff;"/>
   </g>
   <g id="PolyCollection_1">
    <defs>
     <path d="M 186.999973 -156.685093 
L 185.641277 -156.685093 
L 185.498502 -157.909115 
L 185.331896 -159.133137 
L 185.13879 -160.357159 
L 184.916452 -161.581181 
L 184.662119 -162.805203 
L 184.373036 -164.029225 
L 184.046491 -165.253247 
L 183.679854 -166.477269 
L 183.270616 -167.701291 
L 182.816416 -168.925313 
L 182.315075 -170.149335 
L 181.76462 -171.373357 
L 181.163302 -172.597379 
L 180.509617 -173.821401 
L 179.802321 -175.045423 
L 179.040436 -176.269445 
L 178.223272 -177.493467 
L 177.350438 -178.717489 
L 176.421859 -179.941511 
L 175.437805 -181.165533 
L 174.398917 -182.389555 
L 173.306243 -183.613577 
L 172.161281 -184.837599 
L 170.966018 -186.061621 
L 169.722973 -187.285643 
L 168.435236 -188.509665 
L 167.106492 -189.733687 
L 165.741039 -190.957709 
L 164.343778 -192.181731 
L 162.920189 -193.405752 
L 161.476271 -194.629774 
L 160.018465 -195.853796 
L 158.553541 -197.077818 
L 157.088467 -198.30184 
L 155.63026 -199.525862 
L 154.185823 -200.749884 
L 152.761779 -201.973906 
L 151.364321 -203.197928 
L 149.999072 -204.42195 
L 148.670984 -205.645972 
L 147.384271 -206.869994 
L 146.142389 -208.094016 
L 144.948073 -209.318038 
L 143.803422 -210.54206 
L 142.710036 -211.766082 
L 141.669194 -212.990104 
L 140.682072 -214.214126 
L 139.749977 -215.438148 
L 138.874587 -216.66217 
L 138.058178 -217.886192 
L 137.303831 -219.110214 
L 136.615581 -220.334236 
L 135.99852 -221.558258 
L 135.458828 -222.78228 
L 135.003723 -224.006302 
L 134.641343 -225.230324 
L 134.380541 -226.454346 
L 134.230626 -227.678368 
L 134.201033 -228.90239 
L 134.300958 -230.126412 
L 134.538969 -231.350434 
L 134.922608 -232.574456 
L 135.458006 -233.798478 
L 136.149533 -235.0225 
L 136.999492 -236.246522 
L 138.007885 -237.470544 
L 139.172245 -238.694566 
L 140.487554 -239.918588 
L 141.94625 -241.14261 
L 143.538318 -242.366632 
L 145.251456 -243.590654 
L 147.071326 -244.814676 
L 148.981861 -246.038698 
L 150.965625 -247.26272 
L 153.004207 -248.486742 
L 155.078645 -249.710764 
L 157.169845 -250.934786 
L 159.258999 -252.158808 
L 161.327978 -253.38283 
L 163.359691 -254.606852 
L 165.3384 -255.830873 
L 167.249984 -257.054895 
L 169.082139 -258.278917 
L 170.824527 -259.502939 
L 172.468853 -260.726961 
L 174.008889 -261.950983 
L 175.440441 -263.175005 
L 176.76126 -264.399027 
L 177.970918 -265.623049 
L 179.07064 -266.847071 
L 180.063114 -268.071093 
L 180.95228 -269.295115 
L 181.743109 -270.519137 
L 182.441384 -271.743159 
L 183.053476 -272.967181 
L 183.586145 -274.191203 
L 184.04635 -275.415225 
L 184.441078 -276.639247 
L 184.777198 -277.863269 
L 187.864052 -277.863269 
L 187.864052 -277.863269 
L 188.200172 -276.639247 
L 188.5949 -275.415225 
L 189.055105 -274.191203 
L 189.587774 -272.967181 
L 190.199866 -271.743159 
L 190.898141 -270.519137 
L 191.68897 -269.295115 
L 192.578136 -268.071093 
L 193.57061 -266.847071 
L 194.670332 -265.623049 
L 195.87999 -264.399027 
L 197.200809 -263.175005 
L 198.632361 -261.950983 
L 200.172397 -260.726961 
L 201.816723 -259.502939 
L 203.559111 -258.278917 
L 205.391266 -257.054895 
L 207.30285 -255.830873 
L 209.281559 -254.606852 
L 211.313272 -253.38283 
L 213.382251 -252.158808 
L 215.471405 -250.934786 
L 217.562605 -249.710764 
L 219.637043 -248.486742 
L 221.675625 -247.26272 
L 223.659389 -246.038698 
L 225.569924 -244.814676 
L 227.389794 -243.590654 
L 229.102932 -242.366632 
L 230.695 -241.14261 
L 232.153696 -239.918588 
L 233.469005 -238.694566 
L 234.633365 -237.470544 
L 235.641758 -236.246522 
L 236.491717 -235.0225 
L 237.183244 -233.798478 
L 237.718642 -232.574456 
L 238.102281 -231.350434 
L 238.340292 -230.126412 
L 238.440217 -228.90239 
L 238.410624 -227.678368 
L 238.260709 -226.454346 
L 237.999907 -225.230324 
L 237.637527 -224.006302 
L 237.182422 -222.78228 
L 236.64273 -221.558258 
L 236.025669 -220.334236 
L 235.337419 -219.110214 
L 234.583072 -217.886192 
L 233.766663 -216.66217 
L 232.891273 -215.438148 
L 231.959178 -214.214126 
L 230.972056 -212.990104 
L 229.931214 -211.766082 
L 228.837828 -210.54206 
L 227.693177 -209.318038 
L 226.498861 -208.094016 
L 225.256979 -206.869994 
L 223.970266 -205.645972 
L 222.642178 -204.42195 
L 221.276929 -203.197928 
L 219.879471 -201.973906 
L 218.455427 -200.749884 
L 217.01099 -199.525862 
L 215.552783 -198.30184 
L 214.087709 -197.077818 
L 212.622785 -195.853796 
L 211.164979 -194.629774 
L 209.721061 -193.405752 
L 208.297472 -192.181731 
L 206.900211 -190.957709 
L 205.534758 -189.733687 
L 204.206014 -188.509665 
L 202.918277 -187.285643 
L 201.675232 -186.061621 
L 200.479969 -184.837599 
L 199.335007 -183.613577 
L 198.242333 -182.389555 
L 197.203445 -181.165533 
L 196.219391 -179.941511 
L 195.290812 -178.717489 
L 194.417978 -177.493467 
L 193.600814 -176.269445 
L 192.838929 -175.045423 
L 192.131633 -173.821401 
L 191.477948 -172.597379 
L 190.87663 -171.373357 
L 190.326175 -170.149335 
L 189.824834 -168.925313 
L 189.370634 -167.701291 
L 188.961396 -166.477269 
L 188.594759 -165.253247 
L 188.268214 -164.029225 
L 187.979131 -162.805203 
L 187.724798 -161.581181 
L 187.50246 -160.357159 
L 187.309354 -159.133137 
L 187.142748 -157.909115 
L 186.999973 -156.685093 
z
" id="m51117c62fd" style="stroke:#313131;stroke-width:1.5;"/>
    </defs>
    <g clip-path="url(#p4d78e24bde)">
     <use style="fill:#772b58;stroke:#313131;stroke-width:1.5;" x="0" xlink:href="#m51117c62fd" y="433.06775"/>
    </g>
   </g>
   <g id="PolyCollection_2">
    <defs>
     <path d="M 321.031471 -178.319578 
L 319.449779 -178.319578 
L 319.248121 -179.565293 
L 319.005626 -180.811008 
L 318.716755 -182.056724 
L 318.375815 -183.302439 
L 317.97707 -184.548154 
L 317.514856 -185.79387 
L 316.983705 -187.039585 
L 316.378453 -188.2853 
L 315.694333 -189.531015 
L 314.927043 -190.776731 
L 314.072776 -192.022446 
L 313.128219 -193.268161 
L 312.090503 -194.513876 
L 310.957126 -195.759592 
L 309.725841 -197.005307 
L 308.39454 -198.251022 
L 306.961139 -199.496738 
L 305.42349 -200.742453 
L 303.779353 -201.988168 
L 302.02644 -203.233883 
L 300.162559 -204.479599 
L 298.185872 -205.725314 
L 296.095263 -206.971029 
L 293.890827 -208.216745 
L 291.574443 -209.46246 
L 289.150414 -210.708175 
L 286.62612 -211.95389 
L 284.012639 -213.199606 
L 281.325273 -214.445321 
L 278.583923 -215.691036 
L 275.813257 -216.936751 
L 273.042617 -218.182467 
L 270.305659 -219.428182 
L 267.63969 -220.673897 
L 265.084723 -221.919613 
L 262.682292 -223.165328 
L 260.47407 -224.411043 
L 258.500367 -225.656758 
L 256.798605 -226.902474 
L 255.40184 -228.148189 
L 254.337445 -229.393904 
L 253.626023 -230.639619 
L 253.280625 -231.885335 
L 253.306308 -233.13105 
L 253.700066 -234.376765 
L 254.45113 -235.622481 
L 255.541585 -236.868196 
L 256.947289 -238.113911 
L 258.638987 -239.359626 
L 260.583563 -240.605342 
L 262.745346 -241.851057 
L 265.087373 -243.096772 
L 267.572563 -244.342487 
L 270.164726 -245.588203 
L 272.829386 -246.833918 
L 275.534395 -248.079633 
L 278.250336 -249.325349 
L 280.950746 -250.571064 
L 283.612172 -251.816779 
L 286.214115 -253.062494 
L 288.738899 -254.30821 
L 291.171492 -255.553925 
L 293.499335 -256.79964 
L 295.712177 -258.045355 
L 297.801958 -259.291071 
L 299.762716 -260.536786 
L 301.590537 -261.782501 
L 303.283512 -263.028217 
L 304.84171 -264.273932 
L 306.267116 -265.519647 
L 307.563552 -266.765362 
L 308.736539 -268.011078 
L 309.793106 -269.256793 
L 310.741546 -270.502508 
L 311.591122 -271.748224 
L 312.351733 -272.993939 
L 313.033564 -274.239654 
L 313.646732 -275.485369 
L 314.200954 -276.731085 
L 314.705254 -277.9768 
L 315.167724 -279.222515 
L 315.595352 -280.46823 
L 315.993924 -281.713946 
L 316.367998 -282.959661 
L 316.720946 -284.205376 
L 317.055055 -285.451092 
L 317.371672 -286.696807 
L 317.671388 -287.942522 
L 317.954225 -289.188237 
L 318.219836 -290.433953 
L 318.467685 -291.679668 
L 318.697208 -292.925383 
L 318.907943 -294.171098 
L 319.099628 -295.416814 
L 319.272259 -296.662529 
L 319.426125 -297.908244 
L 319.561807 -299.15396 
L 319.680151 -300.399675 
L 319.782233 -301.64539 
L 320.699017 -301.64539 
L 320.699017 -301.64539 
L 320.801099 -300.399675 
L 320.919443 -299.15396 
L 321.055125 -297.908244 
L 321.208991 -296.662529 
L 321.381622 -295.416814 
L 321.573307 -294.171098 
L 321.784042 -292.925383 
L 322.013565 -291.679668 
L 322.261414 -290.433953 
L 322.527025 -289.188237 
L 322.809862 -287.942522 
L 323.109578 -286.696807 
L 323.426195 -285.451092 
L 323.760304 -284.205376 
L 324.113252 -282.959661 
L 324.487326 -281.713946 
L 324.885898 -280.46823 
L 325.313526 -279.222515 
L 325.775996 -277.9768 
L 326.280296 -276.731085 
L 326.834518 -275.485369 
L 327.447686 -274.239654 
L 328.129517 -272.993939 
L 328.890128 -271.748224 
L 329.739704 -270.502508 
L 330.688144 -269.256793 
L 331.744711 -268.011078 
L 332.917698 -266.765362 
L 334.214134 -265.519647 
L 335.63954 -264.273932 
L 337.197738 -263.028217 
L 338.890713 -261.782501 
L 340.718534 -260.536786 
L 342.679292 -259.291071 
L 344.769073 -258.045355 
L 346.981915 -256.79964 
L 349.309758 -255.553925 
L 351.742351 -254.30821 
L 354.267135 -253.062494 
L 356.869078 -251.816779 
L 359.530504 -250.571064 
L 362.230914 -249.325349 
L 364.946855 -248.079633 
L 367.651864 -246.833918 
L 370.316524 -245.588203 
L 372.908687 -244.342487 
L 375.393877 -243.096772 
L 377.735904 -241.851057 
L 379.897687 -240.605342 
L 381.842263 -239.359626 
L 383.533961 -238.113911 
L 384.939665 -236.868196 
L 386.03012 -235.622481 
L 386.781184 -234.376765 
L 387.174942 -233.13105 
L 387.200625 -231.885335 
L 386.855227 -230.639619 
L 386.143805 -229.393904 
L 385.07941 -228.148189 
L 383.682645 -226.902474 
L 381.980883 -225.656758 
L 380.00718 -224.411043 
L 377.798958 -223.165328 
L 375.396527 -221.919613 
L 372.84156 -220.673897 
L 370.175591 -219.428182 
L 367.438633 -218.182467 
L 364.667993 -216.936751 
L 361.897327 -215.691036 
L 359.155977 -214.445321 
L 356.468611 -213.199606 
L 353.85513 -211.95389 
L 351.330836 -210.708175 
L 348.906807 -209.46246 
L 346.590423 -208.216745 
L 344.385987 -206.971029 
L 342.295378 -205.725314 
L 340.318691 -204.479599 
L 338.45481 -203.233883 
L 336.701897 -201.988168 
L 335.05776 -200.742453 
L 333.520111 -199.496738 
L 332.08671 -198.251022 
L 330.755409 -197.005307 
L 329.524124 -195.759592 
L 328.390747 -194.513876 
L 327.353031 -193.268161 
L 326.408474 -192.022446 
L 325.554207 -190.776731 
L 324.786917 -189.531015 
L 324.102797 -188.2853 
L 323.497545 -187.039585 
L 322.966394 -185.79387 
L 322.50418 -184.548154 
L 322.105435 -183.302439 
L 321.764495 -182.056724 
L 321.475624 -180.811008 
L 321.233129 -179.565293 
L 321.031471 -178.319578 
z
" id="me17cbd55e5" style="stroke:#313131;stroke-width:1.5;"/>
    </defs>
    <g clip-path="url(#p4d78e24bde)">
     <use style="fill:#db6e59;stroke:#313131;stroke-width:1.5;" x="0" xlink:href="#me17cbd55e5" y="433.06775"/>
    </g>
   </g>
   <g id="PolyCollection_3">
    <defs>
     <path d="M 521.640763 -170.483778 
L 520.600487 -170.483778 
L 520.476652 -171.802164 
L 520.330186 -173.12055 
L 520.158537 -174.438936 
L 519.959149 -175.757323 
L 519.729494 -177.075709 
L 519.467094 -178.394095 
L 519.169537 -179.712481 
L 518.834466 -181.030867 
L 518.459563 -182.349254 
L 518.042505 -183.66764 
L 517.580914 -184.986026 
L 517.072287 -186.304412 
L 516.513919 -187.622798 
L 515.902837 -188.941185 
L 515.235734 -190.259571 
L 514.508922 -191.577957 
L 513.718317 -192.896343 
L 512.859451 -194.214729 
L 511.92753 -195.533116 
L 510.917523 -196.851502 
L 509.824296 -198.169888 
L 508.642781 -199.488274 
L 507.368168 -200.806661 
L 505.996117 -202.125047 
L 504.522982 -203.443433 
L 502.946026 -204.761819 
L 501.263628 -206.080205 
L 499.475472 -207.398592 
L 497.582706 -208.716978 
L 495.588083 -210.035364 
L 493.496068 -211.35375 
L 491.312929 -212.672136 
L 489.046804 -213.990523 
L 486.707756 -215.308909 
L 484.307813 -216.627295 
L 481.860998 -217.945681 
L 479.383345 -219.264067 
L 476.892892 -220.582454 
L 474.409646 -221.90084 
L 471.955508 -223.219226 
L 469.554143 -224.537612 
L 467.230783 -225.855998 
L 465.011949 -227.174385 
L 462.925094 -228.492771 
L 460.998152 -229.811157 
L 459.259004 -231.129543 
L 457.734873 -232.44793 
L 456.451662 -233.766316 
L 455.43325 -235.084702 
L 454.70079 -236.403088 
L 454.272018 -237.721474 
L 454.160625 -239.039861 
L 454.375695 -240.358247 
L 454.921261 -241.676633 
L 455.795985 -242.995019 
L 456.992984 -244.313405 
L 458.499816 -245.631792 
L 460.298627 -246.950178 
L 462.366469 -248.268564 
L 464.67577 -249.58695 
L 467.194956 -250.905336 
L 469.889203 -252.223723 
L 472.721301 -253.542109 
L 475.652595 -254.860495 
L 478.643982 -256.178881 
L 481.656919 -257.497267 
L 484.654409 -258.815654 
L 487.601922 -260.13404 
L 490.468218 -261.452426 
L 493.226029 -262.770812 
L 495.852575 -264.089198 
L 498.329896 -265.407585 
L 500.644985 -266.725971 
L 502.789718 -268.044357 
L 504.760604 -269.362743 
L 506.558365 -270.68113 
L 508.187387 -271.999516 
L 509.655072 -273.317902 
L 510.971139 -274.636288 
L 512.146916 -275.954674 
L 513.194656 -277.273061 
L 514.126923 -278.591447 
L 514.956061 -279.909833 
L 515.693777 -281.228219 
L 516.350833 -282.546605 
L 516.93686 -283.864992 
L 517.460268 -285.183378 
L 517.928258 -286.501764 
L 518.346893 -287.82015 
L 518.721231 -289.138536 
L 519.055485 -290.456923 
L 519.353185 -291.775309 
L 519.617353 -293.093695 
L 519.85064 -294.412081 
L 520.055457 -295.730467 
L 520.234066 -297.048854 
L 520.388644 -298.36724 
L 520.52132 -299.685626 
L 520.634192 -301.004012 
L 521.607058 -301.004012 
L 521.607058 -301.004012 
L 521.71993 -299.685626 
L 521.852606 -298.36724 
L 522.007184 -297.048854 
L 522.185793 -295.730467 
L 522.39061 -294.412081 
L 522.623897 -293.093695 
L 522.888065 -291.775309 
L 523.185765 -290.456923 
L 523.520019 -289.138536 
L 523.894357 -287.82015 
L 524.312992 -286.501764 
L 524.780982 -285.183378 
L 525.30439 -283.864992 
L 525.890417 -282.546605 
L 526.547473 -281.228219 
L 527.285189 -279.909833 
L 528.114327 -278.591447 
L 529.046594 -277.273061 
L 530.094334 -275.954674 
L 531.270111 -274.636288 
L 532.586178 -273.317902 
L 534.053863 -271.999516 
L 535.682885 -270.68113 
L 537.480646 -269.362743 
L 539.451532 -268.044357 
L 541.596265 -266.725971 
L 543.911354 -265.407585 
L 546.388675 -264.089198 
L 549.015221 -262.770812 
L 551.773032 -261.452426 
L 554.639328 -260.13404 
L 557.586841 -258.815654 
L 560.584331 -257.497267 
L 563.597268 -256.178881 
L 566.588655 -254.860495 
L 569.519949 -253.542109 
L 572.352047 -252.223723 
L 575.046294 -250.905336 
L 577.56548 -249.58695 
L 579.874781 -248.268564 
L 581.942623 -246.950178 
L 583.741434 -245.631792 
L 585.248266 -244.313405 
L 586.445265 -242.995019 
L 587.319989 -241.676633 
L 587.865555 -240.358247 
L 588.080625 -239.039861 
L 587.969232 -237.721474 
L 587.54046 -236.403088 
L 586.808 -235.084702 
L 585.789588 -233.766316 
L 584.506377 -232.44793 
L 582.982246 -231.129543 
L 581.243098 -229.811157 
L 579.316156 -228.492771 
L 577.229301 -227.174385 
L 575.010467 -225.855998 
L 572.687107 -224.537612 
L 570.285742 -223.219226 
L 567.831604 -221.90084 
L 565.348358 -220.582454 
L 562.857905 -219.264067 
L 560.380252 -217.945681 
L 557.933437 -216.627295 
L 555.533494 -215.308909 
L 553.194446 -213.990523 
L 550.928321 -212.672136 
L 548.745182 -211.35375 
L 546.653167 -210.035364 
L 544.658544 -208.716978 
L 542.765778 -207.398592 
L 540.977622 -206.080205 
L 539.295224 -204.761819 
L 537.718268 -203.443433 
L 536.245133 -202.125047 
L 534.873082 -200.806661 
L 533.598469 -199.488274 
L 532.416954 -198.169888 
L 531.323727 -196.851502 
L 530.31372 -195.533116 
L 529.381799 -194.214729 
L 528.522933 -192.896343 
L 527.732328 -191.577957 
L 527.005516 -190.259571 
L 526.338413 -188.941185 
L 525.727331 -187.622798 
L 525.168963 -186.304412 
L 524.660336 -184.986026 
L 524.198745 -183.66764 
L 523.781687 -182.349254 
L 523.406784 -181.030867 
L 523.071713 -179.712481 
L 522.774156 -178.394095 
L 522.511756 -177.075709 
L 522.282101 -175.757323 
L 522.082713 -174.438936 
L 521.911064 -173.12055 
L 521.764598 -171.802164 
L 521.640763 -170.483778 
z
" id="m2aeb4ec794" style="stroke:#313131;stroke-width:1.5;"/>
    </defs>
    <g clip-path="url(#p4d78e24bde)">
     <use style="fill:#772b58;stroke:#313131;stroke-width:1.5;" x="0" xlink:href="#m2aeb4ec794" y="433.06775"/>
    </g>
   </g>
   <g id="PolyCollection_4">
    <defs>
     <path d="M 655.624846 -182.009276 
L 654.456404 -182.009276 
L 654.322048 -183.326865 
L 654.162932 -184.644454 
L 653.975873 -185.962044 
L 653.757532 -187.279633 
L 653.50444 -188.597222 
L 653.213024 -189.914811 
L 652.87964 -191.232401 
L 652.500595 -192.54999 
L 652.072169 -193.867579 
L 651.590635 -195.185169 
L 651.05227 -196.502758 
L 650.453362 -197.820347 
L 649.790215 -199.137937 
L 649.059153 -200.455526 
L 648.256526 -201.773115 
L 647.378718 -203.090704 
L 646.422174 -204.408294 
L 645.383436 -205.725883 
L 644.259207 -207.043472 
L 643.046431 -208.361062 
L 641.742413 -209.678651 
L 640.344957 -210.99624 
L 638.852546 -212.313829 
L 637.264533 -213.631419 
L 635.581364 -214.949008 
L 633.804807 -216.266597 
L 631.938176 -217.584187 
L 629.986544 -218.901776 
L 627.956929 -220.219365 
L 625.858432 -221.536954 
L 623.702318 -222.854544 
L 621.502021 -224.172133 
L 619.273081 -225.489722 
L 617.032976 -226.807312 
L 614.800887 -228.124901 
L 612.597369 -229.44249 
L 610.443951 -230.760079 
L 608.362686 -232.077669 
L 606.375653 -233.395258 
L 604.504446 -234.712847 
L 602.769669 -236.030437 
L 601.190456 -237.348026 
L 599.784037 -238.665615 
L 598.565372 -239.983204 
L 597.546857 -241.300794 
L 596.738121 -242.618383 
L 596.145902 -243.935972 
L 595.774014 -245.253562 
L 595.623386 -246.571151 
L 595.692171 -247.88874 
L 595.975912 -249.20633 
L 596.467748 -250.523919 
L 597.158654 -251.841508 
L 598.037699 -253.159097 
L 599.092318 -254.476687 
L 600.308594 -255.794276 
L 601.671532 -257.111865 
L 603.165342 -258.429455 
L 604.773714 -259.747044 
L 606.480088 -261.064633 
L 608.267921 -262.382222 
L 610.120935 -263.699812 
L 612.023364 -265.017401 
L 613.960162 -266.33499 
L 615.917205 -267.65258 
L 617.88144 -268.970169 
L 619.841008 -270.287758 
L 621.785315 -271.605347 
L 623.705065 -272.922937 
L 625.592238 -274.240526 
L 627.440031 -275.558115 
L 629.242759 -276.875705 
L 630.995732 -278.193294 
L 632.695107 -279.510883 
L 634.337738 -280.828472 
L 635.921029 -282.146062 
L 637.442796 -283.463651 
L 638.901163 -284.78124 
L 640.294473 -286.09883 
L 641.621239 -287.416419 
L 642.880128 -288.734008 
L 644.069967 -290.051598 
L 645.18978 -291.369187 
L 646.238843 -292.686776 
L 647.216742 -294.004365 
L 648.12344 -295.321955 
L 648.959337 -296.639544 
L 649.725315 -297.957133 
L 650.422767 -299.274723 
L 651.053605 -300.592312 
L 651.62025 -301.909901 
L 652.125593 -303.22749 
L 652.572946 -304.54508 
L 652.965967 -305.862669 
L 653.308584 -307.180258 
L 653.604908 -308.497848 
L 653.859137 -309.815437 
L 654.075479 -311.133026 
L 654.258065 -312.450615 
L 655.823185 -312.450615 
L 655.823185 -312.450615 
L 656.005771 -311.133026 
L 656.222113 -309.815437 
L 656.476342 -308.497848 
L 656.772666 -307.180258 
L 657.115283 -305.862669 
L 657.508304 -304.54508 
L 657.955657 -303.22749 
L 658.461 -301.909901 
L 659.027645 -300.592312 
L 659.658483 -299.274723 
L 660.355935 -297.957133 
L 661.121913 -296.639544 
L 661.95781 -295.321955 
L 662.864508 -294.004365 
L 663.842407 -292.686776 
L 664.89147 -291.369187 
L 666.011283 -290.051598 
L 667.201122 -288.734008 
L 668.460011 -287.416419 
L 669.786777 -286.09883 
L 671.180087 -284.78124 
L 672.638454 -283.463651 
L 674.160221 -282.146062 
L 675.743512 -280.828472 
L 677.386143 -279.510883 
L 679.085518 -278.193294 
L 680.838491 -276.875705 
L 682.641219 -275.558115 
L 684.489012 -274.240526 
L 686.376185 -272.922937 
L 688.295935 -271.605347 
L 690.240242 -270.287758 
L 692.19981 -268.970169 
L 694.164045 -267.65258 
L 696.121088 -266.33499 
L 698.057886 -265.017401 
L 699.960315 -263.699812 
L 701.813329 -262.382222 
L 703.601162 -261.064633 
L 705.307536 -259.747044 
L 706.915908 -258.429455 
L 708.409718 -257.111865 
L 709.772656 -255.794276 
L 710.988932 -254.476687 
L 712.043551 -253.159097 
L 712.922596 -251.841508 
L 713.613502 -250.523919 
L 714.105338 -249.20633 
L 714.389079 -247.88874 
L 714.457864 -246.571151 
L 714.307236 -245.253562 
L 713.935348 -243.935972 
L 713.343129 -242.618383 
L 712.534393 -241.300794 
L 711.515878 -239.983204 
L 710.297213 -238.665615 
L 708.890794 -237.348026 
L 707.311581 -236.030437 
L 705.576804 -234.712847 
L 703.705597 -233.395258 
L 701.718564 -232.077669 
L 699.637299 -230.760079 
L 697.483881 -229.44249 
L 695.280363 -228.124901 
L 693.048274 -226.807312 
L 690.808169 -225.489722 
L 688.579229 -224.172133 
L 686.378932 -222.854544 
L 684.222818 -221.536954 
L 682.124321 -220.219365 
L 680.094706 -218.901776 
L 678.143074 -217.584187 
L 676.276443 -216.266597 
L 674.499886 -214.949008 
L 672.816717 -213.631419 
L 671.228704 -212.313829 
L 669.736293 -210.99624 
L 668.338837 -209.678651 
L 667.034819 -208.361062 
L 665.822043 -207.043472 
L 664.697814 -205.725883 
L 663.659076 -204.408294 
L 662.702532 -203.090704 
L 661.824724 -201.773115 
L 661.022097 -200.455526 
L 660.291035 -199.137937 
L 659.627888 -197.820347 
L 659.02898 -196.502758 
L 658.490615 -195.185169 
L 658.009081 -193.867579 
L 657.580655 -192.54999 
L 657.20161 -191.232401 
L 656.868226 -189.914811 
L 656.57681 -188.597222 
L 656.323718 -187.279633 
L 656.105377 -185.962044 
L 655.918318 -184.644454 
L 655.759202 -183.326865 
L 655.624846 -182.009276 
z
" id="m644040f24a" style="stroke:#313131;stroke-width:1.5;"/>
    </defs>
    <g clip-path="url(#p4d78e24bde)">
     <use style="fill:#db6e59;stroke:#313131;stroke-width:1.5;" x="0" xlink:href="#m644040f24a" y="433.06775"/>
    </g>
   </g>
   <g id="PolyCollection_5">
    <defs>
     <path d="M 856.457711 -174.159144 
L 855.383539 -174.159144 
L 855.262752 -175.095537 
L 855.1206 -176.03193 
L 854.954584 -176.968323 
L 854.762143 -177.904716 
L 854.540676 -178.841109 
L 854.287574 -179.777502 
L 854.000241 -180.713894 
L 853.676111 -181.650287 
L 853.312665 -182.58668 
L 852.907434 -183.523073 
L 852.457997 -184.459466 
L 851.96198 -185.395859 
L 851.417039 -186.332252 
L 850.82086 -187.268645 
L 850.171147 -188.205038 
L 849.465626 -189.14143 
L 848.702063 -190.077823 
L 847.878288 -191.014216 
L 846.992253 -191.950609 
L 846.04209 -192.887002 
L 845.02621 -193.823395 
L 843.943399 -194.759788 
L 842.792933 -195.696181 
L 841.574703 -196.632574 
L 840.289319 -197.568966 
L 838.938217 -198.505359 
L 837.523727 -199.441752 
L 836.049121 -200.378145 
L 834.518605 -201.314538 
L 832.937286 -202.250931 
L 831.311079 -203.187324 
L 829.646582 -204.123717 
L 827.950914 -205.06011 
L 826.231532 -205.996502 
L 824.496047 -206.932895 
L 822.752036 -207.869288 
L 821.006893 -208.805681 
L 819.267711 -209.742074 
L 817.54123 -210.678467 
L 815.833836 -211.61486 
L 814.151638 -212.551253 
L 812.500603 -213.487646 
L 810.886752 -214.424038 
L 809.316397 -215.360431 
L 807.796401 -216.296824 
L 806.334437 -217.233217 
L 804.939222 -218.16961 
L 803.620699 -219.106003 
L 802.390146 -220.042396 
L 801.260185 -220.978789 
L 800.244686 -221.915182 
L 799.358552 -222.851574 
L 798.617395 -223.787967 
L 798.037094 -224.72436 
L 797.633276 -225.660753 
L 797.420723 -226.597146 
L 797.412748 -227.533539 
L 797.620572 -228.469932 
L 798.052725 -229.406325 
L 798.714524 -230.342718 
L 799.607645 -231.27911 
L 800.729823 -232.215503 
L 802.074696 -233.151896 
L 803.631803 -234.088289 
L 805.386744 -235.024682 
L 807.321489 -235.961075 
L 809.414829 -236.897468 
L 811.642934 -237.833861 
L 813.980008 -238.770254 
L 816.398996 -239.706646 
L 818.872306 -240.643039 
L 821.372538 -241.579432 
L 823.873151 -242.515825 
L 826.349079 -243.452218 
L 828.777249 -244.388611 
L 831.136997 -245.325004 
L 833.410373 -246.261397 
L 835.582331 -247.19779 
L 837.640808 -248.134182 
L 839.576703 -249.070575 
L 841.383766 -250.006968 
L 843.058417 -250.943361 
L 844.599505 -251.879754 
L 846.00803 -252.816147 
L 847.286848 -253.75254 
L 848.440354 -254.688933 
L 849.474183 -255.625326 
L 850.394919 -256.561718 
L 851.209826 -257.498111 
L 851.926605 -258.434504 
L 852.553182 -259.370897 
L 853.097526 -260.30729 
L 853.567496 -261.243683 
L 853.970719 -262.180076 
L 854.31449 -263.116469 
L 854.605701 -264.052862 
L 854.850788 -264.989254 
L 855.055697 -265.925647 
L 855.225865 -266.86204 
L 856.615385 -266.86204 
L 856.615385 -266.86204 
L 856.785553 -265.925647 
L 856.990462 -264.989254 
L 857.235549 -264.052862 
L 857.52676 -263.116469 
L 857.870531 -262.180076 
L 858.273754 -261.243683 
L 858.743724 -260.30729 
L 859.288068 -259.370897 
L 859.914645 -258.434504 
L 860.631424 -257.498111 
L 861.446331 -256.561718 
L 862.367067 -255.625326 
L 863.400896 -254.688933 
L 864.554402 -253.75254 
L 865.83322 -252.816147 
L 867.241745 -251.879754 
L 868.782833 -250.943361 
L 870.457484 -250.006968 
L 872.264547 -249.070575 
L 874.200442 -248.134182 
L 876.258919 -247.19779 
L 878.430877 -246.261397 
L 880.704253 -245.325004 
L 883.064001 -244.388611 
L 885.492171 -243.452218 
L 887.968099 -242.515825 
L 890.468712 -241.579432 
L 892.968944 -240.643039 
L 895.442254 -239.706646 
L 897.861242 -238.770254 
L 900.198316 -237.833861 
L 902.426421 -236.897468 
L 904.519761 -235.961075 
L 906.454506 -235.024682 
L 908.209447 -234.088289 
L 909.766554 -233.151896 
L 911.111427 -232.215503 
L 912.233605 -231.27911 
L 913.126726 -230.342718 
L 913.788525 -229.406325 
L 914.220678 -228.469932 
L 914.428502 -227.533539 
L 914.420527 -226.597146 
L 914.207974 -225.660753 
L 913.804156 -224.72436 
L 913.223855 -223.787967 
L 912.482698 -222.851574 
L 911.596564 -221.915182 
L 910.581065 -220.978789 
L 909.451104 -220.042396 
L 908.220551 -219.106003 
L 906.902028 -218.16961 
L 905.506813 -217.233217 
L 904.044849 -216.296824 
L 902.524853 -215.360431 
L 900.954498 -214.424038 
L 899.340647 -213.487646 
L 897.689612 -212.551253 
L 896.007414 -211.61486 
L 894.30002 -210.678467 
L 892.573539 -209.742074 
L 890.834357 -208.805681 
L 889.089214 -207.869288 
L 887.345203 -206.932895 
L 885.609718 -205.996502 
L 883.890336 -205.06011 
L 882.194668 -204.123717 
L 880.530171 -203.187324 
L 878.903964 -202.250931 
L 877.322645 -201.314538 
L 875.792129 -200.378145 
L 874.317523 -199.441752 
L 872.903033 -198.505359 
L 871.551931 -197.568966 
L 870.266547 -196.632574 
L 869.048317 -195.696181 
L 867.897851 -194.759788 
L 866.81504 -193.823395 
L 865.79916 -192.887002 
L 864.848997 -191.950609 
L 863.962962 -191.014216 
L 863.139187 -190.077823 
L 862.375624 -189.14143 
L 861.670103 -188.205038 
L 861.02039 -187.268645 
L 860.424211 -186.332252 
L 859.87927 -185.395859 
L 859.383253 -184.459466 
L 858.933816 -183.523073 
L 858.528585 -182.58668 
L 858.165139 -181.650287 
L 857.841009 -180.713894 
L 857.553676 -179.777502 
L 857.300574 -178.841109 
L 857.079107 -177.904716 
L 856.886666 -176.968323 
L 856.72065 -176.03193 
L 856.578498 -175.095537 
L 856.457711 -174.159144 
z
" id="mfc22a0410c" style="stroke:#313131;stroke-width:1.5;"/>
    </defs>
    <g clip-path="url(#p4d78e24bde)">
     <use style="fill:#772b58;stroke:#313131;stroke-width:1.5;" x="0" xlink:href="#mfc22a0410c" y="433.06775"/>
    </g>
   </g>
   <g id="PolyCollection_6">
    <defs>
     <path d="M 990.349004 -200.86542 
L 989.332246 -200.86542 
L 989.216232 -201.786008 
L 989.079714 -202.706596 
L 988.920426 -203.627184 
L 988.736104 -204.547772 
L 988.524532 -205.46836 
L 988.283588 -206.388948 
L 988.011282 -207.309536 
L 987.705801 -208.230124 
L 987.365541 -209.150712 
L 986.989134 -210.071301 
L 986.575471 -210.991889 
L 986.123712 -211.912477 
L 985.633289 -212.833065 
L 985.103891 -213.753653 
L 984.535451 -214.674241 
L 983.928104 -215.594829 
L 983.282144 -216.515417 
L 982.59796 -217.436005 
L 981.875955 -218.356593 
L 981.116451 -219.277181 
L 980.31958 -220.197769 
L 979.485152 -221.118358 
L 978.612519 -222.038946 
L 977.700431 -222.959534 
L 976.746895 -223.880122 
L 975.749048 -224.80071 
L 974.703054 -225.721298 
L 973.60405 -226.641886 
L 972.446137 -227.562474 
L 971.222457 -228.483062 
L 969.925342 -229.40365 
L 968.546563 -230.324238 
L 967.077675 -231.244826 
L 965.510453 -232.165415 
L 963.837417 -233.086003 
L 962.052426 -234.006591 
L 960.15131 -234.927179 
L 958.132525 -235.847767 
L 955.997778 -236.768355 
L 953.7526 -237.688943 
L 951.406823 -238.609531 
L 948.974918 -239.530119 
L 946.476174 -240.450707 
L 943.934683 -241.371295 
L 941.379113 -242.291883 
L 938.84227 -243.212472 
L 936.360441 -244.13306 
L 933.972537 -245.053648 
L 931.719066 -245.974236 
L 929.640961 -246.894824 
L 927.778318 -247.815412 
L 926.169091 -248.736 
L 924.847799 -249.656588 
L 923.844311 -250.577176 
L 923.182756 -251.497764 
L 922.880625 -252.418352 
L 922.948096 -253.338941 
L 923.387628 -254.259529 
L 924.193849 -255.180117 
L 925.353728 -256.100705 
L 926.847052 -257.021293 
L 928.647158 -257.941881 
L 930.721902 -258.862469 
L 933.034806 -259.783057 
L 935.546328 -260.703645 
L 938.215191 -261.624233 
L 940.999705 -262.544821 
L 943.859018 -263.465409 
L 946.754243 -264.385998 
L 949.649417 -265.306586 
L 952.512246 -266.227174 
L 955.314637 -267.147762 
L 958.032995 -268.06835 
L 960.648307 -268.988938 
L 963.146018 -269.909526 
L 965.515757 -270.830114 
L 967.75092 -271.750702 
L 969.848178 -272.67129 
L 971.806929 -273.591878 
L 973.628752 -274.512466 
L 975.31688 -275.433055 
L 976.875726 -276.353643 
L 978.310478 -277.274231 
L 979.626776 -278.194819 
L 980.830459 -279.115407 
L 981.927403 -280.035995 
L 982.923413 -280.956583 
L 983.824175 -281.877171 
L 984.635243 -282.797759 
L 985.362061 -283.718347 
L 986.009983 -284.638935 
L 986.584306 -285.559523 
L 987.090287 -286.480112 
L 987.533156 -287.4007 
L 987.91811 -288.321288 
L 988.25029 -289.241876 
L 988.534755 -290.162464 
L 988.776434 -291.083052 
L 988.980088 -292.00364 
L 990.701162 -292.00364 
L 990.701162 -292.00364 
L 990.904816 -291.083052 
L 991.146495 -290.162464 
L 991.43096 -289.241876 
L 991.76314 -288.321288 
L 992.148094 -287.4007 
L 992.590963 -286.480112 
L 993.096944 -285.559523 
L 993.671267 -284.638935 
L 994.319189 -283.718347 
L 995.046007 -282.797759 
L 995.857075 -281.877171 
L 996.757837 -280.956583 
L 997.753847 -280.035995 
L 998.850791 -279.115407 
L 1000.054474 -278.194819 
L 1001.370772 -277.274231 
L 1002.805524 -276.353643 
L 1004.36437 -275.433055 
L 1006.052498 -274.512466 
L 1007.874321 -273.591878 
L 1009.833072 -272.67129 
L 1011.93033 -271.750702 
L 1014.165493 -270.830114 
L 1016.535232 -269.909526 
L 1019.032943 -268.988938 
L 1021.648255 -268.06835 
L 1024.366613 -267.147762 
L 1027.169004 -266.227174 
L 1030.031833 -265.306586 
L 1032.927007 -264.385998 
L 1035.822232 -263.465409 
L 1038.681545 -262.544821 
L 1041.466059 -261.624233 
L 1044.134922 -260.703645 
L 1046.646444 -259.783057 
L 1048.959348 -258.862469 
L 1051.034092 -257.941881 
L 1052.834198 -257.021293 
L 1054.327522 -256.100705 
L 1055.487401 -255.180117 
L 1056.293622 -254.259529 
L 1056.733154 -253.338941 
L 1056.800625 -252.418352 
L 1056.498494 -251.497764 
L 1055.836939 -250.577176 
L 1054.833451 -249.656588 
L 1053.512159 -248.736 
L 1051.902932 -247.815412 
L 1050.040289 -246.894824 
L 1047.962184 -245.974236 
L 1045.708713 -245.053648 
L 1043.320809 -244.13306 
L 1040.83898 -243.212472 
L 1038.302137 -242.291883 
L 1035.746567 -241.371295 
L 1033.205076 -240.450707 
L 1030.706332 -239.530119 
L 1028.274427 -238.609531 
L 1025.92865 -237.688943 
L 1023.683472 -236.768355 
L 1021.548725 -235.847767 
L 1019.52994 -234.927179 
L 1017.628824 -234.006591 
L 1015.843833 -233.086003 
L 1014.170797 -232.165415 
L 1012.603575 -231.244826 
L 1011.134687 -230.324238 
L 1009.755908 -229.40365 
L 1008.458793 -228.483062 
L 1007.235113 -227.562474 
L 1006.0772 -226.641886 
L 1004.978196 -225.721298 
L 1003.932202 -224.80071 
L 1002.934355 -223.880122 
L 1001.980819 -222.959534 
L 1001.068731 -222.038946 
L 1000.196098 -221.118358 
L 999.36167 -220.197769 
L 998.564799 -219.277181 
L 997.805295 -218.356593 
L 997.08329 -217.436005 
L 996.399106 -216.515417 
L 995.753146 -215.594829 
L 995.145799 -214.674241 
L 994.577359 -213.753653 
L 994.047961 -212.833065 
L 993.557538 -211.912477 
L 993.105779 -210.991889 
L 992.692116 -210.071301 
L 992.315709 -209.150712 
L 991.975449 -208.230124 
L 991.669968 -207.309536 
L 991.397662 -206.388948 
L 991.156718 -205.46836 
L 990.945146 -204.547772 
L 990.760824 -203.627184 
L 990.601536 -202.706596 
L 990.465018 -201.786008 
L 990.349004 -200.86542 
z
" id="mffd9a76fe4" style="stroke:#313131;stroke-width:1.5;"/>
    </defs>
    <g clip-path="url(#p4d78e24bde)">
     <use style="fill:#db6e59;stroke:#313131;stroke-width:1.5;" x="0" xlink:href="#mffd9a76fe4" y="433.06775"/>
    </g>
   </g>
   <g id="patch_3">
    <path clip-path="url(#p4d78e24bde)" d="M 253.280625 931.415429 
L 253.280625 931.415429 
L 253.280625 931.415429 
L 253.280625 931.415429 
z
" style="fill:#772b58;stroke:#313131;stroke-linejoin:miter;stroke-width:0.75;"/>
   </g>
   <g id="patch_4">
    <path clip-path="url(#p4d78e24bde)" d="M 253.280625 931.415429 
L 253.280625 931.415429 
L 253.280625 931.415429 
L 253.280625 931.415429 
z
" style="fill:#db6e59;stroke:#313131;stroke-linejoin:miter;stroke-width:0.75;"/>
   </g>
   <g id="patch_5">
    <path clip-path="url(#p4d78e24bde)" d="M 253.280625 931.415429 
L 253.280625 931.415429 
L 253.280625 931.415429 
L 253.280625 931.415429 
z
" style="fill:#772b58;stroke:#313131;stroke-linejoin:miter;stroke-width:0.75;"/>
   </g>
   <g id="patch_6">
    <path clip-path="url(#p4d78e24bde)" d="M 253.280625 931.415429 
L 253.280625 931.415429 
L 253.280625 931.415429 
L 253.280625 931.415429 
z
" style="fill:#db6e59;stroke:#313131;stroke-linejoin:miter;stroke-width:0.75;"/>
   </g>
   <g id="matplotlib.axis_1">
    <g id="xtick_1">
     <g id="line2d_1">
      <defs>
       <path d="M 0 0 
L 0 3.5 
" id="mb0c72d97a5" style="stroke:#000000;stroke-width:0.8;"/>
      </defs>
      <g>
       <use style="stroke:#000000;stroke-width:0.8;" x="253.280625" xlink:href="#mb0c72d97a5" y="372.284"/>
      </g>
     </g>
     <g id="text_1">
      <!-- 5,000 -->
      <g transform="translate(224.6525 394.480875)scale(0.2 -0.2)">
       <defs>
        <path d="M 691 4666 
L 3169 4666 
L 3169 4134 
L 1269 4134 
L 1269 2991 
Q 1406 3038 1543 3061 
Q 1681 3084 1819 3084 
Q 2600 3084 3056 2656 
Q 3513 2228 3513 1497 
Q 3513 744 3044 326 
Q 2575 -91 1722 -91 
Q 1428 -91 1123 -41 
Q 819 9 494 109 
L 494 744 
Q 775 591 1075 516 
Q 1375 441 1709 441 
Q 2250 441 2565 725 
Q 2881 1009 2881 1497 
Q 2881 1984 2565 2268 
Q 2250 2553 1709 2553 
Q 1456 2553 1204 2497 
Q 953 2441 691 2322 
L 691 4666 
z
" id="DejaVuSans-35" transform="scale(0.015625)"/>
        <path d="M 750 794 
L 1409 794 
L 1409 256 
L 897 -744 
L 494 -744 
L 750 256 
L 750 794 
z
" id="DejaVuSans-2c" transform="scale(0.015625)"/>
        <path d="M 2034 4250 
Q 1547 4250 1301 3770 
Q 1056 3291 1056 2328 
Q 1056 1369 1301 889 
Q 1547 409 2034 409 
Q 2525 409 2770 889 
Q 3016 1369 3016 2328 
Q 3016 3291 2770 3770 
Q 2525 4250 2034 4250 
z
M 2034 4750 
Q 2819 4750 3233 4129 
Q 3647 3509 3647 2328 
Q 3647 1150 3233 529 
Q 2819 -91 2034 -91 
Q 1250 -91 836 529 
Q 422 1150 422 2328 
Q 422 3509 836 4129 
Q 1250 4750 2034 4750 
z
" id="DejaVuSans-30" transform="scale(0.015625)"/>
       </defs>
       <use xlink:href="#DejaVuSans-35"/>
       <use x="63.623047" xlink:href="#DejaVuSans-2c"/>
       <use x="95.410156" xlink:href="#DejaVuSans-30"/>
       <use x="159.033203" xlink:href="#DejaVuSans-30"/>
       <use x="222.65625" xlink:href="#DejaVuSans-30"/>
      </g>
     </g>
    </g>
    <g id="xtick_2">
     <g id="line2d_2">
      <g>
       <use style="stroke:#000000;stroke-width:0.8;" x="588.080625" xlink:href="#mb0c72d97a5" y="372.284"/>
      </g>
     </g>
     <g id="text_2">
      <!-- 10,000 -->
      <g transform="translate(553.09 394.480875)scale(0.2 -0.2)">
       <defs>
        <path d="M 794 531 
L 1825 531 
L 1825 4091 
L 703 3866 
L 703 4441 
L 1819 4666 
L 2450 4666 
L 2450 531 
L 3481 531 
L 3481 0 
L 794 0 
L 794 531 
z
" id="DejaVuSans-31" transform="scale(0.015625)"/>
       </defs>
       <use xlink:href="#DejaVuSans-31"/>
       <use x="63.623047" xlink:href="#DejaVuSans-30"/>
       <use x="127.246094" xlink:href="#DejaVuSans-2c"/>
       <use x="159.033203" xlink:href="#DejaVuSans-30"/>
       <use x="222.65625" xlink:href="#DejaVuSans-30"/>
       <use x="286.279297" xlink:href="#DejaVuSans-30"/>
      </g>
     </g>
    </g>
    <g id="xtick_3">
     <g id="line2d_3">
      <g>
       <use style="stroke:#000000;stroke-width:0.8;" x="922.880625" xlink:href="#mb0c72d97a5" y="372.284"/>
      </g>
     </g>
     <g id="text_3">
      <!-- 50,000 -->
      <g transform="translate(887.89 394.480875)scale(0.2 -0.2)">
       <use xlink:href="#DejaVuSans-35"/>
       <use x="63.623047" xlink:href="#DejaVuSans-30"/>
       <use x="127.246094" xlink:href="#DejaVuSans-2c"/>
       <use x="159.033203" xlink:href="#DejaVuSans-30"/>
       <use x="222.65625" xlink:href="#DejaVuSans-30"/>
       <use x="286.279297" xlink:href="#DejaVuSans-30"/>
      </g>
     </g>
    </g>
    <g id="text_4">
     <!-- Number of objects on training set -->
     <g transform="translate(386.233125 420.8765)scale(0.24 -0.24)">
      <defs>
       <path d="M 628 4666 
L 1478 4666 
L 3547 763 
L 3547 4666 
L 4159 4666 
L 4159 0 
L 3309 0 
L 1241 3903 
L 1241 0 
L 628 0 
L 628 4666 
z
" id="DejaVuSans-4e" transform="scale(0.015625)"/>
       <path d="M 544 1381 
L 544 3500 
L 1119 3500 
L 1119 1403 
Q 1119 906 1312 657 
Q 1506 409 1894 409 
Q 2359 409 2629 706 
Q 2900 1003 2900 1516 
L 2900 3500 
L 3475 3500 
L 3475 0 
L 2900 0 
L 2900 538 
Q 2691 219 2414 64 
Q 2138 -91 1772 -91 
Q 1169 -91 856 284 
Q 544 659 544 1381 
z
M 1991 3584 
L 1991 3584 
z
" id="DejaVuSans-75" transform="scale(0.015625)"/>
       <path d="M 3328 2828 
Q 3544 3216 3844 3400 
Q 4144 3584 4550 3584 
Q 5097 3584 5394 3201 
Q 5691 2819 5691 2113 
L 5691 0 
L 5113 0 
L 5113 2094 
Q 5113 2597 4934 2840 
Q 4756 3084 4391 3084 
Q 3944 3084 3684 2787 
Q 3425 2491 3425 1978 
L 3425 0 
L 2847 0 
L 2847 2094 
Q 2847 2600 2669 2842 
Q 2491 3084 2119 3084 
Q 1678 3084 1418 2786 
Q 1159 2488 1159 1978 
L 1159 0 
L 581 0 
L 581 3500 
L 1159 3500 
L 1159 2956 
Q 1356 3278 1631 3431 
Q 1906 3584 2284 3584 
Q 2666 3584 2933 3390 
Q 3200 3197 3328 2828 
z
" id="DejaVuSans-6d" transform="scale(0.015625)"/>
       <path d="M 3116 1747 
Q 3116 2381 2855 2742 
Q 2594 3103 2138 3103 
Q 1681 3103 1420 2742 
Q 1159 2381 1159 1747 
Q 1159 1113 1420 752 
Q 1681 391 2138 391 
Q 2594 391 2855 752 
Q 3116 1113 3116 1747 
z
M 1159 2969 
Q 1341 3281 1617 3432 
Q 1894 3584 2278 3584 
Q 2916 3584 3314 3078 
Q 3713 2572 3713 1747 
Q 3713 922 3314 415 
Q 2916 -91 2278 -91 
Q 1894 -91 1617 61 
Q 1341 213 1159 525 
L 1159 0 
L 581 0 
L 581 4863 
L 1159 4863 
L 1159 2969 
z
" id="DejaVuSans-62" transform="scale(0.015625)"/>
       <path d="M 3597 1894 
L 3597 1613 
L 953 1613 
Q 991 1019 1311 708 
Q 1631 397 2203 397 
Q 2534 397 2845 478 
Q 3156 559 3463 722 
L 3463 178 
Q 3153 47 2828 -22 
Q 2503 -91 2169 -91 
Q 1331 -91 842 396 
Q 353 884 353 1716 
Q 353 2575 817 3079 
Q 1281 3584 2069 3584 
Q 2775 3584 3186 3129 
Q 3597 2675 3597 1894 
z
M 3022 2063 
Q 3016 2534 2758 2815 
Q 2500 3097 2075 3097 
Q 1594 3097 1305 2825 
Q 1016 2553 972 2059 
L 3022 2063 
z
" id="DejaVuSans-65" transform="scale(0.015625)"/>
       <path d="M 2631 2963 
Q 2534 3019 2420 3045 
Q 2306 3072 2169 3072 
Q 1681 3072 1420 2755 
Q 1159 2438 1159 1844 
L 1159 0 
L 581 0 
L 581 3500 
L 1159 3500 
L 1159 2956 
Q 1341 3275 1631 3429 
Q 1922 3584 2338 3584 
Q 2397 3584 2469 3576 
Q 2541 3569 2628 3553 
L 2631 2963 
z
" id="DejaVuSans-72" transform="scale(0.015625)"/>
       <path id="DejaVuSans-20" transform="scale(0.015625)"/>
       <path d="M 1959 3097 
Q 1497 3097 1228 2736 
Q 959 2375 959 1747 
Q 959 1119 1226 758 
Q 1494 397 1959 397 
Q 2419 397 2687 759 
Q 2956 1122 2956 1747 
Q 2956 2369 2687 2733 
Q 2419 3097 1959 3097 
z
M 1959 3584 
Q 2709 3584 3137 3096 
Q 3566 2609 3566 1747 
Q 3566 888 3137 398 
Q 2709 -91 1959 -91 
Q 1206 -91 779 398 
Q 353 888 353 1747 
Q 353 2609 779 3096 
Q 1206 3584 1959 3584 
z
" id="DejaVuSans-6f" transform="scale(0.015625)"/>
       <path d="M 2375 4863 
L 2375 4384 
L 1825 4384 
Q 1516 4384 1395 4259 
Q 1275 4134 1275 3809 
L 1275 3500 
L 2222 3500 
L 2222 3053 
L 1275 3053 
L 1275 0 
L 697 0 
L 697 3053 
L 147 3053 
L 147 3500 
L 697 3500 
L 697 3744 
Q 697 4328 969 4595 
Q 1241 4863 1831 4863 
L 2375 4863 
z
" id="DejaVuSans-66" transform="scale(0.015625)"/>
       <path d="M 603 3500 
L 1178 3500 
L 1178 -63 
Q 1178 -731 923 -1031 
Q 669 -1331 103 -1331 
L -116 -1331 
L -116 -844 
L 38 -844 
Q 366 -844 484 -692 
Q 603 -541 603 -63 
L 603 3500 
z
M 603 4863 
L 1178 4863 
L 1178 4134 
L 603 4134 
L 603 4863 
z
" id="DejaVuSans-6a" transform="scale(0.015625)"/>
       <path d="M 3122 3366 
L 3122 2828 
Q 2878 2963 2633 3030 
Q 2388 3097 2138 3097 
Q 1578 3097 1268 2742 
Q 959 2388 959 1747 
Q 959 1106 1268 751 
Q 1578 397 2138 397 
Q 2388 397 2633 464 
Q 2878 531 3122 666 
L 3122 134 
Q 2881 22 2623 -34 
Q 2366 -91 2075 -91 
Q 1284 -91 818 406 
Q 353 903 353 1747 
Q 353 2603 823 3093 
Q 1294 3584 2113 3584 
Q 2378 3584 2631 3529 
Q 2884 3475 3122 3366 
z
" id="DejaVuSans-63" transform="scale(0.015625)"/>
       <path d="M 1172 4494 
L 1172 3500 
L 2356 3500 
L 2356 3053 
L 1172 3053 
L 1172 1153 
Q 1172 725 1289 603 
Q 1406 481 1766 481 
L 2356 481 
L 2356 0 
L 1766 0 
Q 1100 0 847 248 
Q 594 497 594 1153 
L 594 3053 
L 172 3053 
L 172 3500 
L 594 3500 
L 594 4494 
L 1172 4494 
z
" id="DejaVuSans-74" transform="scale(0.015625)"/>
       <path d="M 2834 3397 
L 2834 2853 
Q 2591 2978 2328 3040 
Q 2066 3103 1784 3103 
Q 1356 3103 1142 2972 
Q 928 2841 928 2578 
Q 928 2378 1081 2264 
Q 1234 2150 1697 2047 
L 1894 2003 
Q 2506 1872 2764 1633 
Q 3022 1394 3022 966 
Q 3022 478 2636 193 
Q 2250 -91 1575 -91 
Q 1294 -91 989 -36 
Q 684 19 347 128 
L 347 722 
Q 666 556 975 473 
Q 1284 391 1588 391 
Q 1994 391 2212 530 
Q 2431 669 2431 922 
Q 2431 1156 2273 1281 
Q 2116 1406 1581 1522 
L 1381 1569 
Q 847 1681 609 1914 
Q 372 2147 372 2553 
Q 372 3047 722 3315 
Q 1072 3584 1716 3584 
Q 2034 3584 2315 3537 
Q 2597 3491 2834 3397 
z
" id="DejaVuSans-73" transform="scale(0.015625)"/>
       <path d="M 3513 2113 
L 3513 0 
L 2938 0 
L 2938 2094 
Q 2938 2591 2744 2837 
Q 2550 3084 2163 3084 
Q 1697 3084 1428 2787 
Q 1159 2491 1159 1978 
L 1159 0 
L 581 0 
L 581 3500 
L 1159 3500 
L 1159 2956 
Q 1366 3272 1645 3428 
Q 1925 3584 2291 3584 
Q 2894 3584 3203 3211 
Q 3513 2838 3513 2113 
z
" id="DejaVuSans-6e" transform="scale(0.015625)"/>
       <path d="M 2194 1759 
Q 1497 1759 1228 1600 
Q 959 1441 959 1056 
Q 959 750 1161 570 
Q 1363 391 1709 391 
Q 2188 391 2477 730 
Q 2766 1069 2766 1631 
L 2766 1759 
L 2194 1759 
z
M 3341 1997 
L 3341 0 
L 2766 0 
L 2766 531 
Q 2569 213 2275 61 
Q 1981 -91 1556 -91 
Q 1019 -91 701 211 
Q 384 513 384 1019 
Q 384 1609 779 1909 
Q 1175 2209 1959 2209 
L 2766 2209 
L 2766 2266 
Q 2766 2663 2505 2880 
Q 2244 3097 1772 3097 
Q 1472 3097 1187 3025 
Q 903 2953 641 2809 
L 641 3341 
Q 956 3463 1253 3523 
Q 1550 3584 1831 3584 
Q 2591 3584 2966 3190 
Q 3341 2797 3341 1997 
z
" id="DejaVuSans-61" transform="scale(0.015625)"/>
       <path d="M 603 3500 
L 1178 3500 
L 1178 0 
L 603 0 
L 603 3500 
z
M 603 4863 
L 1178 4863 
L 1178 4134 
L 603 4134 
L 603 4863 
z
" id="DejaVuSans-69" transform="scale(0.015625)"/>
       <path d="M 2906 1791 
Q 2906 2416 2648 2759 
Q 2391 3103 1925 3103 
Q 1463 3103 1205 2759 
Q 947 2416 947 1791 
Q 947 1169 1205 825 
Q 1463 481 1925 481 
Q 2391 481 2648 825 
Q 2906 1169 2906 1791 
z
M 3481 434 
Q 3481 -459 3084 -895 
Q 2688 -1331 1869 -1331 
Q 1566 -1331 1297 -1286 
Q 1028 -1241 775 -1147 
L 775 -588 
Q 1028 -725 1275 -790 
Q 1522 -856 1778 -856 
Q 2344 -856 2625 -561 
Q 2906 -266 2906 331 
L 2906 616 
Q 2728 306 2450 153 
Q 2172 0 1784 0 
Q 1141 0 747 490 
Q 353 981 353 1791 
Q 353 2603 747 3093 
Q 1141 3584 1784 3584 
Q 2172 3584 2450 3431 
Q 2728 3278 2906 2969 
L 2906 3500 
L 3481 3500 
L 3481 434 
z
" id="DejaVuSans-67" transform="scale(0.015625)"/>
      </defs>
      <use xlink:href="#DejaVuSans-4e"/>
      <use x="74.804688" xlink:href="#DejaVuSans-75"/>
      <use x="138.183594" xlink:href="#DejaVuSans-6d"/>
      <use x="235.595703" xlink:href="#DejaVuSans-62"/>
      <use x="299.072266" xlink:href="#DejaVuSans-65"/>
      <use x="360.595703" xlink:href="#DejaVuSans-72"/>
      <use x="401.708984" xlink:href="#DejaVuSans-20"/>
      <use x="433.496094" xlink:href="#DejaVuSans-6f"/>
      <use x="494.677734" xlink:href="#DejaVuSans-66"/>
      <use x="529.882812" xlink:href="#DejaVuSans-20"/>
      <use x="561.669922" xlink:href="#DejaVuSans-6f"/>
      <use x="622.851562" xlink:href="#DejaVuSans-62"/>
      <use x="686.328125" xlink:href="#DejaVuSans-6a"/>
      <use x="714.111328" xlink:href="#DejaVuSans-65"/>
      <use x="775.634766" xlink:href="#DejaVuSans-63"/>
      <use x="830.615234" xlink:href="#DejaVuSans-74"/>
      <use x="869.824219" xlink:href="#DejaVuSans-73"/>
      <use x="921.923828" xlink:href="#DejaVuSans-20"/>
      <use x="953.710938" xlink:href="#DejaVuSans-6f"/>
      <use x="1014.892578" xlink:href="#DejaVuSans-6e"/>
      <use x="1078.271484" xlink:href="#DejaVuSans-20"/>
      <use x="1110.058594" xlink:href="#DejaVuSans-74"/>
      <use x="1149.267578" xlink:href="#DejaVuSans-72"/>
      <use x="1190.380859" xlink:href="#DejaVuSans-61"/>
      <use x="1251.660156" xlink:href="#DejaVuSans-69"/>
      <use x="1279.443359" xlink:href="#DejaVuSans-6e"/>
      <use x="1342.822266" xlink:href="#DejaVuSans-69"/>
      <use x="1370.605469" xlink:href="#DejaVuSans-6e"/>
      <use x="1433.984375" xlink:href="#DejaVuSans-67"/>
      <use x="1497.460938" xlink:href="#DejaVuSans-20"/>
      <use x="1529.248047" xlink:href="#DejaVuSans-73"/>
      <use x="1581.347656" xlink:href="#DejaVuSans-65"/>
      <use x="1642.871094" xlink:href="#DejaVuSans-74"/>
     </g>
    </g>
   </g>
   <g id="matplotlib.axis_2">
    <g id="ytick_1">
     <g id="line2d_4">
      <defs>
       <path d="M 0 0 
L -3.5 0 
" id="m131a1c4c5c" style="stroke:#000000;stroke-width:0.8;"/>
      </defs>
      <g>
       <use style="stroke:#000000;stroke-width:0.8;" x="85.880625" xlink:href="#m131a1c4c5c" y="372.284"/>
      </g>
     </g>
     <g id="text_5">
      <!-- 60% -->
      <g transform="translate(34.4275 379.882438)scale(0.2 -0.2)">
       <defs>
        <path d="M 2113 2584 
Q 1688 2584 1439 2293 
Q 1191 2003 1191 1497 
Q 1191 994 1439 701 
Q 1688 409 2113 409 
Q 2538 409 2786 701 
Q 3034 994 3034 1497 
Q 3034 2003 2786 2293 
Q 2538 2584 2113 2584 
z
M 3366 4563 
L 3366 3988 
Q 3128 4100 2886 4159 
Q 2644 4219 2406 4219 
Q 1781 4219 1451 3797 
Q 1122 3375 1075 2522 
Q 1259 2794 1537 2939 
Q 1816 3084 2150 3084 
Q 2853 3084 3261 2657 
Q 3669 2231 3669 1497 
Q 3669 778 3244 343 
Q 2819 -91 2113 -91 
Q 1303 -91 875 529 
Q 447 1150 447 2328 
Q 447 3434 972 4092 
Q 1497 4750 2381 4750 
Q 2619 4750 2861 4703 
Q 3103 4656 3366 4563 
z
" id="DejaVuSans-36" transform="scale(0.015625)"/>
        <path d="M 4653 2053 
Q 4381 2053 4226 1822 
Q 4072 1591 4072 1178 
Q 4072 772 4226 539 
Q 4381 306 4653 306 
Q 4919 306 5073 539 
Q 5228 772 5228 1178 
Q 5228 1588 5073 1820 
Q 4919 2053 4653 2053 
z
M 4653 2450 
Q 5147 2450 5437 2106 
Q 5728 1763 5728 1178 
Q 5728 594 5436 251 
Q 5144 -91 4653 -91 
Q 4153 -91 3862 251 
Q 3572 594 3572 1178 
Q 3572 1766 3864 2108 
Q 4156 2450 4653 2450 
z
M 1428 4353 
Q 1159 4353 1004 4120 
Q 850 3888 850 3481 
Q 850 3069 1003 2837 
Q 1156 2606 1428 2606 
Q 1700 2606 1854 2837 
Q 2009 3069 2009 3481 
Q 2009 3884 1853 4118 
Q 1697 4353 1428 4353 
z
M 4250 4750 
L 4750 4750 
L 1831 -91 
L 1331 -91 
L 4250 4750 
z
M 1428 4750 
Q 1922 4750 2215 4408 
Q 2509 4066 2509 3481 
Q 2509 2891 2217 2550 
Q 1925 2209 1428 2209 
Q 931 2209 642 2551 
Q 353 2894 353 3481 
Q 353 4063 643 4406 
Q 934 4750 1428 4750 
z
" id="DejaVuSans-25" transform="scale(0.015625)"/>
       </defs>
       <use xlink:href="#DejaVuSans-36"/>
       <use x="63.623047" xlink:href="#DejaVuSans-30"/>
       <use x="127.246094" xlink:href="#DejaVuSans-25"/>
      </g>
     </g>
    </g>
    <g id="ytick_2">
     <g id="line2d_5">
      <g>
       <use style="stroke:#000000;stroke-width:0.8;" x="85.880625" xlink:href="#m131a1c4c5c" y="325.689714"/>
      </g>
     </g>
     <g id="text_6">
      <!-- 65% -->
      <g transform="translate(34.4275 333.288152)scale(0.2 -0.2)">
       <use xlink:href="#DejaVuSans-36"/>
       <use x="63.623047" xlink:href="#DejaVuSans-35"/>
       <use x="127.246094" xlink:href="#DejaVuSans-25"/>
      </g>
     </g>
    </g>
    <g id="ytick_3">
     <g id="line2d_6">
      <g>
       <use style="stroke:#000000;stroke-width:0.8;" x="85.880625" xlink:href="#m131a1c4c5c" y="279.095429"/>
      </g>
     </g>
     <g id="text_7">
      <!-- 70% -->
      <g transform="translate(34.4275 286.693866)scale(0.2 -0.2)">
       <defs>
        <path d="M 525 4666 
L 3525 4666 
L 3525 4397 
L 1831 0 
L 1172 0 
L 2766 4134 
L 525 4134 
L 525 4666 
z
" id="DejaVuSans-37" transform="scale(0.015625)"/>
       </defs>
       <use xlink:href="#DejaVuSans-37"/>
       <use x="63.623047" xlink:href="#DejaVuSans-30"/>
       <use x="127.246094" xlink:href="#DejaVuSans-25"/>
      </g>
     </g>
    </g>
    <g id="ytick_4">
     <g id="line2d_7">
      <g>
       <use style="stroke:#000000;stroke-width:0.8;" x="85.880625" xlink:href="#m131a1c4c5c" y="232.501143"/>
      </g>
     </g>
     <g id="text_8">
      <!-- 75% -->
      <g transform="translate(34.4275 240.09958)scale(0.2 -0.2)">
       <use xlink:href="#DejaVuSans-37"/>
       <use x="63.623047" xlink:href="#DejaVuSans-35"/>
       <use x="127.246094" xlink:href="#DejaVuSans-25"/>
      </g>
     </g>
    </g>
    <g id="ytick_5">
     <g id="line2d_8">
      <g>
       <use style="stroke:#000000;stroke-width:0.8;" x="85.880625" xlink:href="#m131a1c4c5c" y="185.906857"/>
      </g>
     </g>
     <g id="text_9">
      <!-- 80% -->
      <g transform="translate(34.4275 193.505295)scale(0.2 -0.2)">
       <defs>
        <path d="M 2034 2216 
Q 1584 2216 1326 1975 
Q 1069 1734 1069 1313 
Q 1069 891 1326 650 
Q 1584 409 2034 409 
Q 2484 409 2743 651 
Q 3003 894 3003 1313 
Q 3003 1734 2745 1975 
Q 2488 2216 2034 2216 
z
M 1403 2484 
Q 997 2584 770 2862 
Q 544 3141 544 3541 
Q 544 4100 942 4425 
Q 1341 4750 2034 4750 
Q 2731 4750 3128 4425 
Q 3525 4100 3525 3541 
Q 3525 3141 3298 2862 
Q 3072 2584 2669 2484 
Q 3125 2378 3379 2068 
Q 3634 1759 3634 1313 
Q 3634 634 3220 271 
Q 2806 -91 2034 -91 
Q 1263 -91 848 271 
Q 434 634 434 1313 
Q 434 1759 690 2068 
Q 947 2378 1403 2484 
z
M 1172 3481 
Q 1172 3119 1398 2916 
Q 1625 2713 2034 2713 
Q 2441 2713 2670 2916 
Q 2900 3119 2900 3481 
Q 2900 3844 2670 4047 
Q 2441 4250 2034 4250 
Q 1625 4250 1398 4047 
Q 1172 3844 1172 3481 
z
" id="DejaVuSans-38" transform="scale(0.015625)"/>
       </defs>
       <use xlink:href="#DejaVuSans-38"/>
       <use x="63.623047" xlink:href="#DejaVuSans-30"/>
       <use x="127.246094" xlink:href="#DejaVuSans-25"/>
      </g>
     </g>
    </g>
    <g id="ytick_6">
     <g id="line2d_9">
      <g>
       <use style="stroke:#000000;stroke-width:0.8;" x="85.880625" xlink:href="#m131a1c4c5c" y="139.312571"/>
      </g>
     </g>
     <g id="text_10">
      <!-- 85% -->
      <g transform="translate(34.4275 146.911009)scale(0.2 -0.2)">
       <use xlink:href="#DejaVuSans-38"/>
       <use x="63.623047" xlink:href="#DejaVuSans-35"/>
       <use x="127.246094" xlink:href="#DejaVuSans-25"/>
      </g>
     </g>
    </g>
    <g id="ytick_7">
     <g id="line2d_10">
      <g>
       <use style="stroke:#000000;stroke-width:0.8;" x="85.880625" xlink:href="#m131a1c4c5c" y="92.718286"/>
      </g>
     </g>
     <g id="text_11">
      <!-- 90% -->
      <g transform="translate(34.4275 100.316723)scale(0.2 -0.2)">
       <defs>
        <path d="M 703 97 
L 703 672 
Q 941 559 1184 500 
Q 1428 441 1663 441 
Q 2288 441 2617 861 
Q 2947 1281 2994 2138 
Q 2813 1869 2534 1725 
Q 2256 1581 1919 1581 
Q 1219 1581 811 2004 
Q 403 2428 403 3163 
Q 403 3881 828 4315 
Q 1253 4750 1959 4750 
Q 2769 4750 3195 4129 
Q 3622 3509 3622 2328 
Q 3622 1225 3098 567 
Q 2575 -91 1691 -91 
Q 1453 -91 1209 -44 
Q 966 3 703 97 
z
M 1959 2075 
Q 2384 2075 2632 2365 
Q 2881 2656 2881 3163 
Q 2881 3666 2632 3958 
Q 2384 4250 1959 4250 
Q 1534 4250 1286 3958 
Q 1038 3666 1038 3163 
Q 1038 2656 1286 2365 
Q 1534 2075 1959 2075 
z
" id="DejaVuSans-39" transform="scale(0.015625)"/>
       </defs>
       <use xlink:href="#DejaVuSans-39"/>
       <use x="63.623047" xlink:href="#DejaVuSans-30"/>
       <use x="127.246094" xlink:href="#DejaVuSans-25"/>
      </g>
     </g>
    </g>
    <g id="ytick_8">
     <g id="line2d_11">
      <g>
       <use style="stroke:#000000;stroke-width:0.8;" x="85.880625" xlink:href="#m131a1c4c5c" y="46.124"/>
      </g>
     </g>
     <g id="text_12">
      <!-- 95% -->
      <g transform="translate(34.4275 53.722438)scale(0.2 -0.2)">
       <use xlink:href="#DejaVuSans-39"/>
       <use x="63.623047" xlink:href="#DejaVuSans-35"/>
       <use x="127.246094" xlink:href="#DejaVuSans-25"/>
      </g>
     </g>
    </g>
    <g id="text_13">
     <!-- Accuracy on testing set -->
     <g transform="translate(25.43625 350.32025)rotate(-90)scale(0.24 -0.24)">
      <defs>
       <path d="M 2188 4044 
L 1331 1722 
L 3047 1722 
L 2188 4044 
z
M 1831 4666 
L 2547 4666 
L 4325 0 
L 3669 0 
L 3244 1197 
L 1141 1197 
L 716 0 
L 50 0 
L 1831 4666 
z
" id="DejaVuSans-41" transform="scale(0.015625)"/>
       <path d="M 2059 -325 
Q 1816 -950 1584 -1140 
Q 1353 -1331 966 -1331 
L 506 -1331 
L 506 -850 
L 844 -850 
Q 1081 -850 1212 -737 
Q 1344 -625 1503 -206 
L 1606 56 
L 191 3500 
L 800 3500 
L 1894 763 
L 2988 3500 
L 3597 3500 
L 2059 -325 
z
" id="DejaVuSans-79" transform="scale(0.015625)"/>
      </defs>
      <use xlink:href="#DejaVuSans-41"/>
      <use x="66.658203" xlink:href="#DejaVuSans-63"/>
      <use x="121.638672" xlink:href="#DejaVuSans-63"/>
      <use x="176.619141" xlink:href="#DejaVuSans-75"/>
      <use x="239.998047" xlink:href="#DejaVuSans-72"/>
      <use x="281.111328" xlink:href="#DejaVuSans-61"/>
      <use x="342.390625" xlink:href="#DejaVuSans-63"/>
      <use x="397.371094" xlink:href="#DejaVuSans-79"/>
      <use x="456.550781" xlink:href="#DejaVuSans-20"/>
      <use x="488.337891" xlink:href="#DejaVuSans-6f"/>
      <use x="549.519531" xlink:href="#DejaVuSans-6e"/>
      <use x="612.898438" xlink:href="#DejaVuSans-20"/>
      <use x="644.685547" xlink:href="#DejaVuSans-74"/>
      <use x="683.894531" xlink:href="#DejaVuSans-65"/>
      <use x="745.417969" xlink:href="#DejaVuSans-73"/>
      <use x="797.517578" xlink:href="#DejaVuSans-74"/>
      <use x="836.726562" xlink:href="#DejaVuSans-69"/>
      <use x="864.509766" xlink:href="#DejaVuSans-6e"/>
      <use x="927.888672" xlink:href="#DejaVuSans-67"/>
      <use x="991.365234" xlink:href="#DejaVuSans-20"/>
      <use x="1023.152344" xlink:href="#DejaVuSans-73"/>
      <use x="1075.251953" xlink:href="#DejaVuSans-65"/>
      <use x="1136.775391" xlink:href="#DejaVuSans-74"/>
     </g>
    </g>
   </g>
   <g id="line2d_12">
    <path clip-path="url(#p4d78e24bde)" d="M 186.320625 222.642607 
L 186.320625 248.099791 
" style="fill:none;stroke:#313131;stroke-linecap:square;stroke-width:1.5;"/>
   </g>
   <g id="line2d_13">
    <path clip-path="url(#p4d78e24bde)" d="M 186.320625 195.254188 
L 186.320625 183.487346 
" style="fill:none;stroke:#313131;stroke-linecap:square;stroke-width:1.5;"/>
   </g>
   <g id="line2d_14">
    <path clip-path="url(#p4d78e24bde)" d="M 153.510225 248.099791 
L 219.131025 248.099791 
" style="fill:none;stroke:#313131;stroke-linecap:square;stroke-width:1.5;"/>
   </g>
   <g id="line2d_15">
    <path clip-path="url(#p4d78e24bde)" d="M 153.510225 183.487346 
L 219.131025 183.487346 
" style="fill:none;stroke:#313131;stroke-linecap:square;stroke-width:1.5;"/>
   </g>
   <g id="line2d_16">
    <path clip-path="url(#p4d78e24bde)" d="M 320.240625 207.416832 
L 320.240625 224.465213 
" style="fill:none;stroke:#313131;stroke-linecap:square;stroke-width:1.5;"/>
   </g>
   <g id="line2d_17">
    <path clip-path="url(#p4d78e24bde)" d="M 320.240625 193.99002 
L 320.240625 174.475229 
" style="fill:none;stroke:#313131;stroke-linecap:square;stroke-width:1.5;"/>
   </g>
   <g id="line2d_18">
    <path clip-path="url(#p4d78e24bde)" d="M 287.430225 224.465213 
L 353.051025 224.465213 
" style="fill:none;stroke:#313131;stroke-linecap:square;stroke-width:1.5;"/>
   </g>
   <g id="line2d_19">
    <path clip-path="url(#p4d78e24bde)" d="M 287.430225 174.475229 
L 353.051025 174.475229 
" style="fill:none;stroke:#313131;stroke-linecap:square;stroke-width:1.5;"/>
   </g>
   <g id="line2d_20">
    <path clip-path="url(#p4d78e24bde)" d="M 521.120625 206.210177 
L 521.120625 236.760233 
" style="fill:none;stroke:#313131;stroke-linecap:square;stroke-width:1.5;"/>
   </g>
   <g id="line2d_21">
    <path clip-path="url(#p4d78e24bde)" d="M 521.120625 185.569002 
L 521.120625 157.887477 
" style="fill:none;stroke:#313131;stroke-linecap:square;stroke-width:1.5;"/>
   </g>
   <g id="line2d_22">
    <path clip-path="url(#p4d78e24bde)" d="M 488.310225 236.760233 
L 553.931025 236.760233 
" style="fill:none;stroke:#313131;stroke-linecap:square;stroke-width:1.5;"/>
   </g>
   <g id="line2d_23">
    <path clip-path="url(#p4d78e24bde)" d="M 488.310225 157.887477 
L 553.931025 157.887477 
" style="fill:none;stroke:#313131;stroke-linecap:square;stroke-width:1.5;"/>
   </g>
   <g id="line2d_24">
    <path clip-path="url(#p4d78e24bde)" d="M 655.040625 193.636383 
L 655.040625 214.154503 
" style="fill:none;stroke:#313131;stroke-linecap:square;stroke-width:1.5;"/>
   </g>
   <g id="line2d_25">
    <path clip-path="url(#p4d78e24bde)" d="M 655.040625 174.633544 
L 655.040625 148.678116 
" style="fill:none;stroke:#313131;stroke-linecap:square;stroke-width:1.5;"/>
   </g>
   <g id="line2d_26">
    <path clip-path="url(#p4d78e24bde)" d="M 622.230225 214.154503 
L 687.851025 214.154503 
" style="fill:none;stroke:#313131;stroke-linecap:square;stroke-width:1.5;"/>
   </g>
   <g id="line2d_27">
    <path clip-path="url(#p4d78e24bde)" d="M 622.230225 148.678116 
L 687.851025 148.678116 
" style="fill:none;stroke:#313131;stroke-linecap:square;stroke-width:1.5;"/>
   </g>
   <g id="line2d_28">
    <path clip-path="url(#p4d78e24bde)" d="M 855.920625 218.099944 
L 855.920625 239.025592 
" style="fill:none;stroke:#313131;stroke-linecap:square;stroke-width:1.5;"/>
   </g>
   <g id="line2d_29">
    <path clip-path="url(#p4d78e24bde)" d="M 855.920625 200.367126 
L 855.920625 186.088724 
" style="fill:none;stroke:#313131;stroke-linecap:square;stroke-width:1.5;"/>
   </g>
   <g id="line2d_30">
    <path clip-path="url(#p4d78e24bde)" d="M 823.110225 239.025592 
L 888.731025 239.025592 
" style="fill:none;stroke:#313131;stroke-linecap:square;stroke-width:1.5;"/>
   </g>
   <g id="line2d_31">
    <path clip-path="url(#p4d78e24bde)" d="M 823.110225 186.088724 
L 888.731025 186.088724 
" style="fill:none;stroke:#313131;stroke-linecap:square;stroke-width:1.5;"/>
   </g>
   <g id="line2d_32">
    <path clip-path="url(#p4d78e24bde)" d="M 989.840625 187.386286 
L 989.840625 202.529275 
" style="fill:none;stroke:#313131;stroke-linecap:square;stroke-width:1.5;"/>
   </g>
   <g id="line2d_33">
    <path clip-path="url(#p4d78e24bde)" d="M 989.840625 175.803108 
L 989.840625 159.971509 
" style="fill:none;stroke:#313131;stroke-linecap:square;stroke-width:1.5;"/>
   </g>
   <g id="line2d_34">
    <path clip-path="url(#p4d78e24bde)" d="M 957.030225 202.529275 
L 1022.651025 202.529275 
" style="fill:none;stroke:#313131;stroke-linecap:square;stroke-width:1.5;"/>
   </g>
   <g id="line2d_35">
    <path clip-path="url(#p4d78e24bde)" d="M 957.030225 159.971509 
L 1022.651025 159.971509 
" style="fill:none;stroke:#313131;stroke-linecap:square;stroke-width:1.5;"/>
   </g>
   <g id="line2d_36">
    <path clip-path="url(#p4d78e24bde)" d="M 144.228594 222.642607 
L 228.412656 222.642607 
" style="fill:none;stroke:#313131;stroke-dasharray:3.375,3.375;stroke-dashoffset:0;stroke-width:1.5;"/>
   </g>
   <g id="line2d_37">
    <path clip-path="url(#p4d78e24bde)" d="M 134.751526 204.950081 
L 237.889724 204.950081 
" style="fill:none;stroke:#313131;stroke-dasharray:6.75,6.75;stroke-dashoffset:0;stroke-width:1.5;"/>
   </g>
   <g id="line2d_38">
    <path clip-path="url(#p4d78e24bde)" d="M 138.491013 195.254188 
L 234.150237 195.254188 
" style="fill:none;stroke:#313131;stroke-dasharray:3.375,3.375;stroke-dashoffset:0;stroke-width:1.5;"/>
   </g>
   <g id="line2d_39">
    <path clip-path="url(#p4d78e24bde)" d="M 259.11777 207.416832 
L 381.36348 207.416832 
" style="fill:none;stroke:#313131;stroke-dasharray:3.375,3.375;stroke-dashoffset:0;stroke-width:1.5;"/>
   </g>
   <g id="line2d_40">
    <path clip-path="url(#p4d78e24bde)" d="M 253.950225 201.182673 
L 386.531025 201.182673 
" style="fill:none;stroke:#313131;stroke-dasharray:6.75,6.75;stroke-dashoffset:0;stroke-width:1.5;"/>
   </g>
   <g id="line2d_41">
    <path clip-path="url(#p4d78e24bde)" d="M 259.255003 193.99002 
L 381.226247 193.99002 
" style="fill:none;stroke:#313131;stroke-dasharray:3.375,3.375;stroke-dashoffset:0;stroke-width:1.5;"/>
   </g>
   <g id="line2d_42">
    <path clip-path="url(#p4d78e24bde)" d="M 465.573036 206.210177 
L 576.668214 206.210177 
" style="fill:none;stroke:#313131;stroke-dasharray:3.375,3.375;stroke-dashoffset:0;stroke-width:1.5;"/>
   </g>
   <g id="line2d_43">
    <path clip-path="url(#p4d78e24bde)" d="M 454.830225 193.584775 
L 587.411025 193.584775 
" style="fill:none;stroke:#313131;stroke-dasharray:6.75,6.75;stroke-dashoffset:0;stroke-width:1.5;"/>
   </g>
   <g id="line2d_44">
    <path clip-path="url(#p4d78e24bde)" d="M 460.906847 185.569002 
L 581.334403 185.569002 
" style="fill:none;stroke:#313131;stroke-dasharray:3.375,3.375;stroke-dashoffset:0;stroke-width:1.5;"/>
   </g>
   <g id="line2d_45">
    <path clip-path="url(#p4d78e24bde)" d="M 599.130124 193.636383 
L 710.951126 193.636383 
" style="fill:none;stroke:#313131;stroke-dasharray:3.375,3.375;stroke-dashoffset:0;stroke-width:1.5;"/>
   </g>
   <g id="line2d_46">
    <path clip-path="url(#p4d78e24bde)" d="M 596.217558 186.379761 
L 713.863692 186.379761 
" style="fill:none;stroke:#313131;stroke-dasharray:6.75,6.75;stroke-dashoffset:0;stroke-width:1.5;"/>
   </g>
   <g id="line2d_47">
    <path clip-path="url(#p4d78e24bde)" d="M 603.684094 174.633544 
L 706.397156 174.633544 
" style="fill:none;stroke:#313131;stroke-dasharray:3.375,3.375;stroke-dashoffset:0;stroke-width:1.5;"/>
   </g>
   <g id="line2d_48">
    <path clip-path="url(#p4d78e24bde)" d="M 809.78244 218.099944 
L 902.05881 218.099944 
" style="fill:none;stroke:#313131;stroke-dasharray:3.375,3.375;stroke-dashoffset:0;stroke-width:1.5;"/>
   </g>
   <g id="line2d_49">
    <path clip-path="url(#p4d78e24bde)" d="M 798.216149 207.235 
L 913.625101 207.235 
" style="fill:none;stroke:#313131;stroke-dasharray:6.75,6.75;stroke-dashoffset:0;stroke-width:1.5;"/>
   </g>
   <g id="line2d_50">
    <path clip-path="url(#p4d78e24bde)" d="M 802.613155 200.367126 
L 909.228095 200.367126 
" style="fill:none;stroke:#313131;stroke-dasharray:3.375,3.375;stroke-dashoffset:0;stroke-width:1.5;"/>
   </g>
   <g id="line2d_51">
    <path clip-path="url(#p4d78e24bde)" d="M 932.300281 187.386286 
L 1047.380969 187.386286 
" style="fill:none;stroke:#313131;stroke-dasharray:3.375,3.375;stroke-dashoffset:0;stroke-width:1.5;"/>
   </g>
   <g id="line2d_52">
    <path clip-path="url(#p4d78e24bde)" d="M 923.550225 180.836607 
L 1056.131025 180.836607 
" style="fill:none;stroke:#313131;stroke-dasharray:6.75,6.75;stroke-dashoffset:0;stroke-width:1.5;"/>
   </g>
   <g id="line2d_53">
    <path clip-path="url(#p4d78e24bde)" d="M 927.476988 175.803108 
L 1052.204262 175.803108 
" style="fill:none;stroke:#313131;stroke-dasharray:3.375,3.375;stroke-dashoffset:0;stroke-width:1.5;"/>
   </g>
   <g id="line2d_54">
    <path clip-path="url(#p4d78e24bde)" d="M 420.680625 372.284 
L 420.680625 46.124 
" style="fill:none;stroke:#808080;stroke-linecap:square;"/>
   </g>
   <g id="line2d_55">
    <path clip-path="url(#p4d78e24bde)" d="M 755.480625 372.284 
L 755.480625 46.124 
" style="fill:none;stroke:#808080;stroke-linecap:square;"/>
   </g>
   <g id="line2d_56">
    <path clip-path="url(#p4d78e24bde)" d="M 120.699825 204.950081 
L 251.941425 204.950081 
" style="fill:none;stroke:#313131;stroke-linecap:square;stroke-width:1.5;"/>
   </g>
   <g id="line2d_57">
    <defs>
     <path d="M 0 5 
C 1.326016 5 2.597899 4.473168 3.535534 3.535534 
C 4.473168 2.597899 5 1.326016 5 0 
C 5 -1.326016 4.473168 -2.597899 3.535534 -3.535534 
C 2.597899 -4.473168 1.326016 -5 0 -5 
C -1.326016 -5 -2.597899 -4.473168 -3.535534 -3.535534 
C -4.473168 -2.597899 -5 -1.326016 -5 0 
C -5 1.326016 -4.473168 2.597899 -3.535534 3.535534 
C -2.597899 4.473168 -1.326016 5 0 5 
z
" id="mad6a108db9" style="stroke:#000000;"/>
    </defs>
    <g clip-path="url(#p4d78e24bde)">
     <use style="fill:#ffffff;stroke:#000000;" x="186.320625" xlink:href="#mad6a108db9" y="209.934671"/>
    </g>
   </g>
   <g id="line2d_58">
    <path clip-path="url(#p4d78e24bde)" d="M 254.619825 201.182673 
L 385.861425 201.182673 
" style="fill:none;stroke:#313131;stroke-linecap:square;stroke-width:1.5;"/>
   </g>
   <g id="line2d_59">
    <g clip-path="url(#p4d78e24bde)">
     <use style="fill:#ffffff;stroke:#000000;" x="320.240625" xlink:href="#mad6a108db9" y="199.519466"/>
    </g>
   </g>
   <g id="line2d_60">
    <path clip-path="url(#p4d78e24bde)" d="M 455.499825 193.584775 
L 586.741425 193.584775 
" style="fill:none;stroke:#313131;stroke-linecap:square;stroke-width:1.5;"/>
   </g>
   <g id="line2d_61">
    <g clip-path="url(#p4d78e24bde)">
     <use style="fill:#ffffff;stroke:#000000;" x="521.120625" xlink:href="#mad6a108db9" y="196.407922"/>
    </g>
   </g>
   <g id="line2d_62">
    <path clip-path="url(#p4d78e24bde)" d="M 589.419825 186.379761 
L 720.661425 186.379761 
" style="fill:none;stroke:#313131;stroke-linecap:square;stroke-width:1.5;"/>
   </g>
   <g id="line2d_63">
    <g clip-path="url(#p4d78e24bde)">
     <use style="fill:#ffffff;stroke:#000000;" x="655.040625" xlink:href="#mad6a108db9" y="184.90673"/>
    </g>
   </g>
   <g id="line2d_64">
    <path clip-path="url(#p4d78e24bde)" d="M 790.299825 207.235 
L 921.541425 207.235 
" style="fill:none;stroke:#313131;stroke-linecap:square;stroke-width:1.5;"/>
   </g>
   <g id="line2d_65">
    <g clip-path="url(#p4d78e24bde)">
     <use style="fill:#ffffff;stroke:#000000;" x="855.920625" xlink:href="#mad6a108db9" y="209.321291"/>
    </g>
   </g>
   <g id="line2d_66">
    <path clip-path="url(#p4d78e24bde)" d="M 924.219825 180.836607 
L 1055.461425 180.836607 
" style="fill:none;stroke:#313131;stroke-linecap:square;stroke-width:1.5;"/>
   </g>
   <g id="line2d_67">
    <g clip-path="url(#p4d78e24bde)">
     <use style="fill:#ffffff;stroke:#000000;" x="989.840625" xlink:href="#mad6a108db9" y="182.482907"/>
    </g>
   </g>
   <g id="patch_7">
    <path d="M 85.880625 372.284 
L 85.880625 46.124 
" style="fill:none;stroke:#000000;stroke-linecap:square;stroke-linejoin:miter;stroke-width:0.8;"/>
   </g>
   <g id="patch_8">
    <path d="M 1090.280625 372.284 
L 1090.280625 46.124 
" style="fill:none;stroke:#000000;stroke-linecap:square;stroke-linejoin:miter;stroke-width:0.8;"/>
   </g>
   <g id="patch_9">
    <path d="M 85.880625 372.284 
L 1090.280625 372.284 
" style="fill:none;stroke:#000000;stroke-linecap:square;stroke-linejoin:miter;stroke-width:0.8;"/>
   </g>
   <g id="patch_10">
    <path d="M 85.880625 46.124 
L 1090.280625 46.124 
" style="fill:none;stroke:#000000;stroke-linecap:square;stroke-linejoin:miter;stroke-width:0.8;"/>
   </g>
   <g id="text_14">
    <g id="patch_11">
     <path d="M 316.280625 333.393152 
L 381.381563 333.393152 
L 381.381563 308.052527 
L 316.280625 308.052527 
z
" style="fill:#ffffff;opacity:0.5;stroke:#000000;stroke-linejoin:miter;"/>
    </g>
    <!-- 78.5% -->
    <g transform="translate(320.240625 325.689714)scale(0.18 -0.18)">
     <defs>
      <path d="M 684 794 
L 1344 794 
L 1344 0 
L 684 0 
L 684 794 
z
" id="DejaVuSans-2e" transform="scale(0.015625)"/>
     </defs>
     <use xlink:href="#DejaVuSans-37"/>
     <use x="63.623047" xlink:href="#DejaVuSans-38"/>
     <use x="127.246094" xlink:href="#DejaVuSans-2e"/>
     <use x="159.033203" xlink:href="#DejaVuSans-35"/>
     <use x="222.65625" xlink:href="#DejaVuSans-25"/>
    </g>
   </g>
   <g id="text_15">
    <g id="patch_12">
     <path d="M 651.080625 333.393152 
L 716.181563 333.393152 
L 716.181563 308.052527 
L 651.080625 308.052527 
z
" style="fill:#ffffff;opacity:0.5;stroke:#000000;stroke-linejoin:miter;"/>
    </g>
    <!-- 80.1% -->
    <g transform="translate(655.040625 325.689714)scale(0.18 -0.18)">
     <use xlink:href="#DejaVuSans-38"/>
     <use x="63.623047" xlink:href="#DejaVuSans-30"/>
     <use x="127.246094" xlink:href="#DejaVuSans-2e"/>
     <use x="159.033203" xlink:href="#DejaVuSans-31"/>
     <use x="222.65625" xlink:href="#DejaVuSans-25"/>
    </g>
   </g>
   <g id="text_16">
    <g id="patch_13">
     <path d="M 985.880625 333.393152 
L 1050.981563 333.393152 
L 1050.981563 308.052527 
L 985.880625 308.052527 
z
" style="fill:#ffffff;opacity:0.5;stroke:#000000;stroke-linejoin:miter;"/>
    </g>
    <!-- 80.4% -->
    <g transform="translate(989.840625 325.689714)scale(0.18 -0.18)">
     <defs>
      <path d="M 2419 4116 
L 825 1625 
L 2419 1625 
L 2419 4116 
z
M 2253 4666 
L 3047 4666 
L 3047 1625 
L 3713 1625 
L 3713 1100 
L 3047 1100 
L 3047 0 
L 2419 0 
L 2419 1100 
L 313 1100 
L 313 1709 
L 2253 4666 
z
" id="DejaVuSans-34" transform="scale(0.015625)"/>
     </defs>
     <use xlink:href="#DejaVuSans-38"/>
     <use x="63.623047" xlink:href="#DejaVuSans-30"/>
     <use x="127.246094" xlink:href="#DejaVuSans-2e"/>
     <use x="159.033203" xlink:href="#DejaVuSans-34"/>
     <use x="222.65625" xlink:href="#DejaVuSans-25"/>
    </g>
   </g>
   <g id="text_17">
    <g id="patch_14">
     <path d="M 98.660625 333.393152 
L 163.761563 333.393152 
L 163.761563 308.052527 
L 98.660625 308.052527 
z
" style="fill:#ffffff;opacity:0.5;stroke:#000000;stroke-linejoin:miter;"/>
    </g>
    <!-- 77.4% -->
    <g transform="translate(102.620625 325.689714)scale(0.18 -0.18)">
     <use xlink:href="#DejaVuSans-37"/>
     <use x="63.623047" xlink:href="#DejaVuSans-37"/>
     <use x="127.246094" xlink:href="#DejaVuSans-2e"/>
     <use x="159.033203" xlink:href="#DejaVuSans-34"/>
     <use x="222.65625" xlink:href="#DejaVuSans-25"/>
    </g>
   </g>
   <g id="text_18">
    <g id="patch_15">
     <path d="M 433.460625 333.393152 
L 498.561563 333.393152 
L 498.561563 308.052527 
L 433.460625 308.052527 
z
" style="fill:#ffffff;opacity:0.5;stroke:#000000;stroke-linejoin:miter;"/>
    </g>
    <!-- 78.9% -->
    <g transform="translate(437.420625 325.689714)scale(0.18 -0.18)">
     <use xlink:href="#DejaVuSans-37"/>
     <use x="63.623047" xlink:href="#DejaVuSans-38"/>
     <use x="127.246094" xlink:href="#DejaVuSans-2e"/>
     <use x="159.033203" xlink:href="#DejaVuSans-39"/>
     <use x="222.65625" xlink:href="#DejaVuSans-25"/>
    </g>
   </g>
   <g id="text_19">
    <g id="patch_16">
     <path d="M 768.260625 333.393152 
L 833.361563 333.393152 
L 833.361563 308.052527 
L 768.260625 308.052527 
z
" style="fill:#ffffff;opacity:0.5;stroke:#000000;stroke-linejoin:miter;"/>
    </g>
    <!-- 77.5% -->
    <g transform="translate(772.220625 325.689714)scale(0.18 -0.18)">
     <use xlink:href="#DejaVuSans-37"/>
     <use x="63.623047" xlink:href="#DejaVuSans-37"/>
     <use x="127.246094" xlink:href="#DejaVuSans-2e"/>
     <use x="159.033203" xlink:href="#DejaVuSans-35"/>
     <use x="222.65625" xlink:href="#DejaVuSans-25"/>
    </g>
   </g>
   <g id="text_20">
    <g id="patch_17">
     <path d="M 343.064625 100.421723 
L 408.165563 100.421723 
L 408.165563 75.081098 
L 343.064625 75.081098 
z
" style="fill:#808080;opacity:0.5;stroke:#000000;stroke-linejoin:miter;"/>
    </g>
    <!-- 75.3% -->
    <g transform="translate(347.024625 92.718286)scale(0.18 -0.18)">
     <defs>
      <path d="M 2597 2516 
Q 3050 2419 3304 2112 
Q 3559 1806 3559 1356 
Q 3559 666 3084 287 
Q 2609 -91 1734 -91 
Q 1441 -91 1130 -33 
Q 819 25 488 141 
L 488 750 
Q 750 597 1062 519 
Q 1375 441 1716 441 
Q 2309 441 2620 675 
Q 2931 909 2931 1356 
Q 2931 1769 2642 2001 
Q 2353 2234 1838 2234 
L 1294 2234 
L 1294 2753 
L 1863 2753 
Q 2328 2753 2575 2939 
Q 2822 3125 2822 3475 
Q 2822 3834 2567 4026 
Q 2313 4219 1838 4219 
Q 1578 4219 1281 4162 
Q 984 4106 628 3988 
L 628 4550 
Q 988 4650 1302 4700 
Q 1616 4750 1894 4750 
Q 2613 4750 3031 4423 
Q 3450 4097 3450 3541 
Q 3450 3153 3228 2886 
Q 3006 2619 2597 2516 
z
" id="DejaVuSans-33" transform="scale(0.015625)"/>
     </defs>
     <use xlink:href="#DejaVuSans-37"/>
     <use x="63.623047" xlink:href="#DejaVuSans-35"/>
     <use x="127.246094" xlink:href="#DejaVuSans-2e"/>
     <use x="159.033203" xlink:href="#DejaVuSans-33"/>
     <use x="222.65625" xlink:href="#DejaVuSans-25"/>
    </g>
   </g>
   <g id="text_21">
    <g id="patch_18">
     <path d="M 677.864625 100.421723 
L 742.965563 100.421723 
L 742.965563 75.081098 
L 677.864625 75.081098 
z
" style="fill:#808080;opacity:0.5;stroke:#000000;stroke-linejoin:miter;"/>
    </g>
    <!-- 76.0% -->
    <g transform="translate(681.824625 92.718286)scale(0.18 -0.18)">
     <use xlink:href="#DejaVuSans-37"/>
     <use x="63.623047" xlink:href="#DejaVuSans-36"/>
     <use x="127.246094" xlink:href="#DejaVuSans-2e"/>
     <use x="159.033203" xlink:href="#DejaVuSans-30"/>
     <use x="222.65625" xlink:href="#DejaVuSans-25"/>
    </g>
   </g>
   <g id="text_22">
    <g id="patch_19">
     <path d="M 1012.664625 100.421723 
L 1077.765563 100.421723 
L 1077.765563 75.081098 
L 1012.664625 75.081098 
z
" style="fill:#808080;opacity:0.5;stroke:#000000;stroke-linejoin:miter;"/>
    </g>
    <!-- 77.1% -->
    <g transform="translate(1016.624625 92.718286)scale(0.18 -0.18)">
     <use xlink:href="#DejaVuSans-37"/>
     <use x="63.623047" xlink:href="#DejaVuSans-37"/>
     <use x="127.246094" xlink:href="#DejaVuSans-2e"/>
     <use x="159.033203" xlink:href="#DejaVuSans-31"/>
     <use x="222.65625" xlink:href="#DejaVuSans-25"/>
    </g>
   </g>
   <g id="text_23">
    <g id="patch_20">
     <path d="M 98.660625 100.421723 
L 163.761563 100.421723 
L 163.761563 75.081098 
L 98.660625 75.081098 
z
" style="fill:#808080;opacity:0.5;stroke:#000000;stroke-linejoin:miter;"/>
    </g>
    <!-- 73.3% -->
    <g transform="translate(102.620625 92.718286)scale(0.18 -0.18)">
     <use xlink:href="#DejaVuSans-37"/>
     <use x="63.623047" xlink:href="#DejaVuSans-33"/>
     <use x="127.246094" xlink:href="#DejaVuSans-2e"/>
     <use x="159.033203" xlink:href="#DejaVuSans-33"/>
     <use x="222.65625" xlink:href="#DejaVuSans-25"/>
    </g>
   </g>
   <g id="text_24">
    <g id="patch_21">
     <path d="M 433.460625 100.421723 
L 498.561563 100.421723 
L 498.561563 75.081098 
L 433.460625 75.081098 
z
" style="fill:#808080;opacity:0.5;stroke:#000000;stroke-linejoin:miter;"/>
    </g>
    <!-- 74.5% -->
    <g transform="translate(437.420625 92.718286)scale(0.18 -0.18)">
     <use xlink:href="#DejaVuSans-37"/>
     <use x="63.623047" xlink:href="#DejaVuSans-34"/>
     <use x="127.246094" xlink:href="#DejaVuSans-2e"/>
     <use x="159.033203" xlink:href="#DejaVuSans-35"/>
     <use x="222.65625" xlink:href="#DejaVuSans-25"/>
    </g>
   </g>
   <g id="text_25">
    <g id="patch_22">
     <path d="M 768.260625 100.421723 
L 833.361563 100.421723 
L 833.361563 75.081098 
L 768.260625 75.081098 
z
" style="fill:#808080;opacity:0.5;stroke:#000000;stroke-linejoin:miter;"/>
    </g>
    <!-- 74.3% -->
    <g transform="translate(772.220625 92.718286)scale(0.18 -0.18)">
     <use xlink:href="#DejaVuSans-37"/>
     <use x="63.623047" xlink:href="#DejaVuSans-34"/>
     <use x="127.246094" xlink:href="#DejaVuSans-2e"/>
     <use x="159.033203" xlink:href="#DejaVuSans-33"/>
     <use x="222.65625" xlink:href="#DejaVuSans-25"/>
    </g>
   </g>
   <g id="legend_1">
    <g id="patch_23">
     <path d="M 91.836625 44.55625 
L 464.45225 44.55625 
Q 468.45225 44.55625 468.45225 40.55625 
L 468.45225 13.2 
Q 468.45225 9.2 464.45225 9.2 
L 91.836625 9.2 
Q 87.836625 9.2 87.836625 13.2 
L 87.836625 40.55625 
Q 87.836625 44.55625 91.836625 44.55625 
z
" style="fill:#4c4c4c;opacity:0.5;stroke:#4c4c4c;stroke-linejoin:miter;"/>
    </g>
    <g id="patch_24">
     <path d="M 89.836625 42.55625 
L 462.45225 42.55625 
Q 466.45225 42.55625 466.45225 38.55625 
L 466.45225 11.2 
Q 466.45225 7.2 462.45225 7.2 
L 89.836625 7.2 
Q 85.836625 7.2 85.836625 11.2 
L 85.836625 38.55625 
Q 85.836625 42.55625 89.836625 42.55625 
z
" style="fill:#ffffff;stroke:#cccccc;stroke-linejoin:miter;"/>
    </g>
    <g id="patch_25">
     <path d="M 93.836625 30.396875 
L 133.836625 30.396875 
L 133.836625 16.396875 
L 93.836625 16.396875 
z
" style="fill:#772b58;stroke:#313131;stroke-linejoin:miter;stroke-width:0.75;"/>
    </g>
    <g id="text_26">
     <!-- Baseline -->
     <g transform="translate(149.836625 30.396875)scale(0.2 -0.2)">
      <defs>
       <path d="M 1259 2228 
L 1259 519 
L 2272 519 
Q 2781 519 3026 730 
Q 3272 941 3272 1375 
Q 3272 1813 3026 2020 
Q 2781 2228 2272 2228 
L 1259 2228 
z
M 1259 4147 
L 1259 2741 
L 2194 2741 
Q 2656 2741 2882 2914 
Q 3109 3088 3109 3444 
Q 3109 3797 2882 3972 
Q 2656 4147 2194 4147 
L 1259 4147 
z
M 628 4666 
L 2241 4666 
Q 2963 4666 3353 4366 
Q 3744 4066 3744 3513 
Q 3744 3084 3544 2831 
Q 3344 2578 2956 2516 
Q 3422 2416 3680 2098 
Q 3938 1781 3938 1306 
Q 3938 681 3513 340 
Q 3088 0 2303 0 
L 628 0 
L 628 4666 
z
" id="DejaVuSans-42" transform="scale(0.015625)"/>
       <path d="M 603 4863 
L 1178 4863 
L 1178 0 
L 603 0 
L 603 4863 
z
" id="DejaVuSans-6c" transform="scale(0.015625)"/>
      </defs>
      <use xlink:href="#DejaVuSans-42"/>
      <use x="68.603516" xlink:href="#DejaVuSans-61"/>
      <use x="129.882812" xlink:href="#DejaVuSans-73"/>
      <use x="181.982422" xlink:href="#DejaVuSans-65"/>
      <use x="243.505859" xlink:href="#DejaVuSans-6c"/>
      <use x="271.289062" xlink:href="#DejaVuSans-69"/>
      <use x="299.072266" xlink:href="#DejaVuSans-6e"/>
      <use x="362.451172" xlink:href="#DejaVuSans-65"/>
     </g>
    </g>
    <g id="patch_26">
     <path d="M 274.6335 30.396875 
L 314.6335 30.396875 
L 314.6335 16.396875 
L 274.6335 16.396875 
z
" style="fill:#db6e59;stroke:#313131;stroke-linejoin:miter;stroke-width:0.75;"/>
    </g>
    <g id="text_27">
     <!-- 2D-Gaussian -->
     <g transform="translate(330.6335 30.396875)scale(0.2 -0.2)">
      <defs>
       <path d="M 1228 531 
L 3431 531 
L 3431 0 
L 469 0 
L 469 531 
Q 828 903 1448 1529 
Q 2069 2156 2228 2338 
Q 2531 2678 2651 2914 
Q 2772 3150 2772 3378 
Q 2772 3750 2511 3984 
Q 2250 4219 1831 4219 
Q 1534 4219 1204 4116 
Q 875 4013 500 3803 
L 500 4441 
Q 881 4594 1212 4672 
Q 1544 4750 1819 4750 
Q 2544 4750 2975 4387 
Q 3406 4025 3406 3419 
Q 3406 3131 3298 2873 
Q 3191 2616 2906 2266 
Q 2828 2175 2409 1742 
Q 1991 1309 1228 531 
z
" id="DejaVuSans-32" transform="scale(0.015625)"/>
       <path d="M 1259 4147 
L 1259 519 
L 2022 519 
Q 2988 519 3436 956 
Q 3884 1394 3884 2338 
Q 3884 3275 3436 3711 
Q 2988 4147 2022 4147 
L 1259 4147 
z
M 628 4666 
L 1925 4666 
Q 3281 4666 3915 4102 
Q 4550 3538 4550 2338 
Q 4550 1131 3912 565 
Q 3275 0 1925 0 
L 628 0 
L 628 4666 
z
" id="DejaVuSans-44" transform="scale(0.015625)"/>
       <path d="M 313 2009 
L 1997 2009 
L 1997 1497 
L 313 1497 
L 313 2009 
z
" id="DejaVuSans-2d" transform="scale(0.015625)"/>
       <path d="M 3809 666 
L 3809 1919 
L 2778 1919 
L 2778 2438 
L 4434 2438 
L 4434 434 
Q 4069 175 3628 42 
Q 3188 -91 2688 -91 
Q 1594 -91 976 548 
Q 359 1188 359 2328 
Q 359 3472 976 4111 
Q 1594 4750 2688 4750 
Q 3144 4750 3555 4637 
Q 3966 4525 4313 4306 
L 4313 3634 
Q 3963 3931 3569 4081 
Q 3175 4231 2741 4231 
Q 1884 4231 1454 3753 
Q 1025 3275 1025 2328 
Q 1025 1384 1454 906 
Q 1884 428 2741 428 
Q 3075 428 3337 486 
Q 3600 544 3809 666 
z
" id="DejaVuSans-47" transform="scale(0.015625)"/>
      </defs>
      <use xlink:href="#DejaVuSans-32"/>
      <use x="63.623047" xlink:href="#DejaVuSans-44"/>
      <use x="140.625" xlink:href="#DejaVuSans-2d"/>
      <use x="180.333984" xlink:href="#DejaVuSans-47"/>
      <use x="257.824219" xlink:href="#DejaVuSans-61"/>
      <use x="319.103516" xlink:href="#DejaVuSans-75"/>
      <use x="382.482422" xlink:href="#DejaVuSans-73"/>
      <use x="434.582031" xlink:href="#DejaVuSans-73"/>
      <use x="486.681641" xlink:href="#DejaVuSans-69"/>
      <use x="514.464844" xlink:href="#DejaVuSans-61"/>
      <use x="575.744141" xlink:href="#DejaVuSans-6e"/>
     </g>
    </g>
   </g>
  </g>
 </g>
 <defs>
  <clipPath id="p4d78e24bde">
   <rect height="326.16" width="1004.4" x="85.880625" y="46.124"/>
  </clipPath>
 </defs>
</svg>
