<?xml version="1.0" encoding="utf-8" standalone="no"?>
<!DOCTYPE svg PUBLIC "-//W3C//DTD SVG 1.1//EN"
  "http://www.w3.org/Graphics/SVG/1.1/DTD/svg11.dtd">
<svg height="433.06775pt" version="1.1" viewBox="0 0 1097.480625 433.06775" width="1097.480625pt" xmlns="http://www.w3.org/2000/svg" xmlns:xlink="http://www.w3.org/1999/xlink">
 <metadata>
  <rdf:RDF xmlns:cc="http://creativecommons.org/ns#" xmlns:dc="http://purl.org/dc/elements/1.1/" xmlns:rdf="http://www.w3.org/1999/02/22-rdf-syntax-ns#">
   <cc:Work>
    <dc:type rdf:resource="http://purl.org/dc/dcmitype/StillImage"/>
    <dc:date>2022-09-08T19:49:07.762701</dc:date>
    <dc:format>image/svg+xml</dc:format>
    <dc:creator>
     <cc:Agent>
      <dc:title>Matplotlib v3.4.2, https://matplotlib.org/</dc:title>
     </cc:Agent>
    </dc:creator>
   </cc:Work>
  </rdf:RDF>
 </metadata>
 <defs>
  <style type="text/css">*{stroke-linecap:butt;stroke-linejoin:round;}</style>
 </defs>
 <g id="figure_1">
  <g id="patch_1">
   <path d="M 0 433.06775 
L 1097.480625 433.06775 
L 1097.480625 -0 
L 0 -0 
z
" style="fill:none;"/>
  </g>
  <g id="axes_1">
   <g id="patch_2">
    <path d="M 85.880625 372.284 
L 1090.280625 372.284 
L 1090.280625 46.124 
L 85.880625 46.124 
z
" style="fill:#ffffff;"/>
   </g>
   <g id="PolyCollection_1">
    <defs>
     <path d="M 187.115155 -156.685093 
L 185.526095 -156.685093 
L 185.359114 -157.909115 
L 185.16426 -159.133137 
L 184.938413 -160.357159 
L 184.678379 -161.581181 
L 184.380925 -162.805203 
L 184.042828 -164.029225 
L 183.660918 -165.253247 
L 183.232119 -166.477269 
L 182.753496 -167.701291 
L 182.222288 -168.925313 
L 181.635946 -170.149335 
L 180.992162 -171.373357 
L 180.288892 -172.597379 
L 179.524378 -173.821401 
L 178.697161 -175.045423 
L 177.806101 -176.269445 
L 176.85039 -177.493467 
L 175.829569 -178.717489 
L 174.743552 -179.941511 
L 173.592654 -181.165533 
L 172.377625 -182.389555 
L 171.099692 -183.613577 
L 169.760605 -184.837599 
L 168.362688 -186.061621 
L 166.908889 -187.285643 
L 165.402819 -188.509665 
L 163.848791 -189.733687 
L 162.251829 -190.957709 
L 160.617667 -192.181731 
L 158.952712 -193.405752 
L 157.263982 -194.629774 
L 155.559009 -195.853796 
L 153.845711 -197.077818 
L 152.132238 -198.30184 
L 150.426797 -199.525862 
L 148.737459 -200.749884 
L 147.071973 -201.973906 
L 145.43758 -203.197928 
L 143.840857 -204.42195 
L 142.287596 -205.645972 
L 140.782724 -206.869994 
L 139.330284 -208.094016 
L 137.933475 -209.318038 
L 136.594752 -210.54206 
L 135.315985 -211.766082 
L 134.098671 -212.990104 
L 132.944186 -214.214126 
L 131.854057 -215.438148 
L 130.830247 -216.66217 
L 129.875419 -217.886192 
L 128.993174 -219.110214 
L 128.188233 -220.334236 
L 127.466551 -221.558258 
L 126.835356 -222.78228 
L 126.30309 -224.006302 
L 125.879269 -225.230324 
L 125.574249 -226.454346 
L 125.398916 -227.678368 
L 125.364305 -228.90239 
L 125.481172 -230.126412 
L 125.759537 -231.350434 
L 126.208222 -232.574456 
L 126.834395 -233.798478 
L 127.643168 -235.0225 
L 128.637236 -236.246522 
L 129.816599 -237.470544 
L 131.178372 -238.694566 
L 132.716688 -239.918588 
L 134.422702 -241.14261 
L 136.2847 -242.366632 
L 138.288296 -243.590654 
L 140.41672 -244.814676 
L 142.651181 -246.038698 
L 144.971286 -247.26272 
L 147.355504 -248.486742 
L 149.781657 -249.710764 
L 152.227414 -250.934786 
L 154.670778 -252.158808 
L 157.090547 -253.38283 
L 159.46673 -254.606852 
L 161.780924 -255.830873 
L 164.016611 -257.054895 
L 166.159403 -258.278917 
L 168.197208 -259.502939 
L 170.120324 -260.726961 
L 171.921469 -261.950983 
L 173.595737 -263.175005 
L 175.140497 -264.399027 
L 176.555249 -265.623049 
L 177.841426 -266.847071 
L 179.002171 -268.071093 
L 180.042092 -269.295115 
L 180.967005 -270.519137 
L 181.783669 -271.743159 
L 182.49954 -272.967181 
L 183.122522 -274.191203 
L 183.660753 -275.415225 
L 184.122406 -276.639247 
L 184.515515 -277.863269 
L 188.125735 -277.863269 
L 188.125735 -277.863269 
L 188.518844 -276.639247 
L 188.980497 -275.415225 
L 189.518728 -274.191203 
L 190.14171 -272.967181 
L 190.857581 -271.743159 
L 191.674245 -270.519137 
L 192.599158 -269.295115 
L 193.639079 -268.071093 
L 194.799824 -266.847071 
L 196.086001 -265.623049 
L 197.500753 -264.399027 
L 199.045513 -263.175005 
L 200.719781 -261.950983 
L 202.520926 -260.726961 
L 204.444042 -259.502939 
L 206.481847 -258.278917 
L 208.624639 -257.054895 
L 210.860326 -255.830873 
L 213.17452 -254.606852 
L 215.550703 -253.38283 
L 217.970472 -252.158808 
L 220.413836 -250.934786 
L 222.859593 -249.710764 
L 225.285746 -248.486742 
L 227.669964 -247.26272 
L 229.990069 -246.038698 
L 232.22453 -244.814676 
L 234.352954 -243.590654 
L 236.35655 -242.366632 
L 238.218548 -241.14261 
L 239.924562 -239.918588 
L 241.462878 -238.694566 
L 242.824651 -237.470544 
L 244.004014 -236.246522 
L 244.998082 -235.0225 
L 245.806855 -233.798478 
L 246.433028 -232.574456 
L 246.881713 -231.350434 
L 247.160078 -230.126412 
L 247.276945 -228.90239 
L 247.242334 -227.678368 
L 247.067001 -226.454346 
L 246.761981 -225.230324 
L 246.33816 -224.006302 
L 245.805894 -222.78228 
L 245.174699 -221.558258 
L 244.453017 -220.334236 
L 243.648076 -219.110214 
L 242.765831 -217.886192 
L 241.811003 -216.66217 
L 240.787193 -215.438148 
L 239.697064 -214.214126 
L 238.542579 -212.990104 
L 237.325265 -211.766082 
L 236.046498 -210.54206 
L 234.707775 -209.318038 
L 233.310966 -208.094016 
L 231.858526 -206.869994 
L 230.353654 -205.645972 
L 228.800393 -204.42195 
L 227.20367 -203.197928 
L 225.569277 -201.973906 
L 223.903791 -200.749884 
L 222.214453 -199.525862 
L 220.509012 -198.30184 
L 218.795539 -197.077818 
L 217.082241 -195.853796 
L 215.377268 -194.629774 
L 213.688538 -193.405752 
L 212.023583 -192.181731 
L 210.389421 -190.957709 
L 208.792459 -189.733687 
L 207.238431 -188.509665 
L 205.732361 -187.285643 
L 204.278562 -186.061621 
L 202.880645 -184.837599 
L 201.541558 -183.613577 
L 200.263625 -182.389555 
L 199.048596 -181.165533 
L 197.897698 -179.941511 
L 196.811681 -178.717489 
L 195.79086 -177.493467 
L 194.835149 -176.269445 
L 193.944089 -175.045423 
L 193.116872 -173.821401 
L 192.352358 -172.597379 
L 191.649088 -171.373357 
L 191.005304 -170.149335 
L 190.418962 -168.925313 
L 189.887754 -167.701291 
L 189.409131 -166.477269 
L 188.980332 -165.253247 
L 188.598422 -164.029225 
L 188.260325 -162.805203 
L 187.962871 -161.581181 
L 187.702837 -160.357159 
L 187.47699 -159.133137 
L 187.282136 -157.909115 
L 187.115155 -156.685093 
z
" id="m668bf525b7" style="stroke:#313131;stroke-width:1.5;"/>
    </defs>
    <g clip-path="url(#p577903c35a)">
     <use style="fill:#772b58;stroke:#313131;stroke-width:1.5;" x="0" xlink:href="#m668bf525b7" y="433.06775"/>
    </g>
   </g>
   <g id="PolyCollection_2">
    <defs>
     <path d="M 321.466607 -170.014407 
L 319.014643 -170.014407 
L 318.722806 -171.229956 
L 318.37422 -172.445504 
L 317.960976 -173.661053 
L 317.474744 -174.876602 
L 316.906896 -176.092151 
L 316.248659 -177.3077 
L 315.491293 -178.523249 
L 314.626304 -179.738798 
L 313.645672 -180.954347 
L 312.542101 -182.169896 
L 311.309281 -183.385445 
L 309.942153 -184.600994 
L 308.437165 -185.816543 
L 306.792515 -187.032092 
L 305.008372 -188.247641 
L 303.087058 -189.463189 
L 301.033185 -190.678738 
L 298.853746 -191.894287 
L 296.558146 -193.109836 
L 294.158171 -194.325385 
L 291.667901 -195.540934 
L 289.103553 -196.756483 
L 286.483273 -197.972032 
L 283.826874 -199.187581 
L 281.155531 -200.40313 
L 278.491432 -201.618679 
L 275.857417 -202.834228 
L 273.276592 -204.049777 
L 270.771935 -205.265325 
L 268.365918 -206.480874 
L 266.080132 -207.696423 
L 263.934935 -208.911972 
L 261.949134 -210.127521 
L 260.139691 -211.34307 
L 258.521472 -212.558619 
L 257.107039 -213.774168 
L 255.906478 -214.989717 
L 254.927284 -216.205266 
L 254.174284 -217.420815 
L 253.649618 -218.636364 
L 253.352765 -219.851913 
L 253.280625 -221.067462 
L 253.427651 -222.28301 
L 253.786027 -223.498559 
L 254.345894 -224.714108 
L 255.095618 -225.929657 
L 256.022088 -227.145206 
L 257.111043 -228.360755 
L 258.347409 -229.576304 
L 259.715642 -230.791853 
L 261.200061 -232.007402 
L 262.785162 -233.222951 
L 264.455893 -234.4385 
L 266.197897 -235.654049 
L 267.997698 -236.869598 
L 269.84284 -238.085147 
L 271.721964 -239.300695 
L 273.624841 -240.516244 
L 275.542343 -241.731793 
L 277.466389 -242.947342 
L 279.389839 -244.162891 
L 281.306382 -245.37844 
L 283.210399 -246.593989 
L 285.096832 -247.809538 
L 286.961055 -249.025087 
L 288.798762 -250.240636 
L 290.605876 -251.456185 
L 292.378477 -252.671734 
L 294.112763 -253.887283 
L 295.805032 -255.102831 
L 297.45168 -256.31838 
L 299.049229 -257.533929 
L 300.59436 -258.749478 
L 302.083961 -259.965027 
L 303.515172 -261.180576 
L 304.885439 -262.396125 
L 306.192558 -263.611674 
L 307.434713 -264.827223 
L 308.61051 -266.042772 
L 309.718996 -267.258321 
L 310.759672 -268.47387 
L 311.732494 -269.689419 
L 312.637871 -270.904968 
L 313.476644 -272.120516 
L 314.250071 -273.336065 
L 314.959799 -274.551614 
L 315.607829 -275.767163 
L 316.196488 -276.982712 
L 316.728382 -278.198261 
L 317.20636 -279.41381 
L 317.63347 -280.629359 
L 318.012911 -281.844908 
L 318.347991 -283.060457 
L 318.64208 -284.276006 
L 318.898565 -285.491555 
L 319.120806 -286.707104 
L 319.312101 -287.922652 
L 319.475641 -289.138201 
L 319.614487 -290.35375 
L 320.866763 -290.35375 
L 320.866763 -290.35375 
L 321.005609 -289.138201 
L 321.169149 -287.922652 
L 321.360444 -286.707104 
L 321.582685 -285.491555 
L 321.83917 -284.276006 
L 322.133259 -283.060457 
L 322.468339 -281.844908 
L 322.84778 -280.629359 
L 323.27489 -279.41381 
L 323.752868 -278.198261 
L 324.284762 -276.982712 
L 324.873421 -275.767163 
L 325.521451 -274.551614 
L 326.231179 -273.336065 
L 327.004606 -272.120516 
L 327.843379 -270.904968 
L 328.748756 -269.689419 
L 329.721578 -268.47387 
L 330.762254 -267.258321 
L 331.87074 -266.042772 
L 333.046537 -264.827223 
L 334.288692 -263.611674 
L 335.595811 -262.396125 
L 336.966078 -261.180576 
L 338.397289 -259.965027 
L 339.88689 -258.749478 
L 341.432021 -257.533929 
L 343.02957 -256.31838 
L 344.676218 -255.102831 
L 346.368487 -253.887283 
L 348.102773 -252.671734 
L 349.875374 -251.456185 
L 351.682488 -250.240636 
L 353.520195 -249.025087 
L 355.384418 -247.809538 
L 357.270851 -246.593989 
L 359.174868 -245.37844 
L 361.091411 -244.162891 
L 363.014861 -242.947342 
L 364.938907 -241.731793 
L 366.856409 -240.516244 
L 368.759286 -239.300695 
L 370.63841 -238.085147 
L 372.483552 -236.869598 
L 374.283353 -235.654049 
L 376.025357 -234.4385 
L 377.696088 -233.222951 
L 379.281189 -232.007402 
L 380.765608 -230.791853 
L 382.133841 -229.576304 
L 383.370207 -228.360755 
L 384.459162 -227.145206 
L 385.385632 -225.929657 
L 386.135356 -224.714108 
L 386.695223 -223.498559 
L 387.053599 -222.28301 
L 387.200625 -221.067462 
L 387.128485 -219.851913 
L 386.831632 -218.636364 
L 386.306966 -217.420815 
L 385.553966 -216.205266 
L 384.574772 -214.989717 
L 383.374211 -213.774168 
L 381.959778 -212.558619 
L 380.341559 -211.34307 
L 378.532116 -210.127521 
L 376.546315 -208.911972 
L 374.401118 -207.696423 
L 372.115332 -206.480874 
L 369.709315 -205.265325 
L 367.204658 -204.049777 
L 364.623833 -202.834228 
L 361.989818 -201.618679 
L 359.325719 -200.40313 
L 356.654376 -199.187581 
L 353.997977 -197.972032 
L 351.377697 -196.756483 
L 348.813349 -195.540934 
L 346.323079 -194.325385 
L 343.923104 -193.109836 
L 341.627504 -191.894287 
L 339.448065 -190.678738 
L 337.394192 -189.463189 
L 335.472878 -188.247641 
L 333.688735 -187.032092 
L 332.044085 -185.816543 
L 330.539097 -184.600994 
L 329.171969 -183.385445 
L 327.939149 -182.169896 
L 326.835578 -180.954347 
L 325.854946 -179.738798 
L 324.989957 -178.523249 
L 324.232591 -177.3077 
L 323.574354 -176.092151 
L 323.006506 -174.876602 
L 322.520274 -173.661053 
L 322.10703 -172.445504 
L 321.758444 -171.229956 
L 321.466607 -170.014407 
z
" id="mf63e176f5f" style="stroke:#313131;stroke-width:1.5;"/>
    </defs>
    <g clip-path="url(#p577903c35a)">
     <use style="fill:#db6e59;stroke:#313131;stroke-width:1.5;" x="0" xlink:href="#mf63e176f5f" y="433.06775"/>
    </g>
   </g>
   <g id="PolyCollection_3">
    <defs>
     <path d="M 521.570251 -170.483778 
L 520.670999 -170.483778 
L 520.563952 -171.802164 
L 520.437342 -173.12055 
L 520.288962 -174.438936 
L 520.116604 -175.757323 
L 519.918082 -177.075709 
L 519.691255 -178.394095 
L 519.434036 -179.712481 
L 519.144389 -181.030867 
L 518.820309 -182.349254 
L 518.45979 -183.66764 
L 518.060775 -184.986026 
L 517.621099 -186.304412 
L 517.138426 -187.622798 
L 516.610186 -188.941185 
L 516.033518 -190.259571 
L 515.405236 -191.577957 
L 514.721809 -192.896343 
L 513.979375 -194.214729 
L 513.17379 -195.533116 
L 512.300704 -196.851502 
L 511.35568 -198.169888 
L 510.334337 -199.488274 
L 509.232517 -200.806661 
L 508.046467 -202.125047 
L 506.773038 -203.443433 
L 505.409861 -204.761819 
L 503.955537 -206.080205 
L 502.409792 -207.398592 
L 500.773619 -208.716978 
L 499.049396 -210.035364 
L 497.240985 -211.35375 
L 495.353802 -212.672136 
L 493.394884 -213.990523 
L 491.372929 -215.308909 
L 489.298334 -216.627295 
L 487.183221 -217.945681 
L 485.04145 -219.264067 
L 482.888615 -220.582454 
L 480.742009 -221.90084 
L 478.620566 -223.219226 
L 476.544742 -224.537612 
L 474.536347 -225.855998 
L 472.618309 -227.174385 
L 470.814359 -228.492771 
L 469.148642 -229.811157 
L 467.645261 -231.129543 
L 466.327749 -232.44793 
L 465.218496 -233.766316 
L 464.338145 -235.084702 
L 463.70498 -236.403088 
L 463.334335 -237.721474 
L 463.238043 -239.039861 
L 463.423957 -240.358247 
L 463.895563 -241.676633 
L 464.651706 -242.995019 
L 465.686434 -244.313405 
L 466.988992 -245.631792 
L 468.543948 -246.950178 
L 470.331463 -248.268564 
L 472.327704 -249.58695 
L 474.505377 -250.905336 
L 476.83438 -252.223723 
L 479.282545 -253.542109 
L 481.816459 -254.860495 
L 484.402319 -256.178881 
L 487.006808 -257.497267 
L 489.597943 -258.815654 
L 492.145877 -260.13404 
L 494.623605 -261.452426 
L 497.007554 -262.770812 
L 499.278033 -264.089198 
L 501.419517 -265.407585 
L 503.420761 -266.725971 
L 505.274743 -268.044357 
L 506.978446 -269.362743 
L 508.532494 -270.68113 
L 509.940679 -271.999516 
L 511.209397 -273.317902 
L 512.347052 -274.636288 
L 513.363435 -275.954674 
L 514.269139 -277.273061 
L 515.075023 -278.591447 
L 515.791759 -279.909833 
L 516.429466 -281.228219 
L 516.997449 -282.546605 
L 517.504031 -283.864992 
L 517.956484 -285.183378 
L 518.36103 -286.501764 
L 518.722913 -287.82015 
L 519.046505 -289.138536 
L 519.335445 -290.456923 
L 519.592788 -291.775309 
L 519.821143 -293.093695 
L 520.022805 -294.412081 
L 520.199857 -295.730467 
L 520.354252 -297.048854 
L 520.487875 -298.36724 
L 520.602564 -299.685626 
L 520.700135 -301.004012 
L 521.541115 -301.004012 
L 521.541115 -301.004012 
L 521.638686 -299.685626 
L 521.753375 -298.36724 
L 521.886998 -297.048854 
L 522.041393 -295.730467 
L 522.218445 -294.412081 
L 522.420107 -293.093695 
L 522.648462 -291.775309 
L 522.905805 -290.456923 
L 523.194745 -289.138536 
L 523.518337 -287.82015 
L 523.88022 -286.501764 
L 524.284766 -285.183378 
L 524.737219 -283.864992 
L 525.243801 -282.546605 
L 525.811784 -281.228219 
L 526.449491 -279.909833 
L 527.166227 -278.591447 
L 527.972111 -277.273061 
L 528.877815 -275.954674 
L 529.894198 -274.636288 
L 531.031853 -273.317902 
L 532.300571 -271.999516 
L 533.708756 -270.68113 
L 535.262804 -269.362743 
L 536.966507 -268.044357 
L 538.820489 -266.725971 
L 540.821733 -265.407585 
L 542.963217 -264.089198 
L 545.233696 -262.770812 
L 547.617645 -261.452426 
L 550.095373 -260.13404 
L 552.643307 -258.815654 
L 555.234442 -257.497267 
L 557.838931 -256.178881 
L 560.424791 -254.860495 
L 562.958705 -253.542109 
L 565.40687 -252.223723 
L 567.735873 -250.905336 
L 569.913546 -249.58695 
L 571.909787 -248.268564 
L 573.697302 -246.950178 
L 575.252258 -245.631792 
L 576.554816 -244.313405 
L 577.589544 -242.995019 
L 578.345687 -241.676633 
L 578.817293 -240.358247 
L 579.003207 -239.039861 
L 578.906915 -237.721474 
L 578.53627 -236.403088 
L 577.903105 -235.084702 
L 577.022754 -233.766316 
L 575.913501 -232.44793 
L 574.595989 -231.129543 
L 573.092608 -229.811157 
L 571.426891 -228.492771 
L 569.622941 -227.174385 
L 567.704903 -225.855998 
L 565.696508 -224.537612 
L 563.620684 -223.219226 
L 561.499241 -221.90084 
L 559.352635 -220.582454 
L 557.1998 -219.264067 
L 555.058029 -217.945681 
L 552.942916 -216.627295 
L 550.868321 -215.308909 
L 548.846366 -213.990523 
L 546.887448 -212.672136 
L 545.000265 -211.35375 
L 543.191854 -210.035364 
L 541.467631 -208.716978 
L 539.831458 -207.398592 
L 538.285713 -206.080205 
L 536.831389 -204.761819 
L 535.468212 -203.443433 
L 534.194783 -202.125047 
L 533.008733 -200.806661 
L 531.906913 -199.488274 
L 530.88557 -198.169888 
L 529.940546 -196.851502 
L 529.06746 -195.533116 
L 528.261875 -194.214729 
L 527.519441 -192.896343 
L 526.836014 -191.577957 
L 526.207732 -190.259571 
L 525.631064 -188.941185 
L 525.102824 -187.622798 
L 524.620151 -186.304412 
L 524.180475 -184.986026 
L 523.78146 -183.66764 
L 523.420941 -182.349254 
L 523.096861 -181.030867 
L 522.807214 -179.712481 
L 522.549995 -178.394095 
L 522.323168 -177.075709 
L 522.124646 -175.757323 
L 521.952288 -174.438936 
L 521.803908 -173.12055 
L 521.677298 -171.802164 
L 521.570251 -170.483778 
z
" id="mba1ef5691f" style="stroke:#313131;stroke-width:1.5;"/>
    </defs>
    <g clip-path="url(#p577903c35a)">
     <use style="fill:#772b58;stroke:#313131;stroke-width:1.5;" x="0" xlink:href="#mba1ef5691f" y="433.06775"/>
    </g>
   </g>
   <g id="PolyCollection_4">
    <defs>
     <path d="M 655.980204 -196.158744 
L 654.101046 -196.158744 
L 653.886894 -197.105906 
L 653.63345 -198.053067 
L 653.335763 -199.000229 
L 652.988733 -199.94739 
L 652.587205 -200.894552 
L 652.126077 -201.841714 
L 651.600427 -202.788875 
L 651.005644 -203.736037 
L 650.337568 -204.683198 
L 649.592634 -205.63036 
L 648.768007 -206.577522 
L 647.861711 -207.524683 
L 646.872739 -208.471845 
L 645.80114 -209.419007 
L 644.648078 -210.366168 
L 643.41586 -211.31333 
L 642.107923 -212.260491 
L 640.728786 -213.207653 
L 639.283959 -214.154815 
L 637.779818 -215.101976 
L 636.223442 -216.049138 
L 634.62242 -216.9963 
L 632.98464 -217.943461 
L 631.318059 -218.890623 
L 629.630469 -219.837784 
L 627.929272 -220.784946 
L 626.221262 -221.732108 
L 624.512448 -222.679269 
L 622.807895 -223.626431 
L 621.111629 -224.573592 
L 619.42658 -225.520754 
L 617.754592 -226.467916 
L 616.096494 -227.415077 
L 614.452232 -228.362239 
L 612.821065 -229.309401 
L 611.201819 -230.256562 
L 609.593186 -231.203724 
L 607.99407 -232.150885 
L 606.40395 -233.098047 
L 604.823258 -234.045209 
L 603.253747 -234.99237 
L 601.698827 -235.939532 
L 600.163857 -236.886693 
L 598.65637 -237.833855 
L 597.186204 -238.781017 
L 595.765539 -239.728178 
L 594.408823 -240.67534 
L 593.13257 -241.622502 
L 591.955048 -242.569663 
L 590.89585 -243.516825 
L 589.975365 -244.463986 
L 589.214168 -245.411148 
L 588.632352 -246.35831 
L 588.248827 -247.305471 
L 588.080625 -248.252633 
L 588.142238 -249.199795 
L 588.445018 -250.146956 
L 588.996674 -251.094118 
L 589.80089 -252.041279 
L 590.857068 -252.988441 
L 592.160234 -253.935603 
L 593.701086 -254.882764 
L 595.46619 -255.829926 
L 597.438323 -256.777087 
L 599.596923 -257.724249 
L 601.918643 -258.671411 
L 604.377979 -259.618572 
L 606.947934 -260.565734 
L 609.600703 -261.512896 
L 612.308343 -262.460057 
L 615.043404 -263.407219 
L 617.779508 -264.35438 
L 620.491849 -265.301542 
L 623.157607 -266.248704 
L 625.756278 -267.195865 
L 628.269896 -268.143027 
L 630.68318 -269.090188 
L 632.98358 -270.03735 
L 635.16126 -270.984512 
L 637.209004 -271.931673 
L 639.122072 -272.878835 
L 640.898015 -273.825997 
L 642.536456 -274.773158 
L 644.038852 -275.72032 
L 645.408248 -276.667481 
L 646.649024 -277.614643 
L 647.766656 -278.561805 
L 648.767479 -279.508966 
L 649.658468 -280.456128 
L 650.447042 -281.40329 
L 651.140879 -282.350451 
L 651.74776 -283.297613 
L 652.275426 -284.244774 
L 652.731463 -285.191936 
L 653.123202 -286.139098 
L 653.457643 -287.086259 
L 653.741391 -288.033421 
L 653.980612 -288.980582 
L 654.181006 -289.927744 
L 655.900244 -289.927744 
L 655.900244 -289.927744 
L 656.100638 -288.980582 
L 656.339859 -288.033421 
L 656.623607 -287.086259 
L 656.958048 -286.139098 
L 657.349787 -285.191936 
L 657.805824 -284.244774 
L 658.33349 -283.297613 
L 658.940371 -282.350451 
L 659.634208 -281.40329 
L 660.422782 -280.456128 
L 661.313771 -279.508966 
L 662.314594 -278.561805 
L 663.432226 -277.614643 
L 664.673002 -276.667481 
L 666.042398 -275.72032 
L 667.544794 -274.773158 
L 669.183235 -273.825997 
L 670.959178 -272.878835 
L 672.872246 -271.931673 
L 674.91999 -270.984512 
L 677.09767 -270.03735 
L 679.39807 -269.090188 
L 681.811354 -268.143027 
L 684.324972 -267.195865 
L 686.923643 -266.248704 
L 689.589401 -265.301542 
L 692.301742 -264.35438 
L 695.037846 -263.407219 
L 697.772907 -262.460057 
L 700.480547 -261.512896 
L 703.133316 -260.565734 
L 705.703271 -259.618572 
L 708.162607 -258.671411 
L 710.484327 -257.724249 
L 712.642927 -256.777087 
L 714.61506 -255.829926 
L 716.380164 -254.882764 
L 717.921016 -253.935603 
L 719.224182 -252.988441 
L 720.28036 -252.041279 
L 721.084576 -251.094118 
L 721.636232 -250.146956 
L 721.939012 -249.199795 
L 722.000625 -248.252633 
L 721.832423 -247.305471 
L 721.448898 -246.35831 
L 720.867082 -245.411148 
L 720.105885 -244.463986 
L 719.1854 -243.516825 
L 718.126202 -242.569663 
L 716.94868 -241.622502 
L 715.672427 -240.67534 
L 714.315711 -239.728178 
L 712.895046 -238.781017 
L 711.42488 -237.833855 
L 709.917393 -236.886693 
L 708.382423 -235.939532 
L 706.827503 -234.99237 
L 705.257992 -234.045209 
L 703.6773 -233.098047 
L 702.08718 -232.150885 
L 700.488064 -231.203724 
L 698.879431 -230.256562 
L 697.260185 -229.309401 
L 695.629018 -228.362239 
L 693.984756 -227.415077 
L 692.326658 -226.467916 
L 690.65467 -225.520754 
L 688.969621 -224.573592 
L 687.273355 -223.626431 
L 685.568802 -222.679269 
L 683.859988 -221.732108 
L 682.151978 -220.784946 
L 680.450781 -219.837784 
L 678.763191 -218.890623 
L 677.09661 -217.943461 
L 675.45883 -216.9963 
L 673.857808 -216.049138 
L 672.301432 -215.101976 
L 670.797291 -214.154815 
L 669.352464 -213.207653 
L 667.973327 -212.260491 
L 666.66539 -211.31333 
L 665.433172 -210.366168 
L 664.28011 -209.419007 
L 663.208511 -208.471845 
L 662.219539 -207.524683 
L 661.313243 -206.577522 
L 660.488616 -205.63036 
L 659.743682 -204.683198 
L 659.075606 -203.736037 
L 658.480823 -202.788875 
L 657.955173 -201.841714 
L 657.494045 -200.894552 
L 657.092517 -199.94739 
L 656.745487 -199.000229 
L 656.4478 -198.053067 
L 656.194356 -197.105906 
L 655.980204 -196.158744 
z
" id="m9938cc35a7" style="stroke:#313131;stroke-width:1.5;"/>
    </defs>
    <g clip-path="url(#p577903c35a)">
     <use style="fill:#db6e59;stroke:#313131;stroke-width:1.5;" x="0" xlink:href="#m9938cc35a7" y="433.06775"/>
    </g>
   </g>
   <g id="PolyCollection_5">
    <defs>
     <path d="M 856.535299 -174.159144 
L 855.305951 -174.159144 
L 855.167715 -175.095537 
L 855.005027 -176.03193 
L 854.815029 -176.968323 
L 854.594787 -177.904716 
L 854.341327 -178.841109 
L 854.051662 -179.777502 
L 853.722819 -180.713894 
L 853.351865 -181.650287 
L 852.935916 -182.58668 
L 852.472145 -183.523073 
L 851.957782 -184.459466 
L 851.390109 -185.395859 
L 850.766445 -186.332252 
L 850.084142 -187.268645 
L 849.34057 -188.205038 
L 848.533129 -189.14143 
L 847.65926 -190.077823 
L 846.716482 -191.014216 
L 845.702448 -191.950609 
L 844.615024 -192.887002 
L 843.452389 -193.823395 
L 842.213153 -194.759788 
L 840.89649 -195.696181 
L 839.502272 -196.632574 
L 838.0312 -197.568966 
L 836.484916 -198.505359 
L 834.866088 -199.441752 
L 833.178458 -200.378145 
L 831.426842 -201.314538 
L 829.617083 -202.250931 
L 827.755953 -203.187324 
L 825.851 -204.123717 
L 823.910373 -205.06011 
L 821.942608 -205.996502 
L 819.956412 -206.932895 
L 817.960459 -207.869288 
L 815.96321 -208.805681 
L 813.972783 -209.742074 
L 811.996892 -210.678467 
L 810.042846 -211.61486 
L 808.117636 -212.551253 
L 806.22809 -213.487646 
L 804.381101 -214.424038 
L 802.58389 -215.360431 
L 800.844314 -216.296824 
L 799.171152 -217.233217 
L 797.574382 -218.16961 
L 796.065384 -219.106003 
L 794.657064 -220.042396 
L 793.363867 -220.978789 
L 792.201667 -221.915182 
L 791.187522 -222.851574 
L 790.339296 -223.787967 
L 789.675164 -224.72436 
L 789.21301 -225.660753 
L 788.969751 -226.597146 
L 788.960625 -227.533539 
L 789.198472 -228.469932 
L 789.693054 -229.406325 
L 790.450457 -230.342718 
L 791.472599 -231.27911 
L 792.756888 -232.215503 
L 794.296043 -233.151896 
L 796.078092 -234.088289 
L 798.086554 -235.024682 
L 800.300795 -235.961075 
L 802.696541 -236.897468 
L 805.246521 -237.833861 
L 807.921213 -238.770254 
L 810.68965 -239.706646 
L 813.520258 -240.643039 
L 816.381677 -241.579432 
L 819.243531 -242.515825 
L 822.077135 -243.452218 
L 824.856082 -244.388611 
L 827.556722 -245.325004 
L 830.158513 -246.261397 
L 832.644235 -247.19779 
L 835.000082 -248.134182 
L 837.215639 -249.070575 
L 839.283753 -250.006968 
L 841.200326 -250.943361 
L 842.964041 -251.879754 
L 844.576044 -252.816147 
L 846.039601 -253.75254 
L 847.359744 -254.688933 
L 848.542921 -255.625326 
L 849.596669 -256.561718 
L 850.529298 -257.498111 
L 851.349624 -258.434504 
L 852.066717 -259.370897 
L 852.689698 -260.30729 
L 853.22756 -261.243683 
L 853.689033 -262.180076 
L 854.082466 -263.116469 
L 854.415745 -264.052862 
L 854.696238 -264.989254 
L 854.930748 -265.925647 
L 855.1255 -266.86204 
L 856.71575 -266.86204 
L 856.71575 -266.86204 
L 856.910502 -265.925647 
L 857.145012 -264.989254 
L 857.425505 -264.052862 
L 857.758784 -263.116469 
L 858.152217 -262.180076 
L 858.61369 -261.243683 
L 859.151552 -260.30729 
L 859.774533 -259.370897 
L 860.491626 -258.434504 
L 861.311952 -257.498111 
L 862.244581 -256.561718 
L 863.298329 -255.625326 
L 864.481506 -254.688933 
L 865.801649 -253.75254 
L 867.265206 -252.816147 
L 868.877209 -251.879754 
L 870.640924 -250.943361 
L 872.557497 -250.006968 
L 874.625611 -249.070575 
L 876.841168 -248.134182 
L 879.197015 -247.19779 
L 881.682737 -246.261397 
L 884.284528 -245.325004 
L 886.985168 -244.388611 
L 889.764115 -243.452218 
L 892.597719 -242.515825 
L 895.459573 -241.579432 
L 898.320992 -240.643039 
L 901.1516 -239.706646 
L 903.920037 -238.770254 
L 906.594729 -237.833861 
L 909.144709 -236.897468 
L 911.540455 -235.961075 
L 913.754696 -235.024682 
L 915.763158 -234.088289 
L 917.545207 -233.151896 
L 919.084362 -232.215503 
L 920.368651 -231.27911 
L 921.390793 -230.342718 
L 922.148196 -229.406325 
L 922.642778 -228.469932 
L 922.880625 -227.533539 
L 922.871499 -226.597146 
L 922.62824 -225.660753 
L 922.166086 -224.72436 
L 921.501954 -223.787967 
L 920.653728 -222.851574 
L 919.639583 -221.915182 
L 918.477383 -220.978789 
L 917.184186 -220.042396 
L 915.775866 -219.106003 
L 914.266868 -218.16961 
L 912.670098 -217.233217 
L 910.996936 -216.296824 
L 909.25736 -215.360431 
L 907.460149 -214.424038 
L 905.61316 -213.487646 
L 903.723614 -212.551253 
L 901.798404 -211.61486 
L 899.844358 -210.678467 
L 897.868467 -209.742074 
L 895.87804 -208.805681 
L 893.880791 -207.869288 
L 891.884838 -206.932895 
L 889.898642 -205.996502 
L 887.930877 -205.06011 
L 885.99025 -204.123717 
L 884.085297 -203.187324 
L 882.224167 -202.250931 
L 880.414408 -201.314538 
L 878.662792 -200.378145 
L 876.975162 -199.441752 
L 875.356334 -198.505359 
L 873.81005 -197.568966 
L 872.338978 -196.632574 
L 870.94476 -195.696181 
L 869.628097 -194.759788 
L 868.388861 -193.823395 
L 867.226226 -192.887002 
L 866.138802 -191.950609 
L 865.124768 -191.014216 
L 864.18199 -190.077823 
L 863.308121 -189.14143 
L 862.50068 -188.205038 
L 861.757108 -187.268645 
L 861.074805 -186.332252 
L 860.451141 -185.395859 
L 859.883468 -184.459466 
L 859.369105 -183.523073 
L 858.905334 -182.58668 
L 858.489385 -181.650287 
L 858.118431 -180.713894 
L 857.789588 -179.777502 
L 857.499923 -178.841109 
L 857.246463 -177.904716 
L 857.026221 -176.968323 
L 856.836223 -176.03193 
L 856.673535 -175.095537 
L 856.535299 -174.159144 
z
" id="m434cff5f6e" style="stroke:#313131;stroke-width:1.5;"/>
    </defs>
    <g clip-path="url(#p577903c35a)">
     <use style="fill:#772b58;stroke:#313131;stroke-width:1.5;" x="0" xlink:href="#m434cff5f6e" y="433.06775"/>
    </g>
   </g>
   <g id="PolyCollection_6">
    <defs>
     <path d="M 990.618226 -177.483418 
L 989.063024 -177.483418 
L 988.909335 -178.601661 
L 988.73402 -179.719903 
L 988.535928 -180.838145 
L 988.314213 -181.956387 
L 988.068396 -183.07463 
L 987.7984 -184.192872 
L 987.504587 -185.311114 
L 987.18775 -186.429357 
L 986.849098 -187.547599 
L 986.490196 -188.665841 
L 986.112881 -189.784083 
L 985.719144 -190.902326 
L 985.310982 -192.020568 
L 984.890227 -193.13881 
L 984.458365 -194.257053 
L 984.016335 -195.375295 
L 983.564349 -196.493537 
L 983.101715 -197.611779 
L 982.626698 -198.730022 
L 982.13642 -199.848264 
L 981.62681 -200.966506 
L 981.092618 -202.084749 
L 980.527486 -203.202991 
L 979.924094 -204.321233 
L 979.274358 -205.439476 
L 978.569691 -206.557718 
L 977.801306 -207.67596 
L 976.960551 -208.794202 
L 976.03926 -209.912445 
L 975.030105 -211.030687 
L 973.926931 -212.148929 
L 972.725057 -213.267172 
L 971.421538 -214.385414 
L 970.015366 -215.503656 
L 968.507613 -216.621898 
L 966.901517 -217.740141 
L 965.202493 -218.858383 
L 963.418096 -219.976625 
L 961.557928 -221.094868 
L 959.633501 -222.21311 
L 957.658064 -223.331352 
L 955.646405 -224.449594 
L 953.614631 -225.567837 
L 951.579938 -226.686079 
L 949.560371 -227.804321 
L 947.574572 -228.922564 
L 945.641538 -230.040806 
L 943.780356 -231.159048 
L 942.009953 -232.27729 
L 940.348829 -233.395533 
L 938.814795 -234.513775 
L 937.424707 -235.632017 
L 936.194213 -236.75026 
L 935.137493 -237.868502 
L 934.267035 -238.986744 
L 933.593415 -240.104986 
L 933.125115 -241.223229 
L 932.868381 -242.341471 
L 932.827109 -243.459713 
L 933.00279 -244.577956 
L 933.394491 -245.696198 
L 933.998889 -246.81444 
L 934.810342 -247.932683 
L 935.82101 -249.050925 
L 937.021 -250.169167 
L 938.398542 -251.287409 
L 939.940196 -252.405652 
L 941.631063 -253.523894 
L 943.455011 -254.642136 
L 945.394913 -255.760379 
L 947.43288 -256.878621 
L 949.550497 -257.996863 
L 951.729063 -259.115105 
L 953.949822 -260.233348 
L 956.194198 -261.35159 
L 958.444018 -262.469832 
L 960.681741 -263.588075 
L 962.890668 -264.706317 
L 965.055148 -265.824559 
L 967.160769 -266.942801 
L 969.194522 -268.061044 
L 971.144955 -269.179286 
L 973.002283 -270.297528 
L 974.758475 -271.415771 
L 976.407301 -272.534013 
L 977.944342 -273.652255 
L 979.366958 -274.770497 
L 980.674219 -275.88874 
L 981.866801 -277.006982 
L 982.94685 -278.125224 
L 983.917819 -279.243467 
L 984.784281 -280.361709 
L 985.551739 -281.479951 
L 986.226419 -282.598193 
L 986.815069 -283.716436 
L 987.324766 -284.834678 
L 987.762733 -285.95292 
L 988.13618 -287.071163 
L 988.452157 -288.189405 
L 991.229093 -288.189405 
L 991.229093 -288.189405 
L 991.54507 -287.071163 
L 991.918517 -285.95292 
L 992.356484 -284.834678 
L 992.866181 -283.716436 
L 993.454831 -282.598193 
L 994.129511 -281.479951 
L 994.896969 -280.361709 
L 995.763431 -279.243467 
L 996.7344 -278.125224 
L 997.814449 -277.006982 
L 999.007031 -275.88874 
L 1000.314292 -274.770497 
L 1001.736908 -273.652255 
L 1003.273949 -272.534013 
L 1004.922775 -271.415771 
L 1006.678967 -270.297528 
L 1008.536295 -269.179286 
L 1010.486728 -268.061044 
L 1012.520481 -266.942801 
L 1014.626102 -265.824559 
L 1016.790582 -264.706317 
L 1018.999509 -263.588075 
L 1021.237232 -262.469832 
L 1023.487052 -261.35159 
L 1025.731428 -260.233348 
L 1027.952187 -259.115105 
L 1030.130753 -257.996863 
L 1032.24837 -256.878621 
L 1034.286337 -255.760379 
L 1036.226239 -254.642136 
L 1038.050187 -253.523894 
L 1039.741054 -252.405652 
L 1041.282708 -251.287409 
L 1042.66025 -250.169167 
L 1043.86024 -249.050925 
L 1044.870908 -247.932683 
L 1045.682361 -246.81444 
L 1046.286759 -245.696198 
L 1046.67846 -244.577956 
L 1046.854141 -243.459713 
L 1046.812869 -242.341471 
L 1046.556135 -241.223229 
L 1046.087835 -240.104986 
L 1045.414215 -238.986744 
L 1044.543757 -237.868502 
L 1043.487037 -236.75026 
L 1042.256543 -235.632017 
L 1040.866455 -234.513775 
L 1039.332421 -233.395533 
L 1037.671297 -232.27729 
L 1035.900894 -231.159048 
L 1034.039712 -230.040806 
L 1032.106678 -228.922564 
L 1030.120879 -227.804321 
L 1028.101312 -226.686079 
L 1026.066619 -225.567837 
L 1024.034845 -224.449594 
L 1022.023186 -223.331352 
L 1020.047749 -222.21311 
L 1018.123322 -221.094868 
L 1016.263154 -219.976625 
L 1014.478757 -218.858383 
L 1012.779733 -217.740141 
L 1011.173637 -216.621898 
L 1009.665884 -215.503656 
L 1008.259712 -214.385414 
L 1006.956193 -213.267172 
L 1005.754319 -212.148929 
L 1004.651145 -211.030687 
L 1003.64199 -209.912445 
L 1002.720699 -208.794202 
L 1001.879944 -207.67596 
L 1001.111559 -206.557718 
L 1000.406892 -205.439476 
L 999.757156 -204.321233 
L 999.153764 -203.202991 
L 998.588632 -202.084749 
L 998.05444 -200.966506 
L 997.54483 -199.848264 
L 997.054552 -198.730022 
L 996.579535 -197.611779 
L 996.116901 -196.493537 
L 995.664915 -195.375295 
L 995.222885 -194.257053 
L 994.791023 -193.13881 
L 994.370268 -192.020568 
L 993.962106 -190.902326 
L 993.568369 -189.784083 
L 993.191054 -188.665841 
L 992.832152 -187.547599 
L 992.4935 -186.429357 
L 992.176663 -185.311114 
L 991.88285 -184.192872 
L 991.612854 -183.07463 
L 991.367037 -181.956387 
L 991.145322 -180.838145 
L 990.94723 -179.719903 
L 990.771915 -178.601661 
L 990.618226 -177.483418 
z
" id="m58cd99fc1f" style="stroke:#313131;stroke-width:1.5;"/>
    </defs>
    <g clip-path="url(#p577903c35a)">
     <use style="fill:#db6e59;stroke:#313131;stroke-width:1.5;" x="0" xlink:href="#m58cd99fc1f" y="433.06775"/>
    </g>
   </g>
   <g id="patch_3">
    <path clip-path="url(#p577903c35a)" d="M 253.280625 931.415429 
L 253.280625 931.415429 
L 253.280625 931.415429 
L 253.280625 931.415429 
z
" style="fill:#772b58;stroke:#313131;stroke-linejoin:miter;stroke-width:0.75;"/>
   </g>
   <g id="patch_4">
    <path clip-path="url(#p577903c35a)" d="M 253.280625 931.415429 
L 253.280625 931.415429 
L 253.280625 931.415429 
L 253.280625 931.415429 
z
" style="fill:#db6e59;stroke:#313131;stroke-linejoin:miter;stroke-width:0.75;"/>
   </g>
   <g id="patch_5">
    <path clip-path="url(#p577903c35a)" d="M 253.280625 931.415429 
L 253.280625 931.415429 
L 253.280625 931.415429 
L 253.280625 931.415429 
z
" style="fill:#772b58;stroke:#313131;stroke-linejoin:miter;stroke-width:0.75;"/>
   </g>
   <g id="patch_6">
    <path clip-path="url(#p577903c35a)" d="M 253.280625 931.415429 
L 253.280625 931.415429 
L 253.280625 931.415429 
L 253.280625 931.415429 
z
" style="fill:#db6e59;stroke:#313131;stroke-linejoin:miter;stroke-width:0.75;"/>
   </g>
   <g id="matplotlib.axis_1">
    <g id="xtick_1">
     <g id="line2d_1">
      <defs>
       <path d="M 0 0 
L 0 3.5 
" id="m6127b8874f" style="stroke:#000000;stroke-width:0.8;"/>
      </defs>
      <g>
       <use style="stroke:#000000;stroke-width:0.8;" x="253.280625" xlink:href="#m6127b8874f" y="372.284"/>
      </g>
     </g>
     <g id="text_1">
      <!-- 5,000 -->
      <g transform="translate(224.6525 394.480875)scale(0.2 -0.2)">
       <defs>
        <path d="M 691 4666 
L 3169 4666 
L 3169 4134 
L 1269 4134 
L 1269 2991 
Q 1406 3038 1543 3061 
Q 1681 3084 1819 3084 
Q 2600 3084 3056 2656 
Q 3513 2228 3513 1497 
Q 3513 744 3044 326 
Q 2575 -91 1722 -91 
Q 1428 -91 1123 -41 
Q 819 9 494 109 
L 494 744 
Q 775 591 1075 516 
Q 1375 441 1709 441 
Q 2250 441 2565 725 
Q 2881 1009 2881 1497 
Q 2881 1984 2565 2268 
Q 2250 2553 1709 2553 
Q 1456 2553 1204 2497 
Q 953 2441 691 2322 
L 691 4666 
z
" id="DejaVuSans-35" transform="scale(0.015625)"/>
        <path d="M 750 794 
L 1409 794 
L 1409 256 
L 897 -744 
L 494 -744 
L 750 256 
L 750 794 
z
" id="DejaVuSans-2c" transform="scale(0.015625)"/>
        <path d="M 2034 4250 
Q 1547 4250 1301 3770 
Q 1056 3291 1056 2328 
Q 1056 1369 1301 889 
Q 1547 409 2034 409 
Q 2525 409 2770 889 
Q 3016 1369 3016 2328 
Q 3016 3291 2770 3770 
Q 2525 4250 2034 4250 
z
M 2034 4750 
Q 2819 4750 3233 4129 
Q 3647 3509 3647 2328 
Q 3647 1150 3233 529 
Q 2819 -91 2034 -91 
Q 1250 -91 836 529 
Q 422 1150 422 2328 
Q 422 3509 836 4129 
Q 1250 4750 2034 4750 
z
" id="DejaVuSans-30" transform="scale(0.015625)"/>
       </defs>
       <use xlink:href="#DejaVuSans-35"/>
       <use x="63.623047" xlink:href="#DejaVuSans-2c"/>
       <use x="95.410156" xlink:href="#DejaVuSans-30"/>
       <use x="159.033203" xlink:href="#DejaVuSans-30"/>
       <use x="222.65625" xlink:href="#DejaVuSans-30"/>
      </g>
     </g>
    </g>
    <g id="xtick_2">
     <g id="line2d_2">
      <g>
       <use style="stroke:#000000;stroke-width:0.8;" x="588.080625" xlink:href="#m6127b8874f" y="372.284"/>
      </g>
     </g>
     <g id="text_2">
      <!-- 10,000 -->
      <g transform="translate(553.09 394.480875)scale(0.2 -0.2)">
       <defs>
        <path d="M 794 531 
L 1825 531 
L 1825 4091 
L 703 3866 
L 703 4441 
L 1819 4666 
L 2450 4666 
L 2450 531 
L 3481 531 
L 3481 0 
L 794 0 
L 794 531 
z
" id="DejaVuSans-31" transform="scale(0.015625)"/>
       </defs>
       <use xlink:href="#DejaVuSans-31"/>
       <use x="63.623047" xlink:href="#DejaVuSans-30"/>
       <use x="127.246094" xlink:href="#DejaVuSans-2c"/>
       <use x="159.033203" xlink:href="#DejaVuSans-30"/>
       <use x="222.65625" xlink:href="#DejaVuSans-30"/>
       <use x="286.279297" xlink:href="#DejaVuSans-30"/>
      </g>
     </g>
    </g>
    <g id="xtick_3">
     <g id="line2d_3">
      <g>
       <use style="stroke:#000000;stroke-width:0.8;" x="922.880625" xlink:href="#m6127b8874f" y="372.284"/>
      </g>
     </g>
     <g id="text_3">
      <!-- 50,000 -->
      <g transform="translate(887.89 394.480875)scale(0.2 -0.2)">
       <use xlink:href="#DejaVuSans-35"/>
       <use x="63.623047" xlink:href="#DejaVuSans-30"/>
       <use x="127.246094" xlink:href="#DejaVuSans-2c"/>
       <use x="159.033203" xlink:href="#DejaVuSans-30"/>
       <use x="222.65625" xlink:href="#DejaVuSans-30"/>
       <use x="286.279297" xlink:href="#DejaVuSans-30"/>
      </g>
     </g>
    </g>
    <g id="text_4">
     <!-- Number of objects on training set -->
     <g transform="translate(386.233125 420.8765)scale(0.24 -0.24)">
      <defs>
       <path d="M 628 4666 
L 1478 4666 
L 3547 763 
L 3547 4666 
L 4159 4666 
L 4159 0 
L 3309 0 
L 1241 3903 
L 1241 0 
L 628 0 
L 628 4666 
z
" id="DejaVuSans-4e" transform="scale(0.015625)"/>
       <path d="M 544 1381 
L 544 3500 
L 1119 3500 
L 1119 1403 
Q 1119 906 1312 657 
Q 1506 409 1894 409 
Q 2359 409 2629 706 
Q 2900 1003 2900 1516 
L 2900 3500 
L 3475 3500 
L 3475 0 
L 2900 0 
L 2900 538 
Q 2691 219 2414 64 
Q 2138 -91 1772 -91 
Q 1169 -91 856 284 
Q 544 659 544 1381 
z
M 1991 3584 
L 1991 3584 
z
" id="DejaVuSans-75" transform="scale(0.015625)"/>
       <path d="M 3328 2828 
Q 3544 3216 3844 3400 
Q 4144 3584 4550 3584 
Q 5097 3584 5394 3201 
Q 5691 2819 5691 2113 
L 5691 0 
L 5113 0 
L 5113 2094 
Q 5113 2597 4934 2840 
Q 4756 3084 4391 3084 
Q 3944 3084 3684 2787 
Q 3425 2491 3425 1978 
L 3425 0 
L 2847 0 
L 2847 2094 
Q 2847 2600 2669 2842 
Q 2491 3084 2119 3084 
Q 1678 3084 1418 2786 
Q 1159 2488 1159 1978 
L 1159 0 
L 581 0 
L 581 3500 
L 1159 3500 
L 1159 2956 
Q 1356 3278 1631 3431 
Q 1906 3584 2284 3584 
Q 2666 3584 2933 3390 
Q 3200 3197 3328 2828 
z
" id="DejaVuSans-6d" transform="scale(0.015625)"/>
       <path d="M 3116 1747 
Q 3116 2381 2855 2742 
Q 2594 3103 2138 3103 
Q 1681 3103 1420 2742 
Q 1159 2381 1159 1747 
Q 1159 1113 1420 752 
Q 1681 391 2138 391 
Q 2594 391 2855 752 
Q 3116 1113 3116 1747 
z
M 1159 2969 
Q 1341 3281 1617 3432 
Q 1894 3584 2278 3584 
Q 2916 3584 3314 3078 
Q 3713 2572 3713 1747 
Q 3713 922 3314 415 
Q 2916 -91 2278 -91 
Q 1894 -91 1617 61 
Q 1341 213 1159 525 
L 1159 0 
L 581 0 
L 581 4863 
L 1159 4863 
L 1159 2969 
z
" id="DejaVuSans-62" transform="scale(0.015625)"/>
       <path d="M 3597 1894 
L 3597 1613 
L 953 1613 
Q 991 1019 1311 708 
Q 1631 397 2203 397 
Q 2534 397 2845 478 
Q 3156 559 3463 722 
L 3463 178 
Q 3153 47 2828 -22 
Q 2503 -91 2169 -91 
Q 1331 -91 842 396 
Q 353 884 353 1716 
Q 353 2575 817 3079 
Q 1281 3584 2069 3584 
Q 2775 3584 3186 3129 
Q 3597 2675 3597 1894 
z
M 3022 2063 
Q 3016 2534 2758 2815 
Q 2500 3097 2075 3097 
Q 1594 3097 1305 2825 
Q 1016 2553 972 2059 
L 3022 2063 
z
" id="DejaVuSans-65" transform="scale(0.015625)"/>
       <path d="M 2631 2963 
Q 2534 3019 2420 3045 
Q 2306 3072 2169 3072 
Q 1681 3072 1420 2755 
Q 1159 2438 1159 1844 
L 1159 0 
L 581 0 
L 581 3500 
L 1159 3500 
L 1159 2956 
Q 1341 3275 1631 3429 
Q 1922 3584 2338 3584 
Q 2397 3584 2469 3576 
Q 2541 3569 2628 3553 
L 2631 2963 
z
" id="DejaVuSans-72" transform="scale(0.015625)"/>
       <path id="DejaVuSans-20" transform="scale(0.015625)"/>
       <path d="M 1959 3097 
Q 1497 3097 1228 2736 
Q 959 2375 959 1747 
Q 959 1119 1226 758 
Q 1494 397 1959 397 
Q 2419 397 2687 759 
Q 2956 1122 2956 1747 
Q 2956 2369 2687 2733 
Q 2419 3097 1959 3097 
z
M 1959 3584 
Q 2709 3584 3137 3096 
Q 3566 2609 3566 1747 
Q 3566 888 3137 398 
Q 2709 -91 1959 -91 
Q 1206 -91 779 398 
Q 353 888 353 1747 
Q 353 2609 779 3096 
Q 1206 3584 1959 3584 
z
" id="DejaVuSans-6f" transform="scale(0.015625)"/>
       <path d="M 2375 4863 
L 2375 4384 
L 1825 4384 
Q 1516 4384 1395 4259 
Q 1275 4134 1275 3809 
L 1275 3500 
L 2222 3500 
L 2222 3053 
L 1275 3053 
L 1275 0 
L 697 0 
L 697 3053 
L 147 3053 
L 147 3500 
L 697 3500 
L 697 3744 
Q 697 4328 969 4595 
Q 1241 4863 1831 4863 
L 2375 4863 
z
" id="DejaVuSans-66" transform="scale(0.015625)"/>
       <path d="M 603 3500 
L 1178 3500 
L 1178 -63 
Q 1178 -731 923 -1031 
Q 669 -1331 103 -1331 
L -116 -1331 
L -116 -844 
L 38 -844 
Q 366 -844 484 -692 
Q 603 -541 603 -63 
L 603 3500 
z
M 603 4863 
L 1178 4863 
L 1178 4134 
L 603 4134 
L 603 4863 
z
" id="DejaVuSans-6a" transform="scale(0.015625)"/>
       <path d="M 3122 3366 
L 3122 2828 
Q 2878 2963 2633 3030 
Q 2388 3097 2138 3097 
Q 1578 3097 1268 2742 
Q 959 2388 959 1747 
Q 959 1106 1268 751 
Q 1578 397 2138 397 
Q 2388 397 2633 464 
Q 2878 531 3122 666 
L 3122 134 
Q 2881 22 2623 -34 
Q 2366 -91 2075 -91 
Q 1284 -91 818 406 
Q 353 903 353 1747 
Q 353 2603 823 3093 
Q 1294 3584 2113 3584 
Q 2378 3584 2631 3529 
Q 2884 3475 3122 3366 
z
" id="DejaVuSans-63" transform="scale(0.015625)"/>
       <path d="M 1172 4494 
L 1172 3500 
L 2356 3500 
L 2356 3053 
L 1172 3053 
L 1172 1153 
Q 1172 725 1289 603 
Q 1406 481 1766 481 
L 2356 481 
L 2356 0 
L 1766 0 
Q 1100 0 847 248 
Q 594 497 594 1153 
L 594 3053 
L 172 3053 
L 172 3500 
L 594 3500 
L 594 4494 
L 1172 4494 
z
" id="DejaVuSans-74" transform="scale(0.015625)"/>
       <path d="M 2834 3397 
L 2834 2853 
Q 2591 2978 2328 3040 
Q 2066 3103 1784 3103 
Q 1356 3103 1142 2972 
Q 928 2841 928 2578 
Q 928 2378 1081 2264 
Q 1234 2150 1697 2047 
L 1894 2003 
Q 2506 1872 2764 1633 
Q 3022 1394 3022 966 
Q 3022 478 2636 193 
Q 2250 -91 1575 -91 
Q 1294 -91 989 -36 
Q 684 19 347 128 
L 347 722 
Q 666 556 975 473 
Q 1284 391 1588 391 
Q 1994 391 2212 530 
Q 2431 669 2431 922 
Q 2431 1156 2273 1281 
Q 2116 1406 1581 1522 
L 1381 1569 
Q 847 1681 609 1914 
Q 372 2147 372 2553 
Q 372 3047 722 3315 
Q 1072 3584 1716 3584 
Q 2034 3584 2315 3537 
Q 2597 3491 2834 3397 
z
" id="DejaVuSans-73" transform="scale(0.015625)"/>
       <path d="M 3513 2113 
L 3513 0 
L 2938 0 
L 2938 2094 
Q 2938 2591 2744 2837 
Q 2550 3084 2163 3084 
Q 1697 3084 1428 2787 
Q 1159 2491 1159 1978 
L 1159 0 
L 581 0 
L 581 3500 
L 1159 3500 
L 1159 2956 
Q 1366 3272 1645 3428 
Q 1925 3584 2291 3584 
Q 2894 3584 3203 3211 
Q 3513 2838 3513 2113 
z
" id="DejaVuSans-6e" transform="scale(0.015625)"/>
       <path d="M 2194 1759 
Q 1497 1759 1228 1600 
Q 959 1441 959 1056 
Q 959 750 1161 570 
Q 1363 391 1709 391 
Q 2188 391 2477 730 
Q 2766 1069 2766 1631 
L 2766 1759 
L 2194 1759 
z
M 3341 1997 
L 3341 0 
L 2766 0 
L 2766 531 
Q 2569 213 2275 61 
Q 1981 -91 1556 -91 
Q 1019 -91 701 211 
Q 384 513 384 1019 
Q 384 1609 779 1909 
Q 1175 2209 1959 2209 
L 2766 2209 
L 2766 2266 
Q 2766 2663 2505 2880 
Q 2244 3097 1772 3097 
Q 1472 3097 1187 3025 
Q 903 2953 641 2809 
L 641 3341 
Q 956 3463 1253 3523 
Q 1550 3584 1831 3584 
Q 2591 3584 2966 3190 
Q 3341 2797 3341 1997 
z
" id="DejaVuSans-61" transform="scale(0.015625)"/>
       <path d="M 603 3500 
L 1178 3500 
L 1178 0 
L 603 0 
L 603 3500 
z
M 603 4863 
L 1178 4863 
L 1178 4134 
L 603 4134 
L 603 4863 
z
" id="DejaVuSans-69" transform="scale(0.015625)"/>
       <path d="M 2906 1791 
Q 2906 2416 2648 2759 
Q 2391 3103 1925 3103 
Q 1463 3103 1205 2759 
Q 947 2416 947 1791 
Q 947 1169 1205 825 
Q 1463 481 1925 481 
Q 2391 481 2648 825 
Q 2906 1169 2906 1791 
z
M 3481 434 
Q 3481 -459 3084 -895 
Q 2688 -1331 1869 -1331 
Q 1566 -1331 1297 -1286 
Q 1028 -1241 775 -1147 
L 775 -588 
Q 1028 -725 1275 -790 
Q 1522 -856 1778 -856 
Q 2344 -856 2625 -561 
Q 2906 -266 2906 331 
L 2906 616 
Q 2728 306 2450 153 
Q 2172 0 1784 0 
Q 1141 0 747 490 
Q 353 981 353 1791 
Q 353 2603 747 3093 
Q 1141 3584 1784 3584 
Q 2172 3584 2450 3431 
Q 2728 3278 2906 2969 
L 2906 3500 
L 3481 3500 
L 3481 434 
z
" id="DejaVuSans-67" transform="scale(0.015625)"/>
      </defs>
      <use xlink:href="#DejaVuSans-4e"/>
      <use x="74.804688" xlink:href="#DejaVuSans-75"/>
      <use x="138.183594" xlink:href="#DejaVuSans-6d"/>
      <use x="235.595703" xlink:href="#DejaVuSans-62"/>
      <use x="299.072266" xlink:href="#DejaVuSans-65"/>
      <use x="360.595703" xlink:href="#DejaVuSans-72"/>
      <use x="401.708984" xlink:href="#DejaVuSans-20"/>
      <use x="433.496094" xlink:href="#DejaVuSans-6f"/>
      <use x="494.677734" xlink:href="#DejaVuSans-66"/>
      <use x="529.882812" xlink:href="#DejaVuSans-20"/>
      <use x="561.669922" xlink:href="#DejaVuSans-6f"/>
      <use x="622.851562" xlink:href="#DejaVuSans-62"/>
      <use x="686.328125" xlink:href="#DejaVuSans-6a"/>
      <use x="714.111328" xlink:href="#DejaVuSans-65"/>
      <use x="775.634766" xlink:href="#DejaVuSans-63"/>
      <use x="830.615234" xlink:href="#DejaVuSans-74"/>
      <use x="869.824219" xlink:href="#DejaVuSans-73"/>
      <use x="921.923828" xlink:href="#DejaVuSans-20"/>
      <use x="953.710938" xlink:href="#DejaVuSans-6f"/>
      <use x="1014.892578" xlink:href="#DejaVuSans-6e"/>
      <use x="1078.271484" xlink:href="#DejaVuSans-20"/>
      <use x="1110.058594" xlink:href="#DejaVuSans-74"/>
      <use x="1149.267578" xlink:href="#DejaVuSans-72"/>
      <use x="1190.380859" xlink:href="#DejaVuSans-61"/>
      <use x="1251.660156" xlink:href="#DejaVuSans-69"/>
      <use x="1279.443359" xlink:href="#DejaVuSans-6e"/>
      <use x="1342.822266" xlink:href="#DejaVuSans-69"/>
      <use x="1370.605469" xlink:href="#DejaVuSans-6e"/>
      <use x="1433.984375" xlink:href="#DejaVuSans-67"/>
      <use x="1497.460938" xlink:href="#DejaVuSans-20"/>
      <use x="1529.248047" xlink:href="#DejaVuSans-73"/>
      <use x="1581.347656" xlink:href="#DejaVuSans-65"/>
      <use x="1642.871094" xlink:href="#DejaVuSans-74"/>
     </g>
    </g>
   </g>
   <g id="matplotlib.axis_2">
    <g id="ytick_1">
     <g id="line2d_4">
      <defs>
       <path d="M 0 0 
L -3.5 0 
" id="m7d420213e1" style="stroke:#000000;stroke-width:0.8;"/>
      </defs>
      <g>
       <use style="stroke:#000000;stroke-width:0.8;" x="85.880625" xlink:href="#m7d420213e1" y="372.284"/>
      </g>
     </g>
     <g id="text_5">
      <!-- 60% -->
      <g transform="translate(34.4275 379.882438)scale(0.2 -0.2)">
       <defs>
        <path d="M 2113 2584 
Q 1688 2584 1439 2293 
Q 1191 2003 1191 1497 
Q 1191 994 1439 701 
Q 1688 409 2113 409 
Q 2538 409 2786 701 
Q 3034 994 3034 1497 
Q 3034 2003 2786 2293 
Q 2538 2584 2113 2584 
z
M 3366 4563 
L 3366 3988 
Q 3128 4100 2886 4159 
Q 2644 4219 2406 4219 
Q 1781 4219 1451 3797 
Q 1122 3375 1075 2522 
Q 1259 2794 1537 2939 
Q 1816 3084 2150 3084 
Q 2853 3084 3261 2657 
Q 3669 2231 3669 1497 
Q 3669 778 3244 343 
Q 2819 -91 2113 -91 
Q 1303 -91 875 529 
Q 447 1150 447 2328 
Q 447 3434 972 4092 
Q 1497 4750 2381 4750 
Q 2619 4750 2861 4703 
Q 3103 4656 3366 4563 
z
" id="DejaVuSans-36" transform="scale(0.015625)"/>
        <path d="M 4653 2053 
Q 4381 2053 4226 1822 
Q 4072 1591 4072 1178 
Q 4072 772 4226 539 
Q 4381 306 4653 306 
Q 4919 306 5073 539 
Q 5228 772 5228 1178 
Q 5228 1588 5073 1820 
Q 4919 2053 4653 2053 
z
M 4653 2450 
Q 5147 2450 5437 2106 
Q 5728 1763 5728 1178 
Q 5728 594 5436 251 
Q 5144 -91 4653 -91 
Q 4153 -91 3862 251 
Q 3572 594 3572 1178 
Q 3572 1766 3864 2108 
Q 4156 2450 4653 2450 
z
M 1428 4353 
Q 1159 4353 1004 4120 
Q 850 3888 850 3481 
Q 850 3069 1003 2837 
Q 1156 2606 1428 2606 
Q 1700 2606 1854 2837 
Q 2009 3069 2009 3481 
Q 2009 3884 1853 4118 
Q 1697 4353 1428 4353 
z
M 4250 4750 
L 4750 4750 
L 1831 -91 
L 1331 -91 
L 4250 4750 
z
M 1428 4750 
Q 1922 4750 2215 4408 
Q 2509 4066 2509 3481 
Q 2509 2891 2217 2550 
Q 1925 2209 1428 2209 
Q 931 2209 642 2551 
Q 353 2894 353 3481 
Q 353 4063 643 4406 
Q 934 4750 1428 4750 
z
" id="DejaVuSans-25" transform="scale(0.015625)"/>
       </defs>
       <use xlink:href="#DejaVuSans-36"/>
       <use x="63.623047" xlink:href="#DejaVuSans-30"/>
       <use x="127.246094" xlink:href="#DejaVuSans-25"/>
      </g>
     </g>
    </g>
    <g id="ytick_2">
     <g id="line2d_5">
      <g>
       <use style="stroke:#000000;stroke-width:0.8;" x="85.880625" xlink:href="#m7d420213e1" y="325.689714"/>
      </g>
     </g>
     <g id="text_6">
      <!-- 65% -->
      <g transform="translate(34.4275 333.288152)scale(0.2 -0.2)">
       <use xlink:href="#DejaVuSans-36"/>
       <use x="63.623047" xlink:href="#DejaVuSans-35"/>
       <use x="127.246094" xlink:href="#DejaVuSans-25"/>
      </g>
     </g>
    </g>
    <g id="ytick_3">
     <g id="line2d_6">
      <g>
       <use style="stroke:#000000;stroke-width:0.8;" x="85.880625" xlink:href="#m7d420213e1" y="279.095429"/>
      </g>
     </g>
     <g id="text_7">
      <!-- 70% -->
      <g transform="translate(34.4275 286.693866)scale(0.2 -0.2)">
       <defs>
        <path d="M 525 4666 
L 3525 4666 
L 3525 4397 
L 1831 0 
L 1172 0 
L 2766 4134 
L 525 4134 
L 525 4666 
z
" id="DejaVuSans-37" transform="scale(0.015625)"/>
       </defs>
       <use xlink:href="#DejaVuSans-37"/>
       <use x="63.623047" xlink:href="#DejaVuSans-30"/>
       <use x="127.246094" xlink:href="#DejaVuSans-25"/>
      </g>
     </g>
    </g>
    <g id="ytick_4">
     <g id="line2d_7">
      <g>
       <use style="stroke:#000000;stroke-width:0.8;" x="85.880625" xlink:href="#m7d420213e1" y="232.501143"/>
      </g>
     </g>
     <g id="text_8">
      <!-- 75% -->
      <g transform="translate(34.4275 240.09958)scale(0.2 -0.2)">
       <use xlink:href="#DejaVuSans-37"/>
       <use x="63.623047" xlink:href="#DejaVuSans-35"/>
       <use x="127.246094" xlink:href="#DejaVuSans-25"/>
      </g>
     </g>
    </g>
    <g id="ytick_5">
     <g id="line2d_8">
      <g>
       <use style="stroke:#000000;stroke-width:0.8;" x="85.880625" xlink:href="#m7d420213e1" y="185.906857"/>
      </g>
     </g>
     <g id="text_9">
      <!-- 80% -->
      <g transform="translate(34.4275 193.505295)scale(0.2 -0.2)">
       <defs>
        <path d="M 2034 2216 
Q 1584 2216 1326 1975 
Q 1069 1734 1069 1313 
Q 1069 891 1326 650 
Q 1584 409 2034 409 
Q 2484 409 2743 651 
Q 3003 894 3003 1313 
Q 3003 1734 2745 1975 
Q 2488 2216 2034 2216 
z
M 1403 2484 
Q 997 2584 770 2862 
Q 544 3141 544 3541 
Q 544 4100 942 4425 
Q 1341 4750 2034 4750 
Q 2731 4750 3128 4425 
Q 3525 4100 3525 3541 
Q 3525 3141 3298 2862 
Q 3072 2584 2669 2484 
Q 3125 2378 3379 2068 
Q 3634 1759 3634 1313 
Q 3634 634 3220 271 
Q 2806 -91 2034 -91 
Q 1263 -91 848 271 
Q 434 634 434 1313 
Q 434 1759 690 2068 
Q 947 2378 1403 2484 
z
M 1172 3481 
Q 1172 3119 1398 2916 
Q 1625 2713 2034 2713 
Q 2441 2713 2670 2916 
Q 2900 3119 2900 3481 
Q 2900 3844 2670 4047 
Q 2441 4250 2034 4250 
Q 1625 4250 1398 4047 
Q 1172 3844 1172 3481 
z
" id="DejaVuSans-38" transform="scale(0.015625)"/>
       </defs>
       <use xlink:href="#DejaVuSans-38"/>
       <use x="63.623047" xlink:href="#DejaVuSans-30"/>
       <use x="127.246094" xlink:href="#DejaVuSans-25"/>
      </g>
     </g>
    </g>
    <g id="ytick_6">
     <g id="line2d_9">
      <g>
       <use style="stroke:#000000;stroke-width:0.8;" x="85.880625" xlink:href="#m7d420213e1" y="139.312571"/>
      </g>
     </g>
     <g id="text_10">
      <!-- 85% -->
      <g transform="translate(34.4275 146.911009)scale(0.2 -0.2)">
       <use xlink:href="#DejaVuSans-38"/>
       <use x="63.623047" xlink:href="#DejaVuSans-35"/>
       <use x="127.246094" xlink:href="#DejaVuSans-25"/>
      </g>
     </g>
    </g>
    <g id="ytick_7">
     <g id="line2d_10">
      <g>
       <use style="stroke:#000000;stroke-width:0.8;" x="85.880625" xlink:href="#m7d420213e1" y="92.718286"/>
      </g>
     </g>
     <g id="text_11">
      <!-- 90% -->
      <g transform="translate(34.4275 100.316723)scale(0.2 -0.2)">
       <defs>
        <path d="M 703 97 
L 703 672 
Q 941 559 1184 500 
Q 1428 441 1663 441 
Q 2288 441 2617 861 
Q 2947 1281 2994 2138 
Q 2813 1869 2534 1725 
Q 2256 1581 1919 1581 
Q 1219 1581 811 2004 
Q 403 2428 403 3163 
Q 403 3881 828 4315 
Q 1253 4750 1959 4750 
Q 2769 4750 3195 4129 
Q 3622 3509 3622 2328 
Q 3622 1225 3098 567 
Q 2575 -91 1691 -91 
Q 1453 -91 1209 -44 
Q 966 3 703 97 
z
M 1959 2075 
Q 2384 2075 2632 2365 
Q 2881 2656 2881 3163 
Q 2881 3666 2632 3958 
Q 2384 4250 1959 4250 
Q 1534 4250 1286 3958 
Q 1038 3666 1038 3163 
Q 1038 2656 1286 2365 
Q 1534 2075 1959 2075 
z
" id="DejaVuSans-39" transform="scale(0.015625)"/>
       </defs>
       <use xlink:href="#DejaVuSans-39"/>
       <use x="63.623047" xlink:href="#DejaVuSans-30"/>
       <use x="127.246094" xlink:href="#DejaVuSans-25"/>
      </g>
     </g>
    </g>
    <g id="ytick_8">
     <g id="line2d_11">
      <g>
       <use style="stroke:#000000;stroke-width:0.8;" x="85.880625" xlink:href="#m7d420213e1" y="46.124"/>
      </g>
     </g>
     <g id="text_12">
      <!-- 95% -->
      <g transform="translate(34.4275 53.722438)scale(0.2 -0.2)">
       <use xlink:href="#DejaVuSans-39"/>
       <use x="63.623047" xlink:href="#DejaVuSans-35"/>
       <use x="127.246094" xlink:href="#DejaVuSans-25"/>
      </g>
     </g>
    </g>
    <g id="text_13">
     <!-- Accuracy on testing set -->
     <g transform="translate(25.43625 350.32025)rotate(-90)scale(0.24 -0.24)">
      <defs>
       <path d="M 2188 4044 
L 1331 1722 
L 3047 1722 
L 2188 4044 
z
M 1831 4666 
L 2547 4666 
L 4325 0 
L 3669 0 
L 3244 1197 
L 1141 1197 
L 716 0 
L 50 0 
L 1831 4666 
z
" id="DejaVuSans-41" transform="scale(0.015625)"/>
       <path d="M 2059 -325 
Q 1816 -950 1584 -1140 
Q 1353 -1331 966 -1331 
L 506 -1331 
L 506 -850 
L 844 -850 
Q 1081 -850 1212 -737 
Q 1344 -625 1503 -206 
L 1606 56 
L 191 3500 
L 800 3500 
L 1894 763 
L 2988 3500 
L 3597 3500 
L 2059 -325 
z
" id="DejaVuSans-79" transform="scale(0.015625)"/>
      </defs>
      <use xlink:href="#DejaVuSans-41"/>
      <use x="66.658203" xlink:href="#DejaVuSans-63"/>
      <use x="121.638672" xlink:href="#DejaVuSans-63"/>
      <use x="176.619141" xlink:href="#DejaVuSans-75"/>
      <use x="239.998047" xlink:href="#DejaVuSans-72"/>
      <use x="281.111328" xlink:href="#DejaVuSans-61"/>
      <use x="342.390625" xlink:href="#DejaVuSans-63"/>
      <use x="397.371094" xlink:href="#DejaVuSans-79"/>
      <use x="456.550781" xlink:href="#DejaVuSans-20"/>
      <use x="488.337891" xlink:href="#DejaVuSans-6f"/>
      <use x="549.519531" xlink:href="#DejaVuSans-6e"/>
      <use x="612.898438" xlink:href="#DejaVuSans-20"/>
      <use x="644.685547" xlink:href="#DejaVuSans-74"/>
      <use x="683.894531" xlink:href="#DejaVuSans-65"/>
      <use x="745.417969" xlink:href="#DejaVuSans-73"/>
      <use x="797.517578" xlink:href="#DejaVuSans-74"/>
      <use x="836.726562" xlink:href="#DejaVuSans-69"/>
      <use x="864.509766" xlink:href="#DejaVuSans-6e"/>
      <use x="927.888672" xlink:href="#DejaVuSans-67"/>
      <use x="991.365234" xlink:href="#DejaVuSans-20"/>
      <use x="1023.152344" xlink:href="#DejaVuSans-73"/>
      <use x="1075.251953" xlink:href="#DejaVuSans-65"/>
      <use x="1136.775391" xlink:href="#DejaVuSans-74"/>
     </g>
    </g>
   </g>
   <g id="line2d_12">
    <path clip-path="url(#p577903c35a)" d="M 186.320625 222.642607 
L 186.320625 248.099791 
" style="fill:none;stroke:#313131;stroke-linecap:square;stroke-width:1.5;"/>
   </g>
   <g id="line2d_13">
    <path clip-path="url(#p577903c35a)" d="M 186.320625 195.254188 
L 186.320625 183.487346 
" style="fill:none;stroke:#313131;stroke-linecap:square;stroke-width:1.5;"/>
   </g>
   <g id="line2d_14">
    <path clip-path="url(#p577903c35a)" d="M 153.510225 248.099791 
L 219.131025 248.099791 
" style="fill:none;stroke:#313131;stroke-linecap:square;stroke-width:1.5;"/>
   </g>
   <g id="line2d_15">
    <path clip-path="url(#p577903c35a)" d="M 153.510225 183.487346 
L 219.131025 183.487346 
" style="fill:none;stroke:#313131;stroke-linecap:square;stroke-width:1.5;"/>
   </g>
   <g id="line2d_16">
    <path clip-path="url(#p577903c35a)" d="M 320.240625 222.221465 
L 320.240625 236.414876 
" style="fill:none;stroke:#313131;stroke-linecap:square;stroke-width:1.5;"/>
   </g>
   <g id="line2d_17">
    <path clip-path="url(#p577903c35a)" d="M 320.240625 197.848029 
L 320.240625 169.352467 
" style="fill:none;stroke:#313131;stroke-linecap:square;stroke-width:1.5;"/>
   </g>
   <g id="line2d_18">
    <path clip-path="url(#p577903c35a)" d="M 287.430225 236.414876 
L 353.051025 236.414876 
" style="fill:none;stroke:#313131;stroke-linecap:square;stroke-width:1.5;"/>
   </g>
   <g id="line2d_19">
    <path clip-path="url(#p577903c35a)" d="M 287.430225 169.352467 
L 353.051025 169.352467 
" style="fill:none;stroke:#313131;stroke-linecap:square;stroke-width:1.5;"/>
   </g>
   <g id="line2d_20">
    <path clip-path="url(#p577903c35a)" d="M 521.120625 206.210177 
L 521.120625 236.760233 
" style="fill:none;stroke:#313131;stroke-linecap:square;stroke-width:1.5;"/>
   </g>
   <g id="line2d_21">
    <path clip-path="url(#p577903c35a)" d="M 521.120625 185.569002 
L 521.120625 157.887477 
" style="fill:none;stroke:#313131;stroke-linecap:square;stroke-width:1.5;"/>
   </g>
   <g id="line2d_22">
    <path clip-path="url(#p577903c35a)" d="M 488.310225 236.760233 
L 553.931025 236.760233 
" style="fill:none;stroke:#313131;stroke-linecap:square;stroke-width:1.5;"/>
   </g>
   <g id="line2d_23">
    <path clip-path="url(#p577903c35a)" d="M 488.310225 157.887477 
L 553.931025 157.887477 
" style="fill:none;stroke:#313131;stroke-linecap:square;stroke-width:1.5;"/>
   </g>
   <g id="line2d_24">
    <path clip-path="url(#p577903c35a)" d="M 655.040625 198.854524 
L 655.040625 215.809392 
" style="fill:none;stroke:#313131;stroke-linecap:square;stroke-width:1.5;"/>
   </g>
   <g id="line2d_25">
    <path clip-path="url(#p577903c35a)" d="M 655.040625 180.852295 
L 655.040625 164.23962 
" style="fill:none;stroke:#313131;stroke-linecap:square;stroke-width:1.5;"/>
   </g>
   <g id="line2d_26">
    <path clip-path="url(#p577903c35a)" d="M 622.230225 215.809392 
L 687.851025 215.809392 
" style="fill:none;stroke:#313131;stroke-linecap:square;stroke-width:1.5;"/>
   </g>
   <g id="line2d_27">
    <path clip-path="url(#p577903c35a)" d="M 622.230225 164.23962 
L 687.851025 164.23962 
" style="fill:none;stroke:#313131;stroke-linecap:square;stroke-width:1.5;"/>
   </g>
   <g id="line2d_28">
    <path clip-path="url(#p577903c35a)" d="M 855.920625 218.099944 
L 855.920625 239.025592 
" style="fill:none;stroke:#313131;stroke-linecap:square;stroke-width:1.5;"/>
   </g>
   <g id="line2d_29">
    <path clip-path="url(#p577903c35a)" d="M 855.920625 200.367126 
L 855.920625 186.088724 
" style="fill:none;stroke:#313131;stroke-linecap:square;stroke-width:1.5;"/>
   </g>
   <g id="line2d_30">
    <path clip-path="url(#p577903c35a)" d="M 823.110225 239.025592 
L 888.731025 239.025592 
" style="fill:none;stroke:#313131;stroke-linecap:square;stroke-width:1.5;"/>
   </g>
   <g id="line2d_31">
    <path clip-path="url(#p577903c35a)" d="M 823.110225 186.088724 
L 888.731025 186.088724 
" style="fill:none;stroke:#313131;stroke-linecap:square;stroke-width:1.5;"/>
   </g>
   <g id="line2d_32">
    <path clip-path="url(#p577903c35a)" d="M 989.840625 201.257713 
L 989.840625 230.970427 
" style="fill:none;stroke:#313131;stroke-linecap:square;stroke-width:1.5;"/>
   </g>
   <g id="line2d_33">
    <path clip-path="url(#p577903c35a)" d="M 989.840625 181.446957 
L 989.840625 169.492249 
" style="fill:none;stroke:#313131;stroke-linecap:square;stroke-width:1.5;"/>
   </g>
   <g id="line2d_34">
    <path clip-path="url(#p577903c35a)" d="M 957.030225 230.970427 
L 1022.651025 230.970427 
" style="fill:none;stroke:#313131;stroke-linecap:square;stroke-width:1.5;"/>
   </g>
   <g id="line2d_35">
    <path clip-path="url(#p577903c35a)" d="M 957.030225 169.492249 
L 1022.651025 169.492249 
" style="fill:none;stroke:#313131;stroke-linecap:square;stroke-width:1.5;"/>
   </g>
   <g id="line2d_36">
    <path clip-path="url(#p577903c35a)" d="M 137.092011 222.642607 
L 235.549239 222.642607 
" style="fill:none;stroke:#313131;stroke-dasharray:3.375,3.375;stroke-dashoffset:0;stroke-width:1.5;"/>
   </g>
   <g id="line2d_37">
    <path clip-path="url(#p577903c35a)" d="M 126.008133 204.950081 
L 246.633117 204.950081 
" style="fill:none;stroke:#313131;stroke-dasharray:6.75,6.75;stroke-dashoffset:0;stroke-width:1.5;"/>
   </g>
   <g id="line2d_38">
    <path clip-path="url(#p577903c35a)" d="M 130.381639 195.254188 
L 242.259611 195.254188 
" style="fill:none;stroke:#313131;stroke-dasharray:3.375,3.375;stroke-dashoffset:0;stroke-width:1.5;"/>
   </g>
   <g id="line2d_39">
    <path clip-path="url(#p577903c35a)" d="M 260.7407 222.221465 
L 379.74055 222.221465 
" style="fill:none;stroke:#313131;stroke-dasharray:3.375,3.375;stroke-dashoffset:0;stroke-width:1.5;"/>
   </g>
   <g id="line2d_40">
    <path clip-path="url(#p577903c35a)" d="M 254.095781 210.383283 
L 386.385469 210.383283 
" style="fill:none;stroke:#313131;stroke-dasharray:6.75,6.75;stroke-dashoffset:0;stroke-width:1.5;"/>
   </g>
   <g id="line2d_41">
    <path clip-path="url(#p577903c35a)" d="M 266.738324 197.848029 
L 373.742926 197.848029 
" style="fill:none;stroke:#313131;stroke-dasharray:3.375,3.375;stroke-dashoffset:0;stroke-width:1.5;"/>
   </g>
   <g id="line2d_42">
    <path clip-path="url(#p577903c35a)" d="M 473.103332 206.210177 
L 569.137918 206.210177 
" style="fill:none;stroke:#313131;stroke-dasharray:3.375,3.375;stroke-dashoffset:0;stroke-width:1.5;"/>
   </g>
   <g id="line2d_43">
    <path clip-path="url(#p577903c35a)" d="M 463.816868 193.584775 
L 578.424382 193.584775 
" style="fill:none;stroke:#313131;stroke-dasharray:6.75,6.75;stroke-dashoffset:0;stroke-width:1.5;"/>
   </g>
   <g id="line2d_44">
    <path clip-path="url(#p577903c35a)" d="M 469.069714 185.569002 
L 573.171536 185.569002 
" style="fill:none;stroke:#313131;stroke-dasharray:3.375,3.375;stroke-dashoffset:0;stroke-width:1.5;"/>
   </g>
   <g id="line2d_45">
    <path clip-path="url(#p577903c35a)" d="M 605.325432 198.854524 
L 704.755818 198.854524 
" style="fill:none;stroke:#313131;stroke-dasharray:3.375,3.375;stroke-dashoffset:0;stroke-width:1.5;"/>
   </g>
   <g id="line2d_46">
    <path clip-path="url(#p577903c35a)" d="M 588.750225 184.42199 
L 721.331025 184.42199 
" style="fill:none;stroke:#313131;stroke-dasharray:6.75,6.75;stroke-dashoffset:0;stroke-width:1.5;"/>
   </g>
   <g id="line2d_47">
    <path clip-path="url(#p577903c35a)" d="M 590.453287 180.852295 
L 719.627963 180.852295 
" style="fill:none;stroke:#313131;stroke-dasharray:3.375,3.375;stroke-dashoffset:0;stroke-width:1.5;"/>
   </g>
   <g id="line2d_48">
    <path clip-path="url(#p577903c35a)" d="M 803.117258 218.099944 
L 908.723992 218.099944 
" style="fill:none;stroke:#313131;stroke-dasharray:3.375,3.375;stroke-dashoffset:0;stroke-width:1.5;"/>
   </g>
   <g id="line2d_49">
    <path clip-path="url(#p577903c35a)" d="M 789.880086 207.235 
L 921.961164 207.235 
" style="fill:none;stroke:#313131;stroke-dasharray:6.75,6.75;stroke-dashoffset:0;stroke-width:1.5;"/>
   </g>
   <g id="line2d_50">
    <path clip-path="url(#p577903c35a)" d="M 794.912289 200.367126 
L 916.928961 200.367126 
" style="fill:none;stroke:#313131;stroke-dasharray:3.375,3.375;stroke-dashoffset:0;stroke-width:1.5;"/>
   </g>
   <g id="line2d_51">
    <path clip-path="url(#p577903c35a)" d="M 942.48826 201.257713 
L 1037.19299 201.257713 
" style="fill:none;stroke:#313131;stroke-dasharray:3.375,3.375;stroke-dashoffset:0;stroke-width:1.5;"/>
   </g>
   <g id="line2d_52">
    <path clip-path="url(#p577903c35a)" d="M 933.69227 191.925441 
L 1045.98898 191.925441 
" style="fill:none;stroke:#313131;stroke-dasharray:6.75,6.75;stroke-dashoffset:0;stroke-width:1.5;"/>
   </g>
   <g id="line2d_53">
    <path clip-path="url(#p577903c35a)" d="M 938.912963 181.446957 
L 1040.768287 181.446957 
" style="fill:none;stroke:#313131;stroke-dasharray:3.375,3.375;stroke-dashoffset:0;stroke-width:1.5;"/>
   </g>
   <g id="line2d_54">
    <path clip-path="url(#p577903c35a)" d="M 420.680625 372.284 
L 420.680625 46.124 
" style="fill:none;stroke:#808080;stroke-linecap:square;"/>
   </g>
   <g id="line2d_55">
    <path clip-path="url(#p577903c35a)" d="M 755.480625 372.284 
L 755.480625 46.124 
" style="fill:none;stroke:#808080;stroke-linecap:square;"/>
   </g>
   <g id="line2d_56">
    <path clip-path="url(#p577903c35a)" d="M 120.699825 204.950081 
L 251.941425 204.950081 
" style="fill:none;stroke:#313131;stroke-linecap:square;stroke-width:1.5;"/>
   </g>
   <g id="line2d_57">
    <defs>
     <path d="M 0 5 
C 1.326016 5 2.597899 4.473168 3.535534 3.535534 
C 4.473168 2.597899 5 1.326016 5 0 
C 5 -1.326016 4.473168 -2.597899 3.535534 -3.535534 
C 2.597899 -4.473168 1.326016 -5 0 -5 
C -1.326016 -5 -2.597899 -4.473168 -3.535534 -3.535534 
C -4.473168 -2.597899 -5 -1.326016 -5 0 
C -5 1.326016 -4.473168 2.597899 -3.535534 3.535534 
C -2.597899 4.473168 -1.326016 5 0 5 
z
" id="mfe7681e1dc" style="stroke:#000000;"/>
    </defs>
    <g clip-path="url(#p577903c35a)">
     <use style="fill:#ffffff;stroke:#000000;" x="186.320625" xlink:href="#mfe7681e1dc" y="209.934671"/>
    </g>
   </g>
   <g id="line2d_58">
    <path clip-path="url(#p577903c35a)" d="M 254.619825 210.383283 
L 385.861425 210.383283 
" style="fill:none;stroke:#313131;stroke-linecap:square;stroke-width:1.5;"/>
   </g>
   <g id="line2d_59">
    <g clip-path="url(#p577903c35a)">
     <use style="fill:#ffffff;stroke:#000000;" x="320.240625" xlink:href="#mfe7681e1dc" y="208.364058"/>
    </g>
   </g>
   <g id="line2d_60">
    <path clip-path="url(#p577903c35a)" d="M 455.499825 193.584775 
L 586.741425 193.584775 
" style="fill:none;stroke:#313131;stroke-linecap:square;stroke-width:1.5;"/>
   </g>
   <g id="line2d_61">
    <g clip-path="url(#p577903c35a)">
     <use style="fill:#ffffff;stroke:#000000;" x="521.120625" xlink:href="#mfe7681e1dc" y="196.407922"/>
    </g>
   </g>
   <g id="line2d_62">
    <path clip-path="url(#p577903c35a)" d="M 589.419825 184.42199 
L 720.661425 184.42199 
" style="fill:none;stroke:#313131;stroke-linecap:square;stroke-width:1.5;"/>
   </g>
   <g id="line2d_63">
    <g clip-path="url(#p577903c35a)">
     <use style="fill:#ffffff;stroke:#000000;" x="655.040625" xlink:href="#mfe7681e1dc" y="188.658445"/>
    </g>
   </g>
   <g id="line2d_64">
    <path clip-path="url(#p577903c35a)" d="M 790.299825 207.235 
L 921.541425 207.235 
" style="fill:none;stroke:#313131;stroke-linecap:square;stroke-width:1.5;"/>
   </g>
   <g id="line2d_65">
    <g clip-path="url(#p577903c35a)">
     <use style="fill:#ffffff;stroke:#000000;" x="855.920625" xlink:href="#mfe7681e1dc" y="209.321291"/>
    </g>
   </g>
   <g id="line2d_66">
    <path clip-path="url(#p577903c35a)" d="M 924.219825 191.925441 
L 1055.461425 191.925441 
" style="fill:none;stroke:#313131;stroke-linecap:square;stroke-width:1.5;"/>
   </g>
   <g id="line2d_67">
    <g clip-path="url(#p577903c35a)">
     <use style="fill:#ffffff;stroke:#000000;" x="989.840625" xlink:href="#mfe7681e1dc" y="192.790453"/>
    </g>
   </g>
   <g id="patch_7">
    <path d="M 85.880625 372.284 
L 85.880625 46.124 
" style="fill:none;stroke:#000000;stroke-linecap:square;stroke-linejoin:miter;stroke-width:0.8;"/>
   </g>
   <g id="patch_8">
    <path d="M 1090.280625 372.284 
L 1090.280625 46.124 
" style="fill:none;stroke:#000000;stroke-linecap:square;stroke-linejoin:miter;stroke-width:0.8;"/>
   </g>
   <g id="patch_9">
    <path d="M 85.880625 372.284 
L 1090.280625 372.284 
" style="fill:none;stroke:#000000;stroke-linecap:square;stroke-linejoin:miter;stroke-width:0.8;"/>
   </g>
   <g id="patch_10">
    <path d="M 85.880625 46.124 
L 1090.280625 46.124 
" style="fill:none;stroke:#000000;stroke-linecap:square;stroke-linejoin:miter;stroke-width:0.8;"/>
   </g>
   <g id="text_14">
    <g id="patch_11">
     <path d="M 316.280625 333.393152 
L 381.381563 333.393152 
L 381.381563 308.052527 
L 316.280625 308.052527 
z
" style="fill:#ffffff;opacity:0.5;stroke:#000000;stroke-linejoin:miter;"/>
    </g>
    <!-- 77.6% -->
    <g transform="translate(320.240625 325.689714)scale(0.18 -0.18)">
     <defs>
      <path d="M 684 794 
L 1344 794 
L 1344 0 
L 684 0 
L 684 794 
z
" id="DejaVuSans-2e" transform="scale(0.015625)"/>
     </defs>
     <use xlink:href="#DejaVuSans-37"/>
     <use x="63.623047" xlink:href="#DejaVuSans-37"/>
     <use x="127.246094" xlink:href="#DejaVuSans-2e"/>
     <use x="159.033203" xlink:href="#DejaVuSans-36"/>
     <use x="222.65625" xlink:href="#DejaVuSans-25"/>
    </g>
   </g>
   <g id="text_15">
    <g id="patch_12">
     <path d="M 651.080625 333.393152 
L 716.181563 333.393152 
L 716.181563 308.052527 
L 651.080625 308.052527 
z
" style="fill:#ffffff;opacity:0.5;stroke:#000000;stroke-linejoin:miter;"/>
    </g>
    <!-- 79.7% -->
    <g transform="translate(655.040625 325.689714)scale(0.18 -0.18)">
     <use xlink:href="#DejaVuSans-37"/>
     <use x="63.623047" xlink:href="#DejaVuSans-39"/>
     <use x="127.246094" xlink:href="#DejaVuSans-2e"/>
     <use x="159.033203" xlink:href="#DejaVuSans-37"/>
     <use x="222.65625" xlink:href="#DejaVuSans-25"/>
    </g>
   </g>
   <g id="text_16">
    <g id="patch_13">
     <path d="M 985.880625 333.393152 
L 1050.981563 333.393152 
L 1050.981563 308.052527 
L 985.880625 308.052527 
z
" style="fill:#ffffff;opacity:0.5;stroke:#000000;stroke-linejoin:miter;"/>
    </g>
    <!-- 79.3% -->
    <g transform="translate(989.840625 325.689714)scale(0.18 -0.18)">
     <defs>
      <path d="M 2597 2516 
Q 3050 2419 3304 2112 
Q 3559 1806 3559 1356 
Q 3559 666 3084 287 
Q 2609 -91 1734 -91 
Q 1441 -91 1130 -33 
Q 819 25 488 141 
L 488 750 
Q 750 597 1062 519 
Q 1375 441 1716 441 
Q 2309 441 2620 675 
Q 2931 909 2931 1356 
Q 2931 1769 2642 2001 
Q 2353 2234 1838 2234 
L 1294 2234 
L 1294 2753 
L 1863 2753 
Q 2328 2753 2575 2939 
Q 2822 3125 2822 3475 
Q 2822 3834 2567 4026 
Q 2313 4219 1838 4219 
Q 1578 4219 1281 4162 
Q 984 4106 628 3988 
L 628 4550 
Q 988 4650 1302 4700 
Q 1616 4750 1894 4750 
Q 2613 4750 3031 4423 
Q 3450 4097 3450 3541 
Q 3450 3153 3228 2886 
Q 3006 2619 2597 2516 
z
" id="DejaVuSans-33" transform="scale(0.015625)"/>
     </defs>
     <use xlink:href="#DejaVuSans-37"/>
     <use x="63.623047" xlink:href="#DejaVuSans-39"/>
     <use x="127.246094" xlink:href="#DejaVuSans-2e"/>
     <use x="159.033203" xlink:href="#DejaVuSans-33"/>
     <use x="222.65625" xlink:href="#DejaVuSans-25"/>
    </g>
   </g>
   <g id="text_17">
    <g id="patch_14">
     <path d="M 98.660625 333.393152 
L 163.761563 333.393152 
L 163.761563 308.052527 
L 98.660625 308.052527 
z
" style="fill:#ffffff;opacity:0.5;stroke:#000000;stroke-linejoin:miter;"/>
    </g>
    <!-- 77.4% -->
    <g transform="translate(102.620625 325.689714)scale(0.18 -0.18)">
     <defs>
      <path d="M 2419 4116 
L 825 1625 
L 2419 1625 
L 2419 4116 
z
M 2253 4666 
L 3047 4666 
L 3047 1625 
L 3713 1625 
L 3713 1100 
L 3047 1100 
L 3047 0 
L 2419 0 
L 2419 1100 
L 313 1100 
L 313 1709 
L 2253 4666 
z
" id="DejaVuSans-34" transform="scale(0.015625)"/>
     </defs>
     <use xlink:href="#DejaVuSans-37"/>
     <use x="63.623047" xlink:href="#DejaVuSans-37"/>
     <use x="127.246094" xlink:href="#DejaVuSans-2e"/>
     <use x="159.033203" xlink:href="#DejaVuSans-34"/>
     <use x="222.65625" xlink:href="#DejaVuSans-25"/>
    </g>
   </g>
   <g id="text_18">
    <g id="patch_15">
     <path d="M 433.460625 333.393152 
L 498.561563 333.393152 
L 498.561563 308.052527 
L 433.460625 308.052527 
z
" style="fill:#ffffff;opacity:0.5;stroke:#000000;stroke-linejoin:miter;"/>
    </g>
    <!-- 78.9% -->
    <g transform="translate(437.420625 325.689714)scale(0.18 -0.18)">
     <use xlink:href="#DejaVuSans-37"/>
     <use x="63.623047" xlink:href="#DejaVuSans-38"/>
     <use x="127.246094" xlink:href="#DejaVuSans-2e"/>
     <use x="159.033203" xlink:href="#DejaVuSans-39"/>
     <use x="222.65625" xlink:href="#DejaVuSans-25"/>
    </g>
   </g>
   <g id="text_19">
    <g id="patch_16">
     <path d="M 768.260625 333.393152 
L 833.361563 333.393152 
L 833.361563 308.052527 
L 768.260625 308.052527 
z
" style="fill:#ffffff;opacity:0.5;stroke:#000000;stroke-linejoin:miter;"/>
    </g>
    <!-- 77.5% -->
    <g transform="translate(772.220625 325.689714)scale(0.18 -0.18)">
     <use xlink:href="#DejaVuSans-37"/>
     <use x="63.623047" xlink:href="#DejaVuSans-37"/>
     <use x="127.246094" xlink:href="#DejaVuSans-2e"/>
     <use x="159.033203" xlink:href="#DejaVuSans-35"/>
     <use x="222.65625" xlink:href="#DejaVuSans-25"/>
    </g>
   </g>
   <g id="text_20">
    <g id="patch_17">
     <path d="M 343.064625 100.421723 
L 396.713063 100.421723 
L 396.713063 75.081098 
L 343.064625 75.081098 
z
" style="fill:#808080;opacity:0.5;stroke:#000000;stroke-linejoin:miter;"/>
    </g>
    <!-- 1.8% -->
    <g transform="translate(347.024625 92.718286)scale(0.18 -0.18)">
     <use xlink:href="#DejaVuSans-31"/>
     <use x="63.623047" xlink:href="#DejaVuSans-2e"/>
     <use x="95.410156" xlink:href="#DejaVuSans-38"/>
     <use x="159.033203" xlink:href="#DejaVuSans-25"/>
    </g>
   </g>
   <g id="text_21">
    <g id="patch_18">
     <path d="M 677.864625 100.421723 
L 731.513063 100.421723 
L 731.513063 75.081098 
L 677.864625 75.081098 
z
" style="fill:#808080;opacity:0.5;stroke:#000000;stroke-linejoin:miter;"/>
    </g>
    <!-- 1.4% -->
    <g transform="translate(681.824625 92.718286)scale(0.18 -0.18)">
     <use xlink:href="#DejaVuSans-31"/>
     <use x="63.623047" xlink:href="#DejaVuSans-2e"/>
     <use x="95.410156" xlink:href="#DejaVuSans-34"/>
     <use x="159.033203" xlink:href="#DejaVuSans-25"/>
    </g>
   </g>
   <g id="text_22">
    <g id="patch_19">
     <path d="M 1012.664625 100.421723 
L 1066.313063 100.421723 
L 1066.313063 75.081098 
L 1012.664625 75.081098 
z
" style="fill:#808080;opacity:0.5;stroke:#000000;stroke-linejoin:miter;"/>
    </g>
    <!-- 1.7% -->
    <g transform="translate(1016.624625 92.718286)scale(0.18 -0.18)">
     <use xlink:href="#DejaVuSans-31"/>
     <use x="63.623047" xlink:href="#DejaVuSans-2e"/>
     <use x="95.410156" xlink:href="#DejaVuSans-37"/>
     <use x="159.033203" xlink:href="#DejaVuSans-25"/>
    </g>
   </g>
   <g id="text_23">
    <g id="patch_20">
     <path d="M 98.660625 100.421723 
L 152.309063 100.421723 
L 152.309063 75.081098 
L 98.660625 75.081098 
z
" style="fill:#808080;opacity:0.5;stroke:#000000;stroke-linejoin:miter;"/>
    </g>
    <!-- 1.9% -->
    <g transform="translate(102.620625 92.718286)scale(0.18 -0.18)">
     <use xlink:href="#DejaVuSans-31"/>
     <use x="63.623047" xlink:href="#DejaVuSans-2e"/>
     <use x="95.410156" xlink:href="#DejaVuSans-39"/>
     <use x="159.033203" xlink:href="#DejaVuSans-25"/>
    </g>
   </g>
   <g id="text_24">
    <g id="patch_21">
     <path d="M 433.460625 100.421723 
L 487.109063 100.421723 
L 487.109063 75.081098 
L 433.460625 75.081098 
z
" style="fill:#808080;opacity:0.5;stroke:#000000;stroke-linejoin:miter;"/>
    </g>
    <!-- 1.7% -->
    <g transform="translate(437.420625 92.718286)scale(0.18 -0.18)">
     <use xlink:href="#DejaVuSans-31"/>
     <use x="63.623047" xlink:href="#DejaVuSans-2e"/>
     <use x="95.410156" xlink:href="#DejaVuSans-37"/>
     <use x="159.033203" xlink:href="#DejaVuSans-25"/>
    </g>
   </g>
   <g id="text_25">
    <g id="patch_22">
     <path d="M 768.260625 100.421723 
L 821.909063 100.421723 
L 821.909063 75.081098 
L 768.260625 75.081098 
z
" style="fill:#808080;opacity:0.5;stroke:#000000;stroke-linejoin:miter;"/>
    </g>
    <!-- 1.3% -->
    <g transform="translate(772.220625 92.718286)scale(0.18 -0.18)">
     <use xlink:href="#DejaVuSans-31"/>
     <use x="63.623047" xlink:href="#DejaVuSans-2e"/>
     <use x="95.410156" xlink:href="#DejaVuSans-33"/>
     <use x="159.033203" xlink:href="#DejaVuSans-25"/>
    </g>
   </g>
   <g id="legend_1">
    <g id="patch_23">
     <path d="M 91.836625 44.55625 
L 473.03975 44.55625 
Q 477.03975 44.55625 477.03975 40.55625 
L 477.03975 13.2 
Q 477.03975 9.2 473.03975 9.2 
L 91.836625 9.2 
Q 87.836625 9.2 87.836625 13.2 
L 87.836625 40.55625 
Q 87.836625 44.55625 91.836625 44.55625 
z
" style="fill:#4c4c4c;opacity:0.5;stroke:#4c4c4c;stroke-linejoin:miter;"/>
    </g>
    <g id="patch_24">
     <path d="M 89.836625 42.55625 
L 471.03975 42.55625 
Q 475.03975 42.55625 475.03975 38.55625 
L 475.03975 11.2 
Q 475.03975 7.2 471.03975 7.2 
L 89.836625 7.2 
Q 85.836625 7.2 85.836625 11.2 
L 85.836625 38.55625 
Q 85.836625 42.55625 89.836625 42.55625 
z
" style="fill:#ffffff;stroke:#cccccc;stroke-linejoin:miter;"/>
    </g>
    <g id="patch_25">
     <path d="M 93.836625 30.396875 
L 133.836625 30.396875 
L 133.836625 16.396875 
L 93.836625 16.396875 
z
" style="fill:#772b58;stroke:#313131;stroke-linejoin:miter;stroke-width:0.75;"/>
    </g>
    <g id="text_26">
     <!-- Baseline -->
     <g transform="translate(149.836625 30.396875)scale(0.2 -0.2)">
      <defs>
       <path d="M 1259 2228 
L 1259 519 
L 2272 519 
Q 2781 519 3026 730 
Q 3272 941 3272 1375 
Q 3272 1813 3026 2020 
Q 2781 2228 2272 2228 
L 1259 2228 
z
M 1259 4147 
L 1259 2741 
L 2194 2741 
Q 2656 2741 2882 2914 
Q 3109 3088 3109 3444 
Q 3109 3797 2882 3972 
Q 2656 4147 2194 4147 
L 1259 4147 
z
M 628 4666 
L 2241 4666 
Q 2963 4666 3353 4366 
Q 3744 4066 3744 3513 
Q 3744 3084 3544 2831 
Q 3344 2578 2956 2516 
Q 3422 2416 3680 2098 
Q 3938 1781 3938 1306 
Q 3938 681 3513 340 
Q 3088 0 2303 0 
L 628 0 
L 628 4666 
z
" id="DejaVuSans-42" transform="scale(0.015625)"/>
       <path d="M 603 4863 
L 1178 4863 
L 1178 0 
L 603 0 
L 603 4863 
z
" id="DejaVuSans-6c" transform="scale(0.015625)"/>
      </defs>
      <use xlink:href="#DejaVuSans-42"/>
      <use x="68.603516" xlink:href="#DejaVuSans-61"/>
      <use x="129.882812" xlink:href="#DejaVuSans-73"/>
      <use x="181.982422" xlink:href="#DejaVuSans-65"/>
      <use x="243.505859" xlink:href="#DejaVuSans-6c"/>
      <use x="271.289062" xlink:href="#DejaVuSans-69"/>
      <use x="299.072266" xlink:href="#DejaVuSans-6e"/>
      <use x="362.451172" xlink:href="#DejaVuSans-65"/>
     </g>
    </g>
    <g id="patch_26">
     <path d="M 274.6335 30.396875 
L 314.6335 30.396875 
L 314.6335 16.396875 
L 274.6335 16.396875 
z
" style="fill:#db6e59;stroke:#313131;stroke-linejoin:miter;stroke-width:0.75;"/>
    </g>
    <g id="text_27">
     <!-- 1D-amplitude -->
     <g transform="translate(330.6335 30.396875)scale(0.2 -0.2)">
      <defs>
       <path d="M 1259 4147 
L 1259 519 
L 2022 519 
Q 2988 519 3436 956 
Q 3884 1394 3884 2338 
Q 3884 3275 3436 3711 
Q 2988 4147 2022 4147 
L 1259 4147 
z
M 628 4666 
L 1925 4666 
Q 3281 4666 3915 4102 
Q 4550 3538 4550 2338 
Q 4550 1131 3912 565 
Q 3275 0 1925 0 
L 628 0 
L 628 4666 
z
" id="DejaVuSans-44" transform="scale(0.015625)"/>
       <path d="M 313 2009 
L 1997 2009 
L 1997 1497 
L 313 1497 
L 313 2009 
z
" id="DejaVuSans-2d" transform="scale(0.015625)"/>
       <path d="M 1159 525 
L 1159 -1331 
L 581 -1331 
L 581 3500 
L 1159 3500 
L 1159 2969 
Q 1341 3281 1617 3432 
Q 1894 3584 2278 3584 
Q 2916 3584 3314 3078 
Q 3713 2572 3713 1747 
Q 3713 922 3314 415 
Q 2916 -91 2278 -91 
Q 1894 -91 1617 61 
Q 1341 213 1159 525 
z
M 3116 1747 
Q 3116 2381 2855 2742 
Q 2594 3103 2138 3103 
Q 1681 3103 1420 2742 
Q 1159 2381 1159 1747 
Q 1159 1113 1420 752 
Q 1681 391 2138 391 
Q 2594 391 2855 752 
Q 3116 1113 3116 1747 
z
" id="DejaVuSans-70" transform="scale(0.015625)"/>
       <path d="M 2906 2969 
L 2906 4863 
L 3481 4863 
L 3481 0 
L 2906 0 
L 2906 525 
Q 2725 213 2448 61 
Q 2172 -91 1784 -91 
Q 1150 -91 751 415 
Q 353 922 353 1747 
Q 353 2572 751 3078 
Q 1150 3584 1784 3584 
Q 2172 3584 2448 3432 
Q 2725 3281 2906 2969 
z
M 947 1747 
Q 947 1113 1208 752 
Q 1469 391 1925 391 
Q 2381 391 2643 752 
Q 2906 1113 2906 1747 
Q 2906 2381 2643 2742 
Q 2381 3103 1925 3103 
Q 1469 3103 1208 2742 
Q 947 2381 947 1747 
z
" id="DejaVuSans-64" transform="scale(0.015625)"/>
      </defs>
      <use xlink:href="#DejaVuSans-31"/>
      <use x="63.623047" xlink:href="#DejaVuSans-44"/>
      <use x="140.625" xlink:href="#DejaVuSans-2d"/>
      <use x="176.708984" xlink:href="#DejaVuSans-61"/>
      <use x="237.988281" xlink:href="#DejaVuSans-6d"/>
      <use x="335.400391" xlink:href="#DejaVuSans-70"/>
      <use x="398.876953" xlink:href="#DejaVuSans-6c"/>
      <use x="426.660156" xlink:href="#DejaVuSans-69"/>
      <use x="454.443359" xlink:href="#DejaVuSans-74"/>
      <use x="493.652344" xlink:href="#DejaVuSans-75"/>
      <use x="557.03125" xlink:href="#DejaVuSans-64"/>
      <use x="620.507812" xlink:href="#DejaVuSans-65"/>
     </g>
    </g>
   </g>
  </g>
 </g>
 <defs>
  <clipPath id="p577903c35a">
   <rect height="326.16" width="1004.4" x="85.880625" y="46.124"/>
  </clipPath>
 </defs>
</svg>
