<?xml version="1.0" encoding="utf-8" standalone="no"?>
<!DOCTYPE svg PUBLIC "-//W3C//DTD SVG 1.1//EN"
  "http://www.w3.org/Graphics/SVG/1.1/DTD/svg11.dtd">
<svg height="350.123125pt" version="1.1" viewBox="0 0 791.879375 350.123125" width="791.879375pt" xmlns="http://www.w3.org/2000/svg" xmlns:xlink="http://www.w3.org/1999/xlink">
 <metadata>
  <rdf:RDF xmlns:cc="http://creativecommons.org/ns#" xmlns:dc="http://purl.org/dc/elements/1.1/" xmlns:rdf="http://www.w3.org/1999/02/22-rdf-syntax-ns#">
   <cc:Work>
    <dc:type rdf:resource="http://purl.org/dc/dcmitype/StillImage"/>
    <dc:date>2023-01-14T18:35:04.832879</dc:date>
    <dc:format>image/svg+xml</dc:format>
    <dc:creator>
     <cc:Agent>
      <dc:title>Matplotlib v3.4.2, https://matplotlib.org/</dc:title>
     </cc:Agent>
    </dc:creator>
   </cc:Work>
  </rdf:RDF>
 </metadata>
 <defs>
  <style type="text/css">*{stroke-linecap:butt;stroke-linejoin:round;}</style>
 </defs>
 <g id="figure_1">
  <g id="patch_1">
   <path d="M 0 350.123125 
L 791.879375 350.123125 
L 791.879375 0 
L 0 0 
z
" style="fill:#ffffff;"/>
  </g>
  <g id="axes_1">
   <g id="patch_2">
    <path d="M 59.279375 300 
L 784.679375 300 
L 784.679375 28.2 
L 59.279375 28.2 
z
" style="fill:#ffffff;"/>
   </g>
   <g id="matplotlib.axis_1">
    <g id="xtick_1">
     <g id="line2d_1"/>
     <g id="text_1">
      <!-- 0 -->
      <g style="fill:#262626;" transform="translate(53.766794 317.99375)scale(0.2 -0.2)">
       <defs>
        <path d="M 3309 2203 
Q 3309 1569 3189 1136 
Q 3069 703 2861 436 
Q 2653 169 2372 53 
Q 2091 -63 1772 -63 
Q 1450 -63 1172 53 
Q 894 169 689 434 
Q 484 700 367 1133 
Q 250 1566 250 2203 
Q 250 2869 367 3305 
Q 484 3741 690 4000 
Q 897 4259 1178 4364 
Q 1459 4469 1791 4469 
Q 2106 4469 2382 4364 
Q 2659 4259 2865 4000 
Q 3072 3741 3190 3305 
Q 3309 2869 3309 2203 
z
M 2738 2203 
Q 2738 2728 2675 3076 
Q 2613 3425 2491 3633 
Q 2369 3841 2192 3927 
Q 2016 4013 1791 4013 
Q 1553 4013 1372 3925 
Q 1191 3838 1067 3630 
Q 944 3422 881 3073 
Q 819 2725 819 2203 
Q 819 1697 883 1350 
Q 947 1003 1070 792 
Q 1194 581 1372 489 
Q 1550 397 1778 397 
Q 2000 397 2178 489 
Q 2356 581 2479 792 
Q 2603 1003 2670 1350 
Q 2738 1697 2738 2203 
z
" id="LiberationSans-30" transform="scale(0.015625)"/>
       </defs>
       <use xlink:href="#LiberationSans-30"/>
      </g>
     </g>
    </g>
    <g id="xtick_2">
     <g id="line2d_2"/>
     <g id="text_2">
      <!-- 200 -->
      <g style="fill:#262626;" transform="translate(139.358472 317.99375)scale(0.2 -0.2)">
       <defs>
        <path d="M 322 0 
L 322 397 
Q 481 763 711 1042 
Q 941 1322 1194 1548 
Q 1447 1775 1695 1969 
Q 1944 2163 2144 2356 
Q 2344 2550 2467 2762 
Q 2591 2975 2591 3244 
Q 2591 3431 2534 3573 
Q 2478 3716 2372 3812 
Q 2266 3909 2117 3957 
Q 1969 4006 1788 4006 
Q 1619 4006 1470 3959 
Q 1322 3913 1206 3819 
Q 1091 3725 1017 3586 
Q 944 3447 922 3263 
L 347 3316 
Q 375 3553 478 3762 
Q 581 3972 762 4130 
Q 944 4288 1198 4378 
Q 1453 4469 1788 4469 
Q 2116 4469 2372 4391 
Q 2628 4313 2804 4159 
Q 2981 4006 3075 3781 
Q 3169 3556 3169 3263 
Q 3169 3041 3089 2841 
Q 3009 2641 2876 2459 
Q 2744 2278 2569 2109 
Q 2394 1941 2203 1780 
Q 2013 1619 1819 1461 
Q 1625 1303 1454 1143 
Q 1284 984 1150 820 
Q 1016 656 941 478 
L 3238 478 
L 3238 0 
L 322 0 
z
" id="LiberationSans-32" transform="scale(0.015625)"/>
       </defs>
       <use xlink:href="#LiberationSans-32"/>
       <use x="55.615234" xlink:href="#LiberationSans-30"/>
       <use x="111.230469" xlink:href="#LiberationSans-30"/>
      </g>
     </g>
    </g>
    <g id="xtick_3">
     <g id="line2d_3"/>
     <g id="text_3">
      <!-- 400 -->
      <g style="fill:#262626;" transform="translate(236.072024 317.99375)scale(0.2 -0.2)">
       <defs>
        <path d="M 2753 997 
L 2753 0 
L 2222 0 
L 2222 997 
L 147 997 
L 147 1434 
L 2163 4403 
L 2753 4403 
L 2753 1441 
L 3372 1441 
L 3372 997 
L 2753 997 
z
M 2222 3769 
Q 2216 3753 2191 3708 
Q 2166 3663 2134 3606 
Q 2103 3550 2070 3492 
Q 2038 3434 2013 3397 
L 884 1734 
Q 869 1709 839 1668 
Q 809 1628 778 1586 
Q 747 1544 715 1503 
Q 684 1463 666 1441 
L 2222 1441 
L 2222 3769 
z
" id="LiberationSans-34" transform="scale(0.015625)"/>
       </defs>
       <use xlink:href="#LiberationSans-34"/>
       <use x="55.615234" xlink:href="#LiberationSans-30"/>
       <use x="111.230469" xlink:href="#LiberationSans-30"/>
      </g>
     </g>
    </g>
    <g id="xtick_4">
     <g id="line2d_4"/>
     <g id="text_4">
      <!-- 600 -->
      <g style="fill:#262626;" transform="translate(332.785577 317.99375)scale(0.2 -0.2)">
       <defs>
        <path d="M 3278 1441 
Q 3278 1109 3186 832 
Q 3094 556 2914 357 
Q 2734 159 2468 48 
Q 2203 -63 1856 -63 
Q 1472 -63 1184 84 
Q 897 231 706 507 
Q 516 784 420 1186 
Q 325 1588 325 2100 
Q 325 2688 433 3131 
Q 541 3575 744 3872 
Q 947 4169 1239 4319 
Q 1531 4469 1900 4469 
Q 2125 4469 2322 4422 
Q 2519 4375 2680 4270 
Q 2841 4166 2962 3994 
Q 3084 3822 3156 3572 
L 2619 3475 
Q 2531 3759 2339 3886 
Q 2147 4013 1894 4013 
Q 1663 4013 1475 3903 
Q 1288 3794 1156 3576 
Q 1025 3359 954 3031 
Q 884 2703 884 2266 
Q 1038 2550 1316 2698 
Q 1594 2847 1953 2847 
Q 2253 2847 2497 2750 
Q 2741 2653 2914 2470 
Q 3088 2288 3183 2027 
Q 3278 1766 3278 1441 
z
M 2706 1416 
Q 2706 1644 2650 1828 
Q 2594 2013 2481 2142 
Q 2369 2272 2203 2342 
Q 2038 2413 1819 2413 
Q 1666 2413 1509 2367 
Q 1353 2322 1226 2220 
Q 1100 2119 1020 1953 
Q 941 1788 941 1550 
Q 941 1306 1003 1095 
Q 1066 884 1183 728 
Q 1300 572 1465 481 
Q 1631 391 1838 391 
Q 2041 391 2202 461 
Q 2363 531 2475 664 
Q 2588 797 2647 987 
Q 2706 1178 2706 1416 
z
" id="LiberationSans-36" transform="scale(0.015625)"/>
       </defs>
       <use xlink:href="#LiberationSans-36"/>
       <use x="55.615234" xlink:href="#LiberationSans-30"/>
       <use x="111.230469" xlink:href="#LiberationSans-30"/>
      </g>
     </g>
    </g>
    <g id="xtick_5">
     <g id="line2d_5"/>
     <g id="text_5">
      <!-- 800 -->
      <g style="fill:#262626;" transform="translate(429.499129 317.99375)scale(0.2 -0.2)">
       <defs>
        <path d="M 3281 1228 
Q 3281 947 3192 711 
Q 3103 475 2920 303 
Q 2738 131 2453 34 
Q 2169 -63 1781 -63 
Q 1394 -63 1111 34 
Q 828 131 642 301 
Q 456 472 367 708 
Q 278 944 278 1222 
Q 278 1463 351 1650 
Q 425 1838 548 1973 
Q 672 2109 830 2192 
Q 988 2275 1156 2303 
L 1156 2316 
Q 972 2359 826 2456 
Q 681 2553 582 2689 
Q 484 2825 432 2990 
Q 381 3156 381 3341 
Q 381 3572 470 3776 
Q 559 3981 734 4136 
Q 909 4291 1168 4380 
Q 1428 4469 1769 4469 
Q 2128 4469 2392 4378 
Q 2656 4288 2829 4133 
Q 3003 3978 3087 3772 
Q 3172 3566 3172 3334 
Q 3172 3153 3120 2987 
Q 3069 2822 2970 2686 
Q 2872 2550 2726 2454 
Q 2581 2359 2391 2322 
L 2391 2309 
Q 2581 2278 2743 2195 
Q 2906 2113 3025 1977 
Q 3144 1841 3212 1653 
Q 3281 1466 3281 1228 
z
M 2588 3303 
Q 2588 3469 2545 3606 
Q 2503 3744 2406 3842 
Q 2309 3941 2153 3995 
Q 1997 4050 1769 4050 
Q 1547 4050 1394 3995 
Q 1241 3941 1142 3842 
Q 1044 3744 1000 3606 
Q 956 3469 956 3303 
Q 956 3172 990 3034 
Q 1025 2897 1115 2784 
Q 1206 2672 1365 2600 
Q 1525 2528 1775 2528 
Q 2041 2528 2202 2600 
Q 2363 2672 2448 2784 
Q 2534 2897 2561 3034 
Q 2588 3172 2588 3303 
z
M 2697 1281 
Q 2697 1441 2653 1589 
Q 2609 1738 2503 1852 
Q 2397 1966 2217 2036 
Q 2038 2106 1769 2106 
Q 1522 2106 1348 2036 
Q 1175 1966 1067 1850 
Q 959 1734 909 1582 
Q 859 1431 859 1269 
Q 859 1066 909 898 
Q 959 731 1068 611 
Q 1178 491 1356 425 
Q 1534 359 1788 359 
Q 2044 359 2219 425 
Q 2394 491 2500 611 
Q 2606 731 2651 901 
Q 2697 1072 2697 1281 
z
" id="LiberationSans-38" transform="scale(0.015625)"/>
       </defs>
       <use xlink:href="#LiberationSans-38"/>
       <use x="55.615234" xlink:href="#LiberationSans-30"/>
       <use x="111.230469" xlink:href="#LiberationSans-30"/>
      </g>
     </g>
    </g>
    <g id="xtick_6">
     <g id="line2d_6"/>
     <g id="text_6">
      <!-- 1000 -->
      <g style="fill:#262626;" transform="translate(520.651744 317.99375)scale(0.2 -0.2)">
       <defs>
        <path d="M 488 0 
L 488 478 
L 1609 478 
L 1609 3866 
L 616 3156 
L 616 3688 
L 1656 4403 
L 2175 4403 
L 2175 478 
L 3247 478 
L 3247 0 
L 488 0 
z
" id="LiberationSans-31" transform="scale(0.015625)"/>
       </defs>
       <use xlink:href="#LiberationSans-31"/>
       <use x="55.615234" xlink:href="#LiberationSans-30"/>
       <use x="111.230469" xlink:href="#LiberationSans-30"/>
       <use x="166.845703" xlink:href="#LiberationSans-30"/>
      </g>
     </g>
    </g>
    <g id="xtick_7">
     <g id="line2d_7"/>
     <g id="text_7">
      <!-- 1200 -->
      <g style="fill:#262626;" transform="translate(617.365296 317.99375)scale(0.2 -0.2)">
       <use xlink:href="#LiberationSans-31"/>
       <use x="55.615234" xlink:href="#LiberationSans-32"/>
       <use x="111.230469" xlink:href="#LiberationSans-30"/>
       <use x="166.845703" xlink:href="#LiberationSans-30"/>
      </g>
     </g>
    </g>
    <g id="xtick_8">
     <g id="line2d_8"/>
     <g id="text_8">
      <!-- 1400 -->
      <g style="fill:#262626;" transform="translate(714.078849 317.99375)scale(0.2 -0.2)">
       <use xlink:href="#LiberationSans-31"/>
       <use x="55.615234" xlink:href="#LiberationSans-34"/>
       <use x="111.230469" xlink:href="#LiberationSans-30"/>
       <use x="166.845703" xlink:href="#LiberationSans-30"/>
      </g>
     </g>
    </g>
    <g id="text_9">
     <!-- Epoch -->
     <g style="fill:#262626;" transform="translate(396.461563 339.188125)scale(0.18 -0.18)">
      <defs>
       <path d="M 525 0 
L 525 4403 
L 3866 4403 
L 3866 3916 
L 1122 3916 
L 1122 2503 
L 3678 2503 
L 3678 2022 
L 1122 2022 
L 1122 488 
L 3994 488 
L 3994 0 
L 525 0 
z
" id="LiberationSans-45" transform="scale(0.015625)"/>
       <path d="M 3291 1706 
Q 3291 1322 3228 997 
Q 3166 672 3020 437 
Q 2875 203 2636 70 
Q 2397 -63 2047 -63 
Q 1684 -63 1412 75 
Q 1141 213 997 525 
L 981 525 
Q 984 519 986 469 
Q 988 419 989 344 
Q 991 269 992 176 
Q 994 84 994 -6 
L 994 -1328 
L 431 -1328 
L 431 2691 
Q 431 2813 429 2925 
Q 428 3038 425 3130 
Q 422 3222 419 3287 
Q 416 3353 413 3381 
L 956 3381 
Q 959 3372 964 3315 
Q 969 3259 973 3179 
Q 978 3100 983 3009 
Q 988 2919 988 2838 
L 1000 2838 
Q 1078 3000 1178 3114 
Q 1278 3228 1406 3301 
Q 1534 3375 1692 3408 
Q 1850 3441 2047 3441 
Q 2397 3441 2636 3316 
Q 2875 3191 3020 2964 
Q 3166 2738 3228 2417 
Q 3291 2097 3291 1706 
z
M 2700 1694 
Q 2700 2006 2662 2250 
Q 2625 2494 2533 2662 
Q 2441 2831 2287 2918 
Q 2134 3006 1903 3006 
Q 1716 3006 1550 2953 
Q 1384 2900 1261 2750 
Q 1138 2600 1066 2336 
Q 994 2072 994 1650 
Q 994 1291 1053 1042 
Q 1113 794 1227 641 
Q 1341 488 1509 420 
Q 1678 353 1897 353 
Q 2131 353 2286 443 
Q 2441 534 2533 706 
Q 2625 878 2662 1126 
Q 2700 1375 2700 1694 
z
" id="LiberationSans-70" transform="scale(0.015625)"/>
       <path d="M 3291 1694 
Q 3291 806 2900 371 
Q 2509 -63 1766 -63 
Q 1413 -63 1134 43 
Q 856 150 664 369 
Q 472 588 370 917 
Q 269 1247 269 1694 
Q 269 3444 1784 3444 
Q 2178 3444 2464 3334 
Q 2750 3225 2933 3006 
Q 3116 2788 3203 2459 
Q 3291 2131 3291 1694 
z
M 2700 1694 
Q 2700 2088 2639 2344 
Q 2578 2600 2461 2753 
Q 2344 2906 2175 2967 
Q 2006 3028 1794 3028 
Q 1578 3028 1404 2964 
Q 1231 2900 1109 2745 
Q 988 2591 923 2334 
Q 859 2078 859 1694 
Q 859 1300 928 1042 
Q 997 784 1117 631 
Q 1238 478 1402 415 
Q 1566 353 1759 353 
Q 1975 353 2150 414 
Q 2325 475 2447 628 
Q 2569 781 2634 1040 
Q 2700 1300 2700 1694 
z
" id="LiberationSans-6f" transform="scale(0.015625)"/>
       <path d="M 859 1706 
Q 859 1416 901 1172 
Q 944 928 1044 751 
Q 1144 575 1308 478 
Q 1472 381 1713 381 
Q 2013 381 2214 543 
Q 2416 706 2463 1044 
L 3031 1006 
Q 3003 797 2909 603 
Q 2816 409 2655 262 
Q 2494 116 2262 26 
Q 2031 -63 1728 -63 
Q 1331 -63 1053 71 
Q 775 206 601 442 
Q 428 678 350 998 
Q 272 1319 272 1694 
Q 272 2034 328 2295 
Q 384 2556 486 2751 
Q 588 2947 725 3080 
Q 863 3213 1023 3292 
Q 1184 3372 1362 3408 
Q 1541 3444 1722 3444 
Q 2006 3444 2228 3366 
Q 2450 3288 2611 3152 
Q 2772 3016 2872 2831 
Q 2972 2647 3013 2434 
L 2434 2391 
Q 2391 2672 2212 2837 
Q 2034 3003 1706 3003 
Q 1466 3003 1305 2923 
Q 1144 2844 1044 2683 
Q 944 2522 901 2278 
Q 859 2034 859 1706 
z
" id="LiberationSans-63" transform="scale(0.015625)"/>
       <path d="M 991 2803 
Q 1084 2975 1193 3095 
Q 1303 3216 1434 3294 
Q 1566 3372 1722 3408 
Q 1878 3444 2072 3444 
Q 2397 3444 2605 3356 
Q 2813 3269 2933 3111 
Q 3053 2953 3098 2734 
Q 3144 2516 3144 2253 
L 3144 0 
L 2578 0 
L 2578 2144 
Q 2578 2359 2551 2521 
Q 2525 2684 2450 2792 
Q 2375 2900 2237 2954 
Q 2100 3009 1881 3009 
Q 1681 3009 1520 2937 
Q 1359 2866 1245 2734 
Q 1131 2603 1068 2415 
Q 1006 2228 1006 1994 
L 1006 0 
L 444 0 
L 444 4638 
L 1006 4638 
L 1006 3431 
Q 1006 3328 1003 3225 
Q 1000 3122 995 3034 
Q 991 2947 987 2886 
Q 984 2825 981 2803 
L 991 2803 
z
" id="LiberationSans-68" transform="scale(0.015625)"/>
      </defs>
      <use xlink:href="#LiberationSans-45"/>
      <use x="66.699219" xlink:href="#LiberationSans-70"/>
      <use x="122.314453" xlink:href="#LiberationSans-6f"/>
      <use x="177.929688" xlink:href="#LiberationSans-63"/>
      <use x="227.929688" xlink:href="#LiberationSans-68"/>
     </g>
    </g>
   </g>
   <g id="matplotlib.axis_2">
    <g id="ytick_1">
     <g id="line2d_9"/>
     <g id="text_10">
      <!-- 0.0 -->
      <g style="fill:#262626;" transform="translate(27.979375 307.246875)scale(0.2 -0.2)">
       <defs>
        <path d="M 584 0 
L 584 684 
L 1194 684 
L 1194 0 
L 584 0 
z
" id="LiberationSans-2e" transform="scale(0.015625)"/>
       </defs>
       <use xlink:href="#LiberationSans-30"/>
       <use x="55.615234" xlink:href="#LiberationSans-2e"/>
       <use x="83.398438" xlink:href="#LiberationSans-30"/>
      </g>
     </g>
    </g>
    <g id="ytick_2">
     <g id="line2d_10"/>
     <g id="text_11">
      <!-- 0.2 -->
      <g style="fill:#262626;" transform="translate(27.979375 252.886875)scale(0.2 -0.2)">
       <use xlink:href="#LiberationSans-30"/>
       <use x="55.615234" xlink:href="#LiberationSans-2e"/>
       <use x="83.398438" xlink:href="#LiberationSans-32"/>
      </g>
     </g>
    </g>
    <g id="ytick_3">
     <g id="line2d_11"/>
     <g id="text_12">
      <!-- 0.4 -->
      <g style="fill:#262626;" transform="translate(27.979375 198.526875)scale(0.2 -0.2)">
       <use xlink:href="#LiberationSans-30"/>
       <use x="55.615234" xlink:href="#LiberationSans-2e"/>
       <use x="83.398438" xlink:href="#LiberationSans-34"/>
      </g>
     </g>
    </g>
    <g id="ytick_4">
     <g id="line2d_12"/>
     <g id="text_13">
      <!-- 0.6 -->
      <g style="fill:#262626;" transform="translate(27.979375 144.166875)scale(0.2 -0.2)">
       <use xlink:href="#LiberationSans-30"/>
       <use x="55.615234" xlink:href="#LiberationSans-2e"/>
       <use x="83.398438" xlink:href="#LiberationSans-36"/>
      </g>
     </g>
    </g>
    <g id="ytick_5">
     <g id="line2d_13"/>
     <g id="text_14">
      <!-- 0.8 -->
      <g style="fill:#262626;" transform="translate(27.979375 89.806875)scale(0.2 -0.2)">
       <use xlink:href="#LiberationSans-30"/>
       <use x="55.615234" xlink:href="#LiberationSans-2e"/>
       <use x="83.398438" xlink:href="#LiberationSans-38"/>
      </g>
     </g>
    </g>
    <g id="ytick_6">
     <g id="line2d_14"/>
     <g id="text_15">
      <!-- 1.0 -->
      <g style="fill:#262626;" transform="translate(27.979375 35.446875)scale(0.2 -0.2)">
       <use xlink:href="#LiberationSans-31"/>
       <use x="55.615234" xlink:href="#LiberationSans-2e"/>
       <use x="83.398438" xlink:href="#LiberationSans-30"/>
      </g>
     </g>
    </g>
    <g id="text_16">
     <!-- Standardized loss function value -->
     <g style="fill:#262626;" transform="translate(20.244375 293.673281)rotate(-90)scale(0.18 -0.18)">
      <defs>
       <path d="M 3975 1216 
Q 3975 938 3867 703 
Q 3759 469 3534 298 
Q 3309 128 2967 32 
Q 2625 -63 2156 -63 
Q 1334 -63 875 225 
Q 416 513 291 1056 
L 869 1172 
Q 913 1000 1003 859 
Q 1094 719 1248 617 
Q 1403 516 1631 459 
Q 1859 403 2178 403 
Q 2444 403 2666 448 
Q 2888 494 3047 587 
Q 3206 681 3295 829 
Q 3384 978 3384 1184 
Q 3384 1400 3286 1534 
Q 3188 1669 3009 1756 
Q 2831 1844 2584 1903 
Q 2338 1963 2038 2031 
Q 1853 2072 1667 2120 
Q 1481 2169 1311 2236 
Q 1141 2303 991 2393 
Q 841 2484 731 2611 
Q 622 2738 559 2905 
Q 497 3072 497 3291 
Q 497 3603 623 3826 
Q 750 4050 975 4194 
Q 1200 4338 1506 4403 
Q 1813 4469 2169 4469 
Q 2578 4469 2868 4405 
Q 3159 4341 3359 4212 
Q 3559 4084 3679 3895 
Q 3800 3706 3872 3456 
L 3284 3353 
Q 3241 3513 3158 3638 
Q 3075 3763 2940 3847 
Q 2806 3931 2614 3975 
Q 2422 4019 2163 4019 
Q 1856 4019 1648 3964 
Q 1441 3909 1314 3815 
Q 1188 3722 1133 3595 
Q 1078 3469 1078 3322 
Q 1078 3125 1176 2998 
Q 1275 2872 1444 2787 
Q 1613 2703 1834 2647 
Q 2056 2591 2306 2534 
Q 2509 2488 2711 2439 
Q 2913 2391 3097 2323 
Q 3281 2256 3442 2165 
Q 3603 2075 3722 1944 
Q 3841 1813 3908 1634 
Q 3975 1456 3975 1216 
z
" id="LiberationSans-53" transform="scale(0.015625)"/>
       <path d="M 1731 25 
Q 1603 -9 1470 -29 
Q 1338 -50 1163 -50 
Q 488 -50 488 716 
L 488 2972 
L 97 2972 
L 97 3381 
L 509 3381 
L 675 4138 
L 1050 4138 
L 1050 3381 
L 1675 3381 
L 1675 2972 
L 1050 2972 
L 1050 838 
Q 1050 594 1129 495 
Q 1209 397 1406 397 
Q 1488 397 1564 409 
Q 1641 422 1731 441 
L 1731 25 
z
" id="LiberationSans-74" transform="scale(0.015625)"/>
       <path d="M 1294 -63 
Q 784 -63 528 206 
Q 272 475 272 944 
Q 272 1278 398 1492 
Q 525 1706 729 1828 
Q 934 1950 1196 1997 
Q 1459 2044 1731 2050 
L 2491 2063 
L 2491 2247 
Q 2491 2456 2447 2603 
Q 2403 2750 2312 2840 
Q 2222 2931 2086 2973 
Q 1950 3016 1766 3016 
Q 1603 3016 1472 2992 
Q 1341 2969 1244 2908 
Q 1147 2847 1087 2742 
Q 1028 2638 1009 2478 
L 422 2531 
Q 453 2731 540 2898 
Q 628 3066 789 3187 
Q 950 3309 1192 3376 
Q 1434 3444 1778 3444 
Q 2416 3444 2737 3151 
Q 3059 2859 3059 2306 
L 3059 850 
Q 3059 600 3125 473 
Q 3191 347 3375 347 
Q 3422 347 3469 353 
Q 3516 359 3559 369 
L 3559 19 
Q 3453 -6 3348 -18 
Q 3244 -31 3125 -31 
Q 2966 -31 2852 11 
Q 2738 53 2666 139 
Q 2594 225 2556 351 
Q 2519 478 2509 647 
L 2491 647 
Q 2400 484 2292 353 
Q 2184 222 2040 130 
Q 1897 38 1714 -12 
Q 1531 -63 1294 -63 
z
M 1422 359 
Q 1691 359 1892 457 
Q 2094 556 2226 709 
Q 2359 863 2425 1044 
Q 2491 1225 2491 1391 
L 2491 1669 
L 1875 1656 
Q 1669 1653 1483 1626 
Q 1297 1600 1156 1522 
Q 1016 1444 933 1303 
Q 850 1163 850 934 
Q 850 659 998 509 
Q 1147 359 1422 359 
z
" id="LiberationSans-61" transform="scale(0.015625)"/>
       <path d="M 2578 0 
L 2578 2144 
Q 2578 2391 2542 2556 
Q 2506 2722 2425 2823 
Q 2344 2925 2211 2967 
Q 2078 3009 1881 3009 
Q 1681 3009 1520 2939 
Q 1359 2869 1245 2736 
Q 1131 2603 1068 2408 
Q 1006 2213 1006 1959 
L 1006 0 
L 444 0 
L 444 2659 
Q 444 2766 442 2883 
Q 441 3000 437 3104 
Q 434 3209 431 3284 
Q 428 3359 425 3381 
L 956 3381 
Q 959 3366 962 3297 
Q 966 3228 970 3139 
Q 975 3050 978 2958 
Q 981 2866 981 2803 
L 991 2803 
Q 1072 2950 1169 3069 
Q 1266 3188 1394 3270 
Q 1522 3353 1687 3398 
Q 1853 3444 2072 3444 
Q 2353 3444 2556 3375 
Q 2759 3306 2890 3162 
Q 3022 3019 3083 2792 
Q 3144 2566 3144 2253 
L 3144 0 
L 2578 0 
z
" id="LiberationSans-6e" transform="scale(0.015625)"/>
       <path d="M 2566 544 
Q 2409 219 2151 78 
Q 1894 -63 1513 -63 
Q 872 -63 570 368 
Q 269 800 269 1675 
Q 269 3444 1513 3444 
Q 1897 3444 2153 3303 
Q 2409 3163 2566 2856 
L 2572 2856 
Q 2572 2888 2570 2955 
Q 2569 3022 2567 3095 
Q 2566 3169 2566 3234 
Q 2566 3300 2566 3328 
L 2566 4638 
L 3128 4638 
L 3128 697 
Q 3128 575 3129 462 
Q 3131 350 3134 256 
Q 3138 163 3141 95 
Q 3144 28 3147 0 
L 2609 0 
Q 2603 31 2598 89 
Q 2594 147 2589 222 
Q 2584 297 2581 380 
Q 2578 463 2578 544 
L 2566 544 
z
M 859 1694 
Q 859 1344 903 1094 
Q 947 844 1044 683 
Q 1141 522 1291 447 
Q 1441 372 1656 372 
Q 1878 372 2048 444 
Q 2219 516 2333 677 
Q 2447 838 2506 1097 
Q 2566 1356 2566 1731 
Q 2566 2091 2506 2339 
Q 2447 2588 2331 2741 
Q 2216 2894 2048 2961 
Q 1881 3028 1663 3028 
Q 1456 3028 1306 2956 
Q 1156 2884 1056 2725 
Q 956 2566 907 2311 
Q 859 2056 859 1694 
z
" id="LiberationSans-64" transform="scale(0.015625)"/>
       <path d="M 444 0 
L 444 2594 
Q 444 2700 442 2811 
Q 441 2922 437 3025 
Q 434 3128 431 3218 
Q 428 3309 425 3381 
L 956 3381 
Q 959 3309 964 3217 
Q 969 3125 973 3028 
Q 978 2931 979 2842 
Q 981 2753 981 2691 
L 994 2691 
Q 1053 2884 1120 3026 
Q 1188 3169 1278 3261 
Q 1369 3353 1494 3398 
Q 1619 3444 1797 3444 
Q 1866 3444 1928 3433 
Q 1991 3422 2025 3413 
L 2025 2897 
Q 1969 2913 1894 2920 
Q 1819 2928 1725 2928 
Q 1531 2928 1395 2840 
Q 1259 2753 1173 2598 
Q 1088 2444 1047 2230 
Q 1006 2016 1006 1763 
L 1006 0 
L 444 0 
z
" id="LiberationSans-72" transform="scale(0.015625)"/>
       <path d="M 428 4100 
L 428 4638 
L 991 4638 
L 991 4100 
L 428 4100 
z
M 428 0 
L 428 3381 
L 991 3381 
L 991 0 
L 428 0 
z
" id="LiberationSans-69" transform="scale(0.015625)"/>
       <path d="M 153 0 
L 153 428 
L 2219 2947 
L 278 2947 
L 278 3381 
L 2853 3381 
L 2853 2953 
L 784 434 
L 2969 434 
L 2969 0 
L 153 0 
z
" id="LiberationSans-7a" transform="scale(0.015625)"/>
       <path d="M 863 1572 
Q 863 1306 917 1082 
Q 972 859 1086 698 
Q 1200 538 1378 448 
Q 1556 359 1806 359 
Q 2172 359 2392 506 
Q 2613 653 2691 878 
L 3184 738 
Q 3131 597 3036 455 
Q 2941 313 2781 198 
Q 2622 84 2383 10 
Q 2144 -63 1806 -63 
Q 1056 -63 664 384 
Q 272 831 272 1713 
Q 272 2188 390 2517 
Q 509 2847 715 3053 
Q 922 3259 1197 3351 
Q 1472 3444 1784 3444 
Q 2209 3444 2495 3306 
Q 2781 3169 2954 2926 
Q 3128 2684 3201 2356 
Q 3275 2028 3275 1647 
L 3275 1572 
L 863 1572 
z
M 2694 2003 
Q 2647 2538 2422 2783 
Q 2197 3028 1775 3028 
Q 1634 3028 1479 2983 
Q 1325 2938 1194 2822 
Q 1063 2706 972 2507 
Q 881 2309 869 2003 
L 2694 2003 
z
" id="LiberationSans-65" transform="scale(0.015625)"/>
       <path id="LiberationSans-20" transform="scale(0.015625)"/>
       <path d="M 431 0 
L 431 4638 
L 994 4638 
L 994 0 
L 431 0 
z
" id="LiberationSans-6c" transform="scale(0.015625)"/>
       <path d="M 2969 934 
Q 2969 697 2876 511 
Q 2784 325 2609 198 
Q 2434 72 2179 4 
Q 1925 -63 1597 -63 
Q 1303 -63 1067 -17 
Q 831 28 653 128 
Q 475 228 354 392 
Q 234 556 178 794 
L 675 891 
Q 747 619 972 492 
Q 1197 366 1597 366 
Q 1778 366 1929 391 
Q 2081 416 2190 477 
Q 2300 538 2361 639 
Q 2422 741 2422 891 
Q 2422 1044 2350 1142 
Q 2278 1241 2150 1306 
Q 2022 1372 1839 1420 
Q 1656 1469 1438 1528 
Q 1234 1581 1034 1647 
Q 834 1713 673 1820 
Q 513 1928 413 2087 
Q 313 2247 313 2488 
Q 313 2950 642 3192 
Q 972 3434 1603 3434 
Q 2163 3434 2492 3237 
Q 2822 3041 2909 2606 
L 2403 2544 
Q 2375 2675 2300 2764 
Q 2225 2853 2119 2908 
Q 2013 2963 1880 2986 
Q 1747 3009 1603 3009 
Q 1222 3009 1040 2893 
Q 859 2778 859 2544 
Q 859 2406 926 2317 
Q 994 2228 1114 2167 
Q 1234 2106 1403 2061 
Q 1572 2016 1775 1966 
Q 1909 1931 2050 1892 
Q 2191 1853 2323 1798 
Q 2456 1744 2573 1670 
Q 2691 1597 2778 1494 
Q 2866 1391 2917 1253 
Q 2969 1116 2969 934 
z
" id="LiberationSans-73" transform="scale(0.015625)"/>
       <path d="M 1128 2972 
L 1128 0 
L 566 0 
L 566 2972 
L 91 2972 
L 91 3381 
L 566 3381 
L 566 3763 
Q 566 3947 600 4105 
Q 634 4263 726 4380 
Q 819 4497 978 4564 
Q 1138 4631 1391 4631 
Q 1491 4631 1598 4622 
Q 1706 4613 1788 4594 
L 1788 4166 
Q 1734 4175 1664 4183 
Q 1594 4191 1538 4191 
Q 1413 4191 1333 4156 
Q 1253 4122 1208 4058 
Q 1163 3994 1145 3900 
Q 1128 3806 1128 3684 
L 1128 3381 
L 1788 3381 
L 1788 2972 
L 1128 2972 
z
" id="LiberationSans-66" transform="scale(0.015625)"/>
       <path d="M 981 3381 
L 981 1238 
Q 981 991 1017 825 
Q 1053 659 1134 557 
Q 1216 456 1348 414 
Q 1481 372 1678 372 
Q 1878 372 2039 442 
Q 2200 513 2314 645 
Q 2428 778 2490 973 
Q 2553 1169 2553 1422 
L 2553 3381 
L 3116 3381 
L 3116 722 
Q 3116 616 3117 498 
Q 3119 381 3122 276 
Q 3125 172 3128 97 
Q 3131 22 3134 0 
L 2603 0 
Q 2600 16 2597 84 
Q 2594 153 2589 242 
Q 2584 331 2581 423 
Q 2578 516 2578 578 
L 2569 578 
Q 2488 431 2391 312 
Q 2294 194 2166 111 
Q 2038 28 1872 -17 
Q 1706 -63 1488 -63 
Q 1206 -63 1003 6 
Q 800 75 669 219 
Q 538 363 477 588 
Q 416 813 416 1128 
L 416 3381 
L 981 3381 
z
" id="LiberationSans-75" transform="scale(0.015625)"/>
       <path d="M 1916 0 
L 1250 0 
L 22 3381 
L 622 3381 
L 1366 1181 
Q 1388 1113 1417 1014 
Q 1447 916 1478 809 
Q 1509 703 1536 604 
Q 1563 506 1581 441 
Q 1600 506 1629 604 
Q 1659 703 1690 806 
Q 1722 909 1755 1007 
Q 1788 1106 1813 1175 
L 2581 3381 
L 3178 3381 
L 1916 0 
z
" id="LiberationSans-76" transform="scale(0.015625)"/>
      </defs>
      <use xlink:href="#LiberationSans-53"/>
      <use x="66.699219" xlink:href="#LiberationSans-74"/>
      <use x="94.482422" xlink:href="#LiberationSans-61"/>
      <use x="150.097656" xlink:href="#LiberationSans-6e"/>
      <use x="205.712891" xlink:href="#LiberationSans-64"/>
      <use x="261.328125" xlink:href="#LiberationSans-61"/>
      <use x="316.943359" xlink:href="#LiberationSans-72"/>
      <use x="350.244141" xlink:href="#LiberationSans-64"/>
      <use x="405.859375" xlink:href="#LiberationSans-69"/>
      <use x="428.076172" xlink:href="#LiberationSans-7a"/>
      <use x="478.076172" xlink:href="#LiberationSans-65"/>
      <use x="533.691406" xlink:href="#LiberationSans-64"/>
      <use x="589.306641" xlink:href="#LiberationSans-20"/>
      <use x="617.089844" xlink:href="#LiberationSans-6c"/>
      <use x="639.306641" xlink:href="#LiberationSans-6f"/>
      <use x="694.921875" xlink:href="#LiberationSans-73"/>
      <use x="744.921875" xlink:href="#LiberationSans-73"/>
      <use x="794.921875" xlink:href="#LiberationSans-20"/>
      <use x="822.705078" xlink:href="#LiberationSans-66"/>
      <use x="850.488281" xlink:href="#LiberationSans-75"/>
      <use x="906.103516" xlink:href="#LiberationSans-6e"/>
      <use x="961.71875" xlink:href="#LiberationSans-63"/>
      <use x="1011.71875" xlink:href="#LiberationSans-74"/>
      <use x="1039.501953" xlink:href="#LiberationSans-69"/>
      <use x="1061.71875" xlink:href="#LiberationSans-6f"/>
      <use x="1117.333984" xlink:href="#LiberationSans-6e"/>
      <use x="1172.949219" xlink:href="#LiberationSans-20"/>
      <use x="1200.732422" xlink:href="#LiberationSans-76"/>
      <use x="1250.732422" xlink:href="#LiberationSans-61"/>
      <use x="1306.347656" xlink:href="#LiberationSans-6c"/>
      <use x="1328.564453" xlink:href="#LiberationSans-75"/>
      <use x="1384.179688" xlink:href="#LiberationSans-65"/>
     </g>
    </g>
   </g>
   <g id="LineCollection_1">
    <path clip-path="url(#peb2f09dfcc)" d="M 83.50612 327.18 
L 83.50612 28.2 
" style="fill:none;stroke:#000000;stroke-dasharray:1.5,2.475;stroke-dashoffset:0;stroke-opacity:0.9;stroke-width:1.5;"/>
   </g>
   <g id="line2d_15">
    <path clip-path="url(#peb2f09dfcc)" d="M 59.327732 28.2 
L 59.8113 222.177678 
L 60.294867 235.261124 
L 60.778435 241.11631 
L 61.262003 249.055139 
L 61.745571 250.194483 
L 62.229138 251.645348 
L 62.712706 249.185754 
L 63.196274 255.571727 
L 63.679842 257.384839 
L 64.163409 256.661104 
L 64.646977 258.836934 
L 65.130545 257.074467 
L 65.614113 262.620482 
L 66.09768 261.995192 
L 66.581248 261.626282 
L 67.064816 262.170771 
L 67.548384 260.492272 
L 68.031951 265.458671 
L 68.515519 267.755862 
L 68.999087 266.182248 
L 69.482655 266.742286 
L 69.966223 268.817587 
L 70.44979 267.780726 
L 70.933358 270.576424 
L 71.416926 271.562315 
L 71.900494 270.351245 
L 72.867629 272.927512 
L 73.351197 272.83278 
L 73.834765 271.535961 
L 74.318332 273.698236 
L 75.285468 275.746152 
L 75.769036 272.963964 
L 76.252603 273.698286 
L 76.736171 275.31427 
L 77.703307 277.067821 
L 78.186875 277.172383 
L 79.15401 277.836008 
L 79.637578 279.963476 
L 80.121146 279.624387 
L 80.604713 278.843167 
L 81.088281 277.807847 
L 82.055417 281.051402 
L 82.538984 281.854578 
L 83.022552 278.919626 
L 83.50612 280.645095 
L 83.989688 281.454053 
L 84.473255 281.81759 
L 84.956823 280.44 
L 85.440391 280.177443 
L 86.407526 282.609492 
L 86.891094 281.868329 
L 87.374662 282.283075 
L 87.85823 284.263236 
L 88.341798 283.172669 
L 88.825365 284.649197 
L 89.308933 281.601645 
L 89.792501 283.683919 
L 90.276069 283.318491 
L 90.759636 282.125341 
L 92.21034 285.731832 
L 92.693907 284.36385 
L 93.177475 285.403871 
L 93.661043 282.369666 
L 94.144611 284.863413 
L 94.628178 284.171964 
L 95.111746 286.182815 
L 95.595314 285.878762 
L 96.078882 286.3672 
L 96.562449 286.04786 
L 97.046017 288.001455 
L 97.529585 286.436012 
L 98.013153 288.121725 
L 98.496721 285.670833 
L 98.980288 288.67057 
L 99.463856 286.599456 
L 99.947424 288.576456 
L 100.914559 284.612848 
L 101.398127 287.285005 
L 101.881695 288.293429 
L 102.365263 288.620444 
L 102.84883 287.65718 
L 103.332398 288.828325 
L 103.815966 288.634694 
L 104.299534 289.298488 
L 104.783101 287.3609 
L 105.266669 287.558457 
L 105.750237 288.592191 
L 106.233805 286.563015 
L 106.717372 287.816102 
L 107.20094 287.614213 
L 107.684508 286.738101 
L 108.168076 288.159215 
L 108.651644 290.627599 
L 109.135211 290.06281 
L 109.618779 288.435741 
L 110.102347 289.679735 
L 110.585915 290.029293 
L 111.55305 288.731652 
L 112.036618 288.331103 
L 112.520186 286.656925 
L 113.003753 289.618066 
L 113.487321 289.587072 
L 113.970889 290.109226 
L 114.454457 288.787697 
L 114.938024 290.256171 
L 115.90516 288.545477 
L 116.388728 290.129291 
L 116.872295 288.731866 
L 117.355863 289.452403 
L 118.322999 289.665201 
L 118.806567 290.481506 
L 119.290134 290.584036 
L 119.773702 288.599125 
L 120.25727 289.905846 
L 120.740838 289.988667 
L 121.224405 291.528367 
L 122.191541 290.164523 
L 122.675109 291.338005 
L 123.158676 290.105054 
L 123.642244 290.63392 
L 124.125812 292.02265 
L 124.60938 290.720384 
L 125.092947 288.552229 
L 125.576515 291.008892 
L 126.060083 289.608361 
L 126.543651 290.628583 
L 127.510786 289.262478 
L 127.994354 292.725736 
L 128.477922 292.805332 
L 128.96149 289.719851 
L 129.445057 291.489368 
L 129.928625 290.766877 
L 130.412193 291.463325 
L 130.895761 291.658182 
L 131.379328 292.014864 
L 131.862896 289.786357 
L 132.346464 292.687123 
L 132.830032 293.253275 
L 133.313599 292.44787 
L 133.797167 293.128654 
L 134.280735 292.24583 
L 134.764303 293.171173 
L 135.24787 291.330663 
L 135.731438 292.34681 
L 136.215006 291.481482 
L 136.698574 293.527455 
L 137.182141 293.411237 
L 137.665709 293.425024 
L 138.149277 293.84419 
L 138.632845 292.255293 
L 139.116413 292.397356 
L 139.59998 292.177918 
L 140.083548 293.482845 
L 140.567116 293.152114 
L 141.050684 293.079918 
L 141.534251 291.885178 
L 142.017819 291.814015 
L 142.501387 292.023252 
L 142.984955 292.678095 
L 143.468522 293.735639 
L 143.95209 291.850921 
L 144.435658 293.028573 
L 144.919226 292.900863 
L 145.402793 294.229602 
L 145.886361 292.985246 
L 146.369929 292.858869 
L 147.337064 293.415952 
L 147.820632 293.601017 
L 148.3042 291.570484 
L 148.787768 294.037733 
L 149.271336 293.707826 
L 149.754903 293.065574 
L 150.238471 294.210901 
L 150.722039 294.125662 
L 151.205607 292.917691 
L 151.689174 292.319996 
L 152.172742 292.364596 
L 152.65631 295.669447 
L 153.139878 292.607793 
L 153.623445 293.862243 
L 154.590581 294.310868 
L 155.074149 293.950114 
L 155.557716 294.704472 
L 156.041284 293.575761 
L 156.524852 295.016703 
L 157.00842 294.441083 
L 157.491987 295.449284 
L 157.975555 293.606723 
L 158.459123 293.482451 
L 158.942691 293.585383 
L 159.426259 294.231353 
L 159.909826 293.565993 
L 160.393394 294.224839 
L 160.876962 294.584475 
L 161.36053 295.209792 
L 161.844097 293.564149 
L 162.327665 296.575039 
L 162.811233 295.226205 
L 163.294801 292.161642 
L 163.778368 293.864867 
L 164.261936 295.160351 
L 164.745504 295.133681 
L 165.229072 294.813473 
L 165.712639 295.11943 
L 166.196207 294.175278 
L 166.679775 294.200876 
L 167.163343 294.586309 
L 167.64691 295.430421 
L 168.130478 294.666057 
L 168.614046 295.578704 
L 169.581182 294.428561 
L 170.064749 293.338136 
L 170.548317 293.256498 
L 171.031885 294.927817 
L 171.515453 293.463535 
L 171.99902 295.087646 
L 172.482588 296.283938 
L 172.966156 296.511863 
L 173.449724 296.078248 
L 173.933291 295.336844 
L 174.416859 295.876162 
L 174.900427 294.605983 
L 175.383995 296.335877 
L 175.867562 295.140809 
L 176.35113 296.220532 
L 176.834698 295.382273 
L 177.318266 296.030862 
L 178.285401 293.500078 
L 178.768969 293.828836 
L 179.252537 295.823936 
L 179.736105 297.209912 
L 180.219672 294.969683 
L 180.70324 295.066294 
L 181.186808 296.559678 
L 181.670376 295.900775 
L 182.153943 294.430102 
L 182.637511 295.958566 
L 183.121079 296.546504 
L 183.604647 294.882663 
L 184.088214 294.044617 
L 184.571782 296.904155 
L 185.05535 296.089979 
L 185.538918 296.766621 
L 186.022485 296.258756 
L 186.506053 294.52451 
L 186.989621 295.547939 
L 187.473189 293.772806 
L 188.440324 297.105818 
L 188.923892 297.567016 
L 189.40746 296.636818 
L 189.891028 296.431813 
L 190.374595 296.013549 
L 190.858163 294.974095 
L 191.341731 296.558626 
L 191.825299 297.372369 
L 192.308866 296.646434 
L 192.792434 297.440832 
L 193.276002 296.100654 
L 193.75957 295.638038 
L 194.243137 296.641029 
L 194.726705 296.881973 
L 195.210273 296.877876 
L 195.693841 297.323163 
L 196.177408 296.805451 
L 196.660976 296.632371 
L 197.144544 297.050571 
L 197.628112 295.232772 
L 198.11168 295.963784 
L 198.595247 297.641077 
L 199.078815 297.081007 
L 199.562383 297.364408 
L 200.045951 298.033481 
L 200.529518 297.281786 
L 201.013086 298.69786 
L 201.496654 297.67404 
L 201.980222 295.956444 
L 202.463789 297.456415 
L 202.947357 297.597496 
L 203.430925 295.099759 
L 203.914493 297.849166 
L 204.39806 295.525223 
L 205.365196 297.0523 
L 205.848764 297.026797 
L 206.815899 297.215206 
L 207.299467 296.297948 
L 207.783035 297.999056 
L 208.266603 298.425826 
L 208.75017 296.543336 
L 209.233738 295.862943 
L 209.717306 297.218064 
L 210.200874 297.009612 
L 210.684441 297.981097 
L 211.168009 298.226845 
L 211.651577 297.278678 
L 212.135145 298.672891 
L 212.618712 298.103641 
L 213.10228 296.65639 
L 213.585848 297.853258 
L 214.069416 297.7673 
L 214.552983 295.339243 
L 215.036551 297.591748 
L 215.520119 296.867186 
L 216.003687 299.293001 
L 216.487254 298.000144 
L 216.970822 298.370357 
L 217.45439 298.102225 
L 217.937958 298.110288 
L 218.421526 297.31785 
L 218.905093 296.987684 
L 219.388661 298.388482 
L 220.355797 293.989848 
L 220.839364 297.376352 
L 221.322932 297.403569 
L 221.8065 298.450514 
L 222.290068 297.723728 
L 222.773635 298.665629 
L 223.257203 297.885871 
L 223.740771 298.829162 
L 224.224339 296.415504 
L 224.707906 297.938558 
L 225.191474 297.780063 
L 225.675042 298.671972 
L 226.15861 298.608927 
L 226.642177 298.663999 
L 227.609313 296.660969 
L 228.092881 298.101856 
L 228.576449 295.646655 
L 229.060016 298.117422 
L 229.543584 298.446486 
L 230.027152 297.980655 
L 230.51072 297.764688 
L 230.994287 298.083646 
L 231.477855 297.527496 
L 231.961423 297.477967 
L 232.444991 297.913507 
L 232.928558 298.930887 
L 233.412126 298.862105 
L 233.895694 295.56655 
L 234.379262 297.669741 
L 234.862829 297.458183 
L 235.346397 298.638891 
L 235.829965 298.795247 
L 236.313533 298.357022 
L 236.7971 296.80556 
L 237.280668 298.218501 
L 237.764236 299.108012 
L 238.247804 298.150746 
L 238.731372 297.888755 
L 239.214939 297.263339 
L 241.14921 298.806031 
L 241.632778 298.179284 
L 242.116346 297.764379 
L 242.599914 298.859115 
L 243.083481 299.456827 
L 243.567049 299.200684 
L 244.050617 298.402782 
L 244.534185 296.949134 
L 245.017752 297.179668 
L 245.984888 298.813522 
L 246.468456 296.936002 
L 246.952023 298.752524 
L 247.435591 297.736052 
L 247.919159 298.826083 
L 248.402727 299.047479 
L 249.369862 298.033646 
L 249.85343 297.721185 
L 250.336998 296.528443 
L 250.820566 296.396008 
L 251.304133 298.201087 
L 251.787701 298.890146 
L 252.271269 299.117091 
L 253.238404 298.567393 
L 253.721972 296.826409 
L 254.20554 296.24906 
L 255.172675 299.766001 
L 255.656243 299.273046 
L 256.139811 297.744079 
L 256.623379 298.792478 
L 257.106946 298.220994 
L 257.590514 297.201299 
L 258.074082 297.791679 
L 258.55765 297.012034 
L 259.041218 298.955944 
L 259.524785 298.627692 
L 260.008353 297.32546 
L 260.491921 298.244434 
L 260.975489 298.310473 
L 261.942624 298.793304 
L 262.426192 298.166214 
L 262.90976 299.353302 
L 263.393327 299.098293 
L 263.876895 298.043309 
L 264.360463 298.292812 
L 264.844031 297.890805 
L 265.327598 298.462404 
L 265.811166 299.47614 
L 266.294734 297.660107 
L 266.778302 297.98798 
L 267.26187 298.460522 
L 267.745437 297.738637 
L 268.229005 296.696897 
L 268.712573 298.28186 
L 269.196141 299.092159 
L 269.679708 299.330543 
L 270.646844 297.321603 
L 271.130412 299.492108 
L 271.613979 298.969964 
L 272.097547 298.768284 
L 272.581115 296.357078 
L 273.54825 298.410341 
L 274.031818 299.335035 
L 274.515386 298.83591 
L 274.998954 297.608516 
L 275.482521 297.352943 
L 275.966089 298.8857 
L 276.449657 296.592323 
L 276.933225 298.057581 
L 277.416793 299.095888 
L 278.383928 299.758932 
L 278.867496 298.647872 
L 279.351064 299.556962 
L 279.834631 299.129891 
L 280.318199 298.875497 
L 280.801767 297.996527 
L 281.768902 298.921492 
L 282.25247 299.636854 
L 282.736038 300 
L 283.219606 297.617084 
L 283.703173 298.25017 
L 284.186741 298.679135 
L 284.670309 298.173083 
L 285.153877 299.46161 
L 285.637444 299.059117 
L 286.121012 299.406236 
L 286.60458 297.378154 
L 287.088148 298.428803 
L 287.571716 298.904224 
L 288.055283 298.601657 
L 288.538851 298.459781 
L 289.505987 298.412983 
L 289.989554 298.686771 
L 290.473122 297.625866 
L 291.440258 299.598198 
L 291.923825 299.13232 
L 292.407393 299.582138 
L 292.890961 299.465346 
L 293.858096 298.063781 
L 294.341664 299.643016 
L 294.825232 299.180881 
L 295.3088 299.090438 
L 295.792367 296.98221 
L 295.792367 296.98221 
" style="fill:none;stroke:#1f77b4;stroke-linecap:round;stroke-width:1.5;"/>
   </g>
   <g id="line2d_16">
    <path clip-path="url(#peb2f09dfcc)" d="M 59.327732 62.163613 
L 59.8113 91.12286 
L 60.294867 28.2 
L 60.778435 99.153268 
L 61.262003 74.884248 
L 61.745571 156.303795 
L 62.229138 169.637932 
L 62.712706 230.393596 
L 63.196274 270.842191 
L 63.679842 247.599427 
L 64.163409 273.88734 
L 64.646977 98.952999 
L 65.130545 248.593349 
L 65.614113 282.940746 
L 66.09768 282.554002 
L 66.581248 286.325762 
L 67.064816 242.159885 
L 67.548384 279.736637 
L 68.031951 286.8679 
L 68.515519 270.370461 
L 68.999087 286.818292 
L 69.482655 287.604273 
L 69.966223 273.62375 
L 70.933358 283.618845 
L 71.416926 278.128611 
L 71.900494 277.676061 
L 72.384061 275.074787 
L 72.867629 293.23535 
L 73.351197 291.271403 
L 73.834765 291.229427 
L 74.8019 286.521227 
L 75.285468 286.774672 
L 75.769036 289.043714 
L 76.252603 287.51085 
L 76.736171 289.738657 
L 77.219739 290.260596 
L 77.703307 285.563619 
L 78.186875 294.027322 
L 78.670442 294.404438 
L 79.15401 245.810818 
L 79.637578 294.311175 
L 80.121146 294.810571 
L 80.604713 261.694336 
L 81.088281 290.593796 
L 81.571849 291.246119 
L 82.055417 293.728843 
L 82.538984 292.025386 
L 83.022552 293.766527 
L 83.50612 292.844033 
L 83.989688 290.753124 
L 84.473255 291.939247 
L 84.956823 294.559062 
L 85.440391 295.203774 
L 85.923959 293.475857 
L 86.407526 296.706827 
L 86.891094 294.114168 
L 87.374662 294.126087 
L 87.85823 291.57143 
L 88.341798 295.486259 
L 88.825365 293.942144 
L 89.308933 292.020124 
L 89.792501 295.174479 
L 90.276069 285.066497 
L 91.243204 296.10296 
L 91.726772 294.519893 
L 92.21034 294.125821 
L 92.693907 294.145106 
L 93.177475 285.588166 
L 93.661043 288.656982 
L 94.144611 296.075852 
L 94.628178 298.512289 
L 95.111746 294.400386 
L 95.595314 295.39514 
L 96.078882 298.404312 
L 96.562449 291.387475 
L 97.046017 298.184184 
L 97.529585 296.277962 
L 98.013153 298.082433 
L 98.496721 298.357206 
L 98.980288 298.187697 
L 99.463856 290.773425 
L 99.947424 297.51323 
L 100.430992 289.503896 
L 100.914559 297.467778 
L 101.398127 297.691826 
L 101.881695 295.857392 
L 102.84883 298.072956 
L 103.332398 298.35078 
L 103.815966 298.21069 
L 104.299534 296.35581 
L 104.783101 297.740573 
L 105.266669 293.054439 
L 105.750237 296.874421 
L 106.233805 289.061585 
L 106.717372 296.091042 
L 107.20094 299.356144 
L 107.684508 297.828444 
L 108.168076 298.78727 
L 109.135211 297.740607 
L 109.618779 298.291556 
L 110.102347 296.220427 
L 110.585915 297.448973 
L 111.069482 297.084554 
L 111.55305 294.979219 
L 112.036618 290.270101 
L 112.520186 297.624386 
L 113.487321 298.841636 
L 113.970889 298.517723 
L 114.454457 299.063691 
L 114.938024 298.658927 
L 115.421592 299.436029 
L 115.90516 299.259717 
L 116.388728 299.57172 
L 116.872295 296.126592 
L 117.355863 299.510052 
L 117.839431 299.580119 
L 118.322999 298.98264 
L 118.806567 299.31942 
L 119.290134 299.374319 
L 119.773702 295.375253 
L 120.25727 299.607838 
L 120.740838 299.133941 
L 121.224405 299.612422 
L 121.707973 298.805694 
L 122.191541 299.78181 
L 122.675109 298.498527 
L 123.158676 298.862538 
L 123.642244 295.055037 
L 124.125812 299.394421 
L 125.092947 297.011022 
L 125.576515 298.717045 
L 126.060083 298.890213 
L 126.543651 298.426785 
L 127.027218 299.170845 
L 127.510786 296.611918 
L 127.994354 299.459288 
L 128.477922 299.01014 
L 128.96149 299.143716 
L 129.445057 299.753442 
L 129.928625 299.600106 
L 130.412193 298.378988 
L 130.895761 299.650287 
L 131.379328 299.547874 
L 131.862896 299.594732 
L 132.346464 299.930326 
L 132.830032 299.999951 
L 133.313599 299.782796 
L 133.797167 299.984061 
L 134.280735 299.308595 
L 134.764303 299.855147 
L 135.24787 298.083693 
L 135.731438 299.657099 
L 136.215006 299.312169 
L 136.698574 298.680405 
L 137.182141 298.851989 
L 137.665709 298.346837 
L 138.149277 298.659539 
L 138.632845 298.484737 
L 139.116413 298.627602 
L 139.59998 299.059446 
L 140.083548 299.183382 
L 141.050684 298.230551 
L 141.534251 298.490168 
L 142.017819 299.324588 
L 142.501387 298.703249 
L 142.984955 298.516288 
L 143.468522 298.480076 
L 143.95209 297.317318 
L 144.435658 299.523958 
L 144.919226 298.387135 
L 145.402793 299.452082 
L 145.886361 299.051018 
L 146.369929 299.334214 
L 146.853497 298.603704 
L 147.337064 297.332568 
L 147.820632 297.223522 
L 148.3042 298.412647 
L 148.787768 298.937225 
L 149.271336 297.790933 
L 149.754903 298.856816 
L 150.238471 298.843785 
L 150.722039 299.284277 
L 151.689174 298.26632 
L 152.172742 298.954401 
L 152.65631 297.973365 
L 153.139878 299.434166 
L 153.623445 299.972637 
L 154.107013 299.79204 
L 154.590581 298.187781 
L 155.074149 299.330562 
L 155.557716 299.537043 
L 156.041284 299.470428 
L 156.524852 299.852307 
L 157.491987 299.418141 
L 157.975555 293.364851 
L 158.459123 296.91086 
L 158.942691 299.198537 
L 159.426259 298.999896 
L 159.909826 299.418066 
L 160.393394 299.339871 
L 160.876962 298.221147 
L 161.36053 299.242191 
L 161.844097 298.911797 
L 162.327665 298.797975 
L 162.811233 299.332195 
L 163.294801 298.80521 
L 163.778368 298.918464 
L 164.261936 299.379285 
L 164.745504 298.629695 
L 165.229072 296.891051 
L 165.712639 299.36736 
L 166.196207 299.388898 
L 167.163343 298.537799 
L 167.64691 299.726768 
L 168.130478 299.007784 
L 168.614046 299.858856 
L 169.097614 298.775421 
L 169.581182 298.70091 
L 170.064749 299.320235 
L 170.548317 299.01849 
L 171.031885 299.846284 
L 171.515453 299.228143 
L 171.99902 298.888128 
L 172.482588 299.076936 
L 172.966156 299.625023 
L 174.416859 299.984401 
L 175.383995 298.603222 
L 175.867562 299.632643 
L 176.35113 299.426805 
L 176.834698 299.512001 
L 177.318266 299.23878 
L 177.801834 299.563647 
L 178.285401 299.717783 
L 178.768969 299.277466 
L 179.252537 299.884 
L 179.736105 299.85036 
L 180.219672 299.537075 
L 180.70324 299.372109 
L 181.186808 298.846447 
L 181.670376 299.554694 
L 182.153943 298.010926 
L 182.637511 298.841202 
L 183.121079 299.925264 
L 183.604647 298.422775 
L 184.088214 299.16788 
L 184.571782 298.827679 
L 185.538918 299.655211 
L 186.022485 298.907158 
L 186.506053 299.820124 
L 186.989621 298.867231 
L 187.473189 299.225062 
L 187.956757 299.937535 
L 188.440324 299.616543 
L 188.923892 299.532276 
L 189.40746 299.924398 
L 189.891028 299.480348 
L 190.374595 299.771869 
L 191.341731 299.999984 
L 191.825299 299.878872 
L 192.308866 299.881729 
L 192.792434 299.394392 
L 193.276002 299.350547 
L 194.243137 299.997847 
L 194.726705 299.28549 
L 195.210273 299.417031 
L 195.693841 299.705194 
L 196.177408 299.506612 
L 196.660976 299.735792 
L 197.144544 299.135921 
L 197.628112 299.685912 
L 198.11168 299.987637 
L 198.595247 299.883334 
L 199.078815 298.991612 
L 199.562383 299.762326 
L 200.045951 299.990843 
L 200.529518 299.845595 
L 201.013086 299.843957 
L 201.496654 298.249752 
L 201.980222 298.042358 
L 202.463789 299.0832 
L 202.947357 299.542181 
L 203.430925 299.139986 
L 203.914493 299.804579 
L 204.39806 299.169459 
L 204.881628 299.34595 
L 205.365196 299.690068 
L 205.848764 290.052434 
L 206.332331 299.172937 
L 206.815899 299.920391 
L 207.299467 299.675118 
L 207.783035 299.610439 
L 208.266603 298.973891 
L 208.75017 299.908787 
L 209.233738 299.445366 
L 209.717306 298.797273 
L 210.200874 298.911644 
L 210.684441 299.17825 
L 211.168009 299.216833 
L 212.135145 297.748538 
L 212.618712 298.224749 
L 213.10228 299.761111 
L 213.585848 299.810998 
L 214.069416 299.997999 
L 214.552983 299.686342 
L 215.036551 299.854627 
L 215.520119 298.833943 
L 216.003687 299.850613 
L 216.487254 299.306873 
L 216.970822 299.756648 
L 217.937958 298.527153 
L 218.421526 295.320465 
L 218.905093 299.796397 
L 219.388661 299.564315 
L 219.872229 299.789733 
L 220.355797 298.845591 
L 220.839364 298.913555 
L 221.322932 299.458417 
L 221.8065 298.310437 
L 222.290068 299.597363 
L 222.773635 297.091379 
L 223.257203 299.662961 
L 223.740771 299.949573 
L 224.224339 299.903443 
L 224.707906 299.556206 
L 225.191474 299.999991 
L 226.15861 299.999708 
L 226.642177 286.357951 
L 227.125745 299.911663 
L 227.609313 299.999907 
L 228.092881 299.139973 
L 228.576449 297.123951 
L 229.060016 299.753144 
L 229.543584 299.999947 
L 231.477855 299.999905 
L 231.961423 299.67094 
L 232.444991 299.634553 
L 232.928558 299.771179 
L 233.412126 299.608561 
L 233.895694 298.991704 
L 234.379262 297.556103 
L 234.862829 299.933351 
L 235.829965 298.937945 
L 236.313533 299.293188 
L 236.7971 299.832138 
L 237.280668 299.58833 
L 237.764236 299.699121 
L 238.247804 298.577295 
L 238.731372 299.995985 
L 239.214939 299.753919 
L 239.698507 299.688689 
L 240.182075 296.134605 
L 240.665643 299.855586 
L 241.14921 299.995114 
L 242.599914 299.999664 
L 243.083481 299.778595 
L 243.567049 287.76153 
L 244.050617 299.999968 
L 244.534185 299.59521 
L 245.017752 299.802111 
L 245.50132 299.825783 
L 245.984888 299.410454 
L 246.468456 298.757281 
L 246.952023 299.785206 
L 247.435591 299.847358 
L 247.919159 299.640226 
L 248.402727 299.890202 
L 248.886295 299.946592 
L 249.369862 299.529271 
L 250.336998 299.473059 
L 250.820566 297.875719 
L 251.304133 299.867899 
L 251.787701 299.742316 
L 252.754837 299.861044 
L 253.238404 299.537052 
L 253.721972 299.97599 
L 254.689108 299.722076 
L 255.172675 299.996361 
L 255.656243 299.666737 
L 256.139811 298.463283 
L 256.623379 299.999027 
L 257.106946 299.955023 
L 257.590514 297.538457 
L 258.074082 299.996804 
L 258.55765 299.757468 
L 259.041218 299.962256 
L 259.524785 299.696062 
L 260.008353 299.996396 
L 261.942624 299.943027 
L 262.426192 299.673622 
L 262.90976 299.999649 
L 263.393327 299.999244 
L 263.876895 291.895553 
L 264.360463 299.999954 
L 264.844031 299.999646 
L 265.327598 299.883481 
L 265.811166 299.968878 
L 266.294734 299.33326 
L 266.778302 299.870933 
L 267.745437 299.999658 
L 269.679708 299.893844 
L 270.163276 299.68536 
L 270.646844 298.875373 
L 271.130412 299.7196 
L 271.613979 299.999996 
L 273.064683 299.845036 
L 273.54825 299.999952 
L 274.998954 300 
L 275.482521 299.711564 
L 275.966089 299.992522 
L 276.449657 299.999418 
L 276.933225 299.845275 
L 277.416793 299.999952 
L 278.867496 299.998696 
L 279.351064 298.198192 
L 279.834631 299.892602 
L 280.318199 299.999829 
L 280.801767 299.711259 
L 281.285335 299.999972 
L 282.736038 300 
L 283.219606 297.486265 
L 283.703173 299.899661 
L 284.670309 299.999999 
L 285.153877 300 
L 285.637444 299.594569 
L 286.121012 299.953136 
L 286.60458 299.793656 
L 287.571716 299.942814 
L 288.055283 299.506573 
L 288.538851 299.943215 
L 289.022419 299.99998 
L 289.505987 299.631731 
L 289.989554 299.999949 
L 290.473122 299.927525 
L 290.95669 299.999981 
L 291.923825 299.812038 
L 292.407393 299.999876 
L 295.792367 299.996858 
L 295.792367 299.996858 
" style="fill:none;stroke:#ff7f0e;stroke-linecap:round;stroke-width:1.5;"/>
   </g>
   <g id="patch_3">
    <path d="M 59.279375 300 
L 59.279375 28.2 
" style="fill:none;stroke:#262626;stroke-linecap:square;stroke-linejoin:miter;stroke-width:1.25;"/>
   </g>
   <g id="patch_4">
    <path d="M 784.679375 300 
L 784.679375 28.2 
" style="fill:none;stroke:#262626;stroke-linecap:square;stroke-linejoin:miter;stroke-width:1.25;"/>
   </g>
   <g id="patch_5">
    <path d="M 59.279375 300 
L 784.679375 300 
" style="fill:none;stroke:#262626;stroke-linecap:square;stroke-linejoin:miter;stroke-width:1.25;"/>
   </g>
   <g id="patch_6">
    <path d="M 59.279375 28.2 
L 784.679375 28.2 
" style="fill:none;stroke:#262626;stroke-linecap:square;stroke-linejoin:miter;stroke-width:1.25;"/>
   </g>
   <g id="text_17">
    <!-- Training with 2D Gaussian signals and $\epsilon_w=0.025$ -->
    <g style="fill:#262626;" transform="translate(196.179375 22.2)scale(0.2 -0.2)">
     <defs>
      <path d="M 2250 3916 
L 2250 0 
L 1656 0 
L 1656 3916 
L 144 3916 
L 144 4403 
L 3763 4403 
L 3763 3916 
L 2250 3916 
z
" id="LiberationSans-54" transform="scale(0.015625)"/>
      <path d="M 1713 -1328 
Q 1422 -1328 1197 -1268 
Q 972 -1209 812 -1098 
Q 653 -988 553 -834 
Q 453 -681 409 -494 
L 975 -413 
Q 1031 -647 1223 -773 
Q 1416 -900 1728 -900 
Q 1919 -900 2075 -847 
Q 2231 -794 2340 -676 
Q 2450 -559 2509 -371 
Q 2569 -184 2569 84 
L 2569 628 
L 2563 628 
Q 2500 500 2408 383 
Q 2316 266 2183 175 
Q 2050 84 1875 29 
Q 1700 -25 1475 -25 
Q 1153 -25 923 83 
Q 694 191 548 406 
Q 403 622 336 942 
Q 269 1263 269 1684 
Q 269 2091 336 2416 
Q 403 2741 554 2967 
Q 706 3194 948 3314 
Q 1191 3434 1538 3434 
Q 1897 3434 2161 3270 
Q 2425 3106 2569 2803 
L 2575 2803 
Q 2575 2881 2579 2978 
Q 2584 3075 2589 3161 
Q 2594 3247 2600 3309 
Q 2606 3372 2613 3381 
L 3147 3381 
Q 3144 3353 3141 3286 
Q 3138 3219 3134 3125 
Q 3131 3031 3129 2917 
Q 3128 2803 3128 2681 
L 3128 97 
Q 3128 -613 2779 -970 
Q 2431 -1328 1713 -1328 
z
M 2569 1691 
Q 2569 2044 2492 2295 
Q 2416 2547 2291 2706 
Q 2166 2866 2005 2941 
Q 1844 3016 1675 3016 
Q 1459 3016 1304 2941 
Q 1150 2866 1048 2705 
Q 947 2544 898 2292 
Q 850 2041 850 1691 
Q 850 1325 898 1076 
Q 947 828 1047 675 
Q 1147 522 1300 456 
Q 1453 391 1666 391 
Q 1834 391 1995 462 
Q 2156 534 2284 690 
Q 2413 847 2491 1094 
Q 2569 1341 2569 1691 
z
" id="LiberationSans-67" transform="scale(0.015625)"/>
      <path d="M 3669 0 
L 3016 0 
L 2475 2181 
Q 2450 2266 2423 2391 
Q 2397 2516 2372 2634 
Q 2341 2772 2313 2919 
Q 2284 2778 2253 2641 
Q 2228 2522 2198 2394 
Q 2169 2266 2144 2169 
L 1588 0 
L 938 0 
L -9 3381 
L 547 3381 
L 1119 1084 
Q 1141 1013 1162 908 
Q 1184 803 1206 703 
Q 1228 588 1253 466 
Q 1278 584 1306 697 
Q 1331 794 1356 894 
Q 1381 994 1400 1059 
L 2013 3381 
L 2616 3381 
L 3206 1059 
Q 3228 978 3253 875 
Q 3278 772 3300 681 
Q 3325 575 3350 466 
Q 3375 584 3400 697 
Q 3422 794 3445 898 
Q 3469 1003 3491 1084 
L 4088 3381 
L 4638 3381 
L 3669 0 
z
" id="LiberationSans-77" transform="scale(0.015625)"/>
      <path d="M 4316 2247 
Q 4316 1697 4150 1276 
Q 3984 856 3696 573 
Q 3409 291 3017 145 
Q 2625 0 2172 0 
L 525 0 
L 525 4403 
L 1981 4403 
Q 2491 4403 2920 4276 
Q 3350 4150 3659 3886 
Q 3969 3622 4142 3215 
Q 4316 2809 4316 2247 
z
M 3716 2247 
Q 3716 2694 3587 3011 
Q 3459 3328 3228 3531 
Q 2997 3734 2675 3829 
Q 2353 3925 1969 3925 
L 1122 3925 
L 1122 478 
L 2103 478 
Q 2450 478 2745 590 
Q 3041 703 3256 925 
Q 3472 1147 3594 1478 
Q 3716 1809 3716 2247 
z
" id="LiberationSans-44" transform="scale(0.015625)"/>
      <path d="M 322 2222 
Q 322 2738 461 3153 
Q 600 3569 876 3861 
Q 1153 4153 1562 4311 
Q 1972 4469 2513 4469 
Q 2919 4469 3225 4397 
Q 3531 4325 3756 4190 
Q 3981 4056 4137 3864 
Q 4294 3672 4403 3431 
L 3834 3263 
Q 3753 3425 3639 3558 
Q 3525 3691 3362 3784 
Q 3200 3878 2986 3929 
Q 2772 3981 2497 3981 
Q 2097 3981 1801 3856 
Q 1506 3731 1312 3500 
Q 1119 3269 1023 2944 
Q 928 2619 928 2222 
Q 928 1825 1031 1495 
Q 1134 1166 1337 927 
Q 1541 688 1842 555 
Q 2144 422 2541 422 
Q 2800 422 3019 465 
Q 3238 509 3414 579 
Q 3591 650 3725 736 
Q 3859 822 3950 909 
L 3950 1703 
L 2634 1703 
L 2634 2203 
L 4500 2203 
L 4500 684 
Q 4353 534 4154 398 
Q 3956 263 3709 159 
Q 3463 56 3169 -3 
Q 2875 -63 2541 -63 
Q 1984 -63 1568 107 
Q 1153 278 876 583 
Q 600 888 461 1306 
Q 322 1725 322 2222 
z
" id="LiberationSans-47" transform="scale(0.015625)"/>
      <path d="M 1263 1888 
Q 925 1963 778 2166 
Q 669 2309 669 2503 
Q 669 3034 1175 3344 
Q 1575 3588 2188 3588 
Q 2425 3588 2684 3550 
Q 2944 3513 3234 3438 
L 3134 2916 
Q 2847 3006 2606 3047 
Q 2359 3088 2138 3088 
Q 1766 3088 1522 2944 
Q 1228 2772 1228 2522 
Q 1228 2356 1381 2241 
Q 1563 2103 1925 2103 
L 2409 2103 
L 2319 1628 
L 1856 1628 
Q 1425 1628 1172 1469 
Q 828 1253 828 916 
Q 828 703 1013 563 
Q 1244 388 1716 388 
Q 2006 388 2284 444 
Q 2563 503 2806 619 
L 2700 84 
Q 2403 -3 2131 -47 
Q 1859 -91 1609 -91 
Q 866 -91 516 194 
Q 250 413 250 781 
Q 250 1278 600 1584 
Q 859 1813 1263 1888 
z
" id="DejaVuSans-Oblique-3b5" transform="scale(0.015625)"/>
      <path d="M 544 3500 
L 1113 3500 
L 1259 684 
L 2566 3500 
L 3231 3500 
L 3425 684 
L 4666 3500 
L 5241 3500 
L 3641 0 
L 2969 0 
L 2797 2900 
L 1459 0 
L 781 0 
L 544 3500 
z
" id="DejaVuSans-Oblique-77" transform="scale(0.015625)"/>
      <path d="M 678 2906 
L 4684 2906 
L 4684 2381 
L 678 2381 
L 678 2906 
z
M 678 1631 
L 4684 1631 
L 4684 1100 
L 678 1100 
L 678 1631 
z
" id="DejaVuSans-3d" transform="scale(0.015625)"/>
      <path d="M 2034 4250 
Q 1547 4250 1301 3770 
Q 1056 3291 1056 2328 
Q 1056 1369 1301 889 
Q 1547 409 2034 409 
Q 2525 409 2770 889 
Q 3016 1369 3016 2328 
Q 3016 3291 2770 3770 
Q 2525 4250 2034 4250 
z
M 2034 4750 
Q 2819 4750 3233 4129 
Q 3647 3509 3647 2328 
Q 3647 1150 3233 529 
Q 2819 -91 2034 -91 
Q 1250 -91 836 529 
Q 422 1150 422 2328 
Q 422 3509 836 4129 
Q 1250 4750 2034 4750 
z
" id="DejaVuSans-30" transform="scale(0.015625)"/>
      <path d="M 684 794 
L 1344 794 
L 1344 0 
L 684 0 
L 684 794 
z
" id="DejaVuSans-2e" transform="scale(0.015625)"/>
      <path d="M 1228 531 
L 3431 531 
L 3431 0 
L 469 0 
L 469 531 
Q 828 903 1448 1529 
Q 2069 2156 2228 2338 
Q 2531 2678 2651 2914 
Q 2772 3150 2772 3378 
Q 2772 3750 2511 3984 
Q 2250 4219 1831 4219 
Q 1534 4219 1204 4116 
Q 875 4013 500 3803 
L 500 4441 
Q 881 4594 1212 4672 
Q 1544 4750 1819 4750 
Q 2544 4750 2975 4387 
Q 3406 4025 3406 3419 
Q 3406 3131 3298 2873 
Q 3191 2616 2906 2266 
Q 2828 2175 2409 1742 
Q 1991 1309 1228 531 
z
" id="DejaVuSans-32" transform="scale(0.015625)"/>
      <path d="M 691 4666 
L 3169 4666 
L 3169 4134 
L 1269 4134 
L 1269 2991 
Q 1406 3038 1543 3061 
Q 1681 3084 1819 3084 
Q 2600 3084 3056 2656 
Q 3513 2228 3513 1497 
Q 3513 744 3044 326 
Q 2575 -91 1722 -91 
Q 1428 -91 1123 -41 
Q 819 9 494 109 
L 494 744 
Q 775 591 1075 516 
Q 1375 441 1709 441 
Q 2250 441 2565 725 
Q 2881 1009 2881 1497 
Q 2881 1984 2565 2268 
Q 2250 2553 1709 2553 
Q 1456 2553 1204 2497 
Q 953 2441 691 2322 
L 691 4666 
z
" id="DejaVuSans-35" transform="scale(0.015625)"/>
     </defs>
     <use transform="translate(0 0.78125)" xlink:href="#LiberationSans-54"/>
     <use transform="translate(61.083984 0.78125)" xlink:href="#LiberationSans-72"/>
     <use transform="translate(94.384766 0.78125)" xlink:href="#LiberationSans-61"/>
     <use transform="translate(150 0.78125)" xlink:href="#LiberationSans-69"/>
     <use transform="translate(172.216797 0.78125)" xlink:href="#LiberationSans-6e"/>
     <use transform="translate(227.832031 0.78125)" xlink:href="#LiberationSans-69"/>
     <use transform="translate(250.048828 0.78125)" xlink:href="#LiberationSans-6e"/>
     <use transform="translate(305.664062 0.78125)" xlink:href="#LiberationSans-67"/>
     <use transform="translate(361.279297 0.78125)" xlink:href="#LiberationSans-20"/>
     <use transform="translate(389.0625 0.78125)" xlink:href="#LiberationSans-77"/>
     <use transform="translate(461.279297 0.78125)" xlink:href="#LiberationSans-69"/>
     <use transform="translate(483.496094 0.78125)" xlink:href="#LiberationSans-74"/>
     <use transform="translate(511.279297 0.78125)" xlink:href="#LiberationSans-68"/>
     <use transform="translate(566.894531 0.78125)" xlink:href="#LiberationSans-20"/>
     <use transform="translate(594.677734 0.78125)" xlink:href="#LiberationSans-32"/>
     <use transform="translate(650.292969 0.78125)" xlink:href="#LiberationSans-44"/>
     <use transform="translate(722.509766 0.78125)" xlink:href="#LiberationSans-20"/>
     <use transform="translate(750.292969 0.78125)" xlink:href="#LiberationSans-47"/>
     <use transform="translate(828.076172 0.78125)" xlink:href="#LiberationSans-61"/>
     <use transform="translate(883.691406 0.78125)" xlink:href="#LiberationSans-75"/>
     <use transform="translate(939.306641 0.78125)" xlink:href="#LiberationSans-73"/>
     <use transform="translate(989.306641 0.78125)" xlink:href="#LiberationSans-73"/>
     <use transform="translate(1039.306641 0.78125)" xlink:href="#LiberationSans-69"/>
     <use transform="translate(1061.523438 0.78125)" xlink:href="#LiberationSans-61"/>
     <use transform="translate(1117.138672 0.78125)" xlink:href="#LiberationSans-6e"/>
     <use transform="translate(1172.753906 0.78125)" xlink:href="#LiberationSans-20"/>
     <use transform="translate(1200.537109 0.78125)" xlink:href="#LiberationSans-73"/>
     <use transform="translate(1250.537109 0.78125)" xlink:href="#LiberationSans-69"/>
     <use transform="translate(1272.753906 0.78125)" xlink:href="#LiberationSans-67"/>
     <use transform="translate(1328.369141 0.78125)" xlink:href="#LiberationSans-6e"/>
     <use transform="translate(1383.984375 0.78125)" xlink:href="#LiberationSans-61"/>
     <use transform="translate(1439.599609 0.78125)" xlink:href="#LiberationSans-6c"/>
     <use transform="translate(1461.816406 0.78125)" xlink:href="#LiberationSans-73"/>
     <use transform="translate(1511.816406 0.78125)" xlink:href="#LiberationSans-20"/>
     <use transform="translate(1539.599609 0.78125)" xlink:href="#LiberationSans-61"/>
     <use transform="translate(1595.214844 0.78125)" xlink:href="#LiberationSans-6e"/>
     <use transform="translate(1650.830078 0.78125)" xlink:href="#LiberationSans-64"/>
     <use transform="translate(1706.445312 0.78125)" xlink:href="#LiberationSans-20"/>
     <use transform="translate(1734.228516 0.78125)" xlink:href="#DejaVuSans-Oblique-3b5"/>
     <use transform="translate(1788.28125 -15.625)scale(0.7)" xlink:href="#DejaVuSans-Oblique-77"/>
     <use transform="translate(1867.749023 0.78125)" xlink:href="#DejaVuSans-3d"/>
     <use transform="translate(1971.020508 0.78125)" xlink:href="#DejaVuSans-30"/>
     <use transform="translate(2034.643555 0.78125)" xlink:href="#DejaVuSans-2e"/>
     <use transform="translate(2066.430664 0.78125)" xlink:href="#DejaVuSans-30"/>
     <use transform="translate(2130.053711 0.78125)" xlink:href="#DejaVuSans-32"/>
     <use transform="translate(2193.676758 0.78125)" xlink:href="#DejaVuSans-35"/>
    </g>
   </g>
   <g id="legend_1">
    <g id="line2d_17">
     <path d="M 696.839375 51.144375 
L 732.839375 51.144375 
" style="fill:none;stroke:#1f77b4;stroke-linecap:round;stroke-width:1.5;"/>
    </g>
    <g id="line2d_18"/>
    <g id="text_18">
     <!-- $\mathcal{L}_1$ -->
     <g style="fill:#262626;" transform="translate(747.239375 57.444375)scale(0.18 -0.18)">
      <defs>
       <path d="M 4070 915 
L 4179 800 
Q 3347 -45 2413 -45 
Q 2157 -45 1850 26 
Q 1395 122 1146 122 
Q 1005 122 672 61 
Q 339 0 192 0 
L 230 154 
Q 582 154 730 749 
L 1178 2566 
Q 1286 3008 1516 3353 
Q 1747 3699 2025 3894 
Q 2304 4090 2585 4189 
Q 2867 4288 3123 4288 
Q 3443 4288 3593 4083 
Q 3744 3878 3744 3584 
Q 3744 3347 3593 3200 
Q 3443 3053 3226 3053 
Q 3085 3053 2995 3149 
Q 2906 3245 2906 3379 
Q 2906 3482 2957 3552 
Q 3008 3622 3065 3644 
Q 3123 3667 3174 3705 
Q 3226 3744 3226 3789 
Q 3226 4032 2854 4032 
Q 2522 4032 2310 3785 
Q 2099 3539 1990 3132 
Q 1882 2726 1795 2284 
Q 1709 1843 1549 1363 
Q 1389 883 1158 589 
L 1158 563 
Q 1363 704 1888 704 
Q 2227 704 2460 544 
Q 2694 384 2963 384 
Q 3507 384 4070 915 
z
" id="STIXNonUnicode-Italic-e238" transform="scale(0.015625)"/>
       <path d="M 794 531 
L 1825 531 
L 1825 4091 
L 703 3866 
L 703 4441 
L 1819 4666 
L 2450 4666 
L 2450 531 
L 3481 531 
L 3481 0 
L 794 0 
L 794 531 
z
" id="DejaVuSans-31" transform="scale(0.015625)"/>
      </defs>
      <use xlink:href="#STIXNonUnicode-Italic-e238"/>
      <use transform="translate(70.257019 -16.40625)scale(0.7)" xlink:href="#DejaVuSans-31"/>
     </g>
    </g>
    <g id="line2d_19">
     <path d="M 696.839375 76.92375 
L 732.839375 76.92375 
" style="fill:none;stroke:#ff7f0e;stroke-linecap:round;stroke-width:1.5;"/>
    </g>
    <g id="line2d_20"/>
    <g id="text_19">
     <!-- $\mathcal{L}_2$ -->
     <g style="fill:#262626;" transform="translate(747.239375 83.22375)scale(0.18 -0.18)">
      <use xlink:href="#STIXNonUnicode-Italic-e238"/>
      <use transform="translate(70.257019 -16.40625)scale(0.7)" xlink:href="#DejaVuSans-32"/>
     </g>
    </g>
   </g>
  </g>
 </g>
 <defs>
  <clipPath id="peb2f09dfcc">
   <rect height="271.8" width="725.4" x="59.279375" y="28.2"/>
  </clipPath>
 </defs>
</svg>
