<?xml version="1.0" encoding="utf-8" standalone="no"?>
<!DOCTYPE svg PUBLIC "-//W3C//DTD SVG 1.1//EN"
  "http://www.w3.org/Graphics/SVG/1.1/DTD/svg11.dtd">
<svg height="433.06775pt" version="1.1" viewBox="0 0 1097.480625 433.06775" width="1097.480625pt" xmlns="http://www.w3.org/2000/svg" xmlns:xlink="http://www.w3.org/1999/xlink">
 <metadata>
  <rdf:RDF xmlns:cc="http://creativecommons.org/ns#" xmlns:dc="http://purl.org/dc/elements/1.1/" xmlns:rdf="http://www.w3.org/1999/02/22-rdf-syntax-ns#">
   <cc:Work>
    <dc:type rdf:resource="http://purl.org/dc/dcmitype/StillImage"/>
    <dc:date>2022-09-08T19:47:34.084332</dc:date>
    <dc:format>image/svg+xml</dc:format>
    <dc:creator>
     <cc:Agent>
      <dc:title>Matplotlib v3.4.2, https://matplotlib.org/</dc:title>
     </cc:Agent>
    </dc:creator>
   </cc:Work>
  </rdf:RDF>
 </metadata>
 <defs>
  <style type="text/css">*{stroke-linecap:butt;stroke-linejoin:round;}</style>
 </defs>
 <g id="figure_1">
  <g id="patch_1">
   <path d="M 0 433.06775 
L 1097.480625 433.06775 
L 1097.480625 -0 
L 0 -0 
z
" style="fill:none;"/>
  </g>
  <g id="axes_1">
   <g id="patch_2">
    <path d="M 85.880625 372.284 
L 1090.280625 372.284 
L 1090.280625 46.124 
L 85.880625 46.124 
z
" style="fill:#ffffff;"/>
   </g>
   <g id="PolyCollection_1">
    <defs>
     <path d="M 186.965587 -156.685093 
L 185.675663 -156.685093 
L 185.540116 -157.909115 
L 185.381942 -159.133137 
L 185.198611 -160.357159 
L 184.987527 -161.581181 
L 184.746068 -162.805203 
L 184.471617 -164.029225 
L 184.161601 -165.253247 
L 183.813523 -166.477269 
L 183.424999 -167.701291 
L 182.993789 -168.925313 
L 182.517825 -170.149335 
L 181.995232 -171.373357 
L 181.42435 -172.597379 
L 180.803754 -173.821401 
L 180.132258 -175.045423 
L 179.408938 -176.269445 
L 178.633137 -177.493467 
L 177.804483 -178.717489 
L 176.922906 -179.941511 
L 175.988662 -181.165533 
L 175.002359 -182.389555 
L 173.964993 -183.613577 
L 172.877986 -184.837599 
L 171.743224 -186.061621 
L 170.563098 -187.285643 
L 169.340543 -188.509665 
L 168.079056 -189.733687 
L 166.782718 -190.957709 
L 165.456183 -192.181731 
L 164.104651 -193.405752 
L 162.733821 -194.629774 
L 161.349804 -195.853796 
L 159.95903 -197.077818 
L 158.568114 -198.30184 
L 157.183718 -199.525862 
L 155.812394 -200.749884 
L 154.460431 -201.973906 
L 153.133708 -203.197928 
L 151.837564 -204.42195 
L 150.5767 -205.645972 
L 149.355116 -206.869994 
L 148.176095 -208.094016 
L 147.042232 -209.318038 
L 145.95552 -210.54206 
L 144.917477 -211.766082 
L 143.92932 -212.990104 
L 142.992163 -214.214126 
L 142.107249 -215.438148 
L 141.276168 -216.66217 
L 140.501084 -217.886192 
L 139.784919 -219.110214 
L 139.131506 -220.334236 
L 138.545679 -221.558258 
L 138.033305 -222.78228 
L 137.601236 -224.006302 
L 137.257198 -225.230324 
L 137.009598 -226.454346 
L 136.867271 -227.678368 
L 136.839176 -228.90239 
L 136.934043 -230.126412 
L 137.160006 -231.350434 
L 137.524227 -232.574456 
L 138.032525 -233.798478 
L 138.689048 -235.0225 
L 139.495985 -236.246522 
L 140.453336 -237.470544 
L 141.558759 -238.694566 
L 142.807491 -239.918588 
L 144.192353 -241.14261 
L 145.703835 -242.366632 
L 147.330259 -243.590654 
L 149.058012 -244.814676 
L 150.871841 -246.038698 
L 152.755192 -247.26272 
L 154.690588 -248.486742 
L 156.660024 -249.710764 
L 158.645374 -250.934786 
L 160.628781 -252.158808 
L 162.593034 -253.38283 
L 164.521907 -254.606852 
L 166.40046 -255.830873 
L 168.215284 -257.054895 
L 169.954701 -258.278917 
L 171.608894 -259.502939 
L 173.169989 -260.726961 
L 174.632073 -261.950983 
L 175.991164 -263.175005 
L 177.245127 -264.399027 
L 178.393556 -265.623049 
L 179.437613 -266.847071 
L 180.379851 -268.071093 
L 181.22401 -269.295115 
L 181.97481 -270.519137 
L 182.63774 -271.743159 
L 183.218849 -272.967181 
L 183.724557 -274.191203 
L 184.161467 -275.415225 
L 184.536215 -276.639247 
L 184.855322 -277.863269 
L 187.785928 -277.863269 
L 187.785928 -277.863269 
L 188.105035 -276.639247 
L 188.479783 -275.415225 
L 188.916693 -274.191203 
L 189.422401 -272.967181 
L 190.00351 -271.743159 
L 190.66644 -270.519137 
L 191.41724 -269.295115 
L 192.261399 -268.071093 
L 193.203637 -266.847071 
L 194.247694 -265.623049 
L 195.396123 -264.399027 
L 196.650086 -263.175005 
L 198.009177 -261.950983 
L 199.471261 -260.726961 
L 201.032356 -259.502939 
L 202.686549 -258.278917 
L 204.425966 -257.054895 
L 206.24079 -255.830873 
L 208.119343 -254.606852 
L 210.048216 -253.38283 
L 212.012469 -252.158808 
L 213.995876 -250.934786 
L 215.981226 -249.710764 
L 217.950662 -248.486742 
L 219.886058 -247.26272 
L 221.769409 -246.038698 
L 223.583238 -244.814676 
L 225.310991 -243.590654 
L 226.937415 -242.366632 
L 228.448897 -241.14261 
L 229.833759 -239.918588 
L 231.082491 -238.694566 
L 232.187914 -237.470544 
L 233.145265 -236.246522 
L 233.952202 -235.0225 
L 234.608725 -233.798478 
L 235.117023 -232.574456 
L 235.481244 -231.350434 
L 235.707207 -230.126412 
L 235.802074 -228.90239 
L 235.773979 -227.678368 
L 235.631652 -226.454346 
L 235.384052 -225.230324 
L 235.040014 -224.006302 
L 234.607945 -222.78228 
L 234.095571 -221.558258 
L 233.509744 -220.334236 
L 232.856331 -219.110214 
L 232.140166 -217.886192 
L 231.365082 -216.66217 
L 230.534001 -215.438148 
L 229.649087 -214.214126 
L 228.71193 -212.990104 
L 227.723773 -211.766082 
L 226.68573 -210.54206 
L 225.599018 -209.318038 
L 224.465155 -208.094016 
L 223.286134 -206.869994 
L 222.06455 -205.645972 
L 220.803686 -204.42195 
L 219.507542 -203.197928 
L 218.180819 -201.973906 
L 216.828856 -200.749884 
L 215.457532 -199.525862 
L 214.073136 -198.30184 
L 212.68222 -197.077818 
L 211.291446 -195.853796 
L 209.907429 -194.629774 
L 208.536599 -193.405752 
L 207.185067 -192.181731 
L 205.858532 -190.957709 
L 204.562194 -189.733687 
L 203.300707 -188.509665 
L 202.078152 -187.285643 
L 200.898026 -186.061621 
L 199.763264 -184.837599 
L 198.676257 -183.613577 
L 197.638891 -182.389555 
L 196.652588 -181.165533 
L 195.718344 -179.941511 
L 194.836767 -178.717489 
L 194.008113 -177.493467 
L 193.232312 -176.269445 
L 192.508992 -175.045423 
L 191.837496 -173.821401 
L 191.2169 -172.597379 
L 190.646018 -171.373357 
L 190.123425 -170.149335 
L 189.647461 -168.925313 
L 189.216251 -167.701291 
L 188.827727 -166.477269 
L 188.479649 -165.253247 
L 188.169633 -164.029225 
L 187.895182 -162.805203 
L 187.653723 -161.581181 
L 187.442639 -160.357159 
L 187.259308 -159.133137 
L 187.101134 -157.909115 
L 186.965587 -156.685093 
z
" id="md0ab2c15a8" style="stroke:#313131;stroke-width:1.5;"/>
    </defs>
    <g clip-path="url(#pd164d3696c)">
     <use style="fill:#772b58;stroke:#313131;stroke-width:1.5;" x="0" xlink:href="#md0ab2c15a8" y="433.06775"/>
    </g>
   </g>
   <g id="PolyCollection_2">
    <defs>
     <path d="M 321.357719 -176.087519 
L 319.123531 -176.087519 
L 318.888315 -177.066071 
L 318.614382 -178.044623 
L 318.297594 -179.023174 
L 317.93374 -180.001726 
L 317.51858 -180.980278 
L 317.047882 -181.958829 
L 316.517461 -182.937381 
L 315.923212 -183.915933 
L 315.261122 -184.894484 
L 314.527298 -185.873036 
L 313.717962 -186.851588 
L 312.82947 -187.830139 
L 311.858305 -188.808691 
L 310.801097 -189.787243 
L 309.654641 -190.765794 
L 308.415936 -191.744346 
L 307.082247 -192.722898 
L 305.651196 -193.701449 
L 304.120879 -194.680001 
L 302.490021 -195.658553 
L 300.758152 -196.637104 
L 298.925816 -197.615656 
L 296.994789 -198.594208 
L 294.968309 -199.572759 
L 292.851288 -200.551311 
L 290.650511 -201.529863 
L 288.374785 -202.508414 
L 286.035041 -203.486966 
L 283.644362 -204.465518 
L 281.217939 -205.444069 
L 278.772933 -206.422621 
L 276.328257 -207.401173 
L 273.904275 -208.379724 
L 271.522425 -209.358276 
L 269.204784 -210.336828 
L 266.973585 -211.315379 
L 264.850723 -212.293931 
L 262.857252 -213.272483 
L 261.012904 -214.251034 
L 259.335663 -215.229586 
L 257.841386 -216.208138 
L 256.543503 -217.186689 
L 255.452807 -218.165241 
L 254.577326 -219.143793 
L 253.922277 -220.122344 
L 253.490112 -221.100896 
L 253.280625 -222.079448 
L 253.291122 -223.057999 
L 253.516635 -224.036551 
L 253.950167 -225.015103 
L 254.58295 -225.993654 
L 255.40471 -226.972206 
L 256.403927 -227.950758 
L 257.568083 -228.929309 
L 258.88389 -229.907861 
L 260.3375 -230.886413 
L 261.914705 -231.864964 
L 263.601111 -232.843516 
L 265.382304 -233.822068 
L 267.244 -234.800619 
L 269.172192 -235.779171 
L 271.153283 -236.757723 
L 273.174208 -237.736274 
L 275.222552 -238.714826 
L 277.286642 -239.693378 
L 279.355634 -240.671929 
L 281.419568 -241.650481 
L 283.469404 -242.629033 
L 285.497031 -243.607584 
L 287.495248 -244.586136 
L 289.45772 -245.564688 
L 291.378916 -246.543239 
L 293.254018 -247.521791 
L 295.078835 -248.500343 
L 296.849701 -249.478894 
L 298.563379 -250.457446 
L 300.216976 -251.435998 
L 301.807878 -252.414549 
L 303.333693 -253.393101 
L 304.792234 -254.371653 
L 306.18151 -255.350204 
L 307.499745 -256.328756 
L 308.745417 -257.307308 
L 309.917307 -258.285859 
L 311.014553 -259.264411 
L 312.036715 -260.242963 
L 312.983823 -261.221514 
L 313.85642 -262.200066 
L 314.655594 -263.178618 
L 315.382985 -264.157169 
L 316.040773 -265.135721 
L 316.631655 -266.114273 
L 317.15879 -267.092824 
L 317.625741 -268.071376 
L 318.036395 -269.049928 
L 318.394884 -270.028479 
L 318.70549 -271.007031 
L 318.972564 -271.985583 
L 319.200441 -272.964134 
L 321.280809 -272.964134 
L 321.280809 -272.964134 
L 321.508686 -271.985583 
L 321.77576 -271.007031 
L 322.086366 -270.028479 
L 322.444855 -269.049928 
L 322.855509 -268.071376 
L 323.32246 -267.092824 
L 323.849595 -266.114273 
L 324.440477 -265.135721 
L 325.098265 -264.157169 
L 325.825656 -263.178618 
L 326.62483 -262.200066 
L 327.497427 -261.221514 
L 328.444535 -260.242963 
L 329.466697 -259.264411 
L 330.563943 -258.285859 
L 331.735833 -257.307308 
L 332.981505 -256.328756 
L 334.29974 -255.350204 
L 335.689016 -254.371653 
L 337.147557 -253.393101 
L 338.673372 -252.414549 
L 340.264274 -251.435998 
L 341.917871 -250.457446 
L 343.631549 -249.478894 
L 345.402415 -248.500343 
L 347.227232 -247.521791 
L 349.102334 -246.543239 
L 351.02353 -245.564688 
L 352.986002 -244.586136 
L 354.984219 -243.607584 
L 357.011846 -242.629033 
L 359.061682 -241.650481 
L 361.125616 -240.671929 
L 363.194608 -239.693378 
L 365.258698 -238.714826 
L 367.307042 -237.736274 
L 369.327967 -236.757723 
L 371.309058 -235.779171 
L 373.23725 -234.800619 
L 375.098946 -233.822068 
L 376.880139 -232.843516 
L 378.566545 -231.864964 
L 380.14375 -230.886413 
L 381.59736 -229.907861 
L 382.913167 -228.929309 
L 384.077323 -227.950758 
L 385.07654 -226.972206 
L 385.8983 -225.993654 
L 386.531083 -225.015103 
L 386.964615 -224.036551 
L 387.190128 -223.057999 
L 387.200625 -222.079448 
L 386.991138 -221.100896 
L 386.558973 -220.122344 
L 385.903924 -219.143793 
L 385.028443 -218.165241 
L 383.937747 -217.186689 
L 382.639864 -216.208138 
L 381.145587 -215.229586 
L 379.468346 -214.251034 
L 377.623998 -213.272483 
L 375.630527 -212.293931 
L 373.507665 -211.315379 
L 371.276466 -210.336828 
L 368.958825 -209.358276 
L 366.576975 -208.379724 
L 364.152993 -207.401173 
L 361.708317 -206.422621 
L 359.263311 -205.444069 
L 356.836888 -204.465518 
L 354.446209 -203.486966 
L 352.106465 -202.508414 
L 349.830739 -201.529863 
L 347.629962 -200.551311 
L 345.512941 -199.572759 
L 343.486461 -198.594208 
L 341.555434 -197.615656 
L 339.723098 -196.637104 
L 337.991229 -195.658553 
L 336.360371 -194.680001 
L 334.830054 -193.701449 
L 333.399003 -192.722898 
L 332.065314 -191.744346 
L 330.826609 -190.765794 
L 329.680153 -189.787243 
L 328.622945 -188.808691 
L 327.65178 -187.830139 
L 326.763288 -186.851588 
L 325.953952 -185.873036 
L 325.220128 -184.894484 
L 324.558038 -183.915933 
L 323.963789 -182.937381 
L 323.433368 -181.958829 
L 322.96267 -180.980278 
L 322.54751 -180.001726 
L 322.183656 -179.023174 
L 321.866868 -178.044623 
L 321.592935 -177.066071 
L 321.357719 -176.087519 
z
" id="m1146bacf63" style="stroke:#313131;stroke-width:1.5;"/>
    </defs>
    <g clip-path="url(#pd164d3696c)">
     <use style="fill:#db6e59;stroke:#313131;stroke-width:1.5;" x="0" xlink:href="#m1146bacf63" y="433.06775"/>
    </g>
   </g>
   <g id="PolyCollection_3">
    <defs>
     <path d="M 521.640763 -170.483778 
L 520.600487 -170.483778 
L 520.476652 -171.802164 
L 520.330186 -173.12055 
L 520.158537 -174.438936 
L 519.959149 -175.757323 
L 519.729494 -177.075709 
L 519.467094 -178.394095 
L 519.169537 -179.712481 
L 518.834466 -181.030867 
L 518.459563 -182.349254 
L 518.042505 -183.66764 
L 517.580914 -184.986026 
L 517.072287 -186.304412 
L 516.513919 -187.622798 
L 515.902837 -188.941185 
L 515.235734 -190.259571 
L 514.508922 -191.577957 
L 513.718317 -192.896343 
L 512.859451 -194.214729 
L 511.92753 -195.533116 
L 510.917523 -196.851502 
L 509.824296 -198.169888 
L 508.642781 -199.488274 
L 507.368168 -200.806661 
L 505.996117 -202.125047 
L 504.522982 -203.443433 
L 502.946026 -204.761819 
L 501.263628 -206.080205 
L 499.475472 -207.398592 
L 497.582706 -208.716978 
L 495.588083 -210.035364 
L 493.496068 -211.35375 
L 491.312929 -212.672136 
L 489.046804 -213.990523 
L 486.707756 -215.308909 
L 484.307813 -216.627295 
L 481.860998 -217.945681 
L 479.383345 -219.264067 
L 476.892892 -220.582454 
L 474.409646 -221.90084 
L 471.955508 -223.219226 
L 469.554143 -224.537612 
L 467.230783 -225.855998 
L 465.011949 -227.174385 
L 462.925094 -228.492771 
L 460.998152 -229.811157 
L 459.259004 -231.129543 
L 457.734873 -232.44793 
L 456.451662 -233.766316 
L 455.43325 -235.084702 
L 454.70079 -236.403088 
L 454.272018 -237.721474 
L 454.160625 -239.039861 
L 454.375695 -240.358247 
L 454.921261 -241.676633 
L 455.795985 -242.995019 
L 456.992984 -244.313405 
L 458.499816 -245.631792 
L 460.298627 -246.950178 
L 462.366469 -248.268564 
L 464.67577 -249.58695 
L 467.194956 -250.905336 
L 469.889203 -252.223723 
L 472.721301 -253.542109 
L 475.652595 -254.860495 
L 478.643982 -256.178881 
L 481.656919 -257.497267 
L 484.654409 -258.815654 
L 487.601922 -260.13404 
L 490.468218 -261.452426 
L 493.226029 -262.770812 
L 495.852575 -264.089198 
L 498.329896 -265.407585 
L 500.644985 -266.725971 
L 502.789718 -268.044357 
L 504.760604 -269.362743 
L 506.558365 -270.68113 
L 508.187387 -271.999516 
L 509.655072 -273.317902 
L 510.971139 -274.636288 
L 512.146916 -275.954674 
L 513.194656 -277.273061 
L 514.126923 -278.591447 
L 514.956061 -279.909833 
L 515.693777 -281.228219 
L 516.350833 -282.546605 
L 516.93686 -283.864992 
L 517.460268 -285.183378 
L 517.928258 -286.501764 
L 518.346893 -287.82015 
L 518.721231 -289.138536 
L 519.055485 -290.456923 
L 519.353185 -291.775309 
L 519.617353 -293.093695 
L 519.85064 -294.412081 
L 520.055457 -295.730467 
L 520.234066 -297.048854 
L 520.388644 -298.36724 
L 520.52132 -299.685626 
L 520.634192 -301.004012 
L 521.607058 -301.004012 
L 521.607058 -301.004012 
L 521.71993 -299.685626 
L 521.852606 -298.36724 
L 522.007184 -297.048854 
L 522.185793 -295.730467 
L 522.39061 -294.412081 
L 522.623897 -293.093695 
L 522.888065 -291.775309 
L 523.185765 -290.456923 
L 523.520019 -289.138536 
L 523.894357 -287.82015 
L 524.312992 -286.501764 
L 524.780982 -285.183378 
L 525.30439 -283.864992 
L 525.890417 -282.546605 
L 526.547473 -281.228219 
L 527.285189 -279.909833 
L 528.114327 -278.591447 
L 529.046594 -277.273061 
L 530.094334 -275.954674 
L 531.270111 -274.636288 
L 532.586178 -273.317902 
L 534.053863 -271.999516 
L 535.682885 -270.68113 
L 537.480646 -269.362743 
L 539.451532 -268.044357 
L 541.596265 -266.725971 
L 543.911354 -265.407585 
L 546.388675 -264.089198 
L 549.015221 -262.770812 
L 551.773032 -261.452426 
L 554.639328 -260.13404 
L 557.586841 -258.815654 
L 560.584331 -257.497267 
L 563.597268 -256.178881 
L 566.588655 -254.860495 
L 569.519949 -253.542109 
L 572.352047 -252.223723 
L 575.046294 -250.905336 
L 577.56548 -249.58695 
L 579.874781 -248.268564 
L 581.942623 -246.950178 
L 583.741434 -245.631792 
L 585.248266 -244.313405 
L 586.445265 -242.995019 
L 587.319989 -241.676633 
L 587.865555 -240.358247 
L 588.080625 -239.039861 
L 587.969232 -237.721474 
L 587.54046 -236.403088 
L 586.808 -235.084702 
L 585.789588 -233.766316 
L 584.506377 -232.44793 
L 582.982246 -231.129543 
L 581.243098 -229.811157 
L 579.316156 -228.492771 
L 577.229301 -227.174385 
L 575.010467 -225.855998 
L 572.687107 -224.537612 
L 570.285742 -223.219226 
L 567.831604 -221.90084 
L 565.348358 -220.582454 
L 562.857905 -219.264067 
L 560.380252 -217.945681 
L 557.933437 -216.627295 
L 555.533494 -215.308909 
L 553.194446 -213.990523 
L 550.928321 -212.672136 
L 548.745182 -211.35375 
L 546.653167 -210.035364 
L 544.658544 -208.716978 
L 542.765778 -207.398592 
L 540.977622 -206.080205 
L 539.295224 -204.761819 
L 537.718268 -203.443433 
L 536.245133 -202.125047 
L 534.873082 -200.806661 
L 533.598469 -199.488274 
L 532.416954 -198.169888 
L 531.323727 -196.851502 
L 530.31372 -195.533116 
L 529.381799 -194.214729 
L 528.522933 -192.896343 
L 527.732328 -191.577957 
L 527.005516 -190.259571 
L 526.338413 -188.941185 
L 525.727331 -187.622798 
L 525.168963 -186.304412 
L 524.660336 -184.986026 
L 524.198745 -183.66764 
L 523.781687 -182.349254 
L 523.406784 -181.030867 
L 523.071713 -179.712481 
L 522.774156 -178.394095 
L 522.511756 -177.075709 
L 522.282101 -175.757323 
L 522.082713 -174.438936 
L 521.911064 -173.12055 
L 521.764598 -171.802164 
L 521.640763 -170.483778 
z
" id="m7c8b0a607c" style="stroke:#313131;stroke-width:1.5;"/>
    </defs>
    <g clip-path="url(#pd164d3696c)">
     <use style="fill:#772b58;stroke:#313131;stroke-width:1.5;" x="0" xlink:href="#m7c8b0a607c" y="433.06775"/>
    </g>
   </g>
   <g id="PolyCollection_4">
    <defs>
     <path d="M 655.933214 -188.151437 
L 654.148036 -188.151437 
L 653.950493 -189.250464 
L 653.717472 -190.349491 
L 653.444404 -191.448518 
L 653.12646 -192.547545 
L 652.75859 -193.646572 
L 652.335565 -194.745599 
L 651.852022 -195.844626 
L 651.302524 -196.943653 
L 650.681611 -198.04268 
L 649.983869 -199.141707 
L 649.203992 -200.240734 
L 648.336852 -201.339762 
L 647.377577 -202.438789 
L 646.321631 -203.537816 
L 645.164901 -204.636843 
L 643.903792 -205.73587 
L 642.535336 -206.834897 
L 641.057309 -207.933924 
L 639.468353 -209.032951 
L 637.768124 -210.131978 
L 635.957433 -211.231005 
L 634.038401 -212.330032 
L 632.014617 -213.429059 
L 629.891288 -214.528087 
L 627.675377 -215.627114 
L 625.375719 -216.726141 
L 623.00311 -217.825168 
L 620.570355 -218.924195 
L 618.092259 -220.023222 
L 615.585566 -221.122249 
L 613.068832 -222.221276 
L 610.562228 -223.320303 
L 608.087263 -224.41933 
L 605.666453 -225.518357 
L 603.322918 -226.617384 
L 601.079924 -227.716412 
L 598.960391 -228.815439 
L 596.986374 -229.914466 
L 595.178545 -231.013493 
L 593.555682 -232.11252 
L 592.134201 -233.211547 
L 590.927747 -234.310574 
L 589.946854 -235.409601 
L 589.198699 -236.508628 
L 588.686955 -237.607655 
L 588.411755 -238.706682 
L 588.369762 -239.805709 
L 588.55435 -240.904737 
L 588.955876 -242.003764 
L 589.562041 -243.102791 
L 590.358322 -244.201818 
L 591.328445 -245.300845 
L 592.454897 -246.399872 
L 593.719436 -247.498899 
L 595.103598 -248.597926 
L 596.58917 -249.696953 
L 598.158608 -250.79598 
L 599.795414 -251.895007 
L 601.484421 -252.994034 
L 603.212023 -254.093061 
L 604.966317 -255.192089 
L 606.737165 -256.291116 
L 608.516194 -257.390143 
L 610.296721 -258.48917 
L 612.073619 -259.588197 
L 613.843141 -260.687224 
L 615.602697 -261.786251 
L 617.350611 -262.885278 
L 619.085863 -263.984305 
L 620.807829 -265.083332 
L 622.516025 -266.182359 
L 624.209878 -267.281386 
L 625.888523 -268.380414 
L 627.55064 -269.479441 
L 629.194329 -270.578468 
L 630.817041 -271.677495 
L 632.415554 -272.776522 
L 633.985998 -273.875549 
L 635.523928 -274.974576 
L 637.024437 -276.073603 
L 638.482301 -277.17263 
L 639.89215 -278.271657 
L 641.248652 -279.370684 
L 642.546703 -280.469711 
L 643.781609 -281.568739 
L 644.949251 -282.667766 
L 646.046228 -283.766793 
L 647.069969 -284.86582 
L 648.018811 -285.964847 
L 648.892037 -287.063874 
L 649.68988 -288.162901 
L 650.413492 -289.261928 
L 651.064877 -290.360955 
L 651.646806 -291.459982 
L 652.162702 -292.559009 
L 652.616521 -293.658036 
L 653.012621 -294.757064 
L 653.355628 -295.856091 
L 653.650316 -296.955118 
L 656.430934 -296.955118 
L 656.430934 -296.955118 
L 656.725622 -295.856091 
L 657.068629 -294.757064 
L 657.464729 -293.658036 
L 657.918548 -292.559009 
L 658.434444 -291.459982 
L 659.016373 -290.360955 
L 659.667758 -289.261928 
L 660.39137 -288.162901 
L 661.189213 -287.063874 
L 662.062439 -285.964847 
L 663.011281 -284.86582 
L 664.035022 -283.766793 
L 665.131999 -282.667766 
L 666.299641 -281.568739 
L 667.534547 -280.469711 
L 668.832598 -279.370684 
L 670.1891 -278.271657 
L 671.598949 -277.17263 
L 673.056813 -276.073603 
L 674.557322 -274.974576 
L 676.095252 -273.875549 
L 677.665696 -272.776522 
L 679.264209 -271.677495 
L 680.886921 -270.578468 
L 682.53061 -269.479441 
L 684.192727 -268.380414 
L 685.871372 -267.281386 
L 687.565225 -266.182359 
L 689.273421 -265.083332 
L 690.995387 -263.984305 
L 692.730639 -262.885278 
L 694.478553 -261.786251 
L 696.238109 -260.687224 
L 698.007631 -259.588197 
L 699.784529 -258.48917 
L 701.565056 -257.390143 
L 703.344085 -256.291116 
L 705.114933 -255.192089 
L 706.869227 -254.093061 
L 708.596829 -252.994034 
L 710.285836 -251.895007 
L 711.922642 -250.79598 
L 713.49208 -249.696953 
L 714.977652 -248.597926 
L 716.361814 -247.498899 
L 717.626353 -246.399872 
L 718.752805 -245.300845 
L 719.722928 -244.201818 
L 720.519209 -243.102791 
L 721.125374 -242.003764 
L 721.5269 -240.904737 
L 721.711488 -239.805709 
L 721.669495 -238.706682 
L 721.394295 -237.607655 
L 720.882551 -236.508628 
L 720.134396 -235.409601 
L 719.153503 -234.310574 
L 717.947049 -233.211547 
L 716.525568 -232.11252 
L 714.902705 -231.013493 
L 713.094876 -229.914466 
L 711.120859 -228.815439 
L 709.001326 -227.716412 
L 706.758332 -226.617384 
L 704.414797 -225.518357 
L 701.993987 -224.41933 
L 699.519022 -223.320303 
L 697.012418 -222.221276 
L 694.495684 -221.122249 
L 691.988991 -220.023222 
L 689.510895 -218.924195 
L 687.07814 -217.825168 
L 684.705531 -216.726141 
L 682.405873 -215.627114 
L 680.189962 -214.528087 
L 678.066633 -213.429059 
L 676.042849 -212.330032 
L 674.123817 -211.231005 
L 672.313126 -210.131978 
L 670.612897 -209.032951 
L 669.023941 -207.933924 
L 667.545914 -206.834897 
L 666.177458 -205.73587 
L 664.916349 -204.636843 
L 663.759619 -203.537816 
L 662.703673 -202.438789 
L 661.744398 -201.339762 
L 660.877258 -200.240734 
L 660.097381 -199.141707 
L 659.399639 -198.04268 
L 658.778726 -196.943653 
L 658.229228 -195.844626 
L 657.745685 -194.745599 
L 657.32266 -193.646572 
L 656.95479 -192.547545 
L 656.636846 -191.448518 
L 656.363778 -190.349491 
L 656.130757 -189.250464 
L 655.933214 -188.151437 
z
" id="ma9fad8bdc9" style="stroke:#313131;stroke-width:1.5;"/>
    </defs>
    <g clip-path="url(#pd164d3696c)">
     <use style="fill:#db6e59;stroke:#313131;stroke-width:1.5;" x="0" xlink:href="#ma9fad8bdc9" y="433.06775"/>
    </g>
   </g>
   <g id="PolyCollection_5">
    <defs>
     <path d="M 856.36553 -174.159144 
L 855.47572 -174.159144 
L 855.375664 -175.095537 
L 855.25791 -176.03193 
L 855.120388 -176.968323 
L 854.960975 -177.904716 
L 854.777519 -178.841109 
L 854.567858 -179.777502 
L 854.32984 -180.713894 
L 854.061341 -181.650287 
L 853.760274 -182.58668 
L 853.424594 -183.523073 
L 853.052295 -184.459466 
L 852.64141 -185.395859 
L 852.189998 -186.332252 
L 851.696143 -187.268645 
L 851.157941 -188.205038 
L 850.57351 -189.14143 
L 849.940998 -190.077823 
L 849.25861 -191.014216 
L 848.524646 -191.950609 
L 847.737562 -192.887002 
L 846.89604 -193.823395 
L 845.999073 -194.759788 
L 845.046064 -195.696181 
L 844.036921 -196.632574 
L 842.97215 -197.568966 
L 841.85294 -198.505359 
L 840.681222 -199.441752 
L 839.459705 -200.378145 
L 838.191875 -201.314538 
L 836.881961 -202.250931 
L 835.534863 -203.187324 
L 834.156046 -204.123717 
L 832.751409 -205.06011 
L 831.327128 -205.996502 
L 829.889508 -206.932895 
L 828.444825 -207.869288 
L 826.999203 -208.805681 
L 825.55852 -209.742074 
L 824.128358 -210.678467 
L 822.714008 -211.61486 
L 821.320529 -212.551253 
L 819.952864 -213.487646 
L 818.616002 -214.424038 
L 817.31517 -215.360431 
L 816.056054 -216.296824 
L 814.845009 -217.233217 
L 813.689257 -218.16961 
L 812.597035 -219.106003 
L 811.577685 -220.042396 
L 810.641661 -220.978789 
L 809.800453 -221.915182 
L 809.066409 -222.851574 
L 808.452458 -223.787967 
L 807.971755 -224.72436 
L 807.637245 -225.660753 
L 807.461173 -226.597146 
L 807.454567 -227.533539 
L 807.626722 -228.469932 
L 807.984703 -229.406325 
L 808.532916 -230.342718 
L 809.272749 -231.27911 
L 810.202326 -232.215503 
L 811.316375 -233.151896 
L 812.606233 -234.088289 
L 814.05997 -235.024682 
L 815.662652 -235.961075 
L 817.396707 -236.897468 
L 819.242399 -237.833861 
L 821.178357 -238.770254 
L 823.182168 -239.706646 
L 825.23098 -240.643039 
L 827.302092 -241.579432 
L 829.37352 -242.515825 
L 831.4245 -243.452218 
L 833.435918 -244.388611 
L 835.390658 -245.325004 
L 837.27385 -246.261397 
L 839.073031 -247.19779 
L 840.778208 -248.134182 
L 842.381842 -249.070575 
L 843.878755 -250.006968 
L 845.265982 -250.943361 
L 846.54257 -251.879754 
L 847.709348 -252.816147 
L 848.76868 -253.75254 
L 849.724207 -254.688933 
L 850.580598 -255.625326 
L 851.343307 -256.561718 
L 852.01835 -257.498111 
L 852.612106 -258.434504 
L 853.131143 -259.370897 
L 853.58206 -260.30729 
L 853.971368 -261.243683 
L 854.305385 -262.180076 
L 854.590154 -263.116469 
L 854.831384 -264.052862 
L 855.034406 -264.989254 
L 855.204146 -265.925647 
L 855.345108 -266.86204 
L 856.496142 -266.86204 
L 856.496142 -266.86204 
L 856.637104 -265.925647 
L 856.806844 -264.989254 
L 857.009866 -264.052862 
L 857.251096 -263.116469 
L 857.535865 -262.180076 
L 857.869882 -261.243683 
L 858.25919 -260.30729 
L 858.710107 -259.370897 
L 859.229144 -258.434504 
L 859.8229 -257.498111 
L 860.497943 -256.561718 
L 861.260652 -255.625326 
L 862.117043 -254.688933 
L 863.07257 -253.75254 
L 864.131902 -252.816147 
L 865.29868 -251.879754 
L 866.575268 -250.943361 
L 867.962495 -250.006968 
L 869.459408 -249.070575 
L 871.063042 -248.134182 
L 872.768219 -247.19779 
L 874.5674 -246.261397 
L 876.450592 -245.325004 
L 878.405332 -244.388611 
L 880.41675 -243.452218 
L 882.46773 -242.515825 
L 884.539158 -241.579432 
L 886.61027 -240.643039 
L 888.659082 -239.706646 
L 890.662893 -238.770254 
L 892.598851 -237.833861 
L 894.444543 -236.897468 
L 896.178598 -235.961075 
L 897.78128 -235.024682 
L 899.235017 -234.088289 
L 900.524875 -233.151896 
L 901.638924 -232.215503 
L 902.568501 -231.27911 
L 903.308334 -230.342718 
L 903.856547 -229.406325 
L 904.214528 -228.469932 
L 904.386683 -227.533539 
L 904.380077 -226.597146 
L 904.204005 -225.660753 
L 903.869495 -224.72436 
L 903.388792 -223.787967 
L 902.774841 -222.851574 
L 902.040797 -221.915182 
L 901.199589 -220.978789 
L 900.263565 -220.042396 
L 899.244215 -219.106003 
L 898.151993 -218.16961 
L 896.996241 -217.233217 
L 895.785196 -216.296824 
L 894.52608 -215.360431 
L 893.225248 -214.424038 
L 891.888386 -213.487646 
L 890.520721 -212.551253 
L 889.127242 -211.61486 
L 887.712892 -210.678467 
L 886.28273 -209.742074 
L 884.842047 -208.805681 
L 883.396425 -207.869288 
L 881.951742 -206.932895 
L 880.514122 -205.996502 
L 879.089841 -205.06011 
L 877.685204 -204.123717 
L 876.306387 -203.187324 
L 874.959289 -202.250931 
L 873.649375 -201.314538 
L 872.381545 -200.378145 
L 871.160028 -199.441752 
L 869.98831 -198.505359 
L 868.8691 -197.568966 
L 867.804329 -196.632574 
L 866.795186 -195.696181 
L 865.842177 -194.759788 
L 864.94521 -193.823395 
L 864.103688 -192.887002 
L 863.316604 -191.950609 
L 862.58264 -191.014216 
L 861.900252 -190.077823 
L 861.26774 -189.14143 
L 860.683309 -188.205038 
L 860.145107 -187.268645 
L 859.651252 -186.332252 
L 859.19984 -185.395859 
L 858.788955 -184.459466 
L 858.416656 -183.523073 
L 858.080976 -182.58668 
L 857.779909 -181.650287 
L 857.51141 -180.713894 
L 857.273392 -179.777502 
L 857.063731 -178.841109 
L 856.880275 -177.904716 
L 856.720862 -176.968323 
L 856.58334 -176.03193 
L 856.465586 -175.095537 
L 856.36553 -174.159144 
z
" id="me9c290af04" style="stroke:#313131;stroke-width:1.5;"/>
    </defs>
    <g clip-path="url(#pd164d3696c)">
     <use style="fill:#772b58;stroke:#313131;stroke-width:1.5;" x="0" xlink:href="#me9c290af04" y="433.06775"/>
    </g>
   </g>
   <g id="PolyCollection_6">
    <defs>
     <path d="M 990.58922 -206.533224 
L 989.09203 -206.533224 
L 988.916381 -207.236466 
L 988.707796 -207.939707 
L 988.462121 -208.642949 
L 988.175112 -209.346191 
L 987.842531 -210.049433 
L 987.46025 -210.752674 
L 987.024363 -211.455916 
L 986.531306 -212.159158 
L 985.977978 -212.8624 
L 985.361844 -213.565641 
L 984.681035 -214.268883 
L 983.934415 -214.972125 
L 983.121621 -215.675366 
L 982.243061 -216.378608 
L 981.299875 -217.08185 
L 980.293839 -217.785092 
L 979.227231 -218.488333 
L 978.102652 -219.191575 
L 976.922808 -219.894817 
L 975.69027 -220.598059 
L 974.407226 -221.3013 
L 973.07524 -222.004542 
L 971.695044 -222.707784 
L 970.266376 -223.411025 
L 968.7879 -224.114267 
L 967.257202 -224.817509 
L 965.67091 -225.520751 
L 964.024908 -226.223992 
L 962.314679 -226.927234 
L 960.535742 -227.630476 
L 958.684185 -228.333718 
L 956.757262 -229.036959 
L 954.75402 -229.740201 
L 952.675917 -230.443443 
L 950.527399 -231.146684 
L 948.316381 -231.849926 
L 946.054599 -232.553168 
L 943.757806 -233.25641 
L 941.445763 -233.959651 
L 939.142044 -234.662893 
L 936.873623 -235.366135 
L 934.67026 -236.069377 
L 932.563721 -236.772618 
L 930.586843 -237.47586 
L 928.772512 -238.179102 
L 927.152573 -238.882343 
L 925.756753 -239.585585 
L 924.61163 -240.288827 
L 923.73971 -240.992069 
L 923.158642 -241.69531 
L 922.880625 -242.398552 
L 922.912017 -243.101794 
L 923.253166 -243.805036 
L 923.898466 -244.508277 
L 924.836633 -245.211519 
L 926.051174 -245.914761 
L 927.521027 -246.618002 
L 929.221343 -247.321244 
L 931.124351 -248.024486 
L 933.200295 -248.727728 
L 935.418363 -249.430969 
L 937.747605 -250.134211 
L 940.157772 -250.837453 
L 942.620062 -251.540695 
L 945.107744 -252.243936 
L 947.596643 -252.947178 
L 950.065469 -253.65042 
L 952.496006 -254.353661 
L 954.873148 -255.056903 
L 957.184817 -255.760145 
L 959.421758 -256.463387 
L 961.577259 -257.166628 
L 963.646807 -257.86987 
L 965.627708 -258.573112 
L 967.518706 -259.276354 
L 969.319609 -259.979595 
L 971.030964 -260.682837 
L 972.653766 -261.386079 
L 974.189236 -262.08932 
L 975.638665 -262.792562 
L 977.00331 -263.495804 
L 978.28436 -264.199046 
L 979.482937 -264.902287 
L 980.600146 -265.605529 
L 981.637146 -266.308771 
L 982.59523 -267.012013 
L 983.475908 -267.715254 
L 984.280988 -268.418496 
L 985.012626 -269.121738 
L 985.673372 -269.824979 
L 986.266171 -270.528221 
L 986.794361 -271.231463 
L 987.26163 -271.934705 
L 987.671966 -272.637946 
L 988.029584 -273.341188 
L 988.338849 -274.04443 
L 988.604192 -274.747672 
L 988.830031 -275.450913 
L 989.020686 -276.154155 
L 990.660564 -276.154155 
L 990.660564 -276.154155 
L 990.851219 -275.450913 
L 991.077058 -274.747672 
L 991.342401 -274.04443 
L 991.651666 -273.341188 
L 992.009284 -272.637946 
L 992.41962 -271.934705 
L 992.886889 -271.231463 
L 993.415079 -270.528221 
L 994.007878 -269.824979 
L 994.668624 -269.121738 
L 995.400262 -268.418496 
L 996.205342 -267.715254 
L 997.08602 -267.012013 
L 998.044104 -266.308771 
L 999.081104 -265.605529 
L 1000.198313 -264.902287 
L 1001.39689 -264.199046 
L 1002.67794 -263.495804 
L 1004.042585 -262.792562 
L 1005.492014 -262.08932 
L 1007.027484 -261.386079 
L 1008.650286 -260.682837 
L 1010.361641 -259.979595 
L 1012.162544 -259.276354 
L 1014.053542 -258.573112 
L 1016.034443 -257.86987 
L 1018.103991 -257.166628 
L 1020.259492 -256.463387 
L 1022.496433 -255.760145 
L 1024.808102 -255.056903 
L 1027.185244 -254.353661 
L 1029.615781 -253.65042 
L 1032.084607 -252.947178 
L 1034.573506 -252.243936 
L 1037.061188 -251.540695 
L 1039.523478 -250.837453 
L 1041.933645 -250.134211 
L 1044.262887 -249.430969 
L 1046.480955 -248.727728 
L 1048.556899 -248.024486 
L 1050.459907 -247.321244 
L 1052.160223 -246.618002 
L 1053.630076 -245.914761 
L 1054.844617 -245.211519 
L 1055.782784 -244.508277 
L 1056.428084 -243.805036 
L 1056.769233 -243.101794 
L 1056.800625 -242.398552 
L 1056.522608 -241.69531 
L 1055.94154 -240.992069 
L 1055.06962 -240.288827 
L 1053.924497 -239.585585 
L 1052.528677 -238.882343 
L 1050.908738 -238.179102 
L 1049.094407 -237.47586 
L 1047.117529 -236.772618 
L 1045.01099 -236.069377 
L 1042.807627 -235.366135 
L 1040.539206 -234.662893 
L 1038.235487 -233.959651 
L 1035.923444 -233.25641 
L 1033.626651 -232.553168 
L 1031.364869 -231.849926 
L 1029.153851 -231.146684 
L 1027.005333 -230.443443 
L 1024.92723 -229.740201 
L 1022.923988 -229.036959 
L 1020.997065 -228.333718 
L 1019.145508 -227.630476 
L 1017.366571 -226.927234 
L 1015.656342 -226.223992 
L 1014.01034 -225.520751 
L 1012.424048 -224.817509 
L 1010.89335 -224.114267 
L 1009.414874 -223.411025 
L 1007.986206 -222.707784 
L 1006.60601 -222.004542 
L 1005.274024 -221.3013 
L 1003.99098 -220.598059 
L 1002.758442 -219.894817 
L 1001.578598 -219.191575 
L 1000.454019 -218.488333 
L 999.387411 -217.785092 
L 998.381375 -217.08185 
L 997.438189 -216.378608 
L 996.559629 -215.675366 
L 995.746835 -214.972125 
L 995.000215 -214.268883 
L 994.319406 -213.565641 
L 993.703272 -212.8624 
L 993.149944 -212.159158 
L 992.656887 -211.455916 
L 992.221 -210.752674 
L 991.838719 -210.049433 
L 991.506138 -209.346191 
L 991.219129 -208.642949 
L 990.973454 -207.939707 
L 990.764869 -207.236466 
L 990.58922 -206.533224 
z
" id="ma57afedb69" style="stroke:#313131;stroke-width:1.5;"/>
    </defs>
    <g clip-path="url(#pd164d3696c)">
     <use style="fill:#db6e59;stroke:#313131;stroke-width:1.5;" x="0" xlink:href="#ma57afedb69" y="433.06775"/>
    </g>
   </g>
   <g id="patch_3">
    <path clip-path="url(#pd164d3696c)" d="M 253.280625 931.415429 
L 253.280625 931.415429 
L 253.280625 931.415429 
L 253.280625 931.415429 
z
" style="fill:#772b58;stroke:#313131;stroke-linejoin:miter;stroke-width:0.75;"/>
   </g>
   <g id="patch_4">
    <path clip-path="url(#pd164d3696c)" d="M 253.280625 931.415429 
L 253.280625 931.415429 
L 253.280625 931.415429 
L 253.280625 931.415429 
z
" style="fill:#db6e59;stroke:#313131;stroke-linejoin:miter;stroke-width:0.75;"/>
   </g>
   <g id="patch_5">
    <path clip-path="url(#pd164d3696c)" d="M 253.280625 931.415429 
L 253.280625 931.415429 
L 253.280625 931.415429 
L 253.280625 931.415429 
z
" style="fill:#772b58;stroke:#313131;stroke-linejoin:miter;stroke-width:0.75;"/>
   </g>
   <g id="patch_6">
    <path clip-path="url(#pd164d3696c)" d="M 253.280625 931.415429 
L 253.280625 931.415429 
L 253.280625 931.415429 
L 253.280625 931.415429 
z
" style="fill:#db6e59;stroke:#313131;stroke-linejoin:miter;stroke-width:0.75;"/>
   </g>
   <g id="matplotlib.axis_1">
    <g id="xtick_1">
     <g id="line2d_1">
      <defs>
       <path d="M 0 0 
L 0 3.5 
" id="m34044c1689" style="stroke:#000000;stroke-width:0.8;"/>
      </defs>
      <g>
       <use style="stroke:#000000;stroke-width:0.8;" x="253.280625" xlink:href="#m34044c1689" y="372.284"/>
      </g>
     </g>
     <g id="text_1">
      <!-- 5,000 -->
      <g transform="translate(224.6525 394.480875)scale(0.2 -0.2)">
       <defs>
        <path d="M 691 4666 
L 3169 4666 
L 3169 4134 
L 1269 4134 
L 1269 2991 
Q 1406 3038 1543 3061 
Q 1681 3084 1819 3084 
Q 2600 3084 3056 2656 
Q 3513 2228 3513 1497 
Q 3513 744 3044 326 
Q 2575 -91 1722 -91 
Q 1428 -91 1123 -41 
Q 819 9 494 109 
L 494 744 
Q 775 591 1075 516 
Q 1375 441 1709 441 
Q 2250 441 2565 725 
Q 2881 1009 2881 1497 
Q 2881 1984 2565 2268 
Q 2250 2553 1709 2553 
Q 1456 2553 1204 2497 
Q 953 2441 691 2322 
L 691 4666 
z
" id="DejaVuSans-35" transform="scale(0.015625)"/>
        <path d="M 750 794 
L 1409 794 
L 1409 256 
L 897 -744 
L 494 -744 
L 750 256 
L 750 794 
z
" id="DejaVuSans-2c" transform="scale(0.015625)"/>
        <path d="M 2034 4250 
Q 1547 4250 1301 3770 
Q 1056 3291 1056 2328 
Q 1056 1369 1301 889 
Q 1547 409 2034 409 
Q 2525 409 2770 889 
Q 3016 1369 3016 2328 
Q 3016 3291 2770 3770 
Q 2525 4250 2034 4250 
z
M 2034 4750 
Q 2819 4750 3233 4129 
Q 3647 3509 3647 2328 
Q 3647 1150 3233 529 
Q 2819 -91 2034 -91 
Q 1250 -91 836 529 
Q 422 1150 422 2328 
Q 422 3509 836 4129 
Q 1250 4750 2034 4750 
z
" id="DejaVuSans-30" transform="scale(0.015625)"/>
       </defs>
       <use xlink:href="#DejaVuSans-35"/>
       <use x="63.623047" xlink:href="#DejaVuSans-2c"/>
       <use x="95.410156" xlink:href="#DejaVuSans-30"/>
       <use x="159.033203" xlink:href="#DejaVuSans-30"/>
       <use x="222.65625" xlink:href="#DejaVuSans-30"/>
      </g>
     </g>
    </g>
    <g id="xtick_2">
     <g id="line2d_2">
      <g>
       <use style="stroke:#000000;stroke-width:0.8;" x="588.080625" xlink:href="#m34044c1689" y="372.284"/>
      </g>
     </g>
     <g id="text_2">
      <!-- 10,000 -->
      <g transform="translate(553.09 394.480875)scale(0.2 -0.2)">
       <defs>
        <path d="M 794 531 
L 1825 531 
L 1825 4091 
L 703 3866 
L 703 4441 
L 1819 4666 
L 2450 4666 
L 2450 531 
L 3481 531 
L 3481 0 
L 794 0 
L 794 531 
z
" id="DejaVuSans-31" transform="scale(0.015625)"/>
       </defs>
       <use xlink:href="#DejaVuSans-31"/>
       <use x="63.623047" xlink:href="#DejaVuSans-30"/>
       <use x="127.246094" xlink:href="#DejaVuSans-2c"/>
       <use x="159.033203" xlink:href="#DejaVuSans-30"/>
       <use x="222.65625" xlink:href="#DejaVuSans-30"/>
       <use x="286.279297" xlink:href="#DejaVuSans-30"/>
      </g>
     </g>
    </g>
    <g id="xtick_3">
     <g id="line2d_3">
      <g>
       <use style="stroke:#000000;stroke-width:0.8;" x="922.880625" xlink:href="#m34044c1689" y="372.284"/>
      </g>
     </g>
     <g id="text_3">
      <!-- 50,000 -->
      <g transform="translate(887.89 394.480875)scale(0.2 -0.2)">
       <use xlink:href="#DejaVuSans-35"/>
       <use x="63.623047" xlink:href="#DejaVuSans-30"/>
       <use x="127.246094" xlink:href="#DejaVuSans-2c"/>
       <use x="159.033203" xlink:href="#DejaVuSans-30"/>
       <use x="222.65625" xlink:href="#DejaVuSans-30"/>
       <use x="286.279297" xlink:href="#DejaVuSans-30"/>
      </g>
     </g>
    </g>
    <g id="text_4">
     <!-- Number of objects on training set -->
     <g transform="translate(386.233125 420.8765)scale(0.24 -0.24)">
      <defs>
       <path d="M 628 4666 
L 1478 4666 
L 3547 763 
L 3547 4666 
L 4159 4666 
L 4159 0 
L 3309 0 
L 1241 3903 
L 1241 0 
L 628 0 
L 628 4666 
z
" id="DejaVuSans-4e" transform="scale(0.015625)"/>
       <path d="M 544 1381 
L 544 3500 
L 1119 3500 
L 1119 1403 
Q 1119 906 1312 657 
Q 1506 409 1894 409 
Q 2359 409 2629 706 
Q 2900 1003 2900 1516 
L 2900 3500 
L 3475 3500 
L 3475 0 
L 2900 0 
L 2900 538 
Q 2691 219 2414 64 
Q 2138 -91 1772 -91 
Q 1169 -91 856 284 
Q 544 659 544 1381 
z
M 1991 3584 
L 1991 3584 
z
" id="DejaVuSans-75" transform="scale(0.015625)"/>
       <path d="M 3328 2828 
Q 3544 3216 3844 3400 
Q 4144 3584 4550 3584 
Q 5097 3584 5394 3201 
Q 5691 2819 5691 2113 
L 5691 0 
L 5113 0 
L 5113 2094 
Q 5113 2597 4934 2840 
Q 4756 3084 4391 3084 
Q 3944 3084 3684 2787 
Q 3425 2491 3425 1978 
L 3425 0 
L 2847 0 
L 2847 2094 
Q 2847 2600 2669 2842 
Q 2491 3084 2119 3084 
Q 1678 3084 1418 2786 
Q 1159 2488 1159 1978 
L 1159 0 
L 581 0 
L 581 3500 
L 1159 3500 
L 1159 2956 
Q 1356 3278 1631 3431 
Q 1906 3584 2284 3584 
Q 2666 3584 2933 3390 
Q 3200 3197 3328 2828 
z
" id="DejaVuSans-6d" transform="scale(0.015625)"/>
       <path d="M 3116 1747 
Q 3116 2381 2855 2742 
Q 2594 3103 2138 3103 
Q 1681 3103 1420 2742 
Q 1159 2381 1159 1747 
Q 1159 1113 1420 752 
Q 1681 391 2138 391 
Q 2594 391 2855 752 
Q 3116 1113 3116 1747 
z
M 1159 2969 
Q 1341 3281 1617 3432 
Q 1894 3584 2278 3584 
Q 2916 3584 3314 3078 
Q 3713 2572 3713 1747 
Q 3713 922 3314 415 
Q 2916 -91 2278 -91 
Q 1894 -91 1617 61 
Q 1341 213 1159 525 
L 1159 0 
L 581 0 
L 581 4863 
L 1159 4863 
L 1159 2969 
z
" id="DejaVuSans-62" transform="scale(0.015625)"/>
       <path d="M 3597 1894 
L 3597 1613 
L 953 1613 
Q 991 1019 1311 708 
Q 1631 397 2203 397 
Q 2534 397 2845 478 
Q 3156 559 3463 722 
L 3463 178 
Q 3153 47 2828 -22 
Q 2503 -91 2169 -91 
Q 1331 -91 842 396 
Q 353 884 353 1716 
Q 353 2575 817 3079 
Q 1281 3584 2069 3584 
Q 2775 3584 3186 3129 
Q 3597 2675 3597 1894 
z
M 3022 2063 
Q 3016 2534 2758 2815 
Q 2500 3097 2075 3097 
Q 1594 3097 1305 2825 
Q 1016 2553 972 2059 
L 3022 2063 
z
" id="DejaVuSans-65" transform="scale(0.015625)"/>
       <path d="M 2631 2963 
Q 2534 3019 2420 3045 
Q 2306 3072 2169 3072 
Q 1681 3072 1420 2755 
Q 1159 2438 1159 1844 
L 1159 0 
L 581 0 
L 581 3500 
L 1159 3500 
L 1159 2956 
Q 1341 3275 1631 3429 
Q 1922 3584 2338 3584 
Q 2397 3584 2469 3576 
Q 2541 3569 2628 3553 
L 2631 2963 
z
" id="DejaVuSans-72" transform="scale(0.015625)"/>
       <path id="DejaVuSans-20" transform="scale(0.015625)"/>
       <path d="M 1959 3097 
Q 1497 3097 1228 2736 
Q 959 2375 959 1747 
Q 959 1119 1226 758 
Q 1494 397 1959 397 
Q 2419 397 2687 759 
Q 2956 1122 2956 1747 
Q 2956 2369 2687 2733 
Q 2419 3097 1959 3097 
z
M 1959 3584 
Q 2709 3584 3137 3096 
Q 3566 2609 3566 1747 
Q 3566 888 3137 398 
Q 2709 -91 1959 -91 
Q 1206 -91 779 398 
Q 353 888 353 1747 
Q 353 2609 779 3096 
Q 1206 3584 1959 3584 
z
" id="DejaVuSans-6f" transform="scale(0.015625)"/>
       <path d="M 2375 4863 
L 2375 4384 
L 1825 4384 
Q 1516 4384 1395 4259 
Q 1275 4134 1275 3809 
L 1275 3500 
L 2222 3500 
L 2222 3053 
L 1275 3053 
L 1275 0 
L 697 0 
L 697 3053 
L 147 3053 
L 147 3500 
L 697 3500 
L 697 3744 
Q 697 4328 969 4595 
Q 1241 4863 1831 4863 
L 2375 4863 
z
" id="DejaVuSans-66" transform="scale(0.015625)"/>
       <path d="M 603 3500 
L 1178 3500 
L 1178 -63 
Q 1178 -731 923 -1031 
Q 669 -1331 103 -1331 
L -116 -1331 
L -116 -844 
L 38 -844 
Q 366 -844 484 -692 
Q 603 -541 603 -63 
L 603 3500 
z
M 603 4863 
L 1178 4863 
L 1178 4134 
L 603 4134 
L 603 4863 
z
" id="DejaVuSans-6a" transform="scale(0.015625)"/>
       <path d="M 3122 3366 
L 3122 2828 
Q 2878 2963 2633 3030 
Q 2388 3097 2138 3097 
Q 1578 3097 1268 2742 
Q 959 2388 959 1747 
Q 959 1106 1268 751 
Q 1578 397 2138 397 
Q 2388 397 2633 464 
Q 2878 531 3122 666 
L 3122 134 
Q 2881 22 2623 -34 
Q 2366 -91 2075 -91 
Q 1284 -91 818 406 
Q 353 903 353 1747 
Q 353 2603 823 3093 
Q 1294 3584 2113 3584 
Q 2378 3584 2631 3529 
Q 2884 3475 3122 3366 
z
" id="DejaVuSans-63" transform="scale(0.015625)"/>
       <path d="M 1172 4494 
L 1172 3500 
L 2356 3500 
L 2356 3053 
L 1172 3053 
L 1172 1153 
Q 1172 725 1289 603 
Q 1406 481 1766 481 
L 2356 481 
L 2356 0 
L 1766 0 
Q 1100 0 847 248 
Q 594 497 594 1153 
L 594 3053 
L 172 3053 
L 172 3500 
L 594 3500 
L 594 4494 
L 1172 4494 
z
" id="DejaVuSans-74" transform="scale(0.015625)"/>
       <path d="M 2834 3397 
L 2834 2853 
Q 2591 2978 2328 3040 
Q 2066 3103 1784 3103 
Q 1356 3103 1142 2972 
Q 928 2841 928 2578 
Q 928 2378 1081 2264 
Q 1234 2150 1697 2047 
L 1894 2003 
Q 2506 1872 2764 1633 
Q 3022 1394 3022 966 
Q 3022 478 2636 193 
Q 2250 -91 1575 -91 
Q 1294 -91 989 -36 
Q 684 19 347 128 
L 347 722 
Q 666 556 975 473 
Q 1284 391 1588 391 
Q 1994 391 2212 530 
Q 2431 669 2431 922 
Q 2431 1156 2273 1281 
Q 2116 1406 1581 1522 
L 1381 1569 
Q 847 1681 609 1914 
Q 372 2147 372 2553 
Q 372 3047 722 3315 
Q 1072 3584 1716 3584 
Q 2034 3584 2315 3537 
Q 2597 3491 2834 3397 
z
" id="DejaVuSans-73" transform="scale(0.015625)"/>
       <path d="M 3513 2113 
L 3513 0 
L 2938 0 
L 2938 2094 
Q 2938 2591 2744 2837 
Q 2550 3084 2163 3084 
Q 1697 3084 1428 2787 
Q 1159 2491 1159 1978 
L 1159 0 
L 581 0 
L 581 3500 
L 1159 3500 
L 1159 2956 
Q 1366 3272 1645 3428 
Q 1925 3584 2291 3584 
Q 2894 3584 3203 3211 
Q 3513 2838 3513 2113 
z
" id="DejaVuSans-6e" transform="scale(0.015625)"/>
       <path d="M 2194 1759 
Q 1497 1759 1228 1600 
Q 959 1441 959 1056 
Q 959 750 1161 570 
Q 1363 391 1709 391 
Q 2188 391 2477 730 
Q 2766 1069 2766 1631 
L 2766 1759 
L 2194 1759 
z
M 3341 1997 
L 3341 0 
L 2766 0 
L 2766 531 
Q 2569 213 2275 61 
Q 1981 -91 1556 -91 
Q 1019 -91 701 211 
Q 384 513 384 1019 
Q 384 1609 779 1909 
Q 1175 2209 1959 2209 
L 2766 2209 
L 2766 2266 
Q 2766 2663 2505 2880 
Q 2244 3097 1772 3097 
Q 1472 3097 1187 3025 
Q 903 2953 641 2809 
L 641 3341 
Q 956 3463 1253 3523 
Q 1550 3584 1831 3584 
Q 2591 3584 2966 3190 
Q 3341 2797 3341 1997 
z
" id="DejaVuSans-61" transform="scale(0.015625)"/>
       <path d="M 603 3500 
L 1178 3500 
L 1178 0 
L 603 0 
L 603 3500 
z
M 603 4863 
L 1178 4863 
L 1178 4134 
L 603 4134 
L 603 4863 
z
" id="DejaVuSans-69" transform="scale(0.015625)"/>
       <path d="M 2906 1791 
Q 2906 2416 2648 2759 
Q 2391 3103 1925 3103 
Q 1463 3103 1205 2759 
Q 947 2416 947 1791 
Q 947 1169 1205 825 
Q 1463 481 1925 481 
Q 2391 481 2648 825 
Q 2906 1169 2906 1791 
z
M 3481 434 
Q 3481 -459 3084 -895 
Q 2688 -1331 1869 -1331 
Q 1566 -1331 1297 -1286 
Q 1028 -1241 775 -1147 
L 775 -588 
Q 1028 -725 1275 -790 
Q 1522 -856 1778 -856 
Q 2344 -856 2625 -561 
Q 2906 -266 2906 331 
L 2906 616 
Q 2728 306 2450 153 
Q 2172 0 1784 0 
Q 1141 0 747 490 
Q 353 981 353 1791 
Q 353 2603 747 3093 
Q 1141 3584 1784 3584 
Q 2172 3584 2450 3431 
Q 2728 3278 2906 2969 
L 2906 3500 
L 3481 3500 
L 3481 434 
z
" id="DejaVuSans-67" transform="scale(0.015625)"/>
      </defs>
      <use xlink:href="#DejaVuSans-4e"/>
      <use x="74.804688" xlink:href="#DejaVuSans-75"/>
      <use x="138.183594" xlink:href="#DejaVuSans-6d"/>
      <use x="235.595703" xlink:href="#DejaVuSans-62"/>
      <use x="299.072266" xlink:href="#DejaVuSans-65"/>
      <use x="360.595703" xlink:href="#DejaVuSans-72"/>
      <use x="401.708984" xlink:href="#DejaVuSans-20"/>
      <use x="433.496094" xlink:href="#DejaVuSans-6f"/>
      <use x="494.677734" xlink:href="#DejaVuSans-66"/>
      <use x="529.882812" xlink:href="#DejaVuSans-20"/>
      <use x="561.669922" xlink:href="#DejaVuSans-6f"/>
      <use x="622.851562" xlink:href="#DejaVuSans-62"/>
      <use x="686.328125" xlink:href="#DejaVuSans-6a"/>
      <use x="714.111328" xlink:href="#DejaVuSans-65"/>
      <use x="775.634766" xlink:href="#DejaVuSans-63"/>
      <use x="830.615234" xlink:href="#DejaVuSans-74"/>
      <use x="869.824219" xlink:href="#DejaVuSans-73"/>
      <use x="921.923828" xlink:href="#DejaVuSans-20"/>
      <use x="953.710938" xlink:href="#DejaVuSans-6f"/>
      <use x="1014.892578" xlink:href="#DejaVuSans-6e"/>
      <use x="1078.271484" xlink:href="#DejaVuSans-20"/>
      <use x="1110.058594" xlink:href="#DejaVuSans-74"/>
      <use x="1149.267578" xlink:href="#DejaVuSans-72"/>
      <use x="1190.380859" xlink:href="#DejaVuSans-61"/>
      <use x="1251.660156" xlink:href="#DejaVuSans-69"/>
      <use x="1279.443359" xlink:href="#DejaVuSans-6e"/>
      <use x="1342.822266" xlink:href="#DejaVuSans-69"/>
      <use x="1370.605469" xlink:href="#DejaVuSans-6e"/>
      <use x="1433.984375" xlink:href="#DejaVuSans-67"/>
      <use x="1497.460938" xlink:href="#DejaVuSans-20"/>
      <use x="1529.248047" xlink:href="#DejaVuSans-73"/>
      <use x="1581.347656" xlink:href="#DejaVuSans-65"/>
      <use x="1642.871094" xlink:href="#DejaVuSans-74"/>
     </g>
    </g>
   </g>
   <g id="matplotlib.axis_2">
    <g id="ytick_1">
     <g id="line2d_4">
      <defs>
       <path d="M 0 0 
L -3.5 0 
" id="m328bb23935" style="stroke:#000000;stroke-width:0.8;"/>
      </defs>
      <g>
       <use style="stroke:#000000;stroke-width:0.8;" x="85.880625" xlink:href="#m328bb23935" y="372.284"/>
      </g>
     </g>
     <g id="text_5">
      <!-- 60% -->
      <g transform="translate(34.4275 379.882438)scale(0.2 -0.2)">
       <defs>
        <path d="M 2113 2584 
Q 1688 2584 1439 2293 
Q 1191 2003 1191 1497 
Q 1191 994 1439 701 
Q 1688 409 2113 409 
Q 2538 409 2786 701 
Q 3034 994 3034 1497 
Q 3034 2003 2786 2293 
Q 2538 2584 2113 2584 
z
M 3366 4563 
L 3366 3988 
Q 3128 4100 2886 4159 
Q 2644 4219 2406 4219 
Q 1781 4219 1451 3797 
Q 1122 3375 1075 2522 
Q 1259 2794 1537 2939 
Q 1816 3084 2150 3084 
Q 2853 3084 3261 2657 
Q 3669 2231 3669 1497 
Q 3669 778 3244 343 
Q 2819 -91 2113 -91 
Q 1303 -91 875 529 
Q 447 1150 447 2328 
Q 447 3434 972 4092 
Q 1497 4750 2381 4750 
Q 2619 4750 2861 4703 
Q 3103 4656 3366 4563 
z
" id="DejaVuSans-36" transform="scale(0.015625)"/>
        <path d="M 4653 2053 
Q 4381 2053 4226 1822 
Q 4072 1591 4072 1178 
Q 4072 772 4226 539 
Q 4381 306 4653 306 
Q 4919 306 5073 539 
Q 5228 772 5228 1178 
Q 5228 1588 5073 1820 
Q 4919 2053 4653 2053 
z
M 4653 2450 
Q 5147 2450 5437 2106 
Q 5728 1763 5728 1178 
Q 5728 594 5436 251 
Q 5144 -91 4653 -91 
Q 4153 -91 3862 251 
Q 3572 594 3572 1178 
Q 3572 1766 3864 2108 
Q 4156 2450 4653 2450 
z
M 1428 4353 
Q 1159 4353 1004 4120 
Q 850 3888 850 3481 
Q 850 3069 1003 2837 
Q 1156 2606 1428 2606 
Q 1700 2606 1854 2837 
Q 2009 3069 2009 3481 
Q 2009 3884 1853 4118 
Q 1697 4353 1428 4353 
z
M 4250 4750 
L 4750 4750 
L 1831 -91 
L 1331 -91 
L 4250 4750 
z
M 1428 4750 
Q 1922 4750 2215 4408 
Q 2509 4066 2509 3481 
Q 2509 2891 2217 2550 
Q 1925 2209 1428 2209 
Q 931 2209 642 2551 
Q 353 2894 353 3481 
Q 353 4063 643 4406 
Q 934 4750 1428 4750 
z
" id="DejaVuSans-25" transform="scale(0.015625)"/>
       </defs>
       <use xlink:href="#DejaVuSans-36"/>
       <use x="63.623047" xlink:href="#DejaVuSans-30"/>
       <use x="127.246094" xlink:href="#DejaVuSans-25"/>
      </g>
     </g>
    </g>
    <g id="ytick_2">
     <g id="line2d_5">
      <g>
       <use style="stroke:#000000;stroke-width:0.8;" x="85.880625" xlink:href="#m328bb23935" y="325.689714"/>
      </g>
     </g>
     <g id="text_6">
      <!-- 65% -->
      <g transform="translate(34.4275 333.288152)scale(0.2 -0.2)">
       <use xlink:href="#DejaVuSans-36"/>
       <use x="63.623047" xlink:href="#DejaVuSans-35"/>
       <use x="127.246094" xlink:href="#DejaVuSans-25"/>
      </g>
     </g>
    </g>
    <g id="ytick_3">
     <g id="line2d_6">
      <g>
       <use style="stroke:#000000;stroke-width:0.8;" x="85.880625" xlink:href="#m328bb23935" y="279.095429"/>
      </g>
     </g>
     <g id="text_7">
      <!-- 70% -->
      <g transform="translate(34.4275 286.693866)scale(0.2 -0.2)">
       <defs>
        <path d="M 525 4666 
L 3525 4666 
L 3525 4397 
L 1831 0 
L 1172 0 
L 2766 4134 
L 525 4134 
L 525 4666 
z
" id="DejaVuSans-37" transform="scale(0.015625)"/>
       </defs>
       <use xlink:href="#DejaVuSans-37"/>
       <use x="63.623047" xlink:href="#DejaVuSans-30"/>
       <use x="127.246094" xlink:href="#DejaVuSans-25"/>
      </g>
     </g>
    </g>
    <g id="ytick_4">
     <g id="line2d_7">
      <g>
       <use style="stroke:#000000;stroke-width:0.8;" x="85.880625" xlink:href="#m328bb23935" y="232.501143"/>
      </g>
     </g>
     <g id="text_8">
      <!-- 75% -->
      <g transform="translate(34.4275 240.09958)scale(0.2 -0.2)">
       <use xlink:href="#DejaVuSans-37"/>
       <use x="63.623047" xlink:href="#DejaVuSans-35"/>
       <use x="127.246094" xlink:href="#DejaVuSans-25"/>
      </g>
     </g>
    </g>
    <g id="ytick_5">
     <g id="line2d_8">
      <g>
       <use style="stroke:#000000;stroke-width:0.8;" x="85.880625" xlink:href="#m328bb23935" y="185.906857"/>
      </g>
     </g>
     <g id="text_9">
      <!-- 80% -->
      <g transform="translate(34.4275 193.505295)scale(0.2 -0.2)">
       <defs>
        <path d="M 2034 2216 
Q 1584 2216 1326 1975 
Q 1069 1734 1069 1313 
Q 1069 891 1326 650 
Q 1584 409 2034 409 
Q 2484 409 2743 651 
Q 3003 894 3003 1313 
Q 3003 1734 2745 1975 
Q 2488 2216 2034 2216 
z
M 1403 2484 
Q 997 2584 770 2862 
Q 544 3141 544 3541 
Q 544 4100 942 4425 
Q 1341 4750 2034 4750 
Q 2731 4750 3128 4425 
Q 3525 4100 3525 3541 
Q 3525 3141 3298 2862 
Q 3072 2584 2669 2484 
Q 3125 2378 3379 2068 
Q 3634 1759 3634 1313 
Q 3634 634 3220 271 
Q 2806 -91 2034 -91 
Q 1263 -91 848 271 
Q 434 634 434 1313 
Q 434 1759 690 2068 
Q 947 2378 1403 2484 
z
M 1172 3481 
Q 1172 3119 1398 2916 
Q 1625 2713 2034 2713 
Q 2441 2713 2670 2916 
Q 2900 3119 2900 3481 
Q 2900 3844 2670 4047 
Q 2441 4250 2034 4250 
Q 1625 4250 1398 4047 
Q 1172 3844 1172 3481 
z
" id="DejaVuSans-38" transform="scale(0.015625)"/>
       </defs>
       <use xlink:href="#DejaVuSans-38"/>
       <use x="63.623047" xlink:href="#DejaVuSans-30"/>
       <use x="127.246094" xlink:href="#DejaVuSans-25"/>
      </g>
     </g>
    </g>
    <g id="ytick_6">
     <g id="line2d_9">
      <g>
       <use style="stroke:#000000;stroke-width:0.8;" x="85.880625" xlink:href="#m328bb23935" y="139.312571"/>
      </g>
     </g>
     <g id="text_10">
      <!-- 85% -->
      <g transform="translate(34.4275 146.911009)scale(0.2 -0.2)">
       <use xlink:href="#DejaVuSans-38"/>
       <use x="63.623047" xlink:href="#DejaVuSans-35"/>
       <use x="127.246094" xlink:href="#DejaVuSans-25"/>
      </g>
     </g>
    </g>
    <g id="ytick_7">
     <g id="line2d_10">
      <g>
       <use style="stroke:#000000;stroke-width:0.8;" x="85.880625" xlink:href="#m328bb23935" y="92.718286"/>
      </g>
     </g>
     <g id="text_11">
      <!-- 90% -->
      <g transform="translate(34.4275 100.316723)scale(0.2 -0.2)">
       <defs>
        <path d="M 703 97 
L 703 672 
Q 941 559 1184 500 
Q 1428 441 1663 441 
Q 2288 441 2617 861 
Q 2947 1281 2994 2138 
Q 2813 1869 2534 1725 
Q 2256 1581 1919 1581 
Q 1219 1581 811 2004 
Q 403 2428 403 3163 
Q 403 3881 828 4315 
Q 1253 4750 1959 4750 
Q 2769 4750 3195 4129 
Q 3622 3509 3622 2328 
Q 3622 1225 3098 567 
Q 2575 -91 1691 -91 
Q 1453 -91 1209 -44 
Q 966 3 703 97 
z
M 1959 2075 
Q 2384 2075 2632 2365 
Q 2881 2656 2881 3163 
Q 2881 3666 2632 3958 
Q 2384 4250 1959 4250 
Q 1534 4250 1286 3958 
Q 1038 3666 1038 3163 
Q 1038 2656 1286 2365 
Q 1534 2075 1959 2075 
z
" id="DejaVuSans-39" transform="scale(0.015625)"/>
       </defs>
       <use xlink:href="#DejaVuSans-39"/>
       <use x="63.623047" xlink:href="#DejaVuSans-30"/>
       <use x="127.246094" xlink:href="#DejaVuSans-25"/>
      </g>
     </g>
    </g>
    <g id="ytick_8">
     <g id="line2d_11">
      <g>
       <use style="stroke:#000000;stroke-width:0.8;" x="85.880625" xlink:href="#m328bb23935" y="46.124"/>
      </g>
     </g>
     <g id="text_12">
      <!-- 95% -->
      <g transform="translate(34.4275 53.722438)scale(0.2 -0.2)">
       <use xlink:href="#DejaVuSans-39"/>
       <use x="63.623047" xlink:href="#DejaVuSans-35"/>
       <use x="127.246094" xlink:href="#DejaVuSans-25"/>
      </g>
     </g>
    </g>
    <g id="text_13">
     <!-- Accuracy on testing set -->
     <g transform="translate(25.43625 350.32025)rotate(-90)scale(0.24 -0.24)">
      <defs>
       <path d="M 2188 4044 
L 1331 1722 
L 3047 1722 
L 2188 4044 
z
M 1831 4666 
L 2547 4666 
L 4325 0 
L 3669 0 
L 3244 1197 
L 1141 1197 
L 716 0 
L 50 0 
L 1831 4666 
z
" id="DejaVuSans-41" transform="scale(0.015625)"/>
       <path d="M 2059 -325 
Q 1816 -950 1584 -1140 
Q 1353 -1331 966 -1331 
L 506 -1331 
L 506 -850 
L 844 -850 
Q 1081 -850 1212 -737 
Q 1344 -625 1503 -206 
L 1606 56 
L 191 3500 
L 800 3500 
L 1894 763 
L 2988 3500 
L 3597 3500 
L 2059 -325 
z
" id="DejaVuSans-79" transform="scale(0.015625)"/>
      </defs>
      <use xlink:href="#DejaVuSans-41"/>
      <use x="66.658203" xlink:href="#DejaVuSans-63"/>
      <use x="121.638672" xlink:href="#DejaVuSans-63"/>
      <use x="176.619141" xlink:href="#DejaVuSans-75"/>
      <use x="239.998047" xlink:href="#DejaVuSans-72"/>
      <use x="281.111328" xlink:href="#DejaVuSans-61"/>
      <use x="342.390625" xlink:href="#DejaVuSans-63"/>
      <use x="397.371094" xlink:href="#DejaVuSans-79"/>
      <use x="456.550781" xlink:href="#DejaVuSans-20"/>
      <use x="488.337891" xlink:href="#DejaVuSans-6f"/>
      <use x="549.519531" xlink:href="#DejaVuSans-6e"/>
      <use x="612.898438" xlink:href="#DejaVuSans-20"/>
      <use x="644.685547" xlink:href="#DejaVuSans-74"/>
      <use x="683.894531" xlink:href="#DejaVuSans-65"/>
      <use x="745.417969" xlink:href="#DejaVuSans-73"/>
      <use x="797.517578" xlink:href="#DejaVuSans-74"/>
      <use x="836.726562" xlink:href="#DejaVuSans-69"/>
      <use x="864.509766" xlink:href="#DejaVuSans-6e"/>
      <use x="927.888672" xlink:href="#DejaVuSans-67"/>
      <use x="991.365234" xlink:href="#DejaVuSans-20"/>
      <use x="1023.152344" xlink:href="#DejaVuSans-73"/>
      <use x="1075.251953" xlink:href="#DejaVuSans-65"/>
      <use x="1136.775391" xlink:href="#DejaVuSans-74"/>
     </g>
    </g>
   </g>
   <g id="line2d_12">
    <path clip-path="url(#pd164d3696c)" d="M 186.320625 222.642607 
L 186.320625 248.099791 
" style="fill:none;stroke:#313131;stroke-linecap:square;stroke-width:1.5;"/>
   </g>
   <g id="line2d_13">
    <path clip-path="url(#pd164d3696c)" d="M 186.320625 195.254188 
L 186.320625 183.487346 
" style="fill:none;stroke:#313131;stroke-linecap:square;stroke-width:1.5;"/>
   </g>
   <g id="line2d_14">
    <path clip-path="url(#pd164d3696c)" d="M 153.510225 248.099791 
L 219.131025 248.099791 
" style="fill:none;stroke:#313131;stroke-linecap:square;stroke-width:1.5;"/>
   </g>
   <g id="line2d_15">
    <path clip-path="url(#pd164d3696c)" d="M 153.510225 183.487346 
L 219.131025 183.487346 
" style="fill:none;stroke:#313131;stroke-linecap:square;stroke-width:1.5;"/>
   </g>
   <g id="line2d_16">
    <path clip-path="url(#pd164d3696c)" d="M 320.240625 218.932887 
L 320.240625 235.254455 
" style="fill:none;stroke:#313131;stroke-linecap:square;stroke-width:1.5;"/>
   </g>
   <g id="line2d_17">
    <path clip-path="url(#pd164d3696c)" d="M 320.240625 200.805823 
L 320.240625 181.829391 
" style="fill:none;stroke:#313131;stroke-linecap:square;stroke-width:1.5;"/>
   </g>
   <g id="line2d_18">
    <path clip-path="url(#pd164d3696c)" d="M 287.430225 235.254455 
L 353.051025 235.254455 
" style="fill:none;stroke:#313131;stroke-linecap:square;stroke-width:1.5;"/>
   </g>
   <g id="line2d_19">
    <path clip-path="url(#pd164d3696c)" d="M 287.430225 181.829391 
L 353.051025 181.829391 
" style="fill:none;stroke:#313131;stroke-linecap:square;stroke-width:1.5;"/>
   </g>
   <g id="line2d_20">
    <path clip-path="url(#pd164d3696c)" d="M 521.120625 206.210177 
L 521.120625 236.760233 
" style="fill:none;stroke:#313131;stroke-linecap:square;stroke-width:1.5;"/>
   </g>
   <g id="line2d_21">
    <path clip-path="url(#pd164d3696c)" d="M 521.120625 185.569002 
L 521.120625 157.887477 
" style="fill:none;stroke:#313131;stroke-linecap:square;stroke-width:1.5;"/>
   </g>
   <g id="line2d_22">
    <path clip-path="url(#pd164d3696c)" d="M 488.310225 236.760233 
L 553.931025 236.760233 
" style="fill:none;stroke:#313131;stroke-linecap:square;stroke-width:1.5;"/>
   </g>
   <g id="line2d_23">
    <path clip-path="url(#pd164d3696c)" d="M 488.310225 157.887477 
L 553.931025 157.887477 
" style="fill:none;stroke:#313131;stroke-linecap:square;stroke-width:1.5;"/>
   </g>
   <g id="line2d_24">
    <path clip-path="url(#pd164d3696c)" d="M 655.040625 200.564278 
L 655.040625 220.117593 
" style="fill:none;stroke:#313131;stroke-linecap:square;stroke-width:1.5;"/>
   </g>
   <g id="line2d_25">
    <path clip-path="url(#pd164d3696c)" d="M 655.040625 178.838271 
L 655.040625 160.911353 
" style="fill:none;stroke:#313131;stroke-linecap:square;stroke-width:1.5;"/>
   </g>
   <g id="line2d_26">
    <path clip-path="url(#pd164d3696c)" d="M 622.230225 220.117593 
L 687.851025 220.117593 
" style="fill:none;stroke:#313131;stroke-linecap:square;stroke-width:1.5;"/>
   </g>
   <g id="line2d_27">
    <path clip-path="url(#pd164d3696c)" d="M 622.230225 160.911353 
L 687.851025 160.911353 
" style="fill:none;stroke:#313131;stroke-linecap:square;stroke-width:1.5;"/>
   </g>
   <g id="line2d_28">
    <path clip-path="url(#pd164d3696c)" d="M 855.920625 218.099944 
L 855.920625 239.025592 
" style="fill:none;stroke:#313131;stroke-linecap:square;stroke-width:1.5;"/>
   </g>
   <g id="line2d_29">
    <path clip-path="url(#pd164d3696c)" d="M 855.920625 200.367126 
L 855.920625 186.088724 
" style="fill:none;stroke:#313131;stroke-linecap:square;stroke-width:1.5;"/>
   </g>
   <g id="line2d_30">
    <path clip-path="url(#pd164d3696c)" d="M 823.110225 239.025592 
L 888.731025 239.025592 
" style="fill:none;stroke:#313131;stroke-linecap:square;stroke-width:1.5;"/>
   </g>
   <g id="line2d_31">
    <path clip-path="url(#pd164d3696c)" d="M 823.110225 186.088724 
L 888.731025 186.088724 
" style="fill:none;stroke:#313131;stroke-linecap:square;stroke-width:1.5;"/>
   </g>
   <g id="line2d_32">
    <path clip-path="url(#pd164d3696c)" d="M 989.840625 195.2398 
L 989.840625 207.258689 
" style="fill:none;stroke:#313131;stroke-linecap:square;stroke-width:1.5;"/>
   </g>
   <g id="line2d_33">
    <path clip-path="url(#pd164d3696c)" d="M 989.840625 185.65724 
L 989.840625 171.950005 
" style="fill:none;stroke:#313131;stroke-linecap:square;stroke-width:1.5;"/>
   </g>
   <g id="line2d_34">
    <path clip-path="url(#pd164d3696c)" d="M 957.030225 207.258689 
L 1022.651025 207.258689 
" style="fill:none;stroke:#313131;stroke-linecap:square;stroke-width:1.5;"/>
   </g>
   <g id="line2d_35">
    <path clip-path="url(#pd164d3696c)" d="M 957.030225 171.950005 
L 1022.651025 171.950005 
" style="fill:none;stroke:#313131;stroke-linecap:square;stroke-width:1.5;"/>
   </g>
   <g id="line2d_36">
    <path clip-path="url(#pd164d3696c)" d="M 146.359171 222.642607 
L 226.282079 222.642607 
" style="fill:none;stroke:#313131;stroke-dasharray:3.375,3.375;stroke-dashoffset:0;stroke-width:1.5;"/>
   </g>
   <g id="line2d_37">
    <path clip-path="url(#pd164d3696c)" d="M 137.361805 204.950081 
L 235.279445 204.950081 
" style="fill:none;stroke:#313131;stroke-dasharray:6.75,6.75;stroke-dashoffset:0;stroke-width:1.5;"/>
   </g>
   <g id="line2d_38">
    <path clip-path="url(#pd164d3696c)" d="M 140.912009 195.254188 
L 231.729241 195.254188 
" style="fill:none;stroke:#313131;stroke-dasharray:3.375,3.375;stroke-dashoffset:0;stroke-width:1.5;"/>
   </g>
   <g id="line2d_39">
    <path clip-path="url(#pd164d3696c)" d="M 261.605182 218.932887 
L 378.876068 218.932887 
" style="fill:none;stroke:#313131;stroke-dasharray:3.375,3.375;stroke-dashoffset:0;stroke-width:1.5;"/>
   </g>
   <g id="line2d_40">
    <path clip-path="url(#pd164d3696c)" d="M 253.950225 210.57965 
L 386.531025 210.57965 
" style="fill:none;stroke:#313131;stroke-dasharray:6.75,6.75;stroke-dashoffset:0;stroke-width:1.5;"/>
   </g>
   <g id="line2d_41">
    <path clip-path="url(#pd164d3696c)" d="M 262.497964 200.805823 
L 377.983286 200.805823 
" style="fill:none;stroke:#313131;stroke-dasharray:3.375,3.375;stroke-dashoffset:0;stroke-width:1.5;"/>
   </g>
   <g id="line2d_42">
    <path clip-path="url(#pd164d3696c)" d="M 465.573036 206.210177 
L 576.668214 206.210177 
" style="fill:none;stroke:#313131;stroke-dasharray:3.375,3.375;stroke-dashoffset:0;stroke-width:1.5;"/>
   </g>
   <g id="line2d_43">
    <path clip-path="url(#pd164d3696c)" d="M 454.830225 193.584775 
L 587.411025 193.584775 
" style="fill:none;stroke:#313131;stroke-dasharray:6.75,6.75;stroke-dashoffset:0;stroke-width:1.5;"/>
   </g>
   <g id="line2d_44">
    <path clip-path="url(#pd164d3696c)" d="M 460.906847 185.569002 
L 581.334403 185.569002 
" style="fill:none;stroke:#313131;stroke-dasharray:3.375,3.375;stroke-dashoffset:0;stroke-width:1.5;"/>
   </g>
   <g id="line2d_45">
    <path clip-path="url(#pd164d3696c)" d="M 594.170531 200.564278 
L 715.910719 200.564278 
" style="fill:none;stroke:#313131;stroke-dasharray:3.375,3.375;stroke-dashoffset:0;stroke-width:1.5;"/>
   </g>
   <g id="line2d_46">
    <path clip-path="url(#pd164d3696c)" d="M 589.219213 192.603896 
L 720.862037 192.603896 
" style="fill:none;stroke:#313131;stroke-dasharray:6.75,6.75;stroke-dashoffset:0;stroke-width:1.5;"/>
   </g>
   <g id="line2d_47">
    <path clip-path="url(#pd164d3696c)" d="M 603.730309 178.838271 
L 706.350941 178.838271 
" style="fill:none;stroke:#313131;stroke-dasharray:3.375,3.375;stroke-dashoffset:0;stroke-width:1.5;"/>
   </g>
   <g id="line2d_48">
    <path clip-path="url(#pd164d3696c)" d="M 817.701224 218.099944 
L 894.140026 218.099944 
" style="fill:none;stroke:#313131;stroke-dasharray:3.375,3.375;stroke-dashoffset:0;stroke-width:1.5;"/>
   </g>
   <g id="line2d_49">
    <path clip-path="url(#pd164d3696c)" d="M 808.120079 207.235 
L 903.721171 207.235 
" style="fill:none;stroke:#313131;stroke-dasharray:6.75,6.75;stroke-dashoffset:0;stroke-width:1.5;"/>
   </g>
   <g id="line2d_50">
    <path clip-path="url(#pd164d3696c)" d="M 811.762418 200.367126 
L 900.078832 200.367126 
" style="fill:none;stroke:#313131;stroke-dasharray:3.375,3.375;stroke-dashoffset:0;stroke-width:1.5;"/>
   </g>
   <g id="line2d_51">
    <path clip-path="url(#pd164d3696c)" d="M 929.383193 195.2398 
L 1050.298057 195.2398 
" style="fill:none;stroke:#313131;stroke-dasharray:3.375,3.375;stroke-dashoffset:0;stroke-width:1.5;"/>
   </g>
   <g id="line2d_52">
    <path clip-path="url(#pd164d3696c)" d="M 923.550225 190.955954 
L 1056.131025 190.955954 
" style="fill:none;stroke:#313131;stroke-dasharray:6.75,6.75;stroke-dashoffset:0;stroke-width:1.5;"/>
   </g>
   <g id="line2d_53">
    <path clip-path="url(#pd164d3696c)" d="M 929.827536 185.65724 
L 1049.853714 185.65724 
" style="fill:none;stroke:#313131;stroke-dasharray:3.375,3.375;stroke-dashoffset:0;stroke-width:1.5;"/>
   </g>
   <g id="line2d_54">
    <path clip-path="url(#pd164d3696c)" d="M 420.680625 372.284 
L 420.680625 46.124 
" style="fill:none;stroke:#808080;stroke-linecap:square;"/>
   </g>
   <g id="line2d_55">
    <path clip-path="url(#pd164d3696c)" d="M 755.480625 372.284 
L 755.480625 46.124 
" style="fill:none;stroke:#808080;stroke-linecap:square;"/>
   </g>
   <g id="line2d_56">
    <path clip-path="url(#pd164d3696c)" d="M 120.699825 204.950081 
L 251.941425 204.950081 
" style="fill:none;stroke:#313131;stroke-linecap:square;stroke-width:1.5;"/>
   </g>
   <g id="line2d_57">
    <defs>
     <path d="M 0 5 
C 1.326016 5 2.597899 4.473168 3.535534 3.535534 
C 4.473168 2.597899 5 1.326016 5 0 
C 5 -1.326016 4.473168 -2.597899 3.535534 -3.535534 
C 2.597899 -4.473168 1.326016 -5 0 -5 
C -1.326016 -5 -2.597899 -4.473168 -3.535534 -3.535534 
C -4.473168 -2.597899 -5 -1.326016 -5 0 
C -5 1.326016 -4.473168 2.597899 -3.535534 3.535534 
C -2.597899 4.473168 -1.326016 5 0 5 
z
" id="me5fb189f9d" style="stroke:#000000;"/>
    </defs>
    <g clip-path="url(#pd164d3696c)">
     <use style="fill:#ffffff;stroke:#000000;" x="186.320625" xlink:href="#me5fb189f9d" y="209.934671"/>
    </g>
   </g>
   <g id="line2d_58">
    <path clip-path="url(#pd164d3696c)" d="M 254.619825 210.57965 
L 385.861425 210.57965 
" style="fill:none;stroke:#313131;stroke-linecap:square;stroke-width:1.5;"/>
   </g>
   <g id="line2d_59">
    <g clip-path="url(#pd164d3696c)">
     <use style="fill:#ffffff;stroke:#000000;" x="320.240625" xlink:href="#me5fb189f9d" y="209.116762"/>
    </g>
   </g>
   <g id="line2d_60">
    <path clip-path="url(#pd164d3696c)" d="M 455.499825 193.584775 
L 586.741425 193.584775 
" style="fill:none;stroke:#313131;stroke-linecap:square;stroke-width:1.5;"/>
   </g>
   <g id="line2d_61">
    <g clip-path="url(#pd164d3696c)">
     <use style="fill:#ffffff;stroke:#000000;" x="521.120625" xlink:href="#me5fb189f9d" y="196.407922"/>
    </g>
   </g>
   <g id="line2d_62">
    <path clip-path="url(#pd164d3696c)" d="M 589.419825 192.603896 
L 720.661425 192.603896 
" style="fill:none;stroke:#313131;stroke-linecap:square;stroke-width:1.5;"/>
   </g>
   <g id="line2d_63">
    <g clip-path="url(#pd164d3696c)">
     <use style="fill:#ffffff;stroke:#000000;" x="655.040625" xlink:href="#me5fb189f9d" y="190.408037"/>
    </g>
   </g>
   <g id="line2d_64">
    <path clip-path="url(#pd164d3696c)" d="M 790.299825 207.235 
L 921.541425 207.235 
" style="fill:none;stroke:#313131;stroke-linecap:square;stroke-width:1.5;"/>
   </g>
   <g id="line2d_65">
    <g clip-path="url(#pd164d3696c)">
     <use style="fill:#ffffff;stroke:#000000;" x="855.920625" xlink:href="#me5fb189f9d" y="209.321291"/>
    </g>
   </g>
   <g id="line2d_66">
    <path clip-path="url(#pd164d3696c)" d="M 924.219825 190.955954 
L 1055.461425 190.955954 
" style="fill:none;stroke:#313131;stroke-linecap:square;stroke-width:1.5;"/>
   </g>
   <g id="line2d_67">
    <g clip-path="url(#pd164d3696c)">
     <use style="fill:#ffffff;stroke:#000000;" x="989.840625" xlink:href="#me5fb189f9d" y="191.089537"/>
    </g>
   </g>
   <g id="patch_7">
    <path d="M 85.880625 372.284 
L 85.880625 46.124 
" style="fill:none;stroke:#000000;stroke-linecap:square;stroke-linejoin:miter;stroke-width:0.8;"/>
   </g>
   <g id="patch_8">
    <path d="M 1090.280625 372.284 
L 1090.280625 46.124 
" style="fill:none;stroke:#000000;stroke-linecap:square;stroke-linejoin:miter;stroke-width:0.8;"/>
   </g>
   <g id="patch_9">
    <path d="M 85.880625 372.284 
L 1090.280625 372.284 
" style="fill:none;stroke:#000000;stroke-linecap:square;stroke-linejoin:miter;stroke-width:0.8;"/>
   </g>
   <g id="patch_10">
    <path d="M 85.880625 46.124 
L 1090.280625 46.124 
" style="fill:none;stroke:#000000;stroke-linecap:square;stroke-linejoin:miter;stroke-width:0.8;"/>
   </g>
   <g id="text_14">
    <g id="patch_11">
     <path d="M 316.280625 333.393152 
L 381.381563 333.393152 
L 381.381563 308.052527 
L 316.280625 308.052527 
z
" style="fill:#ffffff;opacity:0.5;stroke:#000000;stroke-linejoin:miter;"/>
    </g>
    <!-- 77.5% -->
    <g transform="translate(320.240625 325.689714)scale(0.18 -0.18)">
     <defs>
      <path d="M 684 794 
L 1344 794 
L 1344 0 
L 684 0 
L 684 794 
z
" id="DejaVuSans-2e" transform="scale(0.015625)"/>
     </defs>
     <use xlink:href="#DejaVuSans-37"/>
     <use x="63.623047" xlink:href="#DejaVuSans-37"/>
     <use x="127.246094" xlink:href="#DejaVuSans-2e"/>
     <use x="159.033203" xlink:href="#DejaVuSans-35"/>
     <use x="222.65625" xlink:href="#DejaVuSans-25"/>
    </g>
   </g>
   <g id="text_15">
    <g id="patch_12">
     <path d="M 651.080625 333.393152 
L 716.181563 333.393152 
L 716.181563 308.052527 
L 651.080625 308.052527 
z
" style="fill:#ffffff;opacity:0.5;stroke:#000000;stroke-linejoin:miter;"/>
    </g>
    <!-- 79.5% -->
    <g transform="translate(655.040625 325.689714)scale(0.18 -0.18)">
     <use xlink:href="#DejaVuSans-37"/>
     <use x="63.623047" xlink:href="#DejaVuSans-39"/>
     <use x="127.246094" xlink:href="#DejaVuSans-2e"/>
     <use x="159.033203" xlink:href="#DejaVuSans-35"/>
     <use x="222.65625" xlink:href="#DejaVuSans-25"/>
    </g>
   </g>
   <g id="text_16">
    <g id="patch_13">
     <path d="M 985.880625 333.393152 
L 1050.981563 333.393152 
L 1050.981563 308.052527 
L 985.880625 308.052527 
z
" style="fill:#ffffff;opacity:0.5;stroke:#000000;stroke-linejoin:miter;"/>
    </g>
    <!-- 79.4% -->
    <g transform="translate(989.840625 325.689714)scale(0.18 -0.18)">
     <defs>
      <path d="M 2419 4116 
L 825 1625 
L 2419 1625 
L 2419 4116 
z
M 2253 4666 
L 3047 4666 
L 3047 1625 
L 3713 1625 
L 3713 1100 
L 3047 1100 
L 3047 0 
L 2419 0 
L 2419 1100 
L 313 1100 
L 313 1709 
L 2253 4666 
z
" id="DejaVuSans-34" transform="scale(0.015625)"/>
     </defs>
     <use xlink:href="#DejaVuSans-37"/>
     <use x="63.623047" xlink:href="#DejaVuSans-39"/>
     <use x="127.246094" xlink:href="#DejaVuSans-2e"/>
     <use x="159.033203" xlink:href="#DejaVuSans-34"/>
     <use x="222.65625" xlink:href="#DejaVuSans-25"/>
    </g>
   </g>
   <g id="text_17">
    <g id="patch_14">
     <path d="M 98.660625 333.393152 
L 163.761563 333.393152 
L 163.761563 308.052527 
L 98.660625 308.052527 
z
" style="fill:#ffffff;opacity:0.5;stroke:#000000;stroke-linejoin:miter;"/>
    </g>
    <!-- 77.4% -->
    <g transform="translate(102.620625 325.689714)scale(0.18 -0.18)">
     <use xlink:href="#DejaVuSans-37"/>
     <use x="63.623047" xlink:href="#DejaVuSans-37"/>
     <use x="127.246094" xlink:href="#DejaVuSans-2e"/>
     <use x="159.033203" xlink:href="#DejaVuSans-34"/>
     <use x="222.65625" xlink:href="#DejaVuSans-25"/>
    </g>
   </g>
   <g id="text_18">
    <g id="patch_15">
     <path d="M 433.460625 333.393152 
L 498.561563 333.393152 
L 498.561563 308.052527 
L 433.460625 308.052527 
z
" style="fill:#ffffff;opacity:0.5;stroke:#000000;stroke-linejoin:miter;"/>
    </g>
    <!-- 78.9% -->
    <g transform="translate(437.420625 325.689714)scale(0.18 -0.18)">
     <use xlink:href="#DejaVuSans-37"/>
     <use x="63.623047" xlink:href="#DejaVuSans-38"/>
     <use x="127.246094" xlink:href="#DejaVuSans-2e"/>
     <use x="159.033203" xlink:href="#DejaVuSans-39"/>
     <use x="222.65625" xlink:href="#DejaVuSans-25"/>
    </g>
   </g>
   <g id="text_19">
    <g id="patch_16">
     <path d="M 768.260625 333.393152 
L 833.361563 333.393152 
L 833.361563 308.052527 
L 768.260625 308.052527 
z
" style="fill:#ffffff;opacity:0.5;stroke:#000000;stroke-linejoin:miter;"/>
    </g>
    <!-- 77.5% -->
    <g transform="translate(772.220625 325.689714)scale(0.18 -0.18)">
     <use xlink:href="#DejaVuSans-37"/>
     <use x="63.623047" xlink:href="#DejaVuSans-37"/>
     <use x="127.246094" xlink:href="#DejaVuSans-2e"/>
     <use x="159.033203" xlink:href="#DejaVuSans-35"/>
     <use x="222.65625" xlink:href="#DejaVuSans-25"/>
    </g>
   </g>
   <g id="text_20">
    <g id="patch_17">
     <path d="M 343.064625 100.421723 
L 396.713063 100.421723 
L 396.713063 75.081098 
L 343.064625 75.081098 
z
" style="fill:#808080;opacity:0.5;stroke:#000000;stroke-linejoin:miter;"/>
    </g>
    <!-- 1.5% -->
    <g transform="translate(347.024625 92.718286)scale(0.18 -0.18)">
     <use xlink:href="#DejaVuSans-31"/>
     <use x="63.623047" xlink:href="#DejaVuSans-2e"/>
     <use x="95.410156" xlink:href="#DejaVuSans-35"/>
     <use x="159.033203" xlink:href="#DejaVuSans-25"/>
    </g>
   </g>
   <g id="text_21">
    <g id="patch_18">
     <path d="M 677.864625 100.421723 
L 731.513063 100.421723 
L 731.513063 75.081098 
L 677.864625 75.081098 
z
" style="fill:#808080;opacity:0.5;stroke:#000000;stroke-linejoin:miter;"/>
    </g>
    <!-- 1.7% -->
    <g transform="translate(681.824625 92.718286)scale(0.18 -0.18)">
     <use xlink:href="#DejaVuSans-31"/>
     <use x="63.623047" xlink:href="#DejaVuSans-2e"/>
     <use x="95.410156" xlink:href="#DejaVuSans-37"/>
     <use x="159.033203" xlink:href="#DejaVuSans-25"/>
    </g>
   </g>
   <g id="text_22">
    <g id="patch_19">
     <path d="M 1012.664625 100.421723 
L 1066.313063 100.421723 
L 1066.313063 75.081098 
L 1012.664625 75.081098 
z
" style="fill:#808080;opacity:0.5;stroke:#000000;stroke-linejoin:miter;"/>
    </g>
    <!-- 1.0% -->
    <g transform="translate(1016.624625 92.718286)scale(0.18 -0.18)">
     <use xlink:href="#DejaVuSans-31"/>
     <use x="63.623047" xlink:href="#DejaVuSans-2e"/>
     <use x="95.410156" xlink:href="#DejaVuSans-30"/>
     <use x="159.033203" xlink:href="#DejaVuSans-25"/>
    </g>
   </g>
   <g id="text_23">
    <g id="patch_20">
     <path d="M 98.660625 100.421723 
L 152.309063 100.421723 
L 152.309063 75.081098 
L 98.660625 75.081098 
z
" style="fill:#808080;opacity:0.5;stroke:#000000;stroke-linejoin:miter;"/>
    </g>
    <!-- 1.9% -->
    <g transform="translate(102.620625 92.718286)scale(0.18 -0.18)">
     <use xlink:href="#DejaVuSans-31"/>
     <use x="63.623047" xlink:href="#DejaVuSans-2e"/>
     <use x="95.410156" xlink:href="#DejaVuSans-39"/>
     <use x="159.033203" xlink:href="#DejaVuSans-25"/>
    </g>
   </g>
   <g id="text_24">
    <g id="patch_21">
     <path d="M 433.460625 100.421723 
L 487.109063 100.421723 
L 487.109063 75.081098 
L 433.460625 75.081098 
z
" style="fill:#808080;opacity:0.5;stroke:#000000;stroke-linejoin:miter;"/>
    </g>
    <!-- 1.7% -->
    <g transform="translate(437.420625 92.718286)scale(0.18 -0.18)">
     <use xlink:href="#DejaVuSans-31"/>
     <use x="63.623047" xlink:href="#DejaVuSans-2e"/>
     <use x="95.410156" xlink:href="#DejaVuSans-37"/>
     <use x="159.033203" xlink:href="#DejaVuSans-25"/>
    </g>
   </g>
   <g id="text_25">
    <g id="patch_22">
     <path d="M 768.260625 100.421723 
L 821.909063 100.421723 
L 821.909063 75.081098 
L 768.260625 75.081098 
z
" style="fill:#808080;opacity:0.5;stroke:#000000;stroke-linejoin:miter;"/>
    </g>
    <!-- 1.3% -->
    <g transform="translate(772.220625 92.718286)scale(0.18 -0.18)">
     <defs>
      <path d="M 2597 2516 
Q 3050 2419 3304 2112 
Q 3559 1806 3559 1356 
Q 3559 666 3084 287 
Q 2609 -91 1734 -91 
Q 1441 -91 1130 -33 
Q 819 25 488 141 
L 488 750 
Q 750 597 1062 519 
Q 1375 441 1716 441 
Q 2309 441 2620 675 
Q 2931 909 2931 1356 
Q 2931 1769 2642 2001 
Q 2353 2234 1838 2234 
L 1294 2234 
L 1294 2753 
L 1863 2753 
Q 2328 2753 2575 2939 
Q 2822 3125 2822 3475 
Q 2822 3834 2567 4026 
Q 2313 4219 1838 4219 
Q 1578 4219 1281 4162 
Q 984 4106 628 3988 
L 628 4550 
Q 988 4650 1302 4700 
Q 1616 4750 1894 4750 
Q 2613 4750 3031 4423 
Q 3450 4097 3450 3541 
Q 3450 3153 3228 2886 
Q 3006 2619 2597 2516 
z
" id="DejaVuSans-33" transform="scale(0.015625)"/>
     </defs>
     <use xlink:href="#DejaVuSans-31"/>
     <use x="63.623047" xlink:href="#DejaVuSans-2e"/>
     <use x="95.410156" xlink:href="#DejaVuSans-33"/>
     <use x="159.033203" xlink:href="#DejaVuSans-25"/>
    </g>
   </g>
   <g id="legend_1">
    <g id="patch_23">
     <path d="M 91.836625 44.55625 
L 435.68975 44.55625 
Q 439.68975 44.55625 439.68975 40.55625 
L 439.68975 13.2 
Q 439.68975 9.2 435.68975 9.2 
L 91.836625 9.2 
Q 87.836625 9.2 87.836625 13.2 
L 87.836625 40.55625 
Q 87.836625 44.55625 91.836625 44.55625 
z
" style="fill:#4c4c4c;opacity:0.5;stroke:#4c4c4c;stroke-linejoin:miter;"/>
    </g>
    <g id="patch_24">
     <path d="M 89.836625 42.55625 
L 433.68975 42.55625 
Q 437.68975 42.55625 437.68975 38.55625 
L 437.68975 11.2 
Q 437.68975 7.2 433.68975 7.2 
L 89.836625 7.2 
Q 85.836625 7.2 85.836625 11.2 
L 85.836625 38.55625 
Q 85.836625 42.55625 89.836625 42.55625 
z
" style="fill:#ffffff;stroke:#cccccc;stroke-linejoin:miter;"/>
    </g>
    <g id="patch_25">
     <path d="M 93.836625 30.396875 
L 133.836625 30.396875 
L 133.836625 16.396875 
L 93.836625 16.396875 
z
" style="fill:#772b58;stroke:#313131;stroke-linejoin:miter;stroke-width:0.75;"/>
    </g>
    <g id="text_26">
     <!-- Baseline -->
     <g transform="translate(149.836625 30.396875)scale(0.2 -0.2)">
      <defs>
       <path d="M 1259 2228 
L 1259 519 
L 2272 519 
Q 2781 519 3026 730 
Q 3272 941 3272 1375 
Q 3272 1813 3026 2020 
Q 2781 2228 2272 2228 
L 1259 2228 
z
M 1259 4147 
L 1259 2741 
L 2194 2741 
Q 2656 2741 2882 2914 
Q 3109 3088 3109 3444 
Q 3109 3797 2882 3972 
Q 2656 4147 2194 4147 
L 1259 4147 
z
M 628 4666 
L 2241 4666 
Q 2963 4666 3353 4366 
Q 3744 4066 3744 3513 
Q 3744 3084 3544 2831 
Q 3344 2578 2956 2516 
Q 3422 2416 3680 2098 
Q 3938 1781 3938 1306 
Q 3938 681 3513 340 
Q 3088 0 2303 0 
L 628 0 
L 628 4666 
z
" id="DejaVuSans-42" transform="scale(0.015625)"/>
       <path d="M 603 4863 
L 1178 4863 
L 1178 0 
L 603 0 
L 603 4863 
z
" id="DejaVuSans-6c" transform="scale(0.015625)"/>
      </defs>
      <use xlink:href="#DejaVuSans-42"/>
      <use x="68.603516" xlink:href="#DejaVuSans-61"/>
      <use x="129.882812" xlink:href="#DejaVuSans-73"/>
      <use x="181.982422" xlink:href="#DejaVuSans-65"/>
      <use x="243.505859" xlink:href="#DejaVuSans-6c"/>
      <use x="271.289062" xlink:href="#DejaVuSans-69"/>
      <use x="299.072266" xlink:href="#DejaVuSans-6e"/>
      <use x="362.451172" xlink:href="#DejaVuSans-65"/>
     </g>
    </g>
    <g id="patch_26">
     <path d="M 274.6335 30.396875 
L 314.6335 30.396875 
L 314.6335 16.396875 
L 274.6335 16.396875 
z
" style="fill:#db6e59;stroke:#313131;stroke-linejoin:miter;stroke-width:0.75;"/>
    </g>
    <g id="text_27">
     <!-- 1D-period -->
     <g transform="translate(330.6335 30.396875)scale(0.2 -0.2)">
      <defs>
       <path d="M 1259 4147 
L 1259 519 
L 2022 519 
Q 2988 519 3436 956 
Q 3884 1394 3884 2338 
Q 3884 3275 3436 3711 
Q 2988 4147 2022 4147 
L 1259 4147 
z
M 628 4666 
L 1925 4666 
Q 3281 4666 3915 4102 
Q 4550 3538 4550 2338 
Q 4550 1131 3912 565 
Q 3275 0 1925 0 
L 628 0 
L 628 4666 
z
" id="DejaVuSans-44" transform="scale(0.015625)"/>
       <path d="M 313 2009 
L 1997 2009 
L 1997 1497 
L 313 1497 
L 313 2009 
z
" id="DejaVuSans-2d" transform="scale(0.015625)"/>
       <path d="M 1159 525 
L 1159 -1331 
L 581 -1331 
L 581 3500 
L 1159 3500 
L 1159 2969 
Q 1341 3281 1617 3432 
Q 1894 3584 2278 3584 
Q 2916 3584 3314 3078 
Q 3713 2572 3713 1747 
Q 3713 922 3314 415 
Q 2916 -91 2278 -91 
Q 1894 -91 1617 61 
Q 1341 213 1159 525 
z
M 3116 1747 
Q 3116 2381 2855 2742 
Q 2594 3103 2138 3103 
Q 1681 3103 1420 2742 
Q 1159 2381 1159 1747 
Q 1159 1113 1420 752 
Q 1681 391 2138 391 
Q 2594 391 2855 752 
Q 3116 1113 3116 1747 
z
" id="DejaVuSans-70" transform="scale(0.015625)"/>
       <path d="M 2906 2969 
L 2906 4863 
L 3481 4863 
L 3481 0 
L 2906 0 
L 2906 525 
Q 2725 213 2448 61 
Q 2172 -91 1784 -91 
Q 1150 -91 751 415 
Q 353 922 353 1747 
Q 353 2572 751 3078 
Q 1150 3584 1784 3584 
Q 2172 3584 2448 3432 
Q 2725 3281 2906 2969 
z
M 947 1747 
Q 947 1113 1208 752 
Q 1469 391 1925 391 
Q 2381 391 2643 752 
Q 2906 1113 2906 1747 
Q 2906 2381 2643 2742 
Q 2381 3103 1925 3103 
Q 1469 3103 1208 2742 
Q 947 2381 947 1747 
z
" id="DejaVuSans-64" transform="scale(0.015625)"/>
      </defs>
      <use xlink:href="#DejaVuSans-31"/>
      <use x="63.623047" xlink:href="#DejaVuSans-44"/>
      <use x="140.625" xlink:href="#DejaVuSans-2d"/>
      <use x="176.708984" xlink:href="#DejaVuSans-70"/>
      <use x="240.185547" xlink:href="#DejaVuSans-65"/>
      <use x="301.708984" xlink:href="#DejaVuSans-72"/>
      <use x="342.822266" xlink:href="#DejaVuSans-69"/>
      <use x="370.605469" xlink:href="#DejaVuSans-6f"/>
      <use x="431.787109" xlink:href="#DejaVuSans-64"/>
     </g>
    </g>
   </g>
  </g>
 </g>
 <defs>
  <clipPath id="pd164d3696c">
   <rect height="326.16" width="1004.4" x="85.880625" y="46.124"/>
  </clipPath>
 </defs>
</svg>
