<?xml version="1.0" encoding="utf-8" standalone="no"?>
<!DOCTYPE svg PUBLIC "-//W3C//DTD SVG 1.1//EN"
  "http://www.w3.org/Graphics/SVG/1.1/DTD/svg11.dtd">
<svg height="401.742188pt" version="1.1" viewBox="0 0 930.15875 401.742188" width="930.15875pt" xmlns="http://www.w3.org/2000/svg" xmlns:xlink="http://www.w3.org/1999/xlink">
 <metadata>
  <rdf:RDF xmlns:cc="http://creativecommons.org/ns#" xmlns:dc="http://purl.org/dc/elements/1.1/" xmlns:rdf="http://www.w3.org/1999/02/22-rdf-syntax-ns#">
   <cc:Work>
    <dc:type rdf:resource="http://purl.org/dc/dcmitype/StillImage"/>
    <dc:date>2023-01-18T17:21:30.708651</dc:date>
    <dc:format>image/svg+xml</dc:format>
    <dc:creator>
     <cc:Agent>
      <dc:title>Matplotlib v3.4.2, https://matplotlib.org/</dc:title>
     </cc:Agent>
    </dc:creator>
   </cc:Work>
  </rdf:RDF>
 </metadata>
 <defs>
  <style type="text/css">*{stroke-linecap:butt;stroke-linejoin:round;}</style>
 </defs>
 <g id="figure_1">
  <g id="patch_1">
   <path d="M 0 401.742188 
L 930.15875 401.742188 
L 930.15875 0 
L 0 0 
z
" style="fill:none;"/>
  </g>
  <g id="axes_1">
   <g id="patch_2">
    <path d="M 85.95875 340.958438 
L 922.95875 340.958438 
L 922.95875 14.798438 
L 85.95875 14.798438 
z
" style="fill:#ffffff;"/>
   </g>
   <g id="matplotlib.axis_1">
    <g id="xtick_1">
     <g id="line2d_1">
      <defs>
       <path d="M 0 0 
L 0 3.5 
" id="m2c0fa5f005" style="stroke:#000000;stroke-width:0.8;"/>
      </defs>
      <g>
       <use style="stroke:#000000;stroke-width:0.8;" x="85.95875" xlink:href="#m2c0fa5f005" y="340.958438"/>
      </g>
     </g>
     <g id="text_1">
      <!-- 70% -->
      <g transform="translate(63.732187 363.155313)scale(0.2 -0.2)">
       <defs>
        <path d="M 525 4666 
L 3525 4666 
L 3525 4397 
L 1831 0 
L 1172 0 
L 2766 4134 
L 525 4134 
L 525 4666 
z
" id="DejaVuSans-37" transform="scale(0.015625)"/>
        <path d="M 2034 4250 
Q 1547 4250 1301 3770 
Q 1056 3291 1056 2328 
Q 1056 1369 1301 889 
Q 1547 409 2034 409 
Q 2525 409 2770 889 
Q 3016 1369 3016 2328 
Q 3016 3291 2770 3770 
Q 2525 4250 2034 4250 
z
M 2034 4750 
Q 2819 4750 3233 4129 
Q 3647 3509 3647 2328 
Q 3647 1150 3233 529 
Q 2819 -91 2034 -91 
Q 1250 -91 836 529 
Q 422 1150 422 2328 
Q 422 3509 836 4129 
Q 1250 4750 2034 4750 
z
" id="DejaVuSans-30" transform="scale(0.015625)"/>
        <path d="M 4653 2053 
Q 4381 2053 4226 1822 
Q 4072 1591 4072 1178 
Q 4072 772 4226 539 
Q 4381 306 4653 306 
Q 4919 306 5073 539 
Q 5228 772 5228 1178 
Q 5228 1588 5073 1820 
Q 4919 2053 4653 2053 
z
M 4653 2450 
Q 5147 2450 5437 2106 
Q 5728 1763 5728 1178 
Q 5728 594 5436 251 
Q 5144 -91 4653 -91 
Q 4153 -91 3862 251 
Q 3572 594 3572 1178 
Q 3572 1766 3864 2108 
Q 4156 2450 4653 2450 
z
M 1428 4353 
Q 1159 4353 1004 4120 
Q 850 3888 850 3481 
Q 850 3069 1003 2837 
Q 1156 2606 1428 2606 
Q 1700 2606 1854 2837 
Q 2009 3069 2009 3481 
Q 2009 3884 1853 4118 
Q 1697 4353 1428 4353 
z
M 4250 4750 
L 4750 4750 
L 1831 -91 
L 1331 -91 
L 4250 4750 
z
M 1428 4750 
Q 1922 4750 2215 4408 
Q 2509 4066 2509 3481 
Q 2509 2891 2217 2550 
Q 1925 2209 1428 2209 
Q 931 2209 642 2551 
Q 353 2894 353 3481 
Q 353 4063 643 4406 
Q 934 4750 1428 4750 
z
" id="DejaVuSans-25" transform="scale(0.015625)"/>
       </defs>
       <use xlink:href="#DejaVuSans-37"/>
       <use x="63.623047" xlink:href="#DejaVuSans-30"/>
       <use x="127.246094" xlink:href="#DejaVuSans-25"/>
      </g>
     </g>
    </g>
    <g id="xtick_2">
     <g id="line2d_2">
      <g>
       <use style="stroke:#000000;stroke-width:0.8;" x="197.55875" xlink:href="#m2c0fa5f005" y="340.958438"/>
      </g>
     </g>
     <g id="text_2">
      <!-- 72% -->
      <g transform="translate(175.332187 363.155313)scale(0.2 -0.2)">
       <defs>
        <path d="M 1228 531 
L 3431 531 
L 3431 0 
L 469 0 
L 469 531 
Q 828 903 1448 1529 
Q 2069 2156 2228 2338 
Q 2531 2678 2651 2914 
Q 2772 3150 2772 3378 
Q 2772 3750 2511 3984 
Q 2250 4219 1831 4219 
Q 1534 4219 1204 4116 
Q 875 4013 500 3803 
L 500 4441 
Q 881 4594 1212 4672 
Q 1544 4750 1819 4750 
Q 2544 4750 2975 4387 
Q 3406 4025 3406 3419 
Q 3406 3131 3298 2873 
Q 3191 2616 2906 2266 
Q 2828 2175 2409 1742 
Q 1991 1309 1228 531 
z
" id="DejaVuSans-32" transform="scale(0.015625)"/>
       </defs>
       <use xlink:href="#DejaVuSans-37"/>
       <use x="63.623047" xlink:href="#DejaVuSans-32"/>
       <use x="127.246094" xlink:href="#DejaVuSans-25"/>
      </g>
     </g>
    </g>
    <g id="xtick_3">
     <g id="line2d_3">
      <g>
       <use style="stroke:#000000;stroke-width:0.8;" x="309.15875" xlink:href="#m2c0fa5f005" y="340.958438"/>
      </g>
     </g>
     <g id="text_3">
      <!-- 74% -->
      <g transform="translate(286.932187 363.155313)scale(0.2 -0.2)">
       <defs>
        <path d="M 2419 4116 
L 825 1625 
L 2419 1625 
L 2419 4116 
z
M 2253 4666 
L 3047 4666 
L 3047 1625 
L 3713 1625 
L 3713 1100 
L 3047 1100 
L 3047 0 
L 2419 0 
L 2419 1100 
L 313 1100 
L 313 1709 
L 2253 4666 
z
" id="DejaVuSans-34" transform="scale(0.015625)"/>
       </defs>
       <use xlink:href="#DejaVuSans-37"/>
       <use x="63.623047" xlink:href="#DejaVuSans-34"/>
       <use x="127.246094" xlink:href="#DejaVuSans-25"/>
      </g>
     </g>
    </g>
    <g id="xtick_4">
     <g id="line2d_4">
      <g>
       <use style="stroke:#000000;stroke-width:0.8;" x="420.75875" xlink:href="#m2c0fa5f005" y="340.958438"/>
      </g>
     </g>
     <g id="text_4">
      <!-- 76% -->
      <g transform="translate(398.532187 363.155313)scale(0.2 -0.2)">
       <defs>
        <path d="M 2113 2584 
Q 1688 2584 1439 2293 
Q 1191 2003 1191 1497 
Q 1191 994 1439 701 
Q 1688 409 2113 409 
Q 2538 409 2786 701 
Q 3034 994 3034 1497 
Q 3034 2003 2786 2293 
Q 2538 2584 2113 2584 
z
M 3366 4563 
L 3366 3988 
Q 3128 4100 2886 4159 
Q 2644 4219 2406 4219 
Q 1781 4219 1451 3797 
Q 1122 3375 1075 2522 
Q 1259 2794 1537 2939 
Q 1816 3084 2150 3084 
Q 2853 3084 3261 2657 
Q 3669 2231 3669 1497 
Q 3669 778 3244 343 
Q 2819 -91 2113 -91 
Q 1303 -91 875 529 
Q 447 1150 447 2328 
Q 447 3434 972 4092 
Q 1497 4750 2381 4750 
Q 2619 4750 2861 4703 
Q 3103 4656 3366 4563 
z
" id="DejaVuSans-36" transform="scale(0.015625)"/>
       </defs>
       <use xlink:href="#DejaVuSans-37"/>
       <use x="63.623047" xlink:href="#DejaVuSans-36"/>
       <use x="127.246094" xlink:href="#DejaVuSans-25"/>
      </g>
     </g>
    </g>
    <g id="xtick_5">
     <g id="line2d_5">
      <g>
       <use style="stroke:#000000;stroke-width:0.8;" x="532.35875" xlink:href="#m2c0fa5f005" y="340.958438"/>
      </g>
     </g>
     <g id="text_5">
      <!-- 78% -->
      <g transform="translate(510.132187 363.155313)scale(0.2 -0.2)">
       <defs>
        <path d="M 2034 2216 
Q 1584 2216 1326 1975 
Q 1069 1734 1069 1313 
Q 1069 891 1326 650 
Q 1584 409 2034 409 
Q 2484 409 2743 651 
Q 3003 894 3003 1313 
Q 3003 1734 2745 1975 
Q 2488 2216 2034 2216 
z
M 1403 2484 
Q 997 2584 770 2862 
Q 544 3141 544 3541 
Q 544 4100 942 4425 
Q 1341 4750 2034 4750 
Q 2731 4750 3128 4425 
Q 3525 4100 3525 3541 
Q 3525 3141 3298 2862 
Q 3072 2584 2669 2484 
Q 3125 2378 3379 2068 
Q 3634 1759 3634 1313 
Q 3634 634 3220 271 
Q 2806 -91 2034 -91 
Q 1263 -91 848 271 
Q 434 634 434 1313 
Q 434 1759 690 2068 
Q 947 2378 1403 2484 
z
M 1172 3481 
Q 1172 3119 1398 2916 
Q 1625 2713 2034 2713 
Q 2441 2713 2670 2916 
Q 2900 3119 2900 3481 
Q 2900 3844 2670 4047 
Q 2441 4250 2034 4250 
Q 1625 4250 1398 4047 
Q 1172 3844 1172 3481 
z
" id="DejaVuSans-38" transform="scale(0.015625)"/>
       </defs>
       <use xlink:href="#DejaVuSans-37"/>
       <use x="63.623047" xlink:href="#DejaVuSans-38"/>
       <use x="127.246094" xlink:href="#DejaVuSans-25"/>
      </g>
     </g>
    </g>
    <g id="xtick_6">
     <g id="line2d_6">
      <g>
       <use style="stroke:#000000;stroke-width:0.8;" x="643.95875" xlink:href="#m2c0fa5f005" y="340.958438"/>
      </g>
     </g>
     <g id="text_6">
      <!-- 80% -->
      <g transform="translate(621.732187 363.155313)scale(0.2 -0.2)">
       <use xlink:href="#DejaVuSans-38"/>
       <use x="63.623047" xlink:href="#DejaVuSans-30"/>
       <use x="127.246094" xlink:href="#DejaVuSans-25"/>
      </g>
     </g>
    </g>
    <g id="xtick_7">
     <g id="line2d_7">
      <g>
       <use style="stroke:#000000;stroke-width:0.8;" x="755.55875" xlink:href="#m2c0fa5f005" y="340.958438"/>
      </g>
     </g>
     <g id="text_7">
      <!-- 82% -->
      <g transform="translate(733.332187 363.155313)scale(0.2 -0.2)">
       <use xlink:href="#DejaVuSans-38"/>
       <use x="63.623047" xlink:href="#DejaVuSans-32"/>
       <use x="127.246094" xlink:href="#DejaVuSans-25"/>
      </g>
     </g>
    </g>
    <g id="xtick_8">
     <g id="line2d_8">
      <g>
       <use style="stroke:#000000;stroke-width:0.8;" x="867.15875" xlink:href="#m2c0fa5f005" y="340.958438"/>
      </g>
     </g>
     <g id="text_8">
      <!-- 84% -->
      <g transform="translate(844.932187 363.155313)scale(0.2 -0.2)">
       <use xlink:href="#DejaVuSans-38"/>
       <use x="63.623047" xlink:href="#DejaVuSans-34"/>
       <use x="127.246094" xlink:href="#DejaVuSans-25"/>
      </g>
     </g>
    </g>
    <g id="text_9">
     <!-- Accuracy on testing set -->
     <g transform="translate(363.3425 389.550938)scale(0.24 -0.24)">
      <defs>
       <path d="M 2188 4044 
L 1331 1722 
L 3047 1722 
L 2188 4044 
z
M 1831 4666 
L 2547 4666 
L 4325 0 
L 3669 0 
L 3244 1197 
L 1141 1197 
L 716 0 
L 50 0 
L 1831 4666 
z
" id="DejaVuSans-41" transform="scale(0.015625)"/>
       <path d="M 3122 3366 
L 3122 2828 
Q 2878 2963 2633 3030 
Q 2388 3097 2138 3097 
Q 1578 3097 1268 2742 
Q 959 2388 959 1747 
Q 959 1106 1268 751 
Q 1578 397 2138 397 
Q 2388 397 2633 464 
Q 2878 531 3122 666 
L 3122 134 
Q 2881 22 2623 -34 
Q 2366 -91 2075 -91 
Q 1284 -91 818 406 
Q 353 903 353 1747 
Q 353 2603 823 3093 
Q 1294 3584 2113 3584 
Q 2378 3584 2631 3529 
Q 2884 3475 3122 3366 
z
" id="DejaVuSans-63" transform="scale(0.015625)"/>
       <path d="M 544 1381 
L 544 3500 
L 1119 3500 
L 1119 1403 
Q 1119 906 1312 657 
Q 1506 409 1894 409 
Q 2359 409 2629 706 
Q 2900 1003 2900 1516 
L 2900 3500 
L 3475 3500 
L 3475 0 
L 2900 0 
L 2900 538 
Q 2691 219 2414 64 
Q 2138 -91 1772 -91 
Q 1169 -91 856 284 
Q 544 659 544 1381 
z
M 1991 3584 
L 1991 3584 
z
" id="DejaVuSans-75" transform="scale(0.015625)"/>
       <path d="M 2631 2963 
Q 2534 3019 2420 3045 
Q 2306 3072 2169 3072 
Q 1681 3072 1420 2755 
Q 1159 2438 1159 1844 
L 1159 0 
L 581 0 
L 581 3500 
L 1159 3500 
L 1159 2956 
Q 1341 3275 1631 3429 
Q 1922 3584 2338 3584 
Q 2397 3584 2469 3576 
Q 2541 3569 2628 3553 
L 2631 2963 
z
" id="DejaVuSans-72" transform="scale(0.015625)"/>
       <path d="M 2194 1759 
Q 1497 1759 1228 1600 
Q 959 1441 959 1056 
Q 959 750 1161 570 
Q 1363 391 1709 391 
Q 2188 391 2477 730 
Q 2766 1069 2766 1631 
L 2766 1759 
L 2194 1759 
z
M 3341 1997 
L 3341 0 
L 2766 0 
L 2766 531 
Q 2569 213 2275 61 
Q 1981 -91 1556 -91 
Q 1019 -91 701 211 
Q 384 513 384 1019 
Q 384 1609 779 1909 
Q 1175 2209 1959 2209 
L 2766 2209 
L 2766 2266 
Q 2766 2663 2505 2880 
Q 2244 3097 1772 3097 
Q 1472 3097 1187 3025 
Q 903 2953 641 2809 
L 641 3341 
Q 956 3463 1253 3523 
Q 1550 3584 1831 3584 
Q 2591 3584 2966 3190 
Q 3341 2797 3341 1997 
z
" id="DejaVuSans-61" transform="scale(0.015625)"/>
       <path d="M 2059 -325 
Q 1816 -950 1584 -1140 
Q 1353 -1331 966 -1331 
L 506 -1331 
L 506 -850 
L 844 -850 
Q 1081 -850 1212 -737 
Q 1344 -625 1503 -206 
L 1606 56 
L 191 3500 
L 800 3500 
L 1894 763 
L 2988 3500 
L 3597 3500 
L 2059 -325 
z
" id="DejaVuSans-79" transform="scale(0.015625)"/>
       <path id="DejaVuSans-20" transform="scale(0.015625)"/>
       <path d="M 1959 3097 
Q 1497 3097 1228 2736 
Q 959 2375 959 1747 
Q 959 1119 1226 758 
Q 1494 397 1959 397 
Q 2419 397 2687 759 
Q 2956 1122 2956 1747 
Q 2956 2369 2687 2733 
Q 2419 3097 1959 3097 
z
M 1959 3584 
Q 2709 3584 3137 3096 
Q 3566 2609 3566 1747 
Q 3566 888 3137 398 
Q 2709 -91 1959 -91 
Q 1206 -91 779 398 
Q 353 888 353 1747 
Q 353 2609 779 3096 
Q 1206 3584 1959 3584 
z
" id="DejaVuSans-6f" transform="scale(0.015625)"/>
       <path d="M 3513 2113 
L 3513 0 
L 2938 0 
L 2938 2094 
Q 2938 2591 2744 2837 
Q 2550 3084 2163 3084 
Q 1697 3084 1428 2787 
Q 1159 2491 1159 1978 
L 1159 0 
L 581 0 
L 581 3500 
L 1159 3500 
L 1159 2956 
Q 1366 3272 1645 3428 
Q 1925 3584 2291 3584 
Q 2894 3584 3203 3211 
Q 3513 2838 3513 2113 
z
" id="DejaVuSans-6e" transform="scale(0.015625)"/>
       <path d="M 1172 4494 
L 1172 3500 
L 2356 3500 
L 2356 3053 
L 1172 3053 
L 1172 1153 
Q 1172 725 1289 603 
Q 1406 481 1766 481 
L 2356 481 
L 2356 0 
L 1766 0 
Q 1100 0 847 248 
Q 594 497 594 1153 
L 594 3053 
L 172 3053 
L 172 3500 
L 594 3500 
L 594 4494 
L 1172 4494 
z
" id="DejaVuSans-74" transform="scale(0.015625)"/>
       <path d="M 3597 1894 
L 3597 1613 
L 953 1613 
Q 991 1019 1311 708 
Q 1631 397 2203 397 
Q 2534 397 2845 478 
Q 3156 559 3463 722 
L 3463 178 
Q 3153 47 2828 -22 
Q 2503 -91 2169 -91 
Q 1331 -91 842 396 
Q 353 884 353 1716 
Q 353 2575 817 3079 
Q 1281 3584 2069 3584 
Q 2775 3584 3186 3129 
Q 3597 2675 3597 1894 
z
M 3022 2063 
Q 3016 2534 2758 2815 
Q 2500 3097 2075 3097 
Q 1594 3097 1305 2825 
Q 1016 2553 972 2059 
L 3022 2063 
z
" id="DejaVuSans-65" transform="scale(0.015625)"/>
       <path d="M 2834 3397 
L 2834 2853 
Q 2591 2978 2328 3040 
Q 2066 3103 1784 3103 
Q 1356 3103 1142 2972 
Q 928 2841 928 2578 
Q 928 2378 1081 2264 
Q 1234 2150 1697 2047 
L 1894 2003 
Q 2506 1872 2764 1633 
Q 3022 1394 3022 966 
Q 3022 478 2636 193 
Q 2250 -91 1575 -91 
Q 1294 -91 989 -36 
Q 684 19 347 128 
L 347 722 
Q 666 556 975 473 
Q 1284 391 1588 391 
Q 1994 391 2212 530 
Q 2431 669 2431 922 
Q 2431 1156 2273 1281 
Q 2116 1406 1581 1522 
L 1381 1569 
Q 847 1681 609 1914 
Q 372 2147 372 2553 
Q 372 3047 722 3315 
Q 1072 3584 1716 3584 
Q 2034 3584 2315 3537 
Q 2597 3491 2834 3397 
z
" id="DejaVuSans-73" transform="scale(0.015625)"/>
       <path d="M 603 3500 
L 1178 3500 
L 1178 0 
L 603 0 
L 603 3500 
z
M 603 4863 
L 1178 4863 
L 1178 4134 
L 603 4134 
L 603 4863 
z
" id="DejaVuSans-69" transform="scale(0.015625)"/>
       <path d="M 2906 1791 
Q 2906 2416 2648 2759 
Q 2391 3103 1925 3103 
Q 1463 3103 1205 2759 
Q 947 2416 947 1791 
Q 947 1169 1205 825 
Q 1463 481 1925 481 
Q 2391 481 2648 825 
Q 2906 1169 2906 1791 
z
M 3481 434 
Q 3481 -459 3084 -895 
Q 2688 -1331 1869 -1331 
Q 1566 -1331 1297 -1286 
Q 1028 -1241 775 -1147 
L 775 -588 
Q 1028 -725 1275 -790 
Q 1522 -856 1778 -856 
Q 2344 -856 2625 -561 
Q 2906 -266 2906 331 
L 2906 616 
Q 2728 306 2450 153 
Q 2172 0 1784 0 
Q 1141 0 747 490 
Q 353 981 353 1791 
Q 353 2603 747 3093 
Q 1141 3584 1784 3584 
Q 2172 3584 2450 3431 
Q 2728 3278 2906 2969 
L 2906 3500 
L 3481 3500 
L 3481 434 
z
" id="DejaVuSans-67" transform="scale(0.015625)"/>
      </defs>
      <use xlink:href="#DejaVuSans-41"/>
      <use x="66.658203" xlink:href="#DejaVuSans-63"/>
      <use x="121.638672" xlink:href="#DejaVuSans-63"/>
      <use x="176.619141" xlink:href="#DejaVuSans-75"/>
      <use x="239.998047" xlink:href="#DejaVuSans-72"/>
      <use x="281.111328" xlink:href="#DejaVuSans-61"/>
      <use x="342.390625" xlink:href="#DejaVuSans-63"/>
      <use x="397.371094" xlink:href="#DejaVuSans-79"/>
      <use x="456.550781" xlink:href="#DejaVuSans-20"/>
      <use x="488.337891" xlink:href="#DejaVuSans-6f"/>
      <use x="549.519531" xlink:href="#DejaVuSans-6e"/>
      <use x="612.898438" xlink:href="#DejaVuSans-20"/>
      <use x="644.685547" xlink:href="#DejaVuSans-74"/>
      <use x="683.894531" xlink:href="#DejaVuSans-65"/>
      <use x="745.417969" xlink:href="#DejaVuSans-73"/>
      <use x="797.517578" xlink:href="#DejaVuSans-74"/>
      <use x="836.726562" xlink:href="#DejaVuSans-69"/>
      <use x="864.509766" xlink:href="#DejaVuSans-6e"/>
      <use x="927.888672" xlink:href="#DejaVuSans-67"/>
      <use x="991.365234" xlink:href="#DejaVuSans-20"/>
      <use x="1023.152344" xlink:href="#DejaVuSans-73"/>
      <use x="1075.251953" xlink:href="#DejaVuSans-65"/>
      <use x="1136.775391" xlink:href="#DejaVuSans-74"/>
     </g>
    </g>
   </g>
   <g id="matplotlib.axis_2">
    <g id="ytick_1">
     <g id="line2d_9">
      <defs>
       <path d="M 0 0 
L -3.5 0 
" id="maf6258b783" style="stroke:#000000;stroke-width:0.8;"/>
      </defs>
      <g>
       <use style="stroke:#000000;stroke-width:0.8;" x="85.95875" xlink:href="#maf6258b783" y="340.958438"/>
      </g>
     </g>
     <g id="text_10">
      <!-- 0.00 -->
      <g transform="translate(34.4275 348.556875)scale(0.2 -0.2)">
       <defs>
        <path d="M 684 794 
L 1344 794 
L 1344 0 
L 684 0 
L 684 794 
z
" id="DejaVuSans-2e" transform="scale(0.015625)"/>
       </defs>
       <use xlink:href="#DejaVuSans-30"/>
       <use x="63.623047" xlink:href="#DejaVuSans-2e"/>
       <use x="95.410156" xlink:href="#DejaVuSans-30"/>
       <use x="159.033203" xlink:href="#DejaVuSans-30"/>
      </g>
     </g>
    </g>
    <g id="ytick_2">
     <g id="line2d_10">
      <g>
       <use style="stroke:#000000;stroke-width:0.8;" x="85.95875" xlink:href="#maf6258b783" y="294.364152"/>
      </g>
     </g>
     <g id="text_11">
      <!-- 0.05 -->
      <g transform="translate(34.4275 301.962589)scale(0.2 -0.2)">
       <defs>
        <path d="M 691 4666 
L 3169 4666 
L 3169 4134 
L 1269 4134 
L 1269 2991 
Q 1406 3038 1543 3061 
Q 1681 3084 1819 3084 
Q 2600 3084 3056 2656 
Q 3513 2228 3513 1497 
Q 3513 744 3044 326 
Q 2575 -91 1722 -91 
Q 1428 -91 1123 -41 
Q 819 9 494 109 
L 494 744 
Q 775 591 1075 516 
Q 1375 441 1709 441 
Q 2250 441 2565 725 
Q 2881 1009 2881 1497 
Q 2881 1984 2565 2268 
Q 2250 2553 1709 2553 
Q 1456 2553 1204 2497 
Q 953 2441 691 2322 
L 691 4666 
z
" id="DejaVuSans-35" transform="scale(0.015625)"/>
       </defs>
       <use xlink:href="#DejaVuSans-30"/>
       <use x="63.623047" xlink:href="#DejaVuSans-2e"/>
       <use x="95.410156" xlink:href="#DejaVuSans-30"/>
       <use x="159.033203" xlink:href="#DejaVuSans-35"/>
      </g>
     </g>
    </g>
    <g id="ytick_3">
     <g id="line2d_11">
      <g>
       <use style="stroke:#000000;stroke-width:0.8;" x="85.95875" xlink:href="#maf6258b783" y="247.769866"/>
      </g>
     </g>
     <g id="text_12">
      <!-- 0.10 -->
      <g transform="translate(34.4275 255.368304)scale(0.2 -0.2)">
       <defs>
        <path d="M 794 531 
L 1825 531 
L 1825 4091 
L 703 3866 
L 703 4441 
L 1819 4666 
L 2450 4666 
L 2450 531 
L 3481 531 
L 3481 0 
L 794 0 
L 794 531 
z
" id="DejaVuSans-31" transform="scale(0.015625)"/>
       </defs>
       <use xlink:href="#DejaVuSans-30"/>
       <use x="63.623047" xlink:href="#DejaVuSans-2e"/>
       <use x="95.410156" xlink:href="#DejaVuSans-31"/>
       <use x="159.033203" xlink:href="#DejaVuSans-30"/>
      </g>
     </g>
    </g>
    <g id="ytick_4">
     <g id="line2d_12">
      <g>
       <use style="stroke:#000000;stroke-width:0.8;" x="85.95875" xlink:href="#maf6258b783" y="201.17558"/>
      </g>
     </g>
     <g id="text_13">
      <!-- 0.15 -->
      <g transform="translate(34.4275 208.774018)scale(0.2 -0.2)">
       <use xlink:href="#DejaVuSans-30"/>
       <use x="63.623047" xlink:href="#DejaVuSans-2e"/>
       <use x="95.410156" xlink:href="#DejaVuSans-31"/>
       <use x="159.033203" xlink:href="#DejaVuSans-35"/>
      </g>
     </g>
    </g>
    <g id="ytick_5">
     <g id="line2d_13">
      <g>
       <use style="stroke:#000000;stroke-width:0.8;" x="85.95875" xlink:href="#maf6258b783" y="154.581295"/>
      </g>
     </g>
     <g id="text_14">
      <!-- 0.20 -->
      <g transform="translate(34.4275 162.179732)scale(0.2 -0.2)">
       <use xlink:href="#DejaVuSans-30"/>
       <use x="63.623047" xlink:href="#DejaVuSans-2e"/>
       <use x="95.410156" xlink:href="#DejaVuSans-32"/>
       <use x="159.033203" xlink:href="#DejaVuSans-30"/>
      </g>
     </g>
    </g>
    <g id="ytick_6">
     <g id="line2d_14">
      <g>
       <use style="stroke:#000000;stroke-width:0.8;" x="85.95875" xlink:href="#maf6258b783" y="107.987009"/>
      </g>
     </g>
     <g id="text_15">
      <!-- 0.25 -->
      <g transform="translate(34.4275 115.585446)scale(0.2 -0.2)">
       <use xlink:href="#DejaVuSans-30"/>
       <use x="63.623047" xlink:href="#DejaVuSans-2e"/>
       <use x="95.410156" xlink:href="#DejaVuSans-32"/>
       <use x="159.033203" xlink:href="#DejaVuSans-35"/>
      </g>
     </g>
    </g>
    <g id="ytick_7">
     <g id="line2d_15">
      <g>
       <use style="stroke:#000000;stroke-width:0.8;" x="85.95875" xlink:href="#maf6258b783" y="61.392723"/>
      </g>
     </g>
     <g id="text_16">
      <!-- 0.30 -->
      <g transform="translate(34.4275 68.991161)scale(0.2 -0.2)">
       <defs>
        <path d="M 2597 2516 
Q 3050 2419 3304 2112 
Q 3559 1806 3559 1356 
Q 3559 666 3084 287 
Q 2609 -91 1734 -91 
Q 1441 -91 1130 -33 
Q 819 25 488 141 
L 488 750 
Q 750 597 1062 519 
Q 1375 441 1716 441 
Q 2309 441 2620 675 
Q 2931 909 2931 1356 
Q 2931 1769 2642 2001 
Q 2353 2234 1838 2234 
L 1294 2234 
L 1294 2753 
L 1863 2753 
Q 2328 2753 2575 2939 
Q 2822 3125 2822 3475 
Q 2822 3834 2567 4026 
Q 2313 4219 1838 4219 
Q 1578 4219 1281 4162 
Q 984 4106 628 3988 
L 628 4550 
Q 988 4650 1302 4700 
Q 1616 4750 1894 4750 
Q 2613 4750 3031 4423 
Q 3450 4097 3450 3541 
Q 3450 3153 3228 2886 
Q 3006 2619 2597 2516 
z
" id="DejaVuSans-33" transform="scale(0.015625)"/>
       </defs>
       <use xlink:href="#DejaVuSans-30"/>
       <use x="63.623047" xlink:href="#DejaVuSans-2e"/>
       <use x="95.410156" xlink:href="#DejaVuSans-33"/>
       <use x="159.033203" xlink:href="#DejaVuSans-30"/>
      </g>
     </g>
    </g>
    <g id="ytick_8">
     <g id="line2d_16">
      <g>
       <use style="stroke:#000000;stroke-width:0.8;" x="85.95875" xlink:href="#maf6258b783" y="14.798438"/>
      </g>
     </g>
     <g id="text_17">
      <!-- 0.35 -->
      <g transform="translate(34.4275 22.396875)scale(0.2 -0.2)">
       <use xlink:href="#DejaVuSans-30"/>
       <use x="63.623047" xlink:href="#DejaVuSans-2e"/>
       <use x="95.410156" xlink:href="#DejaVuSans-33"/>
       <use x="159.033203" xlink:href="#DejaVuSans-35"/>
      </g>
     </g>
    </g>
    <g id="text_18">
     <!-- Density distribution -->
     <g transform="translate(25.43625 295.695938)rotate(-90)scale(0.24 -0.24)">
      <defs>
       <path d="M 1259 4147 
L 1259 519 
L 2022 519 
Q 2988 519 3436 956 
Q 3884 1394 3884 2338 
Q 3884 3275 3436 3711 
Q 2988 4147 2022 4147 
L 1259 4147 
z
M 628 4666 
L 1925 4666 
Q 3281 4666 3915 4102 
Q 4550 3538 4550 2338 
Q 4550 1131 3912 565 
Q 3275 0 1925 0 
L 628 0 
L 628 4666 
z
" id="DejaVuSans-44" transform="scale(0.015625)"/>
       <path d="M 2906 2969 
L 2906 4863 
L 3481 4863 
L 3481 0 
L 2906 0 
L 2906 525 
Q 2725 213 2448 61 
Q 2172 -91 1784 -91 
Q 1150 -91 751 415 
Q 353 922 353 1747 
Q 353 2572 751 3078 
Q 1150 3584 1784 3584 
Q 2172 3584 2448 3432 
Q 2725 3281 2906 2969 
z
M 947 1747 
Q 947 1113 1208 752 
Q 1469 391 1925 391 
Q 2381 391 2643 752 
Q 2906 1113 2906 1747 
Q 2906 2381 2643 2742 
Q 2381 3103 1925 3103 
Q 1469 3103 1208 2742 
Q 947 2381 947 1747 
z
" id="DejaVuSans-64" transform="scale(0.015625)"/>
       <path d="M 3116 1747 
Q 3116 2381 2855 2742 
Q 2594 3103 2138 3103 
Q 1681 3103 1420 2742 
Q 1159 2381 1159 1747 
Q 1159 1113 1420 752 
Q 1681 391 2138 391 
Q 2594 391 2855 752 
Q 3116 1113 3116 1747 
z
M 1159 2969 
Q 1341 3281 1617 3432 
Q 1894 3584 2278 3584 
Q 2916 3584 3314 3078 
Q 3713 2572 3713 1747 
Q 3713 922 3314 415 
Q 2916 -91 2278 -91 
Q 1894 -91 1617 61 
Q 1341 213 1159 525 
L 1159 0 
L 581 0 
L 581 4863 
L 1159 4863 
L 1159 2969 
z
" id="DejaVuSans-62" transform="scale(0.015625)"/>
      </defs>
      <use xlink:href="#DejaVuSans-44"/>
      <use x="77.001953" xlink:href="#DejaVuSans-65"/>
      <use x="138.525391" xlink:href="#DejaVuSans-6e"/>
      <use x="201.904297" xlink:href="#DejaVuSans-73"/>
      <use x="254.003906" xlink:href="#DejaVuSans-69"/>
      <use x="281.787109" xlink:href="#DejaVuSans-74"/>
      <use x="320.996094" xlink:href="#DejaVuSans-79"/>
      <use x="380.175781" xlink:href="#DejaVuSans-20"/>
      <use x="411.962891" xlink:href="#DejaVuSans-64"/>
      <use x="475.439453" xlink:href="#DejaVuSans-69"/>
      <use x="503.222656" xlink:href="#DejaVuSans-73"/>
      <use x="555.322266" xlink:href="#DejaVuSans-74"/>
      <use x="594.53125" xlink:href="#DejaVuSans-72"/>
      <use x="635.644531" xlink:href="#DejaVuSans-69"/>
      <use x="663.427734" xlink:href="#DejaVuSans-62"/>
      <use x="726.904297" xlink:href="#DejaVuSans-75"/>
      <use x="790.283203" xlink:href="#DejaVuSans-74"/>
      <use x="829.492188" xlink:href="#DejaVuSans-69"/>
      <use x="857.275391" xlink:href="#DejaVuSans-6f"/>
      <use x="918.457031" xlink:href="#DejaVuSans-6e"/>
     </g>
    </g>
   </g>
   <g id="line2d_17">
    <path clip-path="url(#p3bff17b004)" d="M 150.140223 340.887146 
L 169.813857 340.6733 
L 181.618038 340.368509 
L 193.422218 339.827674 
L 201.291672 339.284186 
L 209.161126 338.557639 
L 217.030579 337.620898 
L 224.900033 336.454789 
L 232.769487 335.051072 
L 240.63894 333.413816 
L 248.508394 331.55859 
L 256.377848 329.509409 
L 268.182028 326.132125 
L 279.986209 322.459883 
L 291.790389 318.525468 
L 303.59457 314.290252 
L 311.464024 311.243001 
L 319.333477 307.952 
L 327.202931 304.343329 
L 335.072385 300.330339 
L 339.007112 298.143455 
L 342.941838 295.821353 
L 346.876565 293.353909 
L 350.811292 290.732577 
L 354.746019 287.951027 
L 358.680746 285.005791 
L 362.615473 281.896881 
L 366.550199 278.628328 
L 374.419653 271.650892 
L 382.289107 264.197743 
L 405.897468 241.175158 
L 413.766922 234.141901 
L 417.701648 230.872083 
L 421.636375 227.788879 
L 425.571102 224.900133 
L 429.505829 222.206016 
L 433.440556 219.698807 
L 437.375283 217.36302 
L 445.244736 213.108111 
L 464.918371 203.239681 
L 468.853097 201.076397 
L 472.787824 198.763191 
L 476.722551 196.272267 
L 480.657278 193.58312 
L 484.592005 190.683598 
L 488.526732 187.570662 
L 492.461458 184.250809 
L 496.396185 180.740142 
L 504.265639 173.256825 
L 523.939273 153.922377 
L 527.874 150.389639 
L 531.808727 147.106282 
L 535.743454 144.128677 
L 539.678181 141.509229 
L 543.612907 139.295203 
L 547.547634 137.527739 
L 551.482361 136.241076 
L 555.417088 135.46199 
L 559.351815 135.209431 
L 563.286542 135.494362 
L 567.221268 136.319766 
L 571.155995 137.68084 
L 575.090722 139.565322 
L 579.025449 141.953968 
L 582.960176 144.821166 
L 586.894903 148.135654 
L 590.82963 151.861357 
L 594.764356 155.958322 
L 598.699083 160.383725 
L 602.63381 165.092949 
L 606.568537 170.040685 
L 614.437991 180.473637 
L 626.242171 196.858534 
L 641.981079 218.788757 
L 653.785259 234.723552 
L 665.58944 250.110808 
L 677.39362 264.987949 
L 685.263074 274.600776 
L 693.132528 283.892726 
L 701.001981 292.746435 
L 704.936708 296.962774 
L 708.871435 301.01188 
L 712.806162 304.873562 
L 716.740889 308.528606 
L 720.675615 311.959566 
L 724.610342 315.151478 
L 728.545069 318.092453 
L 732.479796 320.774142 
L 736.414523 323.192037 
L 740.34925 325.345625 
L 744.283976 327.238382 
L 748.218703 328.877632 
L 752.15343 330.274277 
L 756.088157 331.442431 
L 760.022884 332.398965 
L 763.957611 333.163006 
L 767.892338 333.755392 
L 771.827064 334.198113 
L 779.696518 334.724954 
L 787.565972 334.921813 
L 819.043787 335.227727 
L 826.91324 335.584271 
L 838.717421 336.375471 
L 878.064689 339.471288 
L 889.86887 340.074903 
L 901.67305 340.476284 
L 917.411958 340.770064 
L 931.15875 340.884524 
L 931.15875 340.884524 
" style="fill:none;stroke:#ff0000;stroke-linecap:square;stroke-width:3;"/>
   </g>
   <g id="line2d_18">
    <path clip-path="url(#p3bff17b004)" d="M 174.331267 340.83187 
L 187.776382 340.625111 
L 197.860218 340.310418 
L 207.944055 339.76174 
L 214.666612 339.206694 
L 221.38917 338.449471 
L 228.111727 337.440638 
L 234.834285 336.127521 
L 241.556843 334.456905 
L 248.2794 332.378399 
L 255.001958 329.848251 
L 258.363237 328.402931 
L 261.724515 326.833303 
L 265.085794 325.137488 
L 268.447073 323.314704 
L 275.169631 319.291028 
L 281.892188 314.780408 
L 288.614746 309.821384 
L 295.337303 304.472207 
L 302.059861 298.808435 
L 312.143697 289.91917 
L 332.31137 271.894834 
L 342.395207 263.292812 
L 349.117764 257.810759 
L 359.2016 249.958248 
L 369.285437 242.433419 
L 389.45311 227.47774 
L 399.536946 219.5945 
L 406.259504 214.088107 
L 412.982061 208.371249 
L 423.065898 199.452722 
L 446.594849 178.227362 
L 453.317407 172.553811 
L 460.039964 167.330148 
L 463.401243 164.943025 
L 466.762522 162.737036 
L 470.123801 160.736063 
L 473.48508 158.96384 
L 476.846358 157.443506 
L 480.207637 156.1971 
L 483.568916 155.245028 
L 486.930195 154.605491 
L 490.291474 154.29391 
L 493.652752 154.32236 
L 497.014031 154.699031 
L 500.37531 155.427745 
L 503.736589 156.507546 
L 507.097868 157.932384 
L 510.459146 159.690919 
L 513.820425 161.766455 
L 517.181704 164.137014 
L 520.542983 166.775565 
L 523.904262 169.650407 
L 527.26554 172.725699 
L 533.988098 179.317714 
L 550.794492 196.344998 
L 554.155771 199.504554 
L 557.51705 202.495895 
L 560.878328 205.290603 
L 564.239607 207.865844 
L 567.600886 210.204865 
L 570.962165 212.297317 
L 574.323444 214.139407 
L 577.684722 215.733866 
L 581.046001 217.089752 
L 584.40728 218.222087 
L 587.768559 219.151347 
L 591.129838 219.902827 
L 594.491116 220.5059 
L 601.213674 221.39973 
L 614.658789 222.951603 
L 618.020068 223.500384 
L 621.381347 224.179158 
L 624.742626 225.015772 
L 628.103904 226.034327 
L 631.465183 227.254777 
L 634.826462 228.692638 
L 638.187741 230.358805 
L 641.54902 232.259488 
L 644.910298 234.396248 
L 648.271577 236.766141 
L 651.632856 239.361948 
L 654.994135 242.172497 
L 658.355414 245.183051 
L 661.716692 248.37576 
L 668.43925 255.223679 
L 675.161807 262.530717 
L 698.690759 288.852238 
L 705.413317 295.855752 
L 712.135874 302.387418 
L 718.858432 308.370049 
L 722.219711 311.140325 
L 725.580989 313.758866 
L 728.942268 316.224432 
L 732.303547 318.53721 
L 735.664826 320.69864 
L 739.026105 322.711247 
L 742.387383 324.578475 
L 745.748662 326.304545 
L 749.109941 327.894313 
L 752.47122 329.353149 
L 759.193777 331.901444 
L 765.916335 333.99887 
L 772.638893 335.69736 
L 779.36145 337.049327 
L 786.084008 338.106021 
L 792.806565 338.91616 
L 799.529123 339.524799 
L 809.612959 340.147182 
L 819.696796 340.520997 
L 833.141911 340.780896 
L 843.225747 340.873466 
L 843.225747 340.873466 
" style="fill:none;stroke:#000000;stroke-linecap:square;stroke-width:3;"/>
   </g>
   <g id="line2d_19">
    <path clip-path="url(#p3bff17b004)" d="M 215.675129 340.873598 
L 232.857861 340.669379 
L 246.604046 340.265411 
L 256.913685 339.701348 
L 263.786777 339.140454 
L 270.65987 338.386471 
L 277.532963 337.39738 
L 284.406055 336.130856 
L 291.279148 334.547403 
L 298.152241 332.614 
L 305.025333 330.307937 
L 311.898426 327.620432 
L 318.771518 324.559593 
L 325.644611 321.152268 
L 332.517704 317.444441 
L 339.390796 313.499877 
L 353.136981 305.223311 
L 363.44662 299.027279 
L 370.319713 295.058974 
L 377.192805 291.294073 
L 384.065898 287.766207 
L 390.938991 284.475441 
L 401.24863 279.89206 
L 418.431361 272.415738 
L 425.304454 269.112581 
L 432.177546 265.435687 
L 439.050639 261.285596 
L 442.487185 259.013721 
L 449.360278 254.067337 
L 456.23337 248.616535 
L 463.106463 242.753409 
L 473.416102 233.515582 
L 483.725741 224.319595 
L 490.598833 218.541807 
L 497.471926 213.242397 
L 500.908472 210.809765 
L 504.345019 208.53424 
L 507.781565 206.419821 
L 511.218111 204.466183 
L 514.654658 202.668788 
L 518.091204 201.019145 
L 524.964297 198.111945 
L 531.837389 195.615894 
L 542.147028 192.301667 
L 552.456667 189.050784 
L 559.32976 186.727801 
L 566.202852 184.213021 
L 573.075945 181.506029 
L 583.385584 177.1937 
L 597.131769 171.445871 
L 604.004861 168.815372 
L 610.877954 166.493168 
L 614.3145 165.480728 
L 617.751047 164.584717 
L 621.187593 163.818105 
L 624.624139 163.193984 
L 628.060686 162.725636 
L 631.497232 162.426571 
L 634.933778 162.310492 
L 638.370325 162.391187 
L 641.806871 162.682348 
L 645.243417 163.197316 
L 648.679963 163.948761 
L 652.11651 164.948316 
L 655.553056 166.206183 
L 658.989602 167.730738 
L 662.426149 169.528156 
L 665.862695 171.602083 
L 669.299241 173.953372 
L 672.735788 176.579901 
L 676.172334 179.476493 
L 679.60888 182.63493 
L 683.045426 186.044066 
L 686.481973 189.690042 
L 689.918519 193.55657 
L 693.355065 197.625292 
L 700.228158 206.287951 
L 707.101251 215.50535 
L 713.974343 225.098032 
L 738.030167 259.223277 
L 744.90326 268.547593 
L 751.776353 277.474025 
L 758.649445 285.913741 
L 765.522538 293.791779 
L 772.39563 301.047307 
L 775.832177 304.426754 
L 779.268723 307.634767 
L 782.705269 310.668288 
L 786.141816 313.525399 
L 789.578362 316.205339 
L 793.014908 318.708518 
L 796.451454 321.0365 
L 799.888001 323.191975 
L 803.324547 325.178705 
L 806.761093 327.001449 
L 810.19764 328.665878 
L 813.634186 330.178468 
L 817.070732 331.546383 
L 820.507279 332.77735 
L 823.943825 333.879531 
L 830.816917 335.731568 
L 837.69001 337.171595 
L 844.563103 338.267833 
L 851.436195 339.084537 
L 858.309288 339.679757 
L 868.618927 340.265482 
L 878.928566 340.600675 
L 892.674751 340.821345 
L 899.547844 340.876424 
L 899.547844 340.876424 
" style="fill:none;stroke:#0000ff;stroke-linecap:square;stroke-width:3;"/>
   </g>
   <g id="line2d_20">
    <path clip-path="url(#p3bff17b004)" d="M 234.612359 340.824621 
L 248.137502 340.591273 
L 258.28136 340.237523 
L 268.425217 339.638657 
L 275.187789 339.058034 
L 281.950361 338.304065 
L 288.712933 337.360593 
L 295.475504 336.223126 
L 302.238076 334.901728 
L 312.381934 332.633347 
L 325.907077 329.284519 
L 346.194792 324.043579 
L 356.33865 321.184155 
L 363.101222 318.996064 
L 369.863793 316.431354 
L 373.245079 314.964822 
L 376.626365 313.353936 
L 380.007651 311.584546 
L 383.388937 309.644908 
L 386.770223 307.526252 
L 390.151509 305.223257 
L 393.532795 302.734402 
L 396.91408 300.062163 
L 400.295366 297.213059 
L 403.676652 294.197529 
L 410.439224 287.726675 
L 417.201796 280.796934 
L 427.345653 269.932546 
L 437.489511 259.032699 
L 444.252083 251.977706 
L 451.014654 245.182663 
L 457.777226 238.664272 
L 464.539798 232.393137 
L 474.683655 223.315895 
L 515.259086 187.548352 
L 525.402943 178.316066 
L 535.546801 168.798249 
L 545.690659 158.930159 
L 562.597088 142.280696 
L 569.35966 136.090521 
L 572.740946 133.241264 
L 576.122231 130.614092 
L 579.503517 128.253867 
L 582.884803 126.204708 
L 586.266089 124.508535 
L 589.647375 123.203653 
L 593.028661 122.323471 
L 596.409947 121.89541 
L 599.791232 121.940042 
L 603.172518 122.470519 
L 606.553804 123.492288 
L 609.93509 125.003098 
L 613.316376 126.993293 
L 616.697662 129.446348 
L 620.078948 132.339606 
L 623.460234 135.645177 
L 626.841519 139.33093 
L 630.222805 143.361546 
L 633.604091 147.699551 
L 636.985377 152.306324 
L 643.747949 162.171321 
L 650.510521 172.656607 
L 660.654378 188.96358 
L 674.179522 210.681947 
L 680.942093 221.186353 
L 687.704665 231.313741 
L 694.467237 240.987982 
L 701.229809 250.145556 
L 707.99238 258.729011 
L 714.754952 266.684354 
L 718.136238 270.410968 
L 721.517524 273.963102 
L 724.89881 277.336595 
L 728.280095 280.528578 
L 731.661381 283.537764 
L 735.042667 286.364728 
L 738.423953 289.012116 
L 741.805239 291.484807 
L 745.186525 293.789964 
L 748.567811 295.937 
L 751.949097 297.937432 
L 758.711668 301.553453 
L 765.47424 304.760358 
L 772.236812 307.689461 
L 785.761955 313.185205 
L 806.04967 321.475291 
L 819.574814 326.921733 
L 826.337386 329.443142 
L 833.099957 331.742335 
L 839.862529 333.770789 
L 846.625101 335.500897 
L 853.387673 336.927017 
L 860.150244 338.063023 
L 866.912816 338.93755 
L 873.675388 339.588264 
L 880.43796 340.056319 
L 890.581817 340.50258 
L 904.106961 340.79326 
L 907.488246 340.832686 
L 907.488246 340.832686 
" style="fill:none;stroke:#008000;stroke-linecap:square;stroke-width:3;"/>
   </g>
   <g id="line2d_21">
    <path clip-path="url(#p3bff17b004)" d="M 528.306628 340.958438 
L 528.306628 14.798438 
" style="fill:none;stroke:#ff0000;stroke-dasharray:5.55,2.4;stroke-dashoffset:0;stroke-width:1.5;"/>
   </g>
   <g id="line2d_22">
    <path clip-path="url(#p3bff17b004)" d="M 504.597845 340.958438 
L 504.597845 14.798438 
" style="fill:none;stroke:#000000;stroke-dasharray:5.55,2.4;stroke-dashoffset:0;stroke-width:1.5;"/>
   </g>
   <g id="line2d_23">
    <path clip-path="url(#p3bff17b004)" d="M 579.903861 340.958438 
L 579.903861 14.798438 
" style="fill:none;stroke:#0000ff;stroke-dasharray:5.55,2.4;stroke-dashoffset:0;stroke-width:1.5;"/>
   </g>
   <g id="line2d_24">
    <path clip-path="url(#p3bff17b004)" d="M 578.304346 340.958438 
L 578.304346 14.798438 
" style="fill:none;stroke:#008000;stroke-dasharray:5.55,2.4;stroke-dashoffset:0;stroke-width:1.5;"/>
   </g>
   <g id="patch_3">
    <path d="M 85.95875 340.958438 
L 85.95875 14.798438 
" style="fill:none;stroke:#000000;stroke-linecap:square;stroke-linejoin:miter;stroke-width:0.8;"/>
   </g>
   <g id="patch_4">
    <path d="M 922.95875 340.958438 
L 922.95875 14.798438 
" style="fill:none;stroke:#000000;stroke-linecap:square;stroke-linejoin:miter;stroke-width:0.8;"/>
   </g>
   <g id="patch_5">
    <path d="M 85.95875 340.958438 
L 922.95875 340.958438 
" style="fill:none;stroke:#000000;stroke-linecap:square;stroke-linejoin:miter;stroke-width:0.8;"/>
   </g>
   <g id="patch_6">
    <path d="M 85.95875 14.798438 
L 922.95875 14.798438 
" style="fill:none;stroke:#000000;stroke-linecap:square;stroke-linejoin:miter;stroke-width:0.8;"/>
   </g>
   <g id="text_19">
    <!-- 77.9% -->
    <g style="fill:#ff0000;" transform="translate(542.533625 335.798955)rotate(-90)scale(0.2 -0.2)">
     <defs>
      <path d="M 703 97 
L 703 672 
Q 941 559 1184 500 
Q 1428 441 1663 441 
Q 2288 441 2617 861 
Q 2947 1281 2994 2138 
Q 2813 1869 2534 1725 
Q 2256 1581 1919 1581 
Q 1219 1581 811 2004 
Q 403 2428 403 3163 
Q 403 3881 828 4315 
Q 1253 4750 1959 4750 
Q 2769 4750 3195 4129 
Q 3622 3509 3622 2328 
Q 3622 1225 3098 567 
Q 2575 -91 1691 -91 
Q 1453 -91 1209 -44 
Q 966 3 703 97 
z
M 1959 2075 
Q 2384 2075 2632 2365 
Q 2881 2656 2881 3163 
Q 2881 3666 2632 3958 
Q 2384 4250 1959 4250 
Q 1534 4250 1286 3958 
Q 1038 3666 1038 3163 
Q 1038 2656 1286 2365 
Q 1534 2075 1959 2075 
z
" id="DejaVuSans-39" transform="scale(0.015625)"/>
     </defs>
     <use xlink:href="#DejaVuSans-37"/>
     <use x="63.623047" xlink:href="#DejaVuSans-37"/>
     <use x="127.246094" xlink:href="#DejaVuSans-2e"/>
     <use x="159.033203" xlink:href="#DejaVuSans-39"/>
     <use x="222.65625" xlink:href="#DejaVuSans-25"/>
    </g>
   </g>
   <g id="text_20">
    <!-- 77.5% -->
    <g transform="translate(519.097625 335.798955)rotate(-90)scale(0.2 -0.2)">
     <use xlink:href="#DejaVuSans-37"/>
     <use x="63.623047" xlink:href="#DejaVuSans-37"/>
     <use x="127.246094" xlink:href="#DejaVuSans-2e"/>
     <use x="159.033203" xlink:href="#DejaVuSans-35"/>
     <use x="222.65625" xlink:href="#DejaVuSans-25"/>
    </g>
   </g>
   <g id="text_21">
    <!-- 78.9% -->
    <g style="fill:#0000ff;" transform="translate(598.333625 335.798955)rotate(-90)scale(0.2 -0.2)">
     <use xlink:href="#DejaVuSans-37"/>
     <use x="63.623047" xlink:href="#DejaVuSans-38"/>
     <use x="127.246094" xlink:href="#DejaVuSans-2e"/>
     <use x="159.033203" xlink:href="#DejaVuSans-39"/>
     <use x="222.65625" xlink:href="#DejaVuSans-25"/>
    </g>
   </g>
   <g id="text_22">
    <!-- 78.8% -->
    <g style="fill:#008000;" transform="translate(572.665625 335.798955)rotate(-90)scale(0.2 -0.2)">
     <use xlink:href="#DejaVuSans-37"/>
     <use x="63.623047" xlink:href="#DejaVuSans-38"/>
     <use x="127.246094" xlink:href="#DejaVuSans-2e"/>
     <use x="159.033203" xlink:href="#DejaVuSans-38"/>
     <use x="222.65625" xlink:href="#DejaVuSans-25"/>
    </g>
   </g>
   <g id="legend_1">
    <g id="patch_7">
     <path d="M 101.95875 62.154688 
L 855.0775 62.154688 
Q 859.0775 62.154688 859.0775 58.154688 
L 859.0775 30.798438 
Q 859.0775 26.798438 855.0775 26.798438 
L 101.95875 26.798438 
Q 97.95875 26.798438 97.95875 30.798438 
L 97.95875 58.154688 
Q 97.95875 62.154688 101.95875 62.154688 
z
" style="fill:#4c4c4c;opacity:0.5;stroke:#4c4c4c;stroke-linejoin:miter;"/>
    </g>
    <g id="patch_8">
     <path d="M 99.95875 60.154688 
L 853.0775 60.154688 
Q 857.0775 60.154688 857.0775 56.154688 
L 857.0775 28.798438 
Q 857.0775 24.798438 853.0775 24.798438 
L 99.95875 24.798438 
Q 95.95875 24.798438 95.95875 28.798438 
L 95.95875 56.154688 
Q 95.95875 60.154688 99.95875 60.154688 
z
" style="fill:#ffffff;stroke:#cccccc;stroke-linejoin:miter;"/>
    </g>
    <g id="line2d_25">
     <path d="M 103.95875 40.995313 
L 143.95875 40.995313 
" style="fill:none;stroke:#ff0000;stroke-linecap:square;stroke-width:3;"/>
    </g>
    <g id="line2d_26"/>
    <g id="text_23">
     <!-- Baseline -->
     <g transform="translate(159.95875 47.995313)scale(0.2 -0.2)">
      <defs>
       <path d="M 1259 2228 
L 1259 519 
L 2272 519 
Q 2781 519 3026 730 
Q 3272 941 3272 1375 
Q 3272 1813 3026 2020 
Q 2781 2228 2272 2228 
L 1259 2228 
z
M 1259 4147 
L 1259 2741 
L 2194 2741 
Q 2656 2741 2882 2914 
Q 3109 3088 3109 3444 
Q 3109 3797 2882 3972 
Q 2656 4147 2194 4147 
L 1259 4147 
z
M 628 4666 
L 2241 4666 
Q 2963 4666 3353 4366 
Q 3744 4066 3744 3513 
Q 3744 3084 3544 2831 
Q 3344 2578 2956 2516 
Q 3422 2416 3680 2098 
Q 3938 1781 3938 1306 
Q 3938 681 3513 340 
Q 3088 0 2303 0 
L 628 0 
L 628 4666 
z
" id="DejaVuSans-42" transform="scale(0.015625)"/>
       <path d="M 603 4863 
L 1178 4863 
L 1178 0 
L 603 0 
L 603 4863 
z
" id="DejaVuSans-6c" transform="scale(0.015625)"/>
      </defs>
      <use xlink:href="#DejaVuSans-42"/>
      <use x="68.603516" xlink:href="#DejaVuSans-61"/>
      <use x="129.882812" xlink:href="#DejaVuSans-73"/>
      <use x="181.982422" xlink:href="#DejaVuSans-65"/>
      <use x="243.505859" xlink:href="#DejaVuSans-6c"/>
      <use x="271.289062" xlink:href="#DejaVuSans-69"/>
      <use x="299.072266" xlink:href="#DejaVuSans-6e"/>
      <use x="362.451172" xlink:href="#DejaVuSans-65"/>
     </g>
    </g>
    <g id="line2d_27">
     <path d="M 284.755625 40.995313 
L 324.755625 40.995313 
" style="fill:none;stroke:#000000;stroke-linecap:square;stroke-width:3;"/>
    </g>
    <g id="line2d_28"/>
    <g id="text_24">
     <!-- Dropout -->
     <g transform="translate(340.755625 47.995313)scale(0.2 -0.2)">
      <defs>
       <path d="M 1159 525 
L 1159 -1331 
L 581 -1331 
L 581 3500 
L 1159 3500 
L 1159 2969 
Q 1341 3281 1617 3432 
Q 1894 3584 2278 3584 
Q 2916 3584 3314 3078 
Q 3713 2572 3713 1747 
Q 3713 922 3314 415 
Q 2916 -91 2278 -91 
Q 1894 -91 1617 61 
Q 1341 213 1159 525 
z
M 3116 1747 
Q 3116 2381 2855 2742 
Q 2594 3103 2138 3103 
Q 1681 3103 1420 2742 
Q 1159 2381 1159 1747 
Q 1159 1113 1420 752 
Q 1681 391 2138 391 
Q 2594 391 2855 752 
Q 3116 1113 3116 1747 
z
" id="DejaVuSans-70" transform="scale(0.015625)"/>
      </defs>
      <use xlink:href="#DejaVuSans-44"/>
      <use x="77.001953" xlink:href="#DejaVuSans-72"/>
      <use x="115.865234" xlink:href="#DejaVuSans-6f"/>
      <use x="177.046875" xlink:href="#DejaVuSans-70"/>
      <use x="240.523438" xlink:href="#DejaVuSans-6f"/>
      <use x="301.705078" xlink:href="#DejaVuSans-75"/>
      <use x="365.083984" xlink:href="#DejaVuSans-74"/>
     </g>
    </g>
    <g id="line2d_29">
     <path d="M 461.615 40.995313 
L 501.615 40.995313 
" style="fill:none;stroke:#0000ff;stroke-linecap:square;stroke-width:3;"/>
    </g>
    <g id="line2d_30"/>
    <g id="text_25">
     <!-- 1D-amplitude -->
     <g transform="translate(517.615 47.995313)scale(0.2 -0.2)">
      <defs>
       <path d="M 313 2009 
L 1997 2009 
L 1997 1497 
L 313 1497 
L 313 2009 
z
" id="DejaVuSans-2d" transform="scale(0.015625)"/>
       <path d="M 3328 2828 
Q 3544 3216 3844 3400 
Q 4144 3584 4550 3584 
Q 5097 3584 5394 3201 
Q 5691 2819 5691 2113 
L 5691 0 
L 5113 0 
L 5113 2094 
Q 5113 2597 4934 2840 
Q 4756 3084 4391 3084 
Q 3944 3084 3684 2787 
Q 3425 2491 3425 1978 
L 3425 0 
L 2847 0 
L 2847 2094 
Q 2847 2600 2669 2842 
Q 2491 3084 2119 3084 
Q 1678 3084 1418 2786 
Q 1159 2488 1159 1978 
L 1159 0 
L 581 0 
L 581 3500 
L 1159 3500 
L 1159 2956 
Q 1356 3278 1631 3431 
Q 1906 3584 2284 3584 
Q 2666 3584 2933 3390 
Q 3200 3197 3328 2828 
z
" id="DejaVuSans-6d" transform="scale(0.015625)"/>
      </defs>
      <use xlink:href="#DejaVuSans-31"/>
      <use x="63.623047" xlink:href="#DejaVuSans-44"/>
      <use x="140.625" xlink:href="#DejaVuSans-2d"/>
      <use x="176.708984" xlink:href="#DejaVuSans-61"/>
      <use x="237.988281" xlink:href="#DejaVuSans-6d"/>
      <use x="335.400391" xlink:href="#DejaVuSans-70"/>
      <use x="398.876953" xlink:href="#DejaVuSans-6c"/>
      <use x="426.660156" xlink:href="#DejaVuSans-69"/>
      <use x="454.443359" xlink:href="#DejaVuSans-74"/>
      <use x="493.652344" xlink:href="#DejaVuSans-75"/>
      <use x="557.03125" xlink:href="#DejaVuSans-64"/>
      <use x="620.507812" xlink:href="#DejaVuSans-65"/>
     </g>
    </g>
    <g id="line2d_31">
     <path d="M 694.02125 40.995313 
L 734.02125 40.995313 
" style="fill:none;stroke:#008000;stroke-linecap:square;stroke-width:3;"/>
    </g>
    <g id="line2d_32"/>
    <g id="text_26">
     <!-- 1D-period -->
     <g transform="translate(750.02125 47.995313)scale(0.2 -0.2)">
      <use xlink:href="#DejaVuSans-31"/>
      <use x="63.623047" xlink:href="#DejaVuSans-44"/>
      <use x="140.625" xlink:href="#DejaVuSans-2d"/>
      <use x="176.708984" xlink:href="#DejaVuSans-70"/>
      <use x="240.185547" xlink:href="#DejaVuSans-65"/>
      <use x="301.708984" xlink:href="#DejaVuSans-72"/>
      <use x="342.822266" xlink:href="#DejaVuSans-69"/>
      <use x="370.605469" xlink:href="#DejaVuSans-6f"/>
      <use x="431.787109" xlink:href="#DejaVuSans-64"/>
     </g>
    </g>
   </g>
  </g>
 </g>
 <defs>
  <clipPath id="p3bff17b004">
   <rect height="326.16" width="837" x="85.95875" y="14.798438"/>
  </clipPath>
 </defs>
</svg>
