<?xml version="1.0" encoding="utf-8" standalone="no"?>
<!DOCTYPE svg PUBLIC "-//W3C//DTD SVG 1.1//EN"
  "http://www.w3.org/Graphics/SVG/1.1/DTD/svg11.dtd">
<svg height="433.06775pt" version="1.1" viewBox="0 0 1097.480625 433.06775" width="1097.480625pt" xmlns="http://www.w3.org/2000/svg" xmlns:xlink="http://www.w3.org/1999/xlink">
 <metadata>
  <rdf:RDF xmlns:cc="http://creativecommons.org/ns#" xmlns:dc="http://purl.org/dc/elements/1.1/" xmlns:rdf="http://www.w3.org/1999/02/22-rdf-syntax-ns#">
   <cc:Work>
    <dc:type rdf:resource="http://purl.org/dc/dcmitype/StillImage"/>
    <dc:date>2022-09-08T19:50:32.529999</dc:date>
    <dc:format>image/svg+xml</dc:format>
    <dc:creator>
     <cc:Agent>
      <dc:title>Matplotlib v3.4.2, https://matplotlib.org/</dc:title>
     </cc:Agent>
    </dc:creator>
   </cc:Work>
  </rdf:RDF>
 </metadata>
 <defs>
  <style type="text/css">*{stroke-linecap:butt;stroke-linejoin:round;}</style>
 </defs>
 <g id="figure_1">
  <g id="patch_1">
   <path d="M 0 433.06775 
L 1097.480625 433.06775 
L 1097.480625 -0 
L 0 -0 
z
" style="fill:none;"/>
  </g>
  <g id="axes_1">
   <g id="patch_2">
    <path d="M 85.880625 372.284 
L 1090.280625 372.284 
L 1090.280625 46.124 
L 85.880625 46.124 
z
" style="fill:#ffffff;"/>
   </g>
   <g id="PolyCollection_1">
    <defs>
     <path d="M 187.072985 -156.685093 
L 185.568265 -156.685093 
L 185.410146 -157.909115 
L 185.225634 -159.133137 
L 185.011774 -160.357159 
L 184.765541 -161.581181 
L 184.483875 -162.805203 
L 184.163722 -164.029225 
L 183.802082 -165.253247 
L 183.396042 -166.477269 
L 182.942822 -167.701291 
L 182.439808 -168.925313 
L 181.884586 -170.149335 
L 181.274971 -171.373357 
L 180.609028 -172.597379 
L 179.88509 -173.821401 
L 179.101777 -175.045423 
L 178.258011 -176.269445 
L 177.353024 -177.493467 
L 176.386383 -178.717489 
L 175.358007 -179.941511 
L 174.268193 -181.165533 
L 173.117652 -182.389555 
L 171.907545 -183.613577 
L 170.639531 -184.837599 
L 169.315809 -186.061621 
L 167.93917 -187.285643 
L 166.513035 -188.509665 
L 165.041487 -189.733687 
L 163.529284 -190.957709 
L 161.981856 -192.181731 
L 160.405269 -193.405752 
L 158.806168 -194.629774 
L 157.191687 -195.853796 
L 155.569322 -197.077818 
L 153.946793 -198.30184 
L 152.331868 -199.525862 
L 150.732192 -200.749884 
L 149.155102 -201.973906 
L 147.607454 -203.197928 
L 146.095478 -204.42195 
L 144.624656 -205.645972 
L 143.199655 -206.869994 
L 141.824304 -208.094016 
L 140.501631 -209.318038 
L 139.233961 -210.54206 
L 138.023065 -211.766082 
L 136.87036 -212.990104 
L 135.77715 -214.214126 
L 134.74488 -215.438148 
L 133.775408 -216.66217 
L 132.871258 -217.886192 
L 132.035838 -219.110214 
L 131.273619 -220.334236 
L 130.590241 -221.558258 
L 129.992546 -222.78228 
L 129.48853 -224.006302 
L 129.087204 -225.230324 
L 128.798373 -226.454346 
L 128.632346 -227.678368 
L 128.599572 -228.90239 
L 128.710236 -230.126412 
L 128.973827 -231.350434 
L 129.398697 -232.574456 
L 129.991637 -233.798478 
L 130.757484 -235.0225 
L 131.698791 -236.246522 
L 132.815559 -237.470544 
L 134.105056 -238.694566 
L 135.561726 -239.918588 
L 137.177193 -241.14261 
L 138.940365 -242.366632 
L 140.83762 -243.590654 
L 142.853078 -244.814676 
L 144.968944 -246.038698 
L 147.165909 -247.26272 
L 149.423584 -248.486742 
L 151.720969 -249.710764 
L 154.036917 -250.934786 
L 156.350599 -252.158808 
L 158.641938 -253.38283 
L 160.892005 -254.606852 
L 163.083373 -255.830873 
L 165.2004 -257.054895 
L 167.229463 -258.278917 
L 169.159111 -259.502939 
L 170.980158 -260.726961 
L 172.685707 -261.950983 
L 174.271112 -263.175005 
L 175.733884 -264.399027 
L 177.073548 -265.623049 
L 178.291461 -266.847071 
L 179.390599 -268.071093 
L 180.375327 -269.295115 
L 181.251149 -270.519137 
L 182.024469 -271.743159 
L 182.702344 -272.967181 
L 183.292262 -274.191203 
L 183.801926 -275.415225 
L 184.239077 -276.639247 
L 184.611321 -277.863269 
L 188.029929 -277.863269 
L 188.029929 -277.863269 
L 188.402173 -276.639247 
L 188.839324 -275.415225 
L 189.348988 -274.191203 
L 189.938906 -272.967181 
L 190.616781 -271.743159 
L 191.390101 -270.519137 
L 192.265923 -269.295115 
L 193.250651 -268.071093 
L 194.349789 -266.847071 
L 195.567702 -265.623049 
L 196.907366 -264.399027 
L 198.370138 -263.175005 
L 199.955543 -261.950983 
L 201.661092 -260.726961 
L 203.482139 -259.502939 
L 205.411787 -258.278917 
L 207.44085 -257.054895 
L 209.557877 -255.830873 
L 211.749245 -254.606852 
L 213.999312 -253.38283 
L 216.290651 -252.158808 
L 218.604333 -250.934786 
L 220.920281 -249.710764 
L 223.217666 -248.486742 
L 225.475341 -247.26272 
L 227.672306 -246.038698 
L 229.788172 -244.814676 
L 231.80363 -243.590654 
L 233.700885 -242.366632 
L 235.464057 -241.14261 
L 237.079524 -239.918588 
L 238.536194 -238.694566 
L 239.825691 -237.470544 
L 240.942459 -236.246522 
L 241.883766 -235.0225 
L 242.649613 -233.798478 
L 243.242553 -232.574456 
L 243.667423 -231.350434 
L 243.931014 -230.126412 
L 244.041678 -228.90239 
L 244.008904 -227.678368 
L 243.842877 -226.454346 
L 243.554046 -225.230324 
L 243.15272 -224.006302 
L 242.648704 -222.78228 
L 242.051009 -221.558258 
L 241.367631 -220.334236 
L 240.605412 -219.110214 
L 239.769992 -217.886192 
L 238.865842 -216.66217 
L 237.89637 -215.438148 
L 236.8641 -214.214126 
L 235.77089 -212.990104 
L 234.618185 -211.766082 
L 233.407289 -210.54206 
L 232.139619 -209.318038 
L 230.816946 -208.094016 
L 229.441595 -206.869994 
L 228.016594 -205.645972 
L 226.545772 -204.42195 
L 225.033796 -203.197928 
L 223.486148 -201.973906 
L 221.909058 -200.749884 
L 220.309382 -199.525862 
L 218.694457 -198.30184 
L 217.071928 -197.077818 
L 215.449563 -195.853796 
L 213.835082 -194.629774 
L 212.235981 -193.405752 
L 210.659394 -192.181731 
L 209.111966 -190.957709 
L 207.599763 -189.733687 
L 206.128215 -188.509665 
L 204.70208 -187.285643 
L 203.325441 -186.061621 
L 202.001719 -184.837599 
L 200.733705 -183.613577 
L 199.523598 -182.389555 
L 198.373057 -181.165533 
L 197.283243 -179.941511 
L 196.254867 -178.717489 
L 195.288226 -177.493467 
L 194.383239 -176.269445 
L 193.539473 -175.045423 
L 192.75616 -173.821401 
L 192.032222 -172.597379 
L 191.366279 -171.373357 
L 190.756664 -170.149335 
L 190.201442 -168.925313 
L 189.698428 -167.701291 
L 189.245208 -166.477269 
L 188.839168 -165.253247 
L 188.477528 -164.029225 
L 188.157375 -162.805203 
L 187.875709 -161.581181 
L 187.629476 -160.357159 
L 187.415616 -159.133137 
L 187.231104 -157.909115 
L 187.072985 -156.685093 
z
" id="m5fc895794c" style="stroke:#313131;stroke-width:1.5;"/>
    </defs>
    <g clip-path="url(#p6f5ffd5d18)">
     <use style="fill:#772b58;stroke:#313131;stroke-width:1.5;" x="0" xlink:href="#m5fc895794c" y="433.06775"/>
    </g>
   </g>
   <g id="PolyCollection_2">
    <defs>
     <path d="M 321.023938 -166.281719 
L 319.457312 -166.281719 
L 319.264061 -167.579168 
L 319.032743 -168.876616 
L 318.758281 -170.174065 
L 318.435443 -171.471513 
L 318.058944 -172.768962 
L 317.623554 -174.06641 
L 317.124216 -175.363859 
L 316.556162 -176.661307 
L 315.915017 -177.958756 
L 315.196891 -179.256204 
L 314.398449 -180.553653 
L 313.516947 -181.851101 
L 312.550235 -183.14855 
L 311.496727 -184.445998 
L 310.355334 -185.743447 
L 309.125371 -187.040895 
L 307.80644 -188.338344 
L 306.398317 -189.635792 
L 304.900833 -190.933241 
L 303.313805 -192.230689 
L 301.636993 -193.528138 
L 299.870133 -194.825586 
L 298.013045 -196.123035 
L 296.065821 -197.420483 
L 294.029104 -198.717932 
L 291.904447 -200.01538 
L 289.694724 -201.312829 
L 287.404593 -202.610278 
L 285.040956 -203.907726 
L 282.613394 -205.205175 
L 280.134528 -206.502623 
L 277.620272 -207.800072 
L 275.089949 -209.09752 
L 272.566229 -210.394969 
L 270.074887 -211.692417 
L 267.644363 -212.989866 
L 265.305149 -214.287314 
L 263.089014 -215.584763 
L 261.028103 -216.882211 
L 259.153964 -218.17966 
L 257.496538 -219.477108 
L 256.083185 -220.774557 
L 254.937781 -222.072005 
L 254.079944 -223.369454 
L 253.524413 -224.666902 
L 253.280625 -225.964351 
L 253.35249 -227.261799 
L 253.738363 -228.559248 
L 254.431219 -229.856696 
L 255.418987 -231.154145 
L 256.685037 -232.451593 
L 258.208766 -233.749042 
L 259.96627 -235.04649 
L 261.931051 -236.343939 
L 264.074733 -237.641387 
L 266.367771 -238.938836 
L 268.780116 -240.236285 
L 271.281841 -241.533733 
L 273.843698 -242.831182 
L 276.437621 -244.12863 
L 279.037156 -245.426079 
L 281.617832 -246.723527 
L 284.157463 -248.020976 
L 286.636384 -249.318424 
L 289.037629 -250.615873 
L 291.347036 -251.913321 
L 293.553299 -253.21077 
L 295.647938 -254.508218 
L 297.625219 -255.805667 
L 299.482002 -257.103115 
L 301.217535 -258.400564 
L 302.83319 -259.698012 
L 304.33217 -260.995461 
L 305.719167 -262.292909 
L 307.000019 -263.590358 
L 308.181357 -264.887806 
L 309.270269 -266.185255 
L 310.273982 -267.482703 
L 311.199595 -268.780152 
L 312.053848 -270.0776 
L 312.842956 -271.375049 
L 313.572487 -272.672497 
L 314.247306 -273.969946 
L 314.871567 -275.267394 
L 315.448749 -276.564843 
L 315.981723 -277.862292 
L 316.472855 -279.15974 
L 316.924114 -280.457189 
L 317.337184 -281.754637 
L 317.713581 -283.052086 
L 318.054748 -284.349534 
L 318.362137 -285.646983 
L 318.637273 -286.944431 
L 318.881788 -288.24188 
L 319.097445 -289.539328 
L 319.286133 -290.836777 
L 319.449851 -292.134225 
L 319.590683 -293.431674 
L 319.710755 -294.729122 
L 320.770495 -294.729122 
L 320.770495 -294.729122 
L 320.890567 -293.431674 
L 321.031399 -292.134225 
L 321.195117 -290.836777 
L 321.383805 -289.539328 
L 321.599462 -288.24188 
L 321.843977 -286.944431 
L 322.119113 -285.646983 
L 322.426502 -284.349534 
L 322.767669 -283.052086 
L 323.144066 -281.754637 
L 323.557136 -280.457189 
L 324.008395 -279.15974 
L 324.499527 -277.862292 
L 325.032501 -276.564843 
L 325.609683 -275.267394 
L 326.233944 -273.969946 
L 326.908763 -272.672497 
L 327.638294 -271.375049 
L 328.427402 -270.0776 
L 329.281655 -268.780152 
L 330.207268 -267.482703 
L 331.210981 -266.185255 
L 332.299893 -264.887806 
L 333.481231 -263.590358 
L 334.762083 -262.292909 
L 336.14908 -260.995461 
L 337.64806 -259.698012 
L 339.263715 -258.400564 
L 340.999248 -257.103115 
L 342.856031 -255.805667 
L 344.833312 -254.508218 
L 346.927951 -253.21077 
L 349.134214 -251.913321 
L 351.443621 -250.615873 
L 353.844866 -249.318424 
L 356.323787 -248.020976 
L 358.863418 -246.723527 
L 361.444094 -245.426079 
L 364.043629 -244.12863 
L 366.637552 -242.831182 
L 369.199409 -241.533733 
L 371.701134 -240.236285 
L 374.113479 -238.938836 
L 376.406517 -237.641387 
L 378.550199 -236.343939 
L 380.51498 -235.04649 
L 382.272484 -233.749042 
L 383.796213 -232.451593 
L 385.062263 -231.154145 
L 386.050031 -229.856696 
L 386.742887 -228.559248 
L 387.12876 -227.261799 
L 387.200625 -225.964351 
L 386.956837 -224.666902 
L 386.401306 -223.369454 
L 385.543469 -222.072005 
L 384.398065 -220.774557 
L 382.984712 -219.477108 
L 381.327286 -218.17966 
L 379.453147 -216.882211 
L 377.392236 -215.584763 
L 375.176101 -214.287314 
L 372.836887 -212.989866 
L 370.406363 -211.692417 
L 367.915021 -210.394969 
L 365.391301 -209.09752 
L 362.860978 -207.800072 
L 360.346722 -206.502623 
L 357.867856 -205.205175 
L 355.440294 -203.907726 
L 353.076657 -202.610278 
L 350.786526 -201.312829 
L 348.576803 -200.01538 
L 346.452146 -198.717932 
L 344.415429 -197.420483 
L 342.468205 -196.123035 
L 340.611117 -194.825586 
L 338.844257 -193.528138 
L 337.167445 -192.230689 
L 335.580417 -190.933241 
L 334.082933 -189.635792 
L 332.67481 -188.338344 
L 331.355879 -187.040895 
L 330.125916 -185.743447 
L 328.984523 -184.445998 
L 327.931015 -183.14855 
L 326.964303 -181.851101 
L 326.082801 -180.553653 
L 325.284359 -179.256204 
L 324.566233 -177.958756 
L 323.925088 -176.661307 
L 323.357034 -175.363859 
L 322.857696 -174.06641 
L 322.422306 -172.768962 
L 322.045807 -171.471513 
L 321.722969 -170.174065 
L 321.448507 -168.876616 
L 321.217189 -167.579168 
L 321.023938 -166.281719 
z
" id="m20efeb0eb8" style="stroke:#313131;stroke-width:1.5;"/>
    </defs>
    <g clip-path="url(#p6f5ffd5d18)">
     <use style="fill:#db6e59;stroke:#313131;stroke-width:1.5;" x="0" xlink:href="#m20efeb0eb8" y="433.06775"/>
    </g>
   </g>
   <g id="PolyCollection_3">
    <defs>
     <path d="M 521.640763 -170.483778 
L 520.600487 -170.483778 
L 520.476652 -171.802164 
L 520.330186 -173.12055 
L 520.158537 -174.438936 
L 519.959149 -175.757323 
L 519.729494 -177.075709 
L 519.467094 -178.394095 
L 519.169537 -179.712481 
L 518.834466 -181.030867 
L 518.459563 -182.349254 
L 518.042505 -183.66764 
L 517.580914 -184.986026 
L 517.072287 -186.304412 
L 516.513919 -187.622798 
L 515.902837 -188.941185 
L 515.235734 -190.259571 
L 514.508922 -191.577957 
L 513.718317 -192.896343 
L 512.859451 -194.214729 
L 511.92753 -195.533116 
L 510.917523 -196.851502 
L 509.824296 -198.169888 
L 508.642781 -199.488274 
L 507.368168 -200.806661 
L 505.996117 -202.125047 
L 504.522982 -203.443433 
L 502.946026 -204.761819 
L 501.263628 -206.080205 
L 499.475472 -207.398592 
L 497.582706 -208.716978 
L 495.588083 -210.035364 
L 493.496068 -211.35375 
L 491.312929 -212.672136 
L 489.046804 -213.990523 
L 486.707756 -215.308909 
L 484.307813 -216.627295 
L 481.860998 -217.945681 
L 479.383345 -219.264067 
L 476.892892 -220.582454 
L 474.409646 -221.90084 
L 471.955508 -223.219226 
L 469.554143 -224.537612 
L 467.230783 -225.855998 
L 465.011949 -227.174385 
L 462.925094 -228.492771 
L 460.998152 -229.811157 
L 459.259004 -231.129543 
L 457.734873 -232.44793 
L 456.451662 -233.766316 
L 455.43325 -235.084702 
L 454.70079 -236.403088 
L 454.272018 -237.721474 
L 454.160625 -239.039861 
L 454.375695 -240.358247 
L 454.921261 -241.676633 
L 455.795985 -242.995019 
L 456.992984 -244.313405 
L 458.499816 -245.631792 
L 460.298627 -246.950178 
L 462.366469 -248.268564 
L 464.67577 -249.58695 
L 467.194956 -250.905336 
L 469.889203 -252.223723 
L 472.721301 -253.542109 
L 475.652595 -254.860495 
L 478.643982 -256.178881 
L 481.656919 -257.497267 
L 484.654409 -258.815654 
L 487.601922 -260.13404 
L 490.468218 -261.452426 
L 493.226029 -262.770812 
L 495.852575 -264.089198 
L 498.329896 -265.407585 
L 500.644985 -266.725971 
L 502.789718 -268.044357 
L 504.760604 -269.362743 
L 506.558365 -270.68113 
L 508.187387 -271.999516 
L 509.655072 -273.317902 
L 510.971139 -274.636288 
L 512.146916 -275.954674 
L 513.194656 -277.273061 
L 514.126923 -278.591447 
L 514.956061 -279.909833 
L 515.693777 -281.228219 
L 516.350833 -282.546605 
L 516.93686 -283.864992 
L 517.460268 -285.183378 
L 517.928258 -286.501764 
L 518.346893 -287.82015 
L 518.721231 -289.138536 
L 519.055485 -290.456923 
L 519.353185 -291.775309 
L 519.617353 -293.093695 
L 519.85064 -294.412081 
L 520.055457 -295.730467 
L 520.234066 -297.048854 
L 520.388644 -298.36724 
L 520.52132 -299.685626 
L 520.634192 -301.004012 
L 521.607058 -301.004012 
L 521.607058 -301.004012 
L 521.71993 -299.685626 
L 521.852606 -298.36724 
L 522.007184 -297.048854 
L 522.185793 -295.730467 
L 522.39061 -294.412081 
L 522.623897 -293.093695 
L 522.888065 -291.775309 
L 523.185765 -290.456923 
L 523.520019 -289.138536 
L 523.894357 -287.82015 
L 524.312992 -286.501764 
L 524.780982 -285.183378 
L 525.30439 -283.864992 
L 525.890417 -282.546605 
L 526.547473 -281.228219 
L 527.285189 -279.909833 
L 528.114327 -278.591447 
L 529.046594 -277.273061 
L 530.094334 -275.954674 
L 531.270111 -274.636288 
L 532.586178 -273.317902 
L 534.053863 -271.999516 
L 535.682885 -270.68113 
L 537.480646 -269.362743 
L 539.451532 -268.044357 
L 541.596265 -266.725971 
L 543.911354 -265.407585 
L 546.388675 -264.089198 
L 549.015221 -262.770812 
L 551.773032 -261.452426 
L 554.639328 -260.13404 
L 557.586841 -258.815654 
L 560.584331 -257.497267 
L 563.597268 -256.178881 
L 566.588655 -254.860495 
L 569.519949 -253.542109 
L 572.352047 -252.223723 
L 575.046294 -250.905336 
L 577.56548 -249.58695 
L 579.874781 -248.268564 
L 581.942623 -246.950178 
L 583.741434 -245.631792 
L 585.248266 -244.313405 
L 586.445265 -242.995019 
L 587.319989 -241.676633 
L 587.865555 -240.358247 
L 588.080625 -239.039861 
L 587.969232 -237.721474 
L 587.54046 -236.403088 
L 586.808 -235.084702 
L 585.789588 -233.766316 
L 584.506377 -232.44793 
L 582.982246 -231.129543 
L 581.243098 -229.811157 
L 579.316156 -228.492771 
L 577.229301 -227.174385 
L 575.010467 -225.855998 
L 572.687107 -224.537612 
L 570.285742 -223.219226 
L 567.831604 -221.90084 
L 565.348358 -220.582454 
L 562.857905 -219.264067 
L 560.380252 -217.945681 
L 557.933437 -216.627295 
L 555.533494 -215.308909 
L 553.194446 -213.990523 
L 550.928321 -212.672136 
L 548.745182 -211.35375 
L 546.653167 -210.035364 
L 544.658544 -208.716978 
L 542.765778 -207.398592 
L 540.977622 -206.080205 
L 539.295224 -204.761819 
L 537.718268 -203.443433 
L 536.245133 -202.125047 
L 534.873082 -200.806661 
L 533.598469 -199.488274 
L 532.416954 -198.169888 
L 531.323727 -196.851502 
L 530.31372 -195.533116 
L 529.381799 -194.214729 
L 528.522933 -192.896343 
L 527.732328 -191.577957 
L 527.005516 -190.259571 
L 526.338413 -188.941185 
L 525.727331 -187.622798 
L 525.168963 -186.304412 
L 524.660336 -184.986026 
L 524.198745 -183.66764 
L 523.781687 -182.349254 
L 523.406784 -181.030867 
L 523.071713 -179.712481 
L 522.774156 -178.394095 
L 522.511756 -177.075709 
L 522.282101 -175.757323 
L 522.082713 -174.438936 
L 521.911064 -173.12055 
L 521.764598 -171.802164 
L 521.640763 -170.483778 
z
" id="m67c002454f" style="stroke:#313131;stroke-width:1.5;"/>
    </defs>
    <g clip-path="url(#p6f5ffd5d18)">
     <use style="fill:#772b58;stroke:#313131;stroke-width:1.5;" x="0" xlink:href="#m67c002454f" y="433.06775"/>
    </g>
   </g>
   <g id="PolyCollection_4">
    <defs>
     <path d="M 656.127669 -190.202153 
L 653.953581 -190.202153 
L 653.713237 -191.323632 
L 653.428971 -192.445111 
L 653.094911 -193.56659 
L 652.704855 -194.688068 
L 652.252346 -195.809547 
L 651.73077 -196.931026 
L 651.133469 -198.052505 
L 650.45388 -199.173983 
L 649.68569 -200.295462 
L 648.823004 -201.416941 
L 647.860528 -202.53842 
L 646.793756 -203.659898 
L 645.619162 -204.781377 
L 644.334384 -205.902856 
L 642.938393 -207.024335 
L 641.431655 -208.145813 
L 639.816254 -209.267292 
L 638.095991 -210.388771 
L 636.27644 -211.51025 
L 634.364973 -212.631728 
L 632.370726 -213.753207 
L 630.30453 -214.874686 
L 628.178795 -215.996165 
L 626.007346 -217.117643 
L 623.805229 -218.239122 
L 621.588475 -219.360601 
L 619.373844 -220.48208 
L 617.178544 -221.603559 
L 615.019947 -222.725037 
L 612.915295 -223.846516 
L 610.88141 -224.967995 
L 608.934421 -226.089474 
L 607.089504 -227.210952 
L 605.360648 -228.332431 
L 603.760441 -229.45391 
L 602.299896 -230.575389 
L 600.988296 -231.696867 
L 599.833084 -232.818346 
L 598.839779 -233.939825 
L 598.011925 -235.061304 
L 597.351083 -236.182782 
L 596.856847 -237.304261 
L 596.526905 -238.42574 
L 596.357126 -239.547219 
L 596.341689 -240.668697 
L 596.473241 -241.790176 
L 596.743088 -242.911655 
L 597.141419 -244.033134 
L 597.657552 -245.154612 
L 598.280202 -246.276091 
L 598.997766 -247.39757 
L 599.798613 -248.519049 
L 600.671365 -249.640527 
L 601.605182 -250.762006 
L 602.590006 -251.883485 
L 603.61679 -253.004964 
L 604.677677 -254.126442 
L 605.766133 -255.247921 
L 606.877028 -256.3694 
L 608.006657 -257.490879 
L 609.152708 -258.612357 
L 610.314161 -259.733836 
L 611.491149 -260.855315 
L 612.684763 -261.976794 
L 613.89682 -263.098272 
L 615.129608 -264.219751 
L 616.385613 -265.34123 
L 617.667244 -266.462709 
L 618.97657 -267.584187 
L 620.315071 -268.705666 
L 621.683431 -269.827145 
L 623.081365 -270.948624 
L 624.507499 -272.070102 
L 625.959299 -273.191581 
L 627.433056 -274.31306 
L 628.923926 -275.434539 
L 630.426023 -276.556017 
L 631.932549 -277.677496 
L 633.435976 -278.798975 
L 634.928246 -279.920454 
L 636.400998 -281.041933 
L 637.845803 -282.163411 
L 639.254397 -283.28489 
L 640.618902 -284.406369 
L 641.932038 -285.527848 
L 643.187292 -286.649326 
L 644.379071 -287.770805 
L 645.502805 -288.892284 
L 646.55502 -290.013763 
L 647.533373 -291.135241 
L 648.436637 -292.25672 
L 649.264672 -293.378199 
L 650.018346 -294.499678 
L 650.699445 -295.621156 
L 651.310557 -296.742635 
L 651.854949 -297.864114 
L 652.336427 -298.985593 
L 652.759206 -300.107071 
L 653.127776 -301.22855 
L 656.953474 -301.22855 
L 656.953474 -301.22855 
L 657.322044 -300.107071 
L 657.744823 -298.985593 
L 658.226301 -297.864114 
L 658.770693 -296.742635 
L 659.381805 -295.621156 
L 660.062904 -294.499678 
L 660.816578 -293.378199 
L 661.644613 -292.25672 
L 662.547877 -291.135241 
L 663.52623 -290.013763 
L 664.578445 -288.892284 
L 665.702179 -287.770805 
L 666.893958 -286.649326 
L 668.149212 -285.527848 
L 669.462348 -284.406369 
L 670.826853 -283.28489 
L 672.235447 -282.163411 
L 673.680252 -281.041933 
L 675.153004 -279.920454 
L 676.645274 -278.798975 
L 678.148701 -277.677496 
L 679.655227 -276.556017 
L 681.157324 -275.434539 
L 682.648194 -274.31306 
L 684.121951 -273.191581 
L 685.573751 -272.070102 
L 686.999885 -270.948624 
L 688.397819 -269.827145 
L 689.766179 -268.705666 
L 691.10468 -267.584187 
L 692.414006 -266.462709 
L 693.695637 -265.34123 
L 694.951642 -264.219751 
L 696.18443 -263.098272 
L 697.396487 -261.976794 
L 698.590101 -260.855315 
L 699.767089 -259.733836 
L 700.928542 -258.612357 
L 702.074593 -257.490879 
L 703.204222 -256.3694 
L 704.315117 -255.247921 
L 705.403573 -254.126442 
L 706.46446 -253.004964 
L 707.491244 -251.883485 
L 708.476068 -250.762006 
L 709.409885 -249.640527 
L 710.282637 -248.519049 
L 711.083484 -247.39757 
L 711.801048 -246.276091 
L 712.423698 -245.154612 
L 712.939831 -244.033134 
L 713.338162 -242.911655 
L 713.608009 -241.790176 
L 713.739561 -240.668697 
L 713.724124 -239.547219 
L 713.554345 -238.42574 
L 713.224403 -237.304261 
L 712.730167 -236.182782 
L 712.069325 -235.061304 
L 711.241471 -233.939825 
L 710.248166 -232.818346 
L 709.092954 -231.696867 
L 707.781354 -230.575389 
L 706.320809 -229.45391 
L 704.720602 -228.332431 
L 702.991746 -227.210952 
L 701.146829 -226.089474 
L 699.19984 -224.967995 
L 697.165955 -223.846516 
L 695.061303 -222.725037 
L 692.902706 -221.603559 
L 690.707406 -220.48208 
L 688.492775 -219.360601 
L 686.276021 -218.239122 
L 684.073904 -217.117643 
L 681.902455 -215.996165 
L 679.77672 -214.874686 
L 677.710524 -213.753207 
L 675.716277 -212.631728 
L 673.80481 -211.51025 
L 671.985259 -210.388771 
L 670.264996 -209.267292 
L 668.649595 -208.145813 
L 667.142857 -207.024335 
L 665.746866 -205.902856 
L 664.462088 -204.781377 
L 663.287494 -203.659898 
L 662.220722 -202.53842 
L 661.258246 -201.416941 
L 660.39556 -200.295462 
L 659.62737 -199.173983 
L 658.947781 -198.052505 
L 658.35048 -196.931026 
L 657.828904 -195.809547 
L 657.376395 -194.688068 
L 656.986339 -193.56659 
L 656.652279 -192.445111 
L 656.368013 -191.323632 
L 656.127669 -190.202153 
z
" id="m72e09bd41d" style="stroke:#313131;stroke-width:1.5;"/>
    </defs>
    <g clip-path="url(#p6f5ffd5d18)">
     <use style="fill:#db6e59;stroke:#313131;stroke-width:1.5;" x="0" xlink:href="#m72e09bd41d" y="433.06775"/>
    </g>
   </g>
   <g id="PolyCollection_5">
    <defs>
     <path d="M 856.514849 -174.159144 
L 855.326401 -174.159144 
L 855.192763 -175.095537 
L 855.035488 -176.03193 
L 854.851811 -176.968323 
L 854.638896 -177.904716 
L 854.393868 -178.841109 
L 854.113839 -179.777502 
L 853.795937 -180.713894 
L 853.437325 -181.650287 
L 853.035213 -182.58668 
L 852.586871 -183.523073 
L 852.08962 -184.459466 
L 851.540833 -185.395859 
L 850.937918 -186.332252 
L 850.278314 -187.268645 
L 849.559479 -188.205038 
L 848.778901 -189.14143 
L 847.934105 -190.077823 
L 847.022692 -191.014216 
L 846.042393 -191.950609 
L 844.991147 -192.887002 
L 843.867191 -193.823395 
L 842.669182 -194.759788 
L 841.396323 -195.696181 
L 840.048489 -196.632574 
L 838.626357 -197.568966 
L 837.131516 -198.505359 
L 835.566544 -199.441752 
L 833.935059 -200.378145 
L 832.241717 -201.314538 
L 830.492167 -202.250931 
L 828.692954 -203.187324 
L 826.851376 -204.123717 
L 824.975311 -205.06011 
L 823.073011 -205.996502 
L 821.152894 -206.932895 
L 819.223343 -207.869288 
L 817.292539 -208.805681 
L 815.368332 -209.742074 
L 813.458176 -210.678467 
L 811.569139 -211.61486 
L 809.707977 -212.551253 
L 807.881294 -213.487646 
L 806.095752 -214.424038 
L 804.358332 -215.360431 
L 802.676629 -216.296824 
L 801.059131 -217.233217 
L 799.515484 -218.16961 
L 798.056688 -219.106003 
L 796.695221 -220.042396 
L 795.445047 -220.978789 
L 794.321512 -221.915182 
L 793.341106 -222.851574 
L 792.521099 -223.787967 
L 791.879062 -224.72436 
L 791.432283 -225.660753 
L 791.197117 -226.597146 
L 791.188294 -227.533539 
L 791.418228 -228.469932 
L 791.896356 -229.406325 
L 792.628561 -230.342718 
L 793.616698 -231.27911 
L 794.858261 -232.215503 
L 796.34621 -233.151896 
L 798.068973 -234.088289 
L 800.010616 -235.024682 
L 802.151192 -235.961075 
L 804.467235 -236.897468 
L 806.932381 -237.833861 
L 809.518089 -238.770254 
L 812.194424 -239.706646 
L 814.930862 -240.643039 
L 817.697084 -241.579432 
L 820.463729 -242.515825 
L 823.203063 -243.452218 
L 825.889557 -244.388611 
L 828.500351 -245.325004 
L 831.015584 -246.261397 
L 833.418609 -247.19779 
L 835.696081 -248.134182 
L 837.837929 -249.070575 
L 839.837239 -250.006968 
L 841.690051 -250.943361 
L 843.395089 -251.879754 
L 844.953463 -252.816147 
L 846.36833 -253.75254 
L 847.644553 -254.688933 
L 848.788368 -255.625326 
L 849.807058 -256.561718 
L 850.70866 -257.498111 
L 851.501695 -258.434504 
L 852.194931 -259.370897 
L 852.797186 -260.30729 
L 853.317155 -261.243683 
L 853.763275 -262.180076 
L 854.143619 -263.116469 
L 854.465811 -264.052862 
L 854.736972 -264.989254 
L 854.96368 -265.925647 
L 855.151952 -266.86204 
L 856.689298 -266.86204 
L 856.689298 -266.86204 
L 856.87757 -265.925647 
L 857.104278 -264.989254 
L 857.375439 -264.052862 
L 857.697631 -263.116469 
L 858.077975 -262.180076 
L 858.524095 -261.243683 
L 859.044064 -260.30729 
L 859.646319 -259.370897 
L 860.339555 -258.434504 
L 861.13259 -257.498111 
L 862.034192 -256.561718 
L 863.052882 -255.625326 
L 864.196697 -254.688933 
L 865.47292 -253.75254 
L 866.887787 -252.816147 
L 868.446161 -251.879754 
L 870.151199 -250.943361 
L 872.004011 -250.006968 
L 874.003321 -249.070575 
L 876.145169 -248.134182 
L 878.422641 -247.19779 
L 880.825666 -246.261397 
L 883.340899 -245.325004 
L 885.951693 -244.388611 
L 888.638187 -243.452218 
L 891.377521 -242.515825 
L 894.144166 -241.579432 
L 896.910388 -240.643039 
L 899.646826 -239.706646 
L 902.323161 -238.770254 
L 904.908869 -237.833861 
L 907.374015 -236.897468 
L 909.690058 -235.961075 
L 911.830634 -235.024682 
L 913.772277 -234.088289 
L 915.49504 -233.151896 
L 916.982989 -232.215503 
L 918.224552 -231.27911 
L 919.212689 -230.342718 
L 919.944894 -229.406325 
L 920.423022 -228.469932 
L 920.652956 -227.533539 
L 920.644133 -226.597146 
L 920.408967 -225.660753 
L 919.962188 -224.72436 
L 919.320151 -223.787967 
L 918.500144 -222.851574 
L 917.519738 -221.915182 
L 916.396203 -220.978789 
L 915.146029 -220.042396 
L 913.784562 -219.106003 
L 912.325766 -218.16961 
L 910.782119 -217.233217 
L 909.164621 -216.296824 
L 907.482918 -215.360431 
L 905.745498 -214.424038 
L 903.959956 -213.487646 
L 902.133273 -212.551253 
L 900.272111 -211.61486 
L 898.383074 -210.678467 
L 896.472918 -209.742074 
L 894.548711 -208.805681 
L 892.617907 -207.869288 
L 890.688356 -206.932895 
L 888.768239 -205.996502 
L 886.865939 -205.06011 
L 884.989874 -204.123717 
L 883.148296 -203.187324 
L 881.349083 -202.250931 
L 879.599533 -201.314538 
L 877.906191 -200.378145 
L 876.274706 -199.441752 
L 874.709734 -198.505359 
L 873.214893 -197.568966 
L 871.792761 -196.632574 
L 870.444927 -195.696181 
L 869.172068 -194.759788 
L 867.974059 -193.823395 
L 866.850103 -192.887002 
L 865.798857 -191.950609 
L 864.818558 -191.014216 
L 863.907145 -190.077823 
L 863.062349 -189.14143 
L 862.281771 -188.205038 
L 861.562936 -187.268645 
L 860.903332 -186.332252 
L 860.300417 -185.395859 
L 859.75163 -184.459466 
L 859.254379 -183.523073 
L 858.806037 -182.58668 
L 858.403925 -181.650287 
L 858.045313 -180.713894 
L 857.727411 -179.777502 
L 857.447382 -178.841109 
L 857.202354 -177.904716 
L 856.989439 -176.968323 
L 856.805762 -176.03193 
L 856.648487 -175.095537 
L 856.514849 -174.159144 
z
" id="m7f43389a57" style="stroke:#313131;stroke-width:1.5;"/>
    </defs>
    <g clip-path="url(#p6f5ffd5d18)">
     <use style="fill:#772b58;stroke:#313131;stroke-width:1.5;" x="0" xlink:href="#m7f43389a57" y="433.06775"/>
    </g>
   </g>
   <g id="PolyCollection_6">
    <defs>
     <path d="M 990.947147 -197.248716 
L 988.734103 -197.248716 
L 988.507516 -198.008009 
L 988.244302 -198.767301 
L 987.940614 -199.526593 
L 987.592577 -200.285885 
L 987.196358 -201.045177 
L 986.748229 -201.804469 
L 986.244642 -202.563761 
L 985.682298 -203.323053 
L 985.058206 -204.082345 
L 984.369747 -204.841638 
L 983.614711 -205.60093 
L 982.791334 -206.360222 
L 981.898318 -207.119514 
L 980.934827 -207.878806 
L 979.900486 -208.638098 
L 978.795345 -209.39739 
L 977.619854 -210.156682 
L 976.374814 -210.915974 
L 975.061342 -211.675266 
L 973.680821 -212.434559 
L 972.234879 -213.193851 
L 970.725362 -213.953143 
L 969.15434 -214.712435 
L 967.524124 -215.471727 
L 965.837308 -216.231019 
L 964.096833 -216.990311 
L 962.306073 -217.749603 
L 960.468924 -218.508895 
L 958.589917 -219.268188 
L 956.674314 -220.02748 
L 954.728208 -220.786772 
L 952.758591 -221.546064 
L 950.7734 -222.305356 
L 948.781524 -223.064648 
L 946.792758 -223.82394 
L 944.817721 -224.583232 
L 942.867707 -225.342524 
L 940.954502 -226.101816 
L 939.090145 -226.861109 
L 937.286664 -227.620401 
L 935.555787 -228.379693 
L 933.908641 -229.138985 
L 932.355469 -229.898277 
L 930.905371 -230.657569 
L 929.566077 -231.416861 
L 928.343799 -232.176153 
L 927.243127 -232.935445 
L 926.267028 -233.694738 
L 925.416904 -234.45403 
L 924.692745 -235.213322 
L 924.093349 -235.972614 
L 923.6166 -236.731906 
L 923.259798 -237.491198 
L 923.020006 -238.25049 
L 922.894405 -239.009782 
L 922.880625 -239.769074 
L 922.977036 -240.528366 
L 923.182968 -241.287659 
L 923.498858 -242.046951 
L 923.926295 -242.806243 
L 924.46797 -243.565535 
L 925.127521 -244.324827 
L 925.909288 -245.084119 
L 926.817977 -245.843411 
L 927.858267 -246.602703 
L 929.034369 -247.361995 
L 930.349571 -248.121287 
L 931.805787 -248.88058 
L 933.403152 -249.639872 
L 935.139664 -250.399164 
L 937.010922 -251.158456 
L 939.009954 -251.917748 
L 941.127161 -252.67704 
L 943.350373 -253.436332 
L 945.665021 -254.195624 
L 948.054413 -254.954916 
L 950.500105 -255.714209 
L 952.982343 -256.473501 
L 955.480562 -257.232793 
L 957.973914 -257.992085 
L 960.441798 -258.751377 
L 962.864374 -259.510669 
L 965.223042 -260.269961 
L 967.500853 -261.029253 
L 969.682859 -261.788545 
L 971.75637 -262.547837 
L 973.711136 -263.30713 
L 975.539427 -264.066422 
L 977.236035 -264.825714 
L 978.7982 -265.585006 
L 980.225459 -266.344298 
L 981.519449 -267.10359 
L 982.683658 -267.862882 
L 983.723152 -268.622174 
L 984.644284 -269.381466 
L 985.454402 -270.140759 
L 986.161559 -270.900051 
L 986.774248 -271.659343 
L 987.301158 -272.418635 
L 992.380092 -272.418635 
L 992.380092 -272.418635 
L 992.907002 -271.659343 
L 993.519691 -270.900051 
L 994.226848 -270.140759 
L 995.036966 -269.381466 
L 995.958098 -268.622174 
L 996.997592 -267.862882 
L 998.161801 -267.10359 
L 999.455791 -266.344298 
L 1000.88305 -265.585006 
L 1002.445215 -264.825714 
L 1004.141823 -264.066422 
L 1005.970114 -263.30713 
L 1007.92488 -262.547837 
L 1009.998391 -261.788545 
L 1012.180397 -261.029253 
L 1014.458208 -260.269961 
L 1016.816876 -259.510669 
L 1019.239452 -258.751377 
L 1021.707336 -257.992085 
L 1024.200688 -257.232793 
L 1026.698907 -256.473501 
L 1029.181145 -255.714209 
L 1031.626837 -254.954916 
L 1034.016229 -254.195624 
L 1036.330877 -253.436332 
L 1038.554089 -252.67704 
L 1040.671296 -251.917748 
L 1042.670328 -251.158456 
L 1044.541586 -250.399164 
L 1046.278098 -249.639872 
L 1047.875463 -248.88058 
L 1049.331679 -248.121287 
L 1050.646881 -247.361995 
L 1051.822983 -246.602703 
L 1052.863273 -245.843411 
L 1053.771962 -245.084119 
L 1054.553729 -244.324827 
L 1055.21328 -243.565535 
L 1055.754955 -242.806243 
L 1056.182392 -242.046951 
L 1056.498282 -241.287659 
L 1056.704214 -240.528366 
L 1056.800625 -239.769074 
L 1056.786845 -239.009782 
L 1056.661244 -238.25049 
L 1056.421452 -237.491198 
L 1056.06465 -236.731906 
L 1055.587901 -235.972614 
L 1054.988505 -235.213322 
L 1054.264346 -234.45403 
L 1053.414222 -233.694738 
L 1052.438123 -232.935445 
L 1051.337451 -232.176153 
L 1050.115173 -231.416861 
L 1048.775879 -230.657569 
L 1047.325781 -229.898277 
L 1045.772609 -229.138985 
L 1044.125463 -228.379693 
L 1042.394586 -227.620401 
L 1040.591105 -226.861109 
L 1038.726748 -226.101816 
L 1036.813543 -225.342524 
L 1034.863529 -224.583232 
L 1032.888492 -223.82394 
L 1030.899726 -223.064648 
L 1028.90785 -222.305356 
L 1026.922659 -221.546064 
L 1024.953042 -220.786772 
L 1023.006936 -220.02748 
L 1021.091333 -219.268188 
L 1019.212326 -218.508895 
L 1017.375177 -217.749603 
L 1015.584417 -216.990311 
L 1013.843942 -216.231019 
L 1012.157126 -215.471727 
L 1010.52691 -214.712435 
L 1008.955888 -213.953143 
L 1007.446371 -213.193851 
L 1006.000429 -212.434559 
L 1004.619908 -211.675266 
L 1003.306436 -210.915974 
L 1002.061396 -210.156682 
L 1000.885905 -209.39739 
L 999.780764 -208.638098 
L 998.746423 -207.878806 
L 997.782932 -207.119514 
L 996.889916 -206.360222 
L 996.066539 -205.60093 
L 995.311503 -204.841638 
L 994.623044 -204.082345 
L 993.998952 -203.323053 
L 993.436608 -202.563761 
L 992.933021 -201.804469 
L 992.484892 -201.045177 
L 992.088673 -200.285885 
L 991.740636 -199.526593 
L 991.436948 -198.767301 
L 991.173734 -198.008009 
L 990.947147 -197.248716 
z
" id="m921043327f" style="stroke:#313131;stroke-width:1.5;"/>
    </defs>
    <g clip-path="url(#p6f5ffd5d18)">
     <use style="fill:#db6e59;stroke:#313131;stroke-width:1.5;" x="0" xlink:href="#m921043327f" y="433.06775"/>
    </g>
   </g>
   <g id="patch_3">
    <path clip-path="url(#p6f5ffd5d18)" d="M 253.280625 931.415429 
L 253.280625 931.415429 
L 253.280625 931.415429 
L 253.280625 931.415429 
z
" style="fill:#772b58;stroke:#313131;stroke-linejoin:miter;stroke-width:0.75;"/>
   </g>
   <g id="patch_4">
    <path clip-path="url(#p6f5ffd5d18)" d="M 253.280625 931.415429 
L 253.280625 931.415429 
L 253.280625 931.415429 
L 253.280625 931.415429 
z
" style="fill:#db6e59;stroke:#313131;stroke-linejoin:miter;stroke-width:0.75;"/>
   </g>
   <g id="patch_5">
    <path clip-path="url(#p6f5ffd5d18)" d="M 253.280625 931.415429 
L 253.280625 931.415429 
L 253.280625 931.415429 
L 253.280625 931.415429 
z
" style="fill:#772b58;stroke:#313131;stroke-linejoin:miter;stroke-width:0.75;"/>
   </g>
   <g id="patch_6">
    <path clip-path="url(#p6f5ffd5d18)" d="M 253.280625 931.415429 
L 253.280625 931.415429 
L 253.280625 931.415429 
L 253.280625 931.415429 
z
" style="fill:#db6e59;stroke:#313131;stroke-linejoin:miter;stroke-width:0.75;"/>
   </g>
   <g id="matplotlib.axis_1">
    <g id="xtick_1">
     <g id="line2d_1">
      <defs>
       <path d="M 0 0 
L 0 3.5 
" id="m540c4ef707" style="stroke:#000000;stroke-width:0.8;"/>
      </defs>
      <g>
       <use style="stroke:#000000;stroke-width:0.8;" x="253.280625" xlink:href="#m540c4ef707" y="372.284"/>
      </g>
     </g>
     <g id="text_1">
      <!-- 5,000 -->
      <g transform="translate(224.6525 394.480875)scale(0.2 -0.2)">
       <defs>
        <path d="M 691 4666 
L 3169 4666 
L 3169 4134 
L 1269 4134 
L 1269 2991 
Q 1406 3038 1543 3061 
Q 1681 3084 1819 3084 
Q 2600 3084 3056 2656 
Q 3513 2228 3513 1497 
Q 3513 744 3044 326 
Q 2575 -91 1722 -91 
Q 1428 -91 1123 -41 
Q 819 9 494 109 
L 494 744 
Q 775 591 1075 516 
Q 1375 441 1709 441 
Q 2250 441 2565 725 
Q 2881 1009 2881 1497 
Q 2881 1984 2565 2268 
Q 2250 2553 1709 2553 
Q 1456 2553 1204 2497 
Q 953 2441 691 2322 
L 691 4666 
z
" id="DejaVuSans-35" transform="scale(0.015625)"/>
        <path d="M 750 794 
L 1409 794 
L 1409 256 
L 897 -744 
L 494 -744 
L 750 256 
L 750 794 
z
" id="DejaVuSans-2c" transform="scale(0.015625)"/>
        <path d="M 2034 4250 
Q 1547 4250 1301 3770 
Q 1056 3291 1056 2328 
Q 1056 1369 1301 889 
Q 1547 409 2034 409 
Q 2525 409 2770 889 
Q 3016 1369 3016 2328 
Q 3016 3291 2770 3770 
Q 2525 4250 2034 4250 
z
M 2034 4750 
Q 2819 4750 3233 4129 
Q 3647 3509 3647 2328 
Q 3647 1150 3233 529 
Q 2819 -91 2034 -91 
Q 1250 -91 836 529 
Q 422 1150 422 2328 
Q 422 3509 836 4129 
Q 1250 4750 2034 4750 
z
" id="DejaVuSans-30" transform="scale(0.015625)"/>
       </defs>
       <use xlink:href="#DejaVuSans-35"/>
       <use x="63.623047" xlink:href="#DejaVuSans-2c"/>
       <use x="95.410156" xlink:href="#DejaVuSans-30"/>
       <use x="159.033203" xlink:href="#DejaVuSans-30"/>
       <use x="222.65625" xlink:href="#DejaVuSans-30"/>
      </g>
     </g>
    </g>
    <g id="xtick_2">
     <g id="line2d_2">
      <g>
       <use style="stroke:#000000;stroke-width:0.8;" x="588.080625" xlink:href="#m540c4ef707" y="372.284"/>
      </g>
     </g>
     <g id="text_2">
      <!-- 10,000 -->
      <g transform="translate(553.09 394.480875)scale(0.2 -0.2)">
       <defs>
        <path d="M 794 531 
L 1825 531 
L 1825 4091 
L 703 3866 
L 703 4441 
L 1819 4666 
L 2450 4666 
L 2450 531 
L 3481 531 
L 3481 0 
L 794 0 
L 794 531 
z
" id="DejaVuSans-31" transform="scale(0.015625)"/>
       </defs>
       <use xlink:href="#DejaVuSans-31"/>
       <use x="63.623047" xlink:href="#DejaVuSans-30"/>
       <use x="127.246094" xlink:href="#DejaVuSans-2c"/>
       <use x="159.033203" xlink:href="#DejaVuSans-30"/>
       <use x="222.65625" xlink:href="#DejaVuSans-30"/>
       <use x="286.279297" xlink:href="#DejaVuSans-30"/>
      </g>
     </g>
    </g>
    <g id="xtick_3">
     <g id="line2d_3">
      <g>
       <use style="stroke:#000000;stroke-width:0.8;" x="922.880625" xlink:href="#m540c4ef707" y="372.284"/>
      </g>
     </g>
     <g id="text_3">
      <!-- 50,000 -->
      <g transform="translate(887.89 394.480875)scale(0.2 -0.2)">
       <use xlink:href="#DejaVuSans-35"/>
       <use x="63.623047" xlink:href="#DejaVuSans-30"/>
       <use x="127.246094" xlink:href="#DejaVuSans-2c"/>
       <use x="159.033203" xlink:href="#DejaVuSans-30"/>
       <use x="222.65625" xlink:href="#DejaVuSans-30"/>
       <use x="286.279297" xlink:href="#DejaVuSans-30"/>
      </g>
     </g>
    </g>
    <g id="text_4">
     <!-- Number of objects on training set -->
     <g transform="translate(386.233125 420.8765)scale(0.24 -0.24)">
      <defs>
       <path d="M 628 4666 
L 1478 4666 
L 3547 763 
L 3547 4666 
L 4159 4666 
L 4159 0 
L 3309 0 
L 1241 3903 
L 1241 0 
L 628 0 
L 628 4666 
z
" id="DejaVuSans-4e" transform="scale(0.015625)"/>
       <path d="M 544 1381 
L 544 3500 
L 1119 3500 
L 1119 1403 
Q 1119 906 1312 657 
Q 1506 409 1894 409 
Q 2359 409 2629 706 
Q 2900 1003 2900 1516 
L 2900 3500 
L 3475 3500 
L 3475 0 
L 2900 0 
L 2900 538 
Q 2691 219 2414 64 
Q 2138 -91 1772 -91 
Q 1169 -91 856 284 
Q 544 659 544 1381 
z
M 1991 3584 
L 1991 3584 
z
" id="DejaVuSans-75" transform="scale(0.015625)"/>
       <path d="M 3328 2828 
Q 3544 3216 3844 3400 
Q 4144 3584 4550 3584 
Q 5097 3584 5394 3201 
Q 5691 2819 5691 2113 
L 5691 0 
L 5113 0 
L 5113 2094 
Q 5113 2597 4934 2840 
Q 4756 3084 4391 3084 
Q 3944 3084 3684 2787 
Q 3425 2491 3425 1978 
L 3425 0 
L 2847 0 
L 2847 2094 
Q 2847 2600 2669 2842 
Q 2491 3084 2119 3084 
Q 1678 3084 1418 2786 
Q 1159 2488 1159 1978 
L 1159 0 
L 581 0 
L 581 3500 
L 1159 3500 
L 1159 2956 
Q 1356 3278 1631 3431 
Q 1906 3584 2284 3584 
Q 2666 3584 2933 3390 
Q 3200 3197 3328 2828 
z
" id="DejaVuSans-6d" transform="scale(0.015625)"/>
       <path d="M 3116 1747 
Q 3116 2381 2855 2742 
Q 2594 3103 2138 3103 
Q 1681 3103 1420 2742 
Q 1159 2381 1159 1747 
Q 1159 1113 1420 752 
Q 1681 391 2138 391 
Q 2594 391 2855 752 
Q 3116 1113 3116 1747 
z
M 1159 2969 
Q 1341 3281 1617 3432 
Q 1894 3584 2278 3584 
Q 2916 3584 3314 3078 
Q 3713 2572 3713 1747 
Q 3713 922 3314 415 
Q 2916 -91 2278 -91 
Q 1894 -91 1617 61 
Q 1341 213 1159 525 
L 1159 0 
L 581 0 
L 581 4863 
L 1159 4863 
L 1159 2969 
z
" id="DejaVuSans-62" transform="scale(0.015625)"/>
       <path d="M 3597 1894 
L 3597 1613 
L 953 1613 
Q 991 1019 1311 708 
Q 1631 397 2203 397 
Q 2534 397 2845 478 
Q 3156 559 3463 722 
L 3463 178 
Q 3153 47 2828 -22 
Q 2503 -91 2169 -91 
Q 1331 -91 842 396 
Q 353 884 353 1716 
Q 353 2575 817 3079 
Q 1281 3584 2069 3584 
Q 2775 3584 3186 3129 
Q 3597 2675 3597 1894 
z
M 3022 2063 
Q 3016 2534 2758 2815 
Q 2500 3097 2075 3097 
Q 1594 3097 1305 2825 
Q 1016 2553 972 2059 
L 3022 2063 
z
" id="DejaVuSans-65" transform="scale(0.015625)"/>
       <path d="M 2631 2963 
Q 2534 3019 2420 3045 
Q 2306 3072 2169 3072 
Q 1681 3072 1420 2755 
Q 1159 2438 1159 1844 
L 1159 0 
L 581 0 
L 581 3500 
L 1159 3500 
L 1159 2956 
Q 1341 3275 1631 3429 
Q 1922 3584 2338 3584 
Q 2397 3584 2469 3576 
Q 2541 3569 2628 3553 
L 2631 2963 
z
" id="DejaVuSans-72" transform="scale(0.015625)"/>
       <path id="DejaVuSans-20" transform="scale(0.015625)"/>
       <path d="M 1959 3097 
Q 1497 3097 1228 2736 
Q 959 2375 959 1747 
Q 959 1119 1226 758 
Q 1494 397 1959 397 
Q 2419 397 2687 759 
Q 2956 1122 2956 1747 
Q 2956 2369 2687 2733 
Q 2419 3097 1959 3097 
z
M 1959 3584 
Q 2709 3584 3137 3096 
Q 3566 2609 3566 1747 
Q 3566 888 3137 398 
Q 2709 -91 1959 -91 
Q 1206 -91 779 398 
Q 353 888 353 1747 
Q 353 2609 779 3096 
Q 1206 3584 1959 3584 
z
" id="DejaVuSans-6f" transform="scale(0.015625)"/>
       <path d="M 2375 4863 
L 2375 4384 
L 1825 4384 
Q 1516 4384 1395 4259 
Q 1275 4134 1275 3809 
L 1275 3500 
L 2222 3500 
L 2222 3053 
L 1275 3053 
L 1275 0 
L 697 0 
L 697 3053 
L 147 3053 
L 147 3500 
L 697 3500 
L 697 3744 
Q 697 4328 969 4595 
Q 1241 4863 1831 4863 
L 2375 4863 
z
" id="DejaVuSans-66" transform="scale(0.015625)"/>
       <path d="M 603 3500 
L 1178 3500 
L 1178 -63 
Q 1178 -731 923 -1031 
Q 669 -1331 103 -1331 
L -116 -1331 
L -116 -844 
L 38 -844 
Q 366 -844 484 -692 
Q 603 -541 603 -63 
L 603 3500 
z
M 603 4863 
L 1178 4863 
L 1178 4134 
L 603 4134 
L 603 4863 
z
" id="DejaVuSans-6a" transform="scale(0.015625)"/>
       <path d="M 3122 3366 
L 3122 2828 
Q 2878 2963 2633 3030 
Q 2388 3097 2138 3097 
Q 1578 3097 1268 2742 
Q 959 2388 959 1747 
Q 959 1106 1268 751 
Q 1578 397 2138 397 
Q 2388 397 2633 464 
Q 2878 531 3122 666 
L 3122 134 
Q 2881 22 2623 -34 
Q 2366 -91 2075 -91 
Q 1284 -91 818 406 
Q 353 903 353 1747 
Q 353 2603 823 3093 
Q 1294 3584 2113 3584 
Q 2378 3584 2631 3529 
Q 2884 3475 3122 3366 
z
" id="DejaVuSans-63" transform="scale(0.015625)"/>
       <path d="M 1172 4494 
L 1172 3500 
L 2356 3500 
L 2356 3053 
L 1172 3053 
L 1172 1153 
Q 1172 725 1289 603 
Q 1406 481 1766 481 
L 2356 481 
L 2356 0 
L 1766 0 
Q 1100 0 847 248 
Q 594 497 594 1153 
L 594 3053 
L 172 3053 
L 172 3500 
L 594 3500 
L 594 4494 
L 1172 4494 
z
" id="DejaVuSans-74" transform="scale(0.015625)"/>
       <path d="M 2834 3397 
L 2834 2853 
Q 2591 2978 2328 3040 
Q 2066 3103 1784 3103 
Q 1356 3103 1142 2972 
Q 928 2841 928 2578 
Q 928 2378 1081 2264 
Q 1234 2150 1697 2047 
L 1894 2003 
Q 2506 1872 2764 1633 
Q 3022 1394 3022 966 
Q 3022 478 2636 193 
Q 2250 -91 1575 -91 
Q 1294 -91 989 -36 
Q 684 19 347 128 
L 347 722 
Q 666 556 975 473 
Q 1284 391 1588 391 
Q 1994 391 2212 530 
Q 2431 669 2431 922 
Q 2431 1156 2273 1281 
Q 2116 1406 1581 1522 
L 1381 1569 
Q 847 1681 609 1914 
Q 372 2147 372 2553 
Q 372 3047 722 3315 
Q 1072 3584 1716 3584 
Q 2034 3584 2315 3537 
Q 2597 3491 2834 3397 
z
" id="DejaVuSans-73" transform="scale(0.015625)"/>
       <path d="M 3513 2113 
L 3513 0 
L 2938 0 
L 2938 2094 
Q 2938 2591 2744 2837 
Q 2550 3084 2163 3084 
Q 1697 3084 1428 2787 
Q 1159 2491 1159 1978 
L 1159 0 
L 581 0 
L 581 3500 
L 1159 3500 
L 1159 2956 
Q 1366 3272 1645 3428 
Q 1925 3584 2291 3584 
Q 2894 3584 3203 3211 
Q 3513 2838 3513 2113 
z
" id="DejaVuSans-6e" transform="scale(0.015625)"/>
       <path d="M 2194 1759 
Q 1497 1759 1228 1600 
Q 959 1441 959 1056 
Q 959 750 1161 570 
Q 1363 391 1709 391 
Q 2188 391 2477 730 
Q 2766 1069 2766 1631 
L 2766 1759 
L 2194 1759 
z
M 3341 1997 
L 3341 0 
L 2766 0 
L 2766 531 
Q 2569 213 2275 61 
Q 1981 -91 1556 -91 
Q 1019 -91 701 211 
Q 384 513 384 1019 
Q 384 1609 779 1909 
Q 1175 2209 1959 2209 
L 2766 2209 
L 2766 2266 
Q 2766 2663 2505 2880 
Q 2244 3097 1772 3097 
Q 1472 3097 1187 3025 
Q 903 2953 641 2809 
L 641 3341 
Q 956 3463 1253 3523 
Q 1550 3584 1831 3584 
Q 2591 3584 2966 3190 
Q 3341 2797 3341 1997 
z
" id="DejaVuSans-61" transform="scale(0.015625)"/>
       <path d="M 603 3500 
L 1178 3500 
L 1178 0 
L 603 0 
L 603 3500 
z
M 603 4863 
L 1178 4863 
L 1178 4134 
L 603 4134 
L 603 4863 
z
" id="DejaVuSans-69" transform="scale(0.015625)"/>
       <path d="M 2906 1791 
Q 2906 2416 2648 2759 
Q 2391 3103 1925 3103 
Q 1463 3103 1205 2759 
Q 947 2416 947 1791 
Q 947 1169 1205 825 
Q 1463 481 1925 481 
Q 2391 481 2648 825 
Q 2906 1169 2906 1791 
z
M 3481 434 
Q 3481 -459 3084 -895 
Q 2688 -1331 1869 -1331 
Q 1566 -1331 1297 -1286 
Q 1028 -1241 775 -1147 
L 775 -588 
Q 1028 -725 1275 -790 
Q 1522 -856 1778 -856 
Q 2344 -856 2625 -561 
Q 2906 -266 2906 331 
L 2906 616 
Q 2728 306 2450 153 
Q 2172 0 1784 0 
Q 1141 0 747 490 
Q 353 981 353 1791 
Q 353 2603 747 3093 
Q 1141 3584 1784 3584 
Q 2172 3584 2450 3431 
Q 2728 3278 2906 2969 
L 2906 3500 
L 3481 3500 
L 3481 434 
z
" id="DejaVuSans-67" transform="scale(0.015625)"/>
      </defs>
      <use xlink:href="#DejaVuSans-4e"/>
      <use x="74.804688" xlink:href="#DejaVuSans-75"/>
      <use x="138.183594" xlink:href="#DejaVuSans-6d"/>
      <use x="235.595703" xlink:href="#DejaVuSans-62"/>
      <use x="299.072266" xlink:href="#DejaVuSans-65"/>
      <use x="360.595703" xlink:href="#DejaVuSans-72"/>
      <use x="401.708984" xlink:href="#DejaVuSans-20"/>
      <use x="433.496094" xlink:href="#DejaVuSans-6f"/>
      <use x="494.677734" xlink:href="#DejaVuSans-66"/>
      <use x="529.882812" xlink:href="#DejaVuSans-20"/>
      <use x="561.669922" xlink:href="#DejaVuSans-6f"/>
      <use x="622.851562" xlink:href="#DejaVuSans-62"/>
      <use x="686.328125" xlink:href="#DejaVuSans-6a"/>
      <use x="714.111328" xlink:href="#DejaVuSans-65"/>
      <use x="775.634766" xlink:href="#DejaVuSans-63"/>
      <use x="830.615234" xlink:href="#DejaVuSans-74"/>
      <use x="869.824219" xlink:href="#DejaVuSans-73"/>
      <use x="921.923828" xlink:href="#DejaVuSans-20"/>
      <use x="953.710938" xlink:href="#DejaVuSans-6f"/>
      <use x="1014.892578" xlink:href="#DejaVuSans-6e"/>
      <use x="1078.271484" xlink:href="#DejaVuSans-20"/>
      <use x="1110.058594" xlink:href="#DejaVuSans-74"/>
      <use x="1149.267578" xlink:href="#DejaVuSans-72"/>
      <use x="1190.380859" xlink:href="#DejaVuSans-61"/>
      <use x="1251.660156" xlink:href="#DejaVuSans-69"/>
      <use x="1279.443359" xlink:href="#DejaVuSans-6e"/>
      <use x="1342.822266" xlink:href="#DejaVuSans-69"/>
      <use x="1370.605469" xlink:href="#DejaVuSans-6e"/>
      <use x="1433.984375" xlink:href="#DejaVuSans-67"/>
      <use x="1497.460938" xlink:href="#DejaVuSans-20"/>
      <use x="1529.248047" xlink:href="#DejaVuSans-73"/>
      <use x="1581.347656" xlink:href="#DejaVuSans-65"/>
      <use x="1642.871094" xlink:href="#DejaVuSans-74"/>
     </g>
    </g>
   </g>
   <g id="matplotlib.axis_2">
    <g id="ytick_1">
     <g id="line2d_4">
      <defs>
       <path d="M 0 0 
L -3.5 0 
" id="m888e9fedb5" style="stroke:#000000;stroke-width:0.8;"/>
      </defs>
      <g>
       <use style="stroke:#000000;stroke-width:0.8;" x="85.880625" xlink:href="#m888e9fedb5" y="372.284"/>
      </g>
     </g>
     <g id="text_5">
      <!-- 60% -->
      <g transform="translate(34.4275 379.882438)scale(0.2 -0.2)">
       <defs>
        <path d="M 2113 2584 
Q 1688 2584 1439 2293 
Q 1191 2003 1191 1497 
Q 1191 994 1439 701 
Q 1688 409 2113 409 
Q 2538 409 2786 701 
Q 3034 994 3034 1497 
Q 3034 2003 2786 2293 
Q 2538 2584 2113 2584 
z
M 3366 4563 
L 3366 3988 
Q 3128 4100 2886 4159 
Q 2644 4219 2406 4219 
Q 1781 4219 1451 3797 
Q 1122 3375 1075 2522 
Q 1259 2794 1537 2939 
Q 1816 3084 2150 3084 
Q 2853 3084 3261 2657 
Q 3669 2231 3669 1497 
Q 3669 778 3244 343 
Q 2819 -91 2113 -91 
Q 1303 -91 875 529 
Q 447 1150 447 2328 
Q 447 3434 972 4092 
Q 1497 4750 2381 4750 
Q 2619 4750 2861 4703 
Q 3103 4656 3366 4563 
z
" id="DejaVuSans-36" transform="scale(0.015625)"/>
        <path d="M 4653 2053 
Q 4381 2053 4226 1822 
Q 4072 1591 4072 1178 
Q 4072 772 4226 539 
Q 4381 306 4653 306 
Q 4919 306 5073 539 
Q 5228 772 5228 1178 
Q 5228 1588 5073 1820 
Q 4919 2053 4653 2053 
z
M 4653 2450 
Q 5147 2450 5437 2106 
Q 5728 1763 5728 1178 
Q 5728 594 5436 251 
Q 5144 -91 4653 -91 
Q 4153 -91 3862 251 
Q 3572 594 3572 1178 
Q 3572 1766 3864 2108 
Q 4156 2450 4653 2450 
z
M 1428 4353 
Q 1159 4353 1004 4120 
Q 850 3888 850 3481 
Q 850 3069 1003 2837 
Q 1156 2606 1428 2606 
Q 1700 2606 1854 2837 
Q 2009 3069 2009 3481 
Q 2009 3884 1853 4118 
Q 1697 4353 1428 4353 
z
M 4250 4750 
L 4750 4750 
L 1831 -91 
L 1331 -91 
L 4250 4750 
z
M 1428 4750 
Q 1922 4750 2215 4408 
Q 2509 4066 2509 3481 
Q 2509 2891 2217 2550 
Q 1925 2209 1428 2209 
Q 931 2209 642 2551 
Q 353 2894 353 3481 
Q 353 4063 643 4406 
Q 934 4750 1428 4750 
z
" id="DejaVuSans-25" transform="scale(0.015625)"/>
       </defs>
       <use xlink:href="#DejaVuSans-36"/>
       <use x="63.623047" xlink:href="#DejaVuSans-30"/>
       <use x="127.246094" xlink:href="#DejaVuSans-25"/>
      </g>
     </g>
    </g>
    <g id="ytick_2">
     <g id="line2d_5">
      <g>
       <use style="stroke:#000000;stroke-width:0.8;" x="85.880625" xlink:href="#m888e9fedb5" y="325.689714"/>
      </g>
     </g>
     <g id="text_6">
      <!-- 65% -->
      <g transform="translate(34.4275 333.288152)scale(0.2 -0.2)">
       <use xlink:href="#DejaVuSans-36"/>
       <use x="63.623047" xlink:href="#DejaVuSans-35"/>
       <use x="127.246094" xlink:href="#DejaVuSans-25"/>
      </g>
     </g>
    </g>
    <g id="ytick_3">
     <g id="line2d_6">
      <g>
       <use style="stroke:#000000;stroke-width:0.8;" x="85.880625" xlink:href="#m888e9fedb5" y="279.095429"/>
      </g>
     </g>
     <g id="text_7">
      <!-- 70% -->
      <g transform="translate(34.4275 286.693866)scale(0.2 -0.2)">
       <defs>
        <path d="M 525 4666 
L 3525 4666 
L 3525 4397 
L 1831 0 
L 1172 0 
L 2766 4134 
L 525 4134 
L 525 4666 
z
" id="DejaVuSans-37" transform="scale(0.015625)"/>
       </defs>
       <use xlink:href="#DejaVuSans-37"/>
       <use x="63.623047" xlink:href="#DejaVuSans-30"/>
       <use x="127.246094" xlink:href="#DejaVuSans-25"/>
      </g>
     </g>
    </g>
    <g id="ytick_4">
     <g id="line2d_7">
      <g>
       <use style="stroke:#000000;stroke-width:0.8;" x="85.880625" xlink:href="#m888e9fedb5" y="232.501143"/>
      </g>
     </g>
     <g id="text_8">
      <!-- 75% -->
      <g transform="translate(34.4275 240.09958)scale(0.2 -0.2)">
       <use xlink:href="#DejaVuSans-37"/>
       <use x="63.623047" xlink:href="#DejaVuSans-35"/>
       <use x="127.246094" xlink:href="#DejaVuSans-25"/>
      </g>
     </g>
    </g>
    <g id="ytick_5">
     <g id="line2d_8">
      <g>
       <use style="stroke:#000000;stroke-width:0.8;" x="85.880625" xlink:href="#m888e9fedb5" y="185.906857"/>
      </g>
     </g>
     <g id="text_9">
      <!-- 80% -->
      <g transform="translate(34.4275 193.505295)scale(0.2 -0.2)">
       <defs>
        <path d="M 2034 2216 
Q 1584 2216 1326 1975 
Q 1069 1734 1069 1313 
Q 1069 891 1326 650 
Q 1584 409 2034 409 
Q 2484 409 2743 651 
Q 3003 894 3003 1313 
Q 3003 1734 2745 1975 
Q 2488 2216 2034 2216 
z
M 1403 2484 
Q 997 2584 770 2862 
Q 544 3141 544 3541 
Q 544 4100 942 4425 
Q 1341 4750 2034 4750 
Q 2731 4750 3128 4425 
Q 3525 4100 3525 3541 
Q 3525 3141 3298 2862 
Q 3072 2584 2669 2484 
Q 3125 2378 3379 2068 
Q 3634 1759 3634 1313 
Q 3634 634 3220 271 
Q 2806 -91 2034 -91 
Q 1263 -91 848 271 
Q 434 634 434 1313 
Q 434 1759 690 2068 
Q 947 2378 1403 2484 
z
M 1172 3481 
Q 1172 3119 1398 2916 
Q 1625 2713 2034 2713 
Q 2441 2713 2670 2916 
Q 2900 3119 2900 3481 
Q 2900 3844 2670 4047 
Q 2441 4250 2034 4250 
Q 1625 4250 1398 4047 
Q 1172 3844 1172 3481 
z
" id="DejaVuSans-38" transform="scale(0.015625)"/>
       </defs>
       <use xlink:href="#DejaVuSans-38"/>
       <use x="63.623047" xlink:href="#DejaVuSans-30"/>
       <use x="127.246094" xlink:href="#DejaVuSans-25"/>
      </g>
     </g>
    </g>
    <g id="ytick_6">
     <g id="line2d_9">
      <g>
       <use style="stroke:#000000;stroke-width:0.8;" x="85.880625" xlink:href="#m888e9fedb5" y="139.312571"/>
      </g>
     </g>
     <g id="text_10">
      <!-- 85% -->
      <g transform="translate(34.4275 146.911009)scale(0.2 -0.2)">
       <use xlink:href="#DejaVuSans-38"/>
       <use x="63.623047" xlink:href="#DejaVuSans-35"/>
       <use x="127.246094" xlink:href="#DejaVuSans-25"/>
      </g>
     </g>
    </g>
    <g id="ytick_7">
     <g id="line2d_10">
      <g>
       <use style="stroke:#000000;stroke-width:0.8;" x="85.880625" xlink:href="#m888e9fedb5" y="92.718286"/>
      </g>
     </g>
     <g id="text_11">
      <!-- 90% -->
      <g transform="translate(34.4275 100.316723)scale(0.2 -0.2)">
       <defs>
        <path d="M 703 97 
L 703 672 
Q 941 559 1184 500 
Q 1428 441 1663 441 
Q 2288 441 2617 861 
Q 2947 1281 2994 2138 
Q 2813 1869 2534 1725 
Q 2256 1581 1919 1581 
Q 1219 1581 811 2004 
Q 403 2428 403 3163 
Q 403 3881 828 4315 
Q 1253 4750 1959 4750 
Q 2769 4750 3195 4129 
Q 3622 3509 3622 2328 
Q 3622 1225 3098 567 
Q 2575 -91 1691 -91 
Q 1453 -91 1209 -44 
Q 966 3 703 97 
z
M 1959 2075 
Q 2384 2075 2632 2365 
Q 2881 2656 2881 3163 
Q 2881 3666 2632 3958 
Q 2384 4250 1959 4250 
Q 1534 4250 1286 3958 
Q 1038 3666 1038 3163 
Q 1038 2656 1286 2365 
Q 1534 2075 1959 2075 
z
" id="DejaVuSans-39" transform="scale(0.015625)"/>
       </defs>
       <use xlink:href="#DejaVuSans-39"/>
       <use x="63.623047" xlink:href="#DejaVuSans-30"/>
       <use x="127.246094" xlink:href="#DejaVuSans-25"/>
      </g>
     </g>
    </g>
    <g id="ytick_8">
     <g id="line2d_11">
      <g>
       <use style="stroke:#000000;stroke-width:0.8;" x="85.880625" xlink:href="#m888e9fedb5" y="46.124"/>
      </g>
     </g>
     <g id="text_12">
      <!-- 95% -->
      <g transform="translate(34.4275 53.722438)scale(0.2 -0.2)">
       <use xlink:href="#DejaVuSans-39"/>
       <use x="63.623047" xlink:href="#DejaVuSans-35"/>
       <use x="127.246094" xlink:href="#DejaVuSans-25"/>
      </g>
     </g>
    </g>
    <g id="text_13">
     <!-- Accuracy on testing set -->
     <g transform="translate(25.43625 350.32025)rotate(-90)scale(0.24 -0.24)">
      <defs>
       <path d="M 2188 4044 
L 1331 1722 
L 3047 1722 
L 2188 4044 
z
M 1831 4666 
L 2547 4666 
L 4325 0 
L 3669 0 
L 3244 1197 
L 1141 1197 
L 716 0 
L 50 0 
L 1831 4666 
z
" id="DejaVuSans-41" transform="scale(0.015625)"/>
       <path d="M 2059 -325 
Q 1816 -950 1584 -1140 
Q 1353 -1331 966 -1331 
L 506 -1331 
L 506 -850 
L 844 -850 
Q 1081 -850 1212 -737 
Q 1344 -625 1503 -206 
L 1606 56 
L 191 3500 
L 800 3500 
L 1894 763 
L 2988 3500 
L 3597 3500 
L 2059 -325 
z
" id="DejaVuSans-79" transform="scale(0.015625)"/>
      </defs>
      <use xlink:href="#DejaVuSans-41"/>
      <use x="66.658203" xlink:href="#DejaVuSans-63"/>
      <use x="121.638672" xlink:href="#DejaVuSans-63"/>
      <use x="176.619141" xlink:href="#DejaVuSans-75"/>
      <use x="239.998047" xlink:href="#DejaVuSans-72"/>
      <use x="281.111328" xlink:href="#DejaVuSans-61"/>
      <use x="342.390625" xlink:href="#DejaVuSans-63"/>
      <use x="397.371094" xlink:href="#DejaVuSans-79"/>
      <use x="456.550781" xlink:href="#DejaVuSans-20"/>
      <use x="488.337891" xlink:href="#DejaVuSans-6f"/>
      <use x="549.519531" xlink:href="#DejaVuSans-6e"/>
      <use x="612.898438" xlink:href="#DejaVuSans-20"/>
      <use x="644.685547" xlink:href="#DejaVuSans-74"/>
      <use x="683.894531" xlink:href="#DejaVuSans-65"/>
      <use x="745.417969" xlink:href="#DejaVuSans-73"/>
      <use x="797.517578" xlink:href="#DejaVuSans-74"/>
      <use x="836.726562" xlink:href="#DejaVuSans-69"/>
      <use x="864.509766" xlink:href="#DejaVuSans-6e"/>
      <use x="927.888672" xlink:href="#DejaVuSans-67"/>
      <use x="991.365234" xlink:href="#DejaVuSans-20"/>
      <use x="1023.152344" xlink:href="#DejaVuSans-73"/>
      <use x="1075.251953" xlink:href="#DejaVuSans-65"/>
      <use x="1136.775391" xlink:href="#DejaVuSans-74"/>
     </g>
    </g>
   </g>
   <g id="line2d_12">
    <path clip-path="url(#p6f5ffd5d18)" d="M 186.320625 222.642607 
L 186.320625 248.099791 
" style="fill:none;stroke:#313131;stroke-linecap:square;stroke-width:1.5;"/>
   </g>
   <g id="line2d_13">
    <path clip-path="url(#p6f5ffd5d18)" d="M 186.320625 195.254188 
L 186.320625 183.487346 
" style="fill:none;stroke:#313131;stroke-linecap:square;stroke-width:1.5;"/>
   </g>
   <g id="line2d_14">
    <path clip-path="url(#p6f5ffd5d18)" d="M 153.510225 248.099791 
L 219.131025 248.099791 
" style="fill:none;stroke:#313131;stroke-linecap:square;stroke-width:1.5;"/>
   </g>
   <g id="line2d_15">
    <path clip-path="url(#p6f5ffd5d18)" d="M 153.510225 183.487346 
L 219.131025 183.487346 
" style="fill:none;stroke:#313131;stroke-linecap:square;stroke-width:1.5;"/>
   </g>
   <g id="line2d_16">
    <path clip-path="url(#p6f5ffd5d18)" d="M 320.240625 214.260389 
L 320.240625 232.875575 
" style="fill:none;stroke:#313131;stroke-linecap:square;stroke-width:1.5;"/>
   </g>
   <g id="line2d_17">
    <path clip-path="url(#p6f5ffd5d18)" d="M 320.240625 197.955324 
L 320.240625 176.254478 
" style="fill:none;stroke:#313131;stroke-linecap:square;stroke-width:1.5;"/>
   </g>
   <g id="line2d_18">
    <path clip-path="url(#p6f5ffd5d18)" d="M 287.430225 232.875575 
L 353.051025 232.875575 
" style="fill:none;stroke:#313131;stroke-linecap:square;stroke-width:1.5;"/>
   </g>
   <g id="line2d_19">
    <path clip-path="url(#p6f5ffd5d18)" d="M 287.430225 176.254478 
L 353.051025 176.254478 
" style="fill:none;stroke:#313131;stroke-linecap:square;stroke-width:1.5;"/>
   </g>
   <g id="line2d_20">
    <path clip-path="url(#p6f5ffd5d18)" d="M 521.120625 206.210177 
L 521.120625 236.760233 
" style="fill:none;stroke:#313131;stroke-linecap:square;stroke-width:1.5;"/>
   </g>
   <g id="line2d_21">
    <path clip-path="url(#p6f5ffd5d18)" d="M 521.120625 185.569002 
L 521.120625 157.887477 
" style="fill:none;stroke:#313131;stroke-linecap:square;stroke-width:1.5;"/>
   </g>
   <g id="line2d_22">
    <path clip-path="url(#p6f5ffd5d18)" d="M 488.310225 236.760233 
L 553.931025 236.760233 
" style="fill:none;stroke:#313131;stroke-linecap:square;stroke-width:1.5;"/>
   </g>
   <g id="line2d_23">
    <path clip-path="url(#p6f5ffd5d18)" d="M 488.310225 157.887477 
L 553.931025 157.887477 
" style="fill:none;stroke:#313131;stroke-linecap:square;stroke-width:1.5;"/>
   </g>
   <g id="line2d_24">
    <path clip-path="url(#p6f5ffd5d18)" d="M 655.040625 202.675826 
L 655.040625 215.846761 
" style="fill:none;stroke:#313131;stroke-linecap:square;stroke-width:1.5;"/>
   </g>
   <g id="line2d_25">
    <path clip-path="url(#p6f5ffd5d18)" d="M 655.040625 173.300046 
L 655.040625 158.858036 
" style="fill:none;stroke:#313131;stroke-linecap:square;stroke-width:1.5;"/>
   </g>
   <g id="line2d_26">
    <path clip-path="url(#p6f5ffd5d18)" d="M 622.230225 215.846761 
L 687.851025 215.846761 
" style="fill:none;stroke:#313131;stroke-linecap:square;stroke-width:1.5;"/>
   </g>
   <g id="line2d_27">
    <path clip-path="url(#p6f5ffd5d18)" d="M 622.230225 158.858036 
L 687.851025 158.858036 
" style="fill:none;stroke:#313131;stroke-linecap:square;stroke-width:1.5;"/>
   </g>
   <g id="line2d_28">
    <path clip-path="url(#p6f5ffd5d18)" d="M 855.920625 218.099944 
L 855.920625 239.025592 
" style="fill:none;stroke:#313131;stroke-linecap:square;stroke-width:1.5;"/>
   </g>
   <g id="line2d_29">
    <path clip-path="url(#p6f5ffd5d18)" d="M 855.920625 200.367126 
L 855.920625 186.088724 
" style="fill:none;stroke:#313131;stroke-linecap:square;stroke-width:1.5;"/>
   </g>
   <g id="line2d_30">
    <path clip-path="url(#p6f5ffd5d18)" d="M 823.110225 239.025592 
L 888.731025 239.025592 
" style="fill:none;stroke:#313131;stroke-linecap:square;stroke-width:1.5;"/>
   </g>
   <g id="line2d_31">
    <path clip-path="url(#p6f5ffd5d18)" d="M 823.110225 186.088724 
L 888.731025 186.088724 
" style="fill:none;stroke:#313131;stroke-linecap:square;stroke-width:1.5;"/>
   </g>
   <g id="line2d_32">
    <path clip-path="url(#p6f5ffd5d18)" d="M 989.840625 201.76641 
L 989.840625 217.739514 
" style="fill:none;stroke:#313131;stroke-linecap:square;stroke-width:1.5;"/>
   </g>
   <g id="line2d_33">
    <path clip-path="url(#p6f5ffd5d18)" d="M 989.840625 184.343153 
L 989.840625 178.728635 
" style="fill:none;stroke:#313131;stroke-linecap:square;stroke-width:1.5;"/>
   </g>
   <g id="line2d_34">
    <path clip-path="url(#p6f5ffd5d18)" d="M 957.030225 217.739514 
L 1022.651025 217.739514 
" style="fill:none;stroke:#313131;stroke-linecap:square;stroke-width:1.5;"/>
   </g>
   <g id="line2d_35">
    <path clip-path="url(#p6f5ffd5d18)" d="M 957.030225 178.728635 
L 1022.651025 178.728635 
" style="fill:none;stroke:#313131;stroke-linecap:square;stroke-width:1.5;"/>
   </g>
   <g id="line2d_36">
    <path clip-path="url(#p6f5ffd5d18)" d="M 139.704828 222.642607 
L 232.936422 222.642607 
" style="fill:none;stroke:#313131;stroke-dasharray:3.375,3.375;stroke-dashoffset:0;stroke-width:1.5;"/>
   </g>
   <g id="line2d_37">
    <path clip-path="url(#p6f5ffd5d18)" d="M 129.209229 204.950081 
L 243.432021 204.950081 
" style="fill:none;stroke:#313131;stroke-dasharray:6.75,6.75;stroke-dashoffset:0;stroke-width:1.5;"/>
   </g>
   <g id="line2d_38">
    <path clip-path="url(#p6f5ffd5d18)" d="M 133.35061 195.254188 
L 239.29064 195.254188 
" style="fill:none;stroke:#313131;stroke-dasharray:3.375,3.375;stroke-dashoffset:0;stroke-width:1.5;"/>
   </g>
   <g id="line2d_39">
    <path clip-path="url(#p6f5ffd5d18)" d="M 259.76483 214.260389 
L 380.71642 214.260389 
" style="fill:none;stroke:#313131;stroke-dasharray:3.375,3.375;stroke-dashoffset:0;stroke-width:1.5;"/>
   </g>
   <g id="line2d_40">
    <path clip-path="url(#p6f5ffd5d18)" d="M 254.191575 208.990505 
L 386.289675 208.990505 
" style="fill:none;stroke:#313131;stroke-dasharray:6.75,6.75;stroke-dashoffset:0;stroke-width:1.5;"/>
   </g>
   <g id="line2d_41">
    <path clip-path="url(#p6f5ffd5d18)" d="M 260.569014 197.955324 
L 379.912236 197.955324 
" style="fill:none;stroke:#313131;stroke-dasharray:3.375,3.375;stroke-dashoffset:0;stroke-width:1.5;"/>
   </g>
   <g id="line2d_42">
    <path clip-path="url(#p6f5ffd5d18)" d="M 465.573036 206.210177 
L 576.668214 206.210177 
" style="fill:none;stroke:#313131;stroke-dasharray:3.375,3.375;stroke-dashoffset:0;stroke-width:1.5;"/>
   </g>
   <g id="line2d_43">
    <path clip-path="url(#p6f5ffd5d18)" d="M 454.830225 193.584775 
L 587.411025 193.584775 
" style="fill:none;stroke:#313131;stroke-dasharray:6.75,6.75;stroke-dashoffset:0;stroke-width:1.5;"/>
   </g>
   <g id="line2d_44">
    <path clip-path="url(#p6f5ffd5d18)" d="M 460.906847 185.569002 
L 581.334403 185.569002 
" style="fill:none;stroke:#313131;stroke-dasharray:3.375,3.375;stroke-dashoffset:0;stroke-width:1.5;"/>
   </g>
   <g id="line2d_45">
    <path clip-path="url(#p6f5ffd5d18)" d="M 602.827303 202.675826 
L 707.253947 202.675826 
" style="fill:none;stroke:#313131;stroke-dasharray:3.375,3.375;stroke-dashoffset:0;stroke-width:1.5;"/>
   </g>
   <g id="line2d_46">
    <path clip-path="url(#p6f5ffd5d18)" d="M 597.326064 190.001796 
L 712.755186 190.001796 
" style="fill:none;stroke:#313131;stroke-dasharray:6.75,6.75;stroke-dashoffset:0;stroke-width:1.5;"/>
   </g>
   <g id="line2d_47">
    <path clip-path="url(#p6f5ffd5d18)" d="M 610.761425 173.300046 
L 699.319825 173.300046 
" style="fill:none;stroke:#313131;stroke-dasharray:3.375,3.375;stroke-dashoffset:0;stroke-width:1.5;"/>
   </g>
   <g id="line2d_48">
    <path clip-path="url(#p6f5ffd5d18)" d="M 804.873955 218.099944 
L 906.967295 218.099944 
" style="fill:none;stroke:#313131;stroke-dasharray:3.375,3.375;stroke-dashoffset:0;stroke-width:1.5;"/>
   </g>
   <g id="line2d_49">
    <path clip-path="url(#p6f5ffd5d18)" d="M 792.077166 207.235 
L 919.764084 207.235 
" style="fill:none;stroke:#313131;stroke-dasharray:6.75,6.75;stroke-dashoffset:0;stroke-width:1.5;"/>
   </g>
   <g id="line2d_50">
    <path clip-path="url(#p6f5ffd5d18)" d="M 796.941955 200.367126 
L 914.899295 200.367126 
" style="fill:none;stroke:#313131;stroke-dasharray:3.375,3.375;stroke-dashoffset:0;stroke-width:1.5;"/>
   </g>
   <g id="line2d_51">
    <path clip-path="url(#p6f5ffd5d18)" d="M 930.168823 201.76641 
L 1049.512427 201.76641 
" style="fill:none;stroke:#313131;stroke-dasharray:3.375,3.375;stroke-dashoffset:0;stroke-width:1.5;"/>
   </g>
   <g id="line2d_52">
    <path clip-path="url(#p6f5ffd5d18)" d="M 923.925606 195.826734 
L 1055.755644 195.826734 
" style="fill:none;stroke:#313131;stroke-dasharray:6.75,6.75;stroke-dashoffset:0;stroke-width:1.5;"/>
   </g>
   <g id="line2d_53">
    <path clip-path="url(#p6f5ffd5d18)" d="M 932.386136 184.343153 
L 1047.295114 184.343153 
" style="fill:none;stroke:#313131;stroke-dasharray:3.375,3.375;stroke-dashoffset:0;stroke-width:1.5;"/>
   </g>
   <g id="line2d_54">
    <path clip-path="url(#p6f5ffd5d18)" d="M 420.680625 372.284 
L 420.680625 46.124 
" style="fill:none;stroke:#808080;stroke-linecap:square;"/>
   </g>
   <g id="line2d_55">
    <path clip-path="url(#p6f5ffd5d18)" d="M 755.480625 372.284 
L 755.480625 46.124 
" style="fill:none;stroke:#808080;stroke-linecap:square;"/>
   </g>
   <g id="line2d_56">
    <path clip-path="url(#p6f5ffd5d18)" d="M 120.699825 204.950081 
L 251.941425 204.950081 
" style="fill:none;stroke:#313131;stroke-linecap:square;stroke-width:1.5;"/>
   </g>
   <g id="line2d_57">
    <defs>
     <path d="M 0 5 
C 1.326016 5 2.597899 4.473168 3.535534 3.535534 
C 4.473168 2.597899 5 1.326016 5 0 
C 5 -1.326016 4.473168 -2.597899 3.535534 -3.535534 
C 2.597899 -4.473168 1.326016 -5 0 -5 
C -1.326016 -5 -2.597899 -4.473168 -3.535534 -3.535534 
C -4.473168 -2.597899 -5 -1.326016 -5 0 
C -5 1.326016 -4.473168 2.597899 -3.535534 3.535534 
C -2.597899 4.473168 -1.326016 5 0 5 
z
" id="mb43453817e" style="stroke:#000000;"/>
    </defs>
    <g clip-path="url(#p6f5ffd5d18)">
     <use style="fill:#ffffff;stroke:#000000;" x="186.320625" xlink:href="#mb43453817e" y="209.934671"/>
    </g>
   </g>
   <g id="line2d_58">
    <path clip-path="url(#p6f5ffd5d18)" d="M 254.619825 208.990505 
L 385.861425 208.990505 
" style="fill:none;stroke:#313131;stroke-linecap:square;stroke-width:1.5;"/>
   </g>
   <g id="line2d_59">
    <g clip-path="url(#p6f5ffd5d18)">
     <use style="fill:#ffffff;stroke:#000000;" x="320.240625" xlink:href="#mb43453817e" y="206.330774"/>
    </g>
   </g>
   <g id="line2d_60">
    <path clip-path="url(#p6f5ffd5d18)" d="M 455.499825 193.584775 
L 586.741425 193.584775 
" style="fill:none;stroke:#313131;stroke-linecap:square;stroke-width:1.5;"/>
   </g>
   <g id="line2d_61">
    <g clip-path="url(#p6f5ffd5d18)">
     <use style="fill:#ffffff;stroke:#000000;" x="521.120625" xlink:href="#mb43453817e" y="196.407922"/>
    </g>
   </g>
   <g id="line2d_62">
    <path clip-path="url(#p6f5ffd5d18)" d="M 589.419825 190.001796 
L 720.661425 190.001796 
" style="fill:none;stroke:#313131;stroke-linecap:square;stroke-width:1.5;"/>
   </g>
   <g id="line2d_63">
    <g clip-path="url(#p6f5ffd5d18)">
     <use style="fill:#ffffff;stroke:#000000;" x="655.040625" xlink:href="#mb43453817e" y="187.487484"/>
    </g>
   </g>
   <g id="line2d_64">
    <path clip-path="url(#p6f5ffd5d18)" d="M 790.299825 207.235 
L 921.541425 207.235 
" style="fill:none;stroke:#313131;stroke-linecap:square;stroke-width:1.5;"/>
   </g>
   <g id="line2d_65">
    <g clip-path="url(#p6f5ffd5d18)">
     <use style="fill:#ffffff;stroke:#000000;" x="855.920625" xlink:href="#mb43453817e" y="209.321291"/>
    </g>
   </g>
   <g id="line2d_66">
    <path clip-path="url(#p6f5ffd5d18)" d="M 924.219825 195.826734 
L 1055.461425 195.826734 
" style="fill:none;stroke:#313131;stroke-linecap:square;stroke-width:1.5;"/>
   </g>
   <g id="line2d_67">
    <g clip-path="url(#p6f5ffd5d18)">
     <use style="fill:#ffffff;stroke:#000000;" x="989.840625" xlink:href="#mb43453817e" y="194.918458"/>
    </g>
   </g>
   <g id="patch_7">
    <path d="M 85.880625 372.284 
L 85.880625 46.124 
" style="fill:none;stroke:#000000;stroke-linecap:square;stroke-linejoin:miter;stroke-width:0.8;"/>
   </g>
   <g id="patch_8">
    <path d="M 1090.280625 372.284 
L 1090.280625 46.124 
" style="fill:none;stroke:#000000;stroke-linecap:square;stroke-linejoin:miter;stroke-width:0.8;"/>
   </g>
   <g id="patch_9">
    <path d="M 85.880625 372.284 
L 1090.280625 372.284 
" style="fill:none;stroke:#000000;stroke-linecap:square;stroke-linejoin:miter;stroke-width:0.8;"/>
   </g>
   <g id="patch_10">
    <path d="M 85.880625 46.124 
L 1090.280625 46.124 
" style="fill:none;stroke:#000000;stroke-linecap:square;stroke-linejoin:miter;stroke-width:0.8;"/>
   </g>
   <g id="text_14">
    <g id="patch_11">
     <path d="M 316.280625 333.393152 
L 381.381563 333.393152 
L 381.381563 308.052527 
L 316.280625 308.052527 
z
" style="fill:#ffffff;opacity:0.5;stroke:#000000;stroke-linejoin:miter;"/>
    </g>
    <!-- 77.8% -->
    <g transform="translate(320.240625 325.689714)scale(0.18 -0.18)">
     <defs>
      <path d="M 684 794 
L 1344 794 
L 1344 0 
L 684 0 
L 684 794 
z
" id="DejaVuSans-2e" transform="scale(0.015625)"/>
     </defs>
     <use xlink:href="#DejaVuSans-37"/>
     <use x="63.623047" xlink:href="#DejaVuSans-37"/>
     <use x="127.246094" xlink:href="#DejaVuSans-2e"/>
     <use x="159.033203" xlink:href="#DejaVuSans-38"/>
     <use x="222.65625" xlink:href="#DejaVuSans-25"/>
    </g>
   </g>
   <g id="text_15">
    <g id="patch_12">
     <path d="M 651.080625 333.393152 
L 716.181563 333.393152 
L 716.181563 308.052527 
L 651.080625 308.052527 
z
" style="fill:#ffffff;opacity:0.5;stroke:#000000;stroke-linejoin:miter;"/>
    </g>
    <!-- 79.8% -->
    <g transform="translate(655.040625 325.689714)scale(0.18 -0.18)">
     <use xlink:href="#DejaVuSans-37"/>
     <use x="63.623047" xlink:href="#DejaVuSans-39"/>
     <use x="127.246094" xlink:href="#DejaVuSans-2e"/>
     <use x="159.033203" xlink:href="#DejaVuSans-38"/>
     <use x="222.65625" xlink:href="#DejaVuSans-25"/>
    </g>
   </g>
   <g id="text_16">
    <g id="patch_13">
     <path d="M 985.880625 333.393152 
L 1050.981563 333.393152 
L 1050.981563 308.052527 
L 985.880625 308.052527 
z
" style="fill:#ffffff;opacity:0.5;stroke:#000000;stroke-linejoin:miter;"/>
    </g>
    <!-- 79.0% -->
    <g transform="translate(989.840625 325.689714)scale(0.18 -0.18)">
     <use xlink:href="#DejaVuSans-37"/>
     <use x="63.623047" xlink:href="#DejaVuSans-39"/>
     <use x="127.246094" xlink:href="#DejaVuSans-2e"/>
     <use x="159.033203" xlink:href="#DejaVuSans-30"/>
     <use x="222.65625" xlink:href="#DejaVuSans-25"/>
    </g>
   </g>
   <g id="text_17">
    <g id="patch_14">
     <path d="M 98.660625 333.393152 
L 163.761563 333.393152 
L 163.761563 308.052527 
L 98.660625 308.052527 
z
" style="fill:#ffffff;opacity:0.5;stroke:#000000;stroke-linejoin:miter;"/>
    </g>
    <!-- 77.4% -->
    <g transform="translate(102.620625 325.689714)scale(0.18 -0.18)">
     <defs>
      <path d="M 2419 4116 
L 825 1625 
L 2419 1625 
L 2419 4116 
z
M 2253 4666 
L 3047 4666 
L 3047 1625 
L 3713 1625 
L 3713 1100 
L 3047 1100 
L 3047 0 
L 2419 0 
L 2419 1100 
L 313 1100 
L 313 1709 
L 2253 4666 
z
" id="DejaVuSans-34" transform="scale(0.015625)"/>
     </defs>
     <use xlink:href="#DejaVuSans-37"/>
     <use x="63.623047" xlink:href="#DejaVuSans-37"/>
     <use x="127.246094" xlink:href="#DejaVuSans-2e"/>
     <use x="159.033203" xlink:href="#DejaVuSans-34"/>
     <use x="222.65625" xlink:href="#DejaVuSans-25"/>
    </g>
   </g>
   <g id="text_18">
    <g id="patch_15">
     <path d="M 433.460625 333.393152 
L 498.561563 333.393152 
L 498.561563 308.052527 
L 433.460625 308.052527 
z
" style="fill:#ffffff;opacity:0.5;stroke:#000000;stroke-linejoin:miter;"/>
    </g>
    <!-- 78.9% -->
    <g transform="translate(437.420625 325.689714)scale(0.18 -0.18)">
     <use xlink:href="#DejaVuSans-37"/>
     <use x="63.623047" xlink:href="#DejaVuSans-38"/>
     <use x="127.246094" xlink:href="#DejaVuSans-2e"/>
     <use x="159.033203" xlink:href="#DejaVuSans-39"/>
     <use x="222.65625" xlink:href="#DejaVuSans-25"/>
    </g>
   </g>
   <g id="text_19">
    <g id="patch_16">
     <path d="M 768.260625 333.393152 
L 833.361563 333.393152 
L 833.361563 308.052527 
L 768.260625 308.052527 
z
" style="fill:#ffffff;opacity:0.5;stroke:#000000;stroke-linejoin:miter;"/>
    </g>
    <!-- 77.5% -->
    <g transform="translate(772.220625 325.689714)scale(0.18 -0.18)">
     <use xlink:href="#DejaVuSans-37"/>
     <use x="63.623047" xlink:href="#DejaVuSans-37"/>
     <use x="127.246094" xlink:href="#DejaVuSans-2e"/>
     <use x="159.033203" xlink:href="#DejaVuSans-35"/>
     <use x="222.65625" xlink:href="#DejaVuSans-25"/>
    </g>
   </g>
   <g id="text_20">
    <g id="patch_17">
     <path d="M 343.064625 100.421723 
L 396.713063 100.421723 
L 396.713063 75.081098 
L 343.064625 75.081098 
z
" style="fill:#808080;opacity:0.5;stroke:#000000;stroke-linejoin:miter;"/>
    </g>
    <!-- 1.8% -->
    <g transform="translate(347.024625 92.718286)scale(0.18 -0.18)">
     <use xlink:href="#DejaVuSans-31"/>
     <use x="63.623047" xlink:href="#DejaVuSans-2e"/>
     <use x="95.410156" xlink:href="#DejaVuSans-38"/>
     <use x="159.033203" xlink:href="#DejaVuSans-25"/>
    </g>
   </g>
   <g id="text_21">
    <g id="patch_18">
     <path d="M 677.864625 100.421723 
L 731.513063 100.421723 
L 731.513063 75.081098 
L 677.864625 75.081098 
z
" style="fill:#808080;opacity:0.5;stroke:#000000;stroke-linejoin:miter;"/>
    </g>
    <!-- 1.8% -->
    <g transform="translate(681.824625 92.718286)scale(0.18 -0.18)">
     <use xlink:href="#DejaVuSans-31"/>
     <use x="63.623047" xlink:href="#DejaVuSans-2e"/>
     <use x="95.410156" xlink:href="#DejaVuSans-38"/>
     <use x="159.033203" xlink:href="#DejaVuSans-25"/>
    </g>
   </g>
   <g id="text_22">
    <g id="patch_19">
     <path d="M 1012.664625 100.421723 
L 1066.313063 100.421723 
L 1066.313063 75.081098 
L 1012.664625 75.081098 
z
" style="fill:#808080;opacity:0.5;stroke:#000000;stroke-linejoin:miter;"/>
    </g>
    <!-- 1.2% -->
    <g transform="translate(1016.624625 92.718286)scale(0.18 -0.18)">
     <defs>
      <path d="M 1228 531 
L 3431 531 
L 3431 0 
L 469 0 
L 469 531 
Q 828 903 1448 1529 
Q 2069 2156 2228 2338 
Q 2531 2678 2651 2914 
Q 2772 3150 2772 3378 
Q 2772 3750 2511 3984 
Q 2250 4219 1831 4219 
Q 1534 4219 1204 4116 
Q 875 4013 500 3803 
L 500 4441 
Q 881 4594 1212 4672 
Q 1544 4750 1819 4750 
Q 2544 4750 2975 4387 
Q 3406 4025 3406 3419 
Q 3406 3131 3298 2873 
Q 3191 2616 2906 2266 
Q 2828 2175 2409 1742 
Q 1991 1309 1228 531 
z
" id="DejaVuSans-32" transform="scale(0.015625)"/>
     </defs>
     <use xlink:href="#DejaVuSans-31"/>
     <use x="63.623047" xlink:href="#DejaVuSans-2e"/>
     <use x="95.410156" xlink:href="#DejaVuSans-32"/>
     <use x="159.033203" xlink:href="#DejaVuSans-25"/>
    </g>
   </g>
   <g id="text_23">
    <g id="patch_20">
     <path d="M 98.660625 100.421723 
L 152.309063 100.421723 
L 152.309063 75.081098 
L 98.660625 75.081098 
z
" style="fill:#808080;opacity:0.5;stroke:#000000;stroke-linejoin:miter;"/>
    </g>
    <!-- 1.9% -->
    <g transform="translate(102.620625 92.718286)scale(0.18 -0.18)">
     <use xlink:href="#DejaVuSans-31"/>
     <use x="63.623047" xlink:href="#DejaVuSans-2e"/>
     <use x="95.410156" xlink:href="#DejaVuSans-39"/>
     <use x="159.033203" xlink:href="#DejaVuSans-25"/>
    </g>
   </g>
   <g id="text_24">
    <g id="patch_21">
     <path d="M 433.460625 100.421723 
L 487.109063 100.421723 
L 487.109063 75.081098 
L 433.460625 75.081098 
z
" style="fill:#808080;opacity:0.5;stroke:#000000;stroke-linejoin:miter;"/>
    </g>
    <!-- 1.7% -->
    <g transform="translate(437.420625 92.718286)scale(0.18 -0.18)">
     <use xlink:href="#DejaVuSans-31"/>
     <use x="63.623047" xlink:href="#DejaVuSans-2e"/>
     <use x="95.410156" xlink:href="#DejaVuSans-37"/>
     <use x="159.033203" xlink:href="#DejaVuSans-25"/>
    </g>
   </g>
   <g id="text_25">
    <g id="patch_22">
     <path d="M 768.260625 100.421723 
L 821.909063 100.421723 
L 821.909063 75.081098 
L 768.260625 75.081098 
z
" style="fill:#808080;opacity:0.5;stroke:#000000;stroke-linejoin:miter;"/>
    </g>
    <!-- 1.3% -->
    <g transform="translate(772.220625 92.718286)scale(0.18 -0.18)">
     <defs>
      <path d="M 2597 2516 
Q 3050 2419 3304 2112 
Q 3559 1806 3559 1356 
Q 3559 666 3084 287 
Q 2609 -91 1734 -91 
Q 1441 -91 1130 -33 
Q 819 25 488 141 
L 488 750 
Q 750 597 1062 519 
Q 1375 441 1716 441 
Q 2309 441 2620 675 
Q 2931 909 2931 1356 
Q 2931 1769 2642 2001 
Q 2353 2234 1838 2234 
L 1294 2234 
L 1294 2753 
L 1863 2753 
Q 2328 2753 2575 2939 
Q 2822 3125 2822 3475 
Q 2822 3834 2567 4026 
Q 2313 4219 1838 4219 
Q 1578 4219 1281 4162 
Q 984 4106 628 3988 
L 628 4550 
Q 988 4650 1302 4700 
Q 1616 4750 1894 4750 
Q 2613 4750 3031 4423 
Q 3450 4097 3450 3541 
Q 3450 3153 3228 2886 
Q 3006 2619 2597 2516 
z
" id="DejaVuSans-33" transform="scale(0.015625)"/>
     </defs>
     <use xlink:href="#DejaVuSans-31"/>
     <use x="63.623047" xlink:href="#DejaVuSans-2e"/>
     <use x="95.410156" xlink:href="#DejaVuSans-33"/>
     <use x="159.033203" xlink:href="#DejaVuSans-25"/>
    </g>
   </g>
   <g id="legend_1">
    <g id="patch_23">
     <path d="M 91.836625 44.55625 
L 449.511625 44.55625 
Q 453.511625 44.55625 453.511625 40.55625 
L 453.511625 13.2 
Q 453.511625 9.2 449.511625 9.2 
L 91.836625 9.2 
Q 87.836625 9.2 87.836625 13.2 
L 87.836625 40.55625 
Q 87.836625 44.55625 91.836625 44.55625 
z
" style="fill:#4c4c4c;opacity:0.5;stroke:#4c4c4c;stroke-linejoin:miter;"/>
    </g>
    <g id="patch_24">
     <path d="M 89.836625 42.55625 
L 447.511625 42.55625 
Q 451.511625 42.55625 451.511625 38.55625 
L 451.511625 11.2 
Q 451.511625 7.2 447.511625 7.2 
L 89.836625 7.2 
Q 85.836625 7.2 85.836625 11.2 
L 85.836625 38.55625 
Q 85.836625 42.55625 89.836625 42.55625 
z
" style="fill:#ffffff;stroke:#cccccc;stroke-linejoin:miter;"/>
    </g>
    <g id="patch_25">
     <path d="M 93.836625 30.396875 
L 133.836625 30.396875 
L 133.836625 16.396875 
L 93.836625 16.396875 
z
" style="fill:#772b58;stroke:#313131;stroke-linejoin:miter;stroke-width:0.75;"/>
    </g>
    <g id="text_26">
     <!-- Baseline -->
     <g transform="translate(149.836625 30.396875)scale(0.2 -0.2)">
      <defs>
       <path d="M 1259 2228 
L 1259 519 
L 2272 519 
Q 2781 519 3026 730 
Q 3272 941 3272 1375 
Q 3272 1813 3026 2020 
Q 2781 2228 2272 2228 
L 1259 2228 
z
M 1259 4147 
L 1259 2741 
L 2194 2741 
Q 2656 2741 2882 2914 
Q 3109 3088 3109 3444 
Q 3109 3797 2882 3972 
Q 2656 4147 2194 4147 
L 1259 4147 
z
M 628 4666 
L 2241 4666 
Q 2963 4666 3353 4366 
Q 3744 4066 3744 3513 
Q 3744 3084 3544 2831 
Q 3344 2578 2956 2516 
Q 3422 2416 3680 2098 
Q 3938 1781 3938 1306 
Q 3938 681 3513 340 
Q 3088 0 2303 0 
L 628 0 
L 628 4666 
z
" id="DejaVuSans-42" transform="scale(0.015625)"/>
       <path d="M 603 4863 
L 1178 4863 
L 1178 0 
L 603 0 
L 603 4863 
z
" id="DejaVuSans-6c" transform="scale(0.015625)"/>
      </defs>
      <use xlink:href="#DejaVuSans-42"/>
      <use x="68.603516" xlink:href="#DejaVuSans-61"/>
      <use x="129.882812" xlink:href="#DejaVuSans-73"/>
      <use x="181.982422" xlink:href="#DejaVuSans-65"/>
      <use x="243.505859" xlink:href="#DejaVuSans-6c"/>
      <use x="271.289062" xlink:href="#DejaVuSans-69"/>
      <use x="299.072266" xlink:href="#DejaVuSans-6e"/>
      <use x="362.451172" xlink:href="#DejaVuSans-65"/>
     </g>
    </g>
    <g id="patch_26">
     <path d="M 274.6335 30.396875 
L 314.6335 30.396875 
L 314.6335 16.396875 
L 274.6335 16.396875 
z
" style="fill:#db6e59;stroke:#313131;stroke-linejoin:miter;stroke-width:0.75;"/>
    </g>
    <g id="text_27">
     <!-- 2D-uniform -->
     <g transform="translate(330.6335 30.396875)scale(0.2 -0.2)">
      <defs>
       <path d="M 1259 4147 
L 1259 519 
L 2022 519 
Q 2988 519 3436 956 
Q 3884 1394 3884 2338 
Q 3884 3275 3436 3711 
Q 2988 4147 2022 4147 
L 1259 4147 
z
M 628 4666 
L 1925 4666 
Q 3281 4666 3915 4102 
Q 4550 3538 4550 2338 
Q 4550 1131 3912 565 
Q 3275 0 1925 0 
L 628 0 
L 628 4666 
z
" id="DejaVuSans-44" transform="scale(0.015625)"/>
       <path d="M 313 2009 
L 1997 2009 
L 1997 1497 
L 313 1497 
L 313 2009 
z
" id="DejaVuSans-2d" transform="scale(0.015625)"/>
      </defs>
      <use xlink:href="#DejaVuSans-32"/>
      <use x="63.623047" xlink:href="#DejaVuSans-44"/>
      <use x="140.625" xlink:href="#DejaVuSans-2d"/>
      <use x="176.708984" xlink:href="#DejaVuSans-75"/>
      <use x="240.087891" xlink:href="#DejaVuSans-6e"/>
      <use x="303.466797" xlink:href="#DejaVuSans-69"/>
      <use x="331.25" xlink:href="#DejaVuSans-66"/>
      <use x="366.455078" xlink:href="#DejaVuSans-6f"/>
      <use x="427.636719" xlink:href="#DejaVuSans-72"/>
      <use x="467" xlink:href="#DejaVuSans-6d"/>
     </g>
    </g>
   </g>
  </g>
 </g>
 <defs>
  <clipPath id="p6f5ffd5d18">
   <rect height="326.16" width="1004.4" x="85.880625" y="46.124"/>
  </clipPath>
 </defs>
</svg>
